<?xml version="1.0" encoding="utf-8"?>
<!-- Generator: Adobe Illustrator 19.1.1, SVG Export Plug-In . SVG Version: 6.00 Build 0)  -->
<svg version="1.1" id="Layer_1" xmlns="http://www.w3.org/2000/svg" xmlns:xlink="http://www.w3.org/1999/xlink" x="0px" y="0px"
	 viewBox="0 0 200 200" style="enable-background:new 0 0 200 200;" xml:space="preserve">
<style type="text/css">
	.st0{fill:#FCC328;}
	.st1{clip-path:url(#SVGID_2_);}
	.st2{fill:#232021;}
	.st3{clip-path:url(#SVGID_4_);}
	.st4{fill-rule:evenodd;clip-rule:evenodd;fill:#232021;}
</style>
<g>
	<path class="st0" d="M103.4,120.3c31.5,0,61.6,1.3,89.3,3.6V75.8c-28.3,2.4-59.1,3.7-91.3,3.7c-33.3,0-65.1-1.4-94.2-4v48.9
		C36.9,121.8,69.3,120.3,103.4,120.3L103.4,120.3z"/>
	<g>
		<defs>
			<rect id="SVGID_1_" x="6.2" y="74.4" width="187.5" height="51.2"/>
		</defs>
		<clipPath id="SVGID_2_">
			<use xlink:href="#SVGID_1_"  style="overflow:visible;"/>
		</clipPath>
		<g class="st1">
			<path class="st2" d="M6.2,125.6V74.4l1.1,0.1c29.9,2.6,61.6,4,94.1,4c31.5,0,62.2-1.3,91.2-3.7l1.1-0.1V125l-1.1-0.1
				c-28.5-2.4-58.5-3.6-89.2-3.6c-33.3,0-65.6,1.4-96.1,4.2L6.2,125.6z M8.3,76.6v46.7c30.2-2.7,62.2-4.1,95.1-4.1
				c30.4,0,60.1,1.2,88.3,3.5V76.9c-28.8,2.4-59.2,3.6-90.3,3.6C69.3,80.5,37.9,79.2,8.3,76.6z"/>
		</g>
	</g>
	<path class="st2" d="M31,103.1v-1h2.5v-0.8h-4.2l0-0.4c0-0.6-0.1-1-0.1-1.4h7.2c0,0.3,0,0.5,0,0.5l-0.1,2.5c0,0.6,0,1.2,0,1.9
		c0,1.5,0,2.9,0.1,4.1H31v-1h2.5v-0.8H31v-1h2.5v-0.8H31v-1h2.5v-0.8H31L31,103.1z M25.4,88.8v21.7c-1.6-0.3-3.1-1.4-4.4-3.1h1v-0.8
		h-1.5l-0.1-0.1c-0.2-0.3-0.3-0.6-0.4-0.8l-0.1-0.1H22v-0.8h-2.4c-0.1-0.3-0.3-0.7-0.3-1H22v-0.8h-3c-0.1-0.3-0.1-0.6-0.2-0.9l0-0.1
		H22v-0.8h-3.3c0-0.3-0.1-0.6-0.1-1H22v-0.8h-3.4c0-0.3,0-0.7,0.1-0.9l0-0.1H22v-0.8h-3.2c0.1-0.4,0.1-0.7,0.2-0.9l0-0.1h3v-0.8
		h-2.7c0-0.2,0.2-0.5,0.3-0.9l0-0.1H22v-0.8h-2c0.2-0.3,0.3-0.7,0.6-1H22v-0.8h-1c0.2-0.3,0.6-0.7,1-1.1v-0.7h-2.2
		c2.2-2.6,4.9-3.9,8.1-3.9c0.9,0,1.9,0.1,2.8,0.4c0.9,0.2,1.8,0.6,2.7,1.1c0.9,0.5,1.7,1.1,2.4,1.7l-1,2.8c-1-1.3-2-2.4-3.3-3.1
		c-1.3-0.7-2.6-1-4.1-1C26.8,88.5,26.1,88.6,25.4,88.8L25.4,88.8z M30.4,109.2h6c0,0.5,0.1,1.1,0.1,1.8c-0.1,0-0.2,0-0.3,0
		c-0.6,0-1.4,0.2-2.5,0.6l-1.4,0.6c-1.6,0.6-3.2,0.9-4.7,0.9c-1.1,0-2.1-0.1-3-0.4c-0.9-0.3-1.7-0.7-2.6-1.3
		c-0.8-0.6-1.5-1.3-2.2-2.2c-0.6-0.8-1.2-1.7-1.7-2.7c-0.5-1-0.8-2.1-1.1-3.2c-0.2-1.1-0.4-2.2-0.4-3.4c0-1.5,0.2-3,0.6-4.5
		c0.4-1.4,1-2.8,1.9-4.1h1.9c-1,1.1-1.7,2.4-2.3,3.9c-0.5,1.5-0.8,3.1-0.8,4.7c0,2,0.4,3.9,1.3,5.7c0.9,1.8,2,3.3,3.4,4.3
		c1.2,0.9,2.8,1.4,4.5,1.4c0.6,0,1.2-0.1,1.9-0.3c0.1-1.9,0.2-4,0.2-6.2c0-0.9,0-1.9-0.1-3h1.1V109.2L30.4,109.2z"/>
	<path class="st2" d="M42.3,108.4h0.8v-0.6h-1.2l-0.1-0.1c-0.2-0.3-0.3-0.5-0.4-0.7l0-0.1h1.7v-0.6h-2c-0.1-0.3-0.2-0.6-0.3-0.8h2.3
		v-0.6h-2.4c-0.1-0.2-0.1-0.5-0.2-0.7l0-0.1h2.6v-0.6h-2.7c0-0.2-0.1-0.5-0.1-0.8h2.8v-0.6h-2.8c0-0.3,0-0.5,0-0.8l0-0.1h2.7v-0.6
		h-2.6c0-0.3,0.1-0.5,0.2-0.7l0-0.1h2.4v-0.6h-2.2c0-0.1,0.1-0.4,0.3-0.7l0-0.1h1.9v-0.6h-1.7c0.1-0.3,0.3-0.6,0.5-0.8h1.2V96h-0.8
		c0.2-0.3,0.5-0.5,0.8-0.9v-0.6h-1.8c1.8-2.1,3.9-3.1,6.3-3.1c1.3,0,2.4,0.3,3.5,0.8c1.1,0.5,2.1,1.3,2.9,2.3c0.8,1,1.5,2.1,1.9,3.5
		c0.4,1.3,0.7,2.7,0.7,4.2c0,2.6-0.7,5-2.1,7H51v-0.8h1.5c0.1-0.2,0.1-0.4,0.3-0.6H51v-0.8h2c0-0.1,0.1-0.2,0.1-0.3
		c0-0.1,0-0.2,0.1-0.2l0-0.1H51v-0.8h2.3c0-0.1,0-0.1,0-0.2c0-0.1,0-0.2,0-0.3l0-0.1H51V104h2.5v-0.1c0-0.2,0-0.4,0-0.5H51v-0.8h2.6
		V102v-0.2H51V101h2.5c0-0.1,0-0.1,0-0.2c0-0.1,0-0.2,0-0.3l0-0.2H51v-0.8h2.4l0-0.1c0,0,0-0.2,0-0.4l0-0.1H51v-0.8h2.2
		c0-0.1,0-0.1,0-0.1l-0.1-0.4c0,0,0,0,0-0.1h-2v-0.8h1.8c-0.1-0.2-0.2-0.4-0.3-0.6H51v-0.8h1c-0.2-0.3-0.3-0.5-0.5-0.6H51V94
		c-0.5-0.4-1-0.7-1.6-0.9c-0.6-0.2-1.3-0.3-1.9-0.3c-0.5,0-1,0.1-1.5,0.2v18C44.6,110.6,43.4,109.8,42.3,108.4L42.3,108.4z
		 M50.5,109.8h3.6c-0.6,0.7-1.2,1.3-1.8,1.8c-0.7,0.5-1.4,0.8-2.1,1.1c-0.8,0.2-1.6,0.4-2.4,0.4c-1.2,0-2.3-0.2-3.3-0.7
		c-1-0.5-2-1.2-2.8-2.2c-0.9-1-1.6-2.2-2-3.6c-0.5-1.4-0.7-2.8-0.7-4.3c0-1.3,0.2-2.5,0.5-3.7c0.3-1.2,0.9-2.3,1.5-3.4h1.5
		c-0.8,0.9-1.4,2-1.9,3.2c-0.4,1.2-0.6,2.5-0.6,3.9c0,0.8,0.1,1.7,0.3,2.5c0.2,0.9,0.5,1.6,0.9,2.4c0.4,0.7,0.8,1.4,1.3,2.1
		c1.4,1.6,3.1,2.4,5.2,2.4c0.6,0,1.3-0.1,1.9-0.2V93.7c0.3,0.1,0.7,0.3,1,0.6V109.8L50.5,109.8z"/>
	<path class="st2" d="M61.9,108.4h0.8v-0.6h-1.2l-0.1-0.1c-0.1-0.3-0.3-0.5-0.4-0.7l0-0.1h1.7v-0.6h-2c-0.1-0.3-0.2-0.6-0.3-0.8h2.3
		v-0.6h-2.4c-0.1-0.2-0.1-0.5-0.2-0.7l0-0.1h2.6v-0.6H60c0-0.2-0.1-0.5-0.1-0.8h2.8v-0.6H60c0-0.3,0-0.5,0-0.8l0-0.1h2.7v-0.6h-2.6
		c0-0.3,0.1-0.5,0.2-0.7l0-0.1h2.4v-0.6h-2.2c0-0.1,0.1-0.4,0.3-0.7l0-0.1h2v-0.6H61c0.1-0.3,0.3-0.6,0.5-0.8h1.2V96h-0.8
		c0.2-0.3,0.5-0.5,0.8-0.9v-0.6h-1.8c1.8-2.1,3.9-3.1,6.3-3.1c1.3,0,2.4,0.3,3.5,0.8c1.1,0.5,2.1,1.3,2.9,2.3c0.8,1,1.5,2.1,1.9,3.5
		c0.4,1.3,0.7,2.7,0.7,4.2c0,2.6-0.7,5-2.1,7h-3.6v-0.8h1.5c0.1-0.2,0.1-0.4,0.2-0.6h-1.7v-0.8h2c0-0.1,0.1-0.2,0.1-0.3
		c0-0.1,0-0.2,0.1-0.2l0-0.1h-2.1v-0.8h2.3c0-0.1,0-0.1,0-0.2c0-0.1,0-0.2,0-0.3l0-0.1h-2.4V104h2.5v-0.1c0-0.2,0-0.4,0-0.5h-2.5
		v-0.8h2.6V102v-0.2h-2.6V101h2.5c0-0.1,0-0.1,0-0.2c0-0.1,0-0.2,0-0.3l0-0.2h-2.5v-0.8H73l0-0.1c0,0,0-0.2,0-0.4l0-0.1h-2.3v-0.8
		h2.2c0-0.1,0-0.1,0-0.1l-0.1-0.4c0,0,0,0,0-0.1h-2v-0.8h1.8c-0.1-0.2-0.2-0.4-0.3-0.6h-1.5v-0.8h1c-0.2-0.3-0.3-0.5-0.5-0.6h-0.6
		V94c-0.5-0.4-1-0.7-1.6-0.9c-0.6-0.2-1.3-0.3-1.9-0.3c-0.5,0-1,0.1-1.5,0.2v18C64.2,110.6,63,109.8,61.9,108.4L61.9,108.4z
		 M70.1,109.8h3.6c-0.6,0.7-1.2,1.3-1.8,1.8c-0.7,0.5-1.4,0.8-2.1,1.1c-0.8,0.2-1.6,0.4-2.4,0.4c-1.2,0-2.3-0.2-3.3-0.7
		c-1-0.5-2-1.2-2.8-2.2c-0.9-1-1.6-2.2-2-3.6c-0.5-1.4-0.7-2.8-0.7-4.3c0-1.3,0.2-2.5,0.5-3.7c0.3-1.2,0.9-2.3,1.5-3.4H62
		c-0.8,0.9-1.4,2-1.9,3.2c-0.4,1.2-0.6,2.5-0.6,3.9c0,0.8,0.1,1.7,0.3,2.5c0.2,0.9,0.5,1.6,0.9,2.4c0.4,0.7,0.8,1.4,1.3,2.1
		c1.4,1.6,3.1,2.4,5.2,2.4c0.6,0,1.3-0.1,1.9-0.2V93.7c0.3,0.1,0.7,0.3,1,0.6V109.8L70.1,109.8z"/>
	<path class="st2" d="M78.3,112.6l0-0.3c0.1-1.2,0.2-2.7,0.2-4.5c0.1-1.8,0.1-3.7,0.1-5.8c0-2.5-0.1-5.1-0.2-7.8l0-0.5h1.1v17.6h7.1
		c0.6,0,1,0,1.2-0.1V93.8c0.3,0.1,0.7,0.2,1,0.4v15.6h3.8c-0.6,0.7-1.2,1.3-1.7,1.7c-0.5,0.4-1.1,0.7-1.7,0.8
		c-0.6,0.1-1.4,0.2-2.4,0.2H78.3L78.3,112.6z M78.3,91.8h8c1.3,0,2.3,0.1,3,0.3c0.8,0.2,1.6,0.7,2.3,1.3c0.7,0.6,1.3,1.4,1.8,2.3
		c0.5,0.9,0.9,1.9,1.2,3c0.3,1.1,0.4,2.2,0.4,3.5c0,1.3-0.2,2.6-0.5,3.7c-0.3,1.1-0.8,2.2-1.5,3.4h-3.8v-0.8H91
		c0-0.1,0.1-0.2,0.1-0.2c0-0.1,0-0.1,0.1-0.2l0-0.1c0,0,0-0.1,0-0.1h-1.9v-0.8h2.2c0.1-0.3,0.1-0.5,0.1-0.6h-2.3v-0.8h2.5
		c0-0.1,0-0.1,0-0.2c0-0.1,0-0.2,0-0.3l0-0.1h-2.5V104h2.6l0-0.1c0-0.1,0-0.2,0-0.3c0-0.1,0-0.2,0-0.2h-2.7v-0.8H92v-0.2v-0.5h-2.7
		V101h2.7l0-0.1c0-0.3,0-0.5,0-0.5h-2.6v-0.8h2.5l0-0.1c0-0.3-0.1-0.5-0.1-0.5h-2.5v-0.8h2.3c0-0.1-0.1-0.3-0.1-0.5c0,0,0,0,0-0.1
		h-2.2v-0.8h2c-0.1-0.2-0.2-0.5-0.2-0.6h-1.7v-0.8h1.3c-0.2-0.3-0.4-0.5-0.5-0.6h-0.8v-0.7c-0.5-0.3-0.9-0.5-1.4-0.6
		c-0.5-0.1-1.2-0.2-2.2-0.2h-0.8v17.6H80v-0.8h2.1v-0.6H80v-0.8h2.1v-0.6H80v-0.8h2.1v-0.6H80v-0.8h2.1v-0.6H80V104h2.1v-0.6H80
		v-0.8h2.1v-0.6H80V101h2.1v-0.6H80v-0.8h2.1v-0.6H80v-0.8h2.1v-0.6H80v-0.8h2.1V96H80v-0.8h2.1v-0.6H80v-0.8h2.1v-0.6h-3.7
		c0-0.2,0-0.5,0-0.9C78.3,92.1,78.3,91.9,78.3,91.8L78.3,91.8z"/>
	<path class="st2" d="M109,89.8c0.4-0.1,0.8-0.1,1.3-0.1V111h6.7c0,0.3,0,0.8,0.1,1.5h-8.2l0-0.4c0.1-1.4,0.2-3.2,0.3-5.6
		c0-0.6,0-1.1,0.1-1.7c0-0.6,0-1.1,0-1.7c0-0.8,0-1.6,0-2.3l-0.1-5.9C109.2,92.4,109.1,90.7,109,89.8L109,89.8z M117,89.1v0.1
		c-0.2,3.7-0.3,7.3-0.3,10.8c0,3.5,0.1,6.7,0.2,9.5l0,0.7h-6v-1h2.6v-0.8h-2.6v-1h2.6v-0.8h-2.6v-1h2.6v-0.8h-2.6v-1h2.6v-0.8h-2.6
		v-1h2.6v-0.8h-2.6v-1h2.6v-0.8h-2.6v-1h2.6v-0.8h-2.6v-1h2.6v-0.8h-2.6v-1h2.6v-0.8h-2.6v-1h2.6v-0.8h-2.6v-1h2.6v-0.8h-2.6v-0.9
		l0.3,0c0.9-0.1,1.5-0.1,2-0.1h0.3v-0.8c-1.6,0-3.3,0.2-5,0.4c-1.7,0.3-3.3,0.6-5,1.1l-0.4,0.1l0.5-3.2h18.6l0.5,3.2
		c-1.6-0.5-3.5-1-5.7-1.3L117,89.1L117,89.1z"/>
	<path class="st2" d="M124.1,112.6l0-0.3c0.1-1.2,0.2-2.7,0.2-4.5c0.1-1.8,0.1-3.7,0.1-5.8c0-2.5-0.1-5.1-0.2-7.8l0-0.5h1.1v17.6
		h5.5c0,0.4,0,0.8,0.1,1.3H124.1L124.1,112.6z M127.9,93.7v-0.6h-3.7c0-0.2,0-0.5,0-0.9c0-0.1,0-0.3,0-0.4h6.7l0,0.4
		c-0.2,2.8-0.3,6.2-0.3,10.2c0,2.6,0.1,5.2,0.2,7.7l0,0.5h-4.9v-0.8h2.1v-0.6h-2.1v-0.8h2.1v-0.6h-2.1v-0.8h2.1v-0.6h-2.1v-0.8h2.1
		v-0.6h-2.1V104h2.1v-0.6h-2.1v-0.8h2.1v-0.6h-2.1V101h2.1v-0.6h-2.1v-0.8h2.1v-0.6h-2.1v-0.8h2.1v-0.6h-2.1v-0.8h2.1V96h-2.1v-0.8
		h2.1v-0.6h-2.1v-0.8H127.9L127.9,93.7z"/>
	<path class="st2" d="M148.7,109.2h-2.1l-0.1-0.8h2.1l-0.1-0.6h-2.1l-0.1-0.8h2.1l-0.1-0.6h-2.1l-0.1-0.8h2.1l-0.1-0.6h-2.1
		l-0.1-0.8h2.1l-0.1-0.6h-2.1l-0.1-0.8h2.1l-0.1-0.6h-2.1l-0.1-0.8h2.1l-0.1-0.6h-2.1l-0.1-0.8h2.1l-1-5.9l0.2-0.4
		c0.3-0.7,0.5-1.2,0.6-1.5h1.9l0.1,0.5c0.3,2.6,0.6,4.7,0.9,6.3c0.6,3.9,1.3,7.7,2.1,11.4l0.1,0.6h-5.1l-0.1-0.8h2.1L148.7,109.2
		L148.7,109.2z M140.3,102.7l-0.3-0.6l-1.2,2.5l-0.4-0.7l1.2-2.5l-0.3-0.6l-1.2,2.5l-0.4-0.8l1.2-2.5l-0.3-0.6l-1.2,2.5l-0.4-0.7
		l1.3-2.5l-0.3-0.6l-1.2,2.5l-0.4-0.7l1.3-2.5l-2.1-4l0-0.3l0.1-0.9l0-0.4h2l0.2,0.4c0.6,1.3,1.4,2.7,2.3,4.3l1,1.9
		c0.6,1,1,1.9,1.5,2.5c0,0.1,0.1,0.2,0.2,0.3c0.3-0.5,0.6-1,0.8-1.7c0.2-0.3,0.4-0.9,0.8-1.6c0.1-0.2,0.2-0.4,0.3-0.6
		c0.1-0.3,0.2-0.4,0.2-0.5l0.8-1.9c0,0,0.1-0.2,0.2-0.4l0.7,4.4h-2l2,12.4h5.6l0.1,0.3c0.1,0.4,0.1,0.7,0.2,0.8l0.1,0.2h-6.9
		c0-0.5-0.1-1.1-0.2-1.8c0-0.2-0.1-0.5-0.1-0.8c0-0.3-0.1-0.6-0.1-1.1c-0.2-1.9-0.4-3.3-0.5-4.1c-0.1-1.1-0.3-2-0.4-2.8
		c-0.2,0.5-0.6,1.3-1.2,2.5l-1,2.1l-0.8,1.8l-0.2,0.4l-0.5-1l1.2-2.4l-0.3-0.6l-1.2,2.5l-0.4-0.8l1.2-2.4l-0.3-0.6l-1.2,2.4
		l-0.4-0.7L140.3,102.7L140.3,102.7z M134.3,112.6H132l0.1-0.4c0.7-2.9,1.2-5.8,1.7-8.6c0.2-1.3,0.4-2.3,0.5-3
		c0.1-0.8,0.3-1.7,0.4-2.7c0.1-1,0.3-2,0.4-2.8l0.1-0.6l1.7,3.1l-1.2,2.5l5.1,9.5c-0.1,0.2-0.1,0.3-0.2,0.4
		c-0.1,0.3-0.3,0.7-0.5,1.1c-0.4-0.9-0.9-2-1.5-3.1l-1.6-3.2c-0.7-1.3-1.1-2.1-1.4-2.6l-0.1,0.5c-0.3,1.9-0.6,4-0.9,6.5
		C134.5,110.3,134.4,111.4,134.3,112.6L134.3,112.6z"/>
	<path class="st2" d="M153.6,112.6l0-0.3c0.1-1.2,0.2-2.7,0.2-4.5c0.1-1.8,0.1-3.7,0.1-5.8c0-2.5-0.1-5.1-0.2-7.8l0-0.5h1.1v17.6
		h2.5c1.3,0,2.4,0,3.5-0.1c1-0.1,2-0.2,2.9-0.4c0.9-0.2,1.8-0.5,2.7-0.8l-0.5,2.6H153.6L153.6,112.6z M160.3,93.3v0.1
		c-0.1,3-0.2,5.1-0.2,6.5v0.1h5.3v1.8H160v0.2c0,0.4,0,0.7,0,1.1c0,0.3,0,0.8,0,1.5c0,1.6,0.1,3.5,0.2,5.5l0,0.5h-4.9v-0.8h2.1v-0.6
		h-2.1v-0.8h2.1v-0.6h-2.1v-0.8h2.1v-0.6h-2.1v-0.8h2.1v-0.6h-2.1V104h2.1v-0.6h-2.1v-0.8h2.1v-0.6h-2.1V101h2.1v-0.6h-2.1v-0.8h2.1
		v-0.6h-2.1v-0.8h2.1v-0.6h-2.1v-0.8h2.1V96h-2.1v-0.8h2.1v-0.6h-2.1v-0.8h2.1v-0.6h-3.7c0-0.2,0-0.5,0-0.9c0-0.1,0-0.3,0-0.4h11.9
		l0.5,2.6c-0.8-0.2-1.7-0.5-2.9-0.7C161.9,93.5,161,93.3,160.3,93.3L160.3,93.3L160.3,93.3z"/>
	<path class="st2" d="M180.6,93.6l-0.9,2.3c-1.6-2.1-3.5-3.1-5.6-3.1c-1,0-2,0.3-2.8,0.8c-0.8,0.5-1.5,1.2-2,2.1
		c-0.5,0.9-0.7,1.9-0.7,3.1c0,1.1,0.2,2.1,0.7,2.8c0.5,0.7,1.3,1.4,2.4,2l7.4,3.9c-0.2,0.4-0.4,0.8-0.6,1.1l-6.7-3.5
		c-0.8-0.4-1.5-0.8-1.9-1.1c-0.4-0.3-0.8-0.7-1.1-1c-0.3-0.4-0.5-0.8-0.7-1.2c-0.2-0.4-0.3-0.9-0.4-1.3c-0.1-0.5-0.1-1-0.1-1.6
		c0-1.4,0.3-2.7,0.9-3.9c0.6-1.2,1.4-2.1,2.5-2.7c1.1-0.6,2.3-1,3.6-1c0.5,0,1,0.1,1.5,0.2c0.5,0.1,1,0.2,1.5,0.4
		c0.5,0.2,1,0.4,1.5,0.8C179.7,93,180.2,93.3,180.6,93.6L180.6,93.6z M176.9,105.7l1.1-2.2l-0.5-0.2l-1.1,2.2l-0.6-0.3l1.1-2.2
		l-0.5-0.2l-1.1,2.2l-0.6-0.3l1.1-2.2l-0.5-0.2l-1.1,2.2l-0.6-0.3l1.1-2.2l-0.5-0.2l-1.1,2.2l-0.6-0.3l1.1-2.2l-0.5-0.2l-1.1,2.2
		c-0.1,0-0.1-0.1-0.2-0.1c0,0-0.1,0-0.1-0.1c-0.1-0.1-0.2-0.1-0.2-0.1c0,0-0.1,0-0.1,0l1.1-2.2l-0.5-0.2l-1.1,2.1
		c-0.1-0.1-0.3-0.2-0.5-0.4l-0.1-0.1l1.1-2l-0.5-0.2l-1,1.9c-0.2-0.2-0.3-0.4-0.4-0.7l0.8-1.5l-0.5-0.2l-0.6,1.2
		c-0.2-0.5-0.2-1.1-0.2-1.7c0-0.6,0.1-1.2,0.2-1.7c0.1-0.5,0.4-1,0.7-1.6l6.8,3.6l1,0.5c0.8,0.4,1.4,0.9,1.8,1.4
		c0.5,0.5,0.8,1.1,1,1.8c0.2,0.7,0.3,1.5,0.3,2.4c0,2.1-0.7,3.9-2,5.5c-1.3,1.5-3,2.3-5.1,2.3c-1.2,0-2.4-0.2-3.6-0.7
		c-1.2-0.5-2.3-1.2-3.2-2.1l0.9-2.5c0.5,0.7,1.1,1.4,1.8,2c0.7,0.6,1.5,1,2.3,1.4c0.8,0.3,1.6,0.5,2.3,0.5c1.8,0,3.3-0.9,4.4-2.7
		c0.7-1.1,1-2.3,1-3.8c0-0.1,0-0.2,0-0.5l-0.5-0.2c0,0.2,0,0.4,0,0.7c0,0.6-0.1,1.3-0.3,2l-1.4-0.7l1.2-2.2l-0.5-0.2l-1.1,2.2
		L176.9,105.7L176.9,105.7z"/>
	<path class="st2" d="M183.2,111.3h0.2c0.2,0,0.4-0.1,0.4-0.3c0-0.2-0.1-0.3-0.4-0.3c-0.1,0-0.2,0-0.2,0V111.3L183.2,111.3z
		 M183.2,112.4h-0.4v-1.9c0.2,0,0.4-0.1,0.7-0.1c0.4,0,0.5,0.1,0.7,0.2c0.1,0.1,0.2,0.2,0.2,0.4c0,0.2-0.2,0.4-0.4,0.5v0
		c0.2,0.1,0.3,0.2,0.3,0.5c0.1,0.3,0.1,0.4,0.1,0.5h-0.5c-0.1-0.1-0.1-0.2-0.1-0.5c0-0.2-0.2-0.3-0.4-0.3h-0.2V112.4L183.2,112.4z
		 M183.5,109.9c-0.8,0-1.5,0.7-1.5,1.5c0,0.8,0.6,1.5,1.5,1.5c0.8,0,1.4-0.7,1.4-1.5C184.9,110.6,184.3,109.9,183.5,109.9
		L183.5,109.9L183.5,109.9z M183.5,109.5c1.1,0,1.9,0.8,1.9,1.9c0,1.1-0.8,1.9-1.9,1.9c-1.1,0-2-0.8-2-1.9
		C181.5,110.3,182.4,109.5,183.5,109.5L183.5,109.5L183.5,109.5z"/>
</g>
<g>
	<g>
		<path class="st0" d="M-396.3,169.5c23.8,0,46.6,1,67.6,2.7v-36.4c-21.4,1.8-44.7,2.8-69.1,2.8c-25.2,0-49.3-1.1-71.3-3v37.1
			C-446.7,170.7-422.1,169.5-396.3,169.5L-396.3,169.5z"/>
		<g>
			<defs>
				<rect id="SVGID_3_" x="-469.9" y="134.8" width="142" height="38.8"/>
			</defs>
			<clipPath id="SVGID_4_">
				<use xlink:href="#SVGID_3_"  style="overflow:visible;"/>
			</clipPath>
			<g class="st3">
				<path class="st2" d="M-469.9,173.5v-38.8l0.8,0.1c22.7,2,46.6,3,71.2,3c23.8,0,47.1-1,69.1-2.8l0.8-0.1v38.1l-0.8-0.1
					c-21.6-1.8-44.3-2.7-67.6-2.7c-25.2,0-49.7,1.1-72.7,3.1L-469.9,173.5z M-468.3,136.5v35.4c22.9-2,47.1-3.1,72-3.1
					c23,0,45.5,0.9,66.9,2.6v-34.7c-21.8,1.8-44.8,2.8-68.4,2.8C-422.2,139.4-445.9,138.4-468.3,136.5z"/>
			</g>
		</g>
		<path class="st2" d="M-451.2,156.5v-0.8h1.9v-0.6h-3.2l0-0.3c0-0.4,0-0.8-0.1-1h5.5c0,0.2,0,0.4,0,0.4l-0.1,1.9c0,0.5,0,0.9,0,1.4
			c0,1.2,0,2.2,0.1,3.1h-4.1v-0.8h1.9v-0.6h-1.9v-0.8h1.9v-0.6h-1.9v-0.8h1.9v-0.6H-451.2L-451.2,156.5z M-455.4,145.7v16.4
			c-1.2-0.3-2.3-1-3.3-2.3h0.8v-0.6h-1.2l-0.1-0.1c-0.1-0.2-0.2-0.4-0.3-0.6l0-0.1h1.6v-0.6h-1.8c-0.1-0.3-0.2-0.5-0.3-0.8h2.1v-0.6
			h-2.2c-0.1-0.2-0.1-0.4-0.2-0.7l0-0.1h2.4v-0.6h-2.5c0-0.2,0-0.5-0.1-0.8h2.6v-0.6h-2.6c0-0.3,0-0.5,0-0.7l0-0.1h2.5v-0.6h-2.4
			c0.1-0.3,0.1-0.5,0.1-0.7l0-0.1h2.2v-0.6h-2.1c0-0.1,0.1-0.4,0.2-0.7l0-0.1h1.8v-0.6h-1.6c0.1-0.3,0.3-0.5,0.4-0.8h1.1v-0.6h-0.7
			c0.2-0.2,0.4-0.5,0.7-0.8V147h-1.7c1.7-2,3.7-2.9,6.1-2.9c0.7,0,1.4,0.1,2.1,0.3c0.7,0.2,1.4,0.5,2.1,0.8c0.7,0.4,1.3,0.8,1.8,1.3
			l-0.7,2.1c-0.7-1-1.6-1.8-2.5-2.3c-0.9-0.5-2-0.8-3.1-0.8C-454.3,145.5-454.8,145.5-455.4,145.7L-455.4,145.7z M-451.6,161.1h4.5
			c0,0.4,0,0.8,0.1,1.4c-0.1,0-0.2,0-0.3,0c-0.5,0-1.1,0.1-1.9,0.4l-1,0.4c-1.2,0.5-2.4,0.7-3.6,0.7c-0.9,0-1.6-0.1-2.3-0.3
			c-0.7-0.2-1.3-0.5-2-1c-0.6-0.5-1.1-1-1.6-1.6c-0.5-0.6-0.9-1.3-1.3-2.1c-0.4-0.8-0.6-1.6-0.8-2.4c-0.2-0.8-0.3-1.7-0.3-2.5
			c0-1.2,0.2-2.3,0.5-3.4c0.3-1.1,0.8-2.1,1.4-3.1h1.4c-0.7,0.8-1.3,1.8-1.7,3c-0.4,1.1-0.6,2.3-0.6,3.6c0,1.5,0.3,3,1,4.3
			c0.6,1.4,1.5,2.5,2.6,3.3c0.9,0.7,2.1,1.1,3.4,1.1c0.5,0,0.9-0.1,1.4-0.2c0.1-1.5,0.2-3,0.2-4.7c0-0.7,0-1.4,0-2.2h0.8V161.1
			L-451.6,161.1z"/>
		<path class="st2" d="M-442.6,160.5h0.6V160h-0.9l0-0.1c-0.1-0.2-0.2-0.4-0.3-0.5l0-0.1h1.3v-0.5h-1.5c-0.1-0.2-0.2-0.4-0.2-0.6
			h1.7v-0.5h-1.8c0-0.2-0.1-0.3-0.1-0.6l0-0.1h2v-0.5h-2c0-0.2,0-0.4,0-0.6h2.1v-0.5h-2.1c0-0.2,0-0.4,0-0.6l0-0.1h2v-0.5h-2
			c0-0.2,0.1-0.4,0.1-0.6l0-0.1h1.8v-0.5h-1.7c0-0.1,0.1-0.3,0.2-0.6l0-0.1h1.5v-0.5h-1.3c0.1-0.2,0.2-0.4,0.3-0.6h0.9v-0.5h-0.6
			c0.1-0.2,0.3-0.4,0.6-0.7V150h-1.4c1.4-1.6,3-2.4,4.8-2.4c1,0,1.8,0.2,2.7,0.6c0.8,0.4,1.6,1,2.2,1.7c0.6,0.8,1.1,1.6,1.5,2.6
			c0.3,1,0.5,2.1,0.5,3.2c0,2-0.5,3.7-1.6,5.3h-2.7v-0.6h1.1c0-0.1,0.1-0.3,0.2-0.5h-1.3v-0.6h1.5c0-0.1,0-0.2,0.1-0.2
			c0-0.1,0-0.1,0-0.2l0-0.1h-1.6v-0.6h1.7c0-0.1,0-0.1,0-0.2c0-0.1,0-0.1,0-0.2l0-0.1h-1.8v-0.6h1.9v-0.1c0-0.2,0-0.3,0-0.4h-1.9
			V156h1.9v-0.3v-0.1h-1.9v-0.6h1.9c0-0.1,0-0.1,0-0.1c0,0,0-0.1,0-0.2l0-0.1h-1.9v-0.6h1.8l0-0.1c0,0,0-0.1,0-0.3l0-0.1h-1.8v-0.6
			h1.6c0-0.1,0-0.1,0-0.1l-0.1-0.3c0,0,0,0,0-0.1h-1.5v-0.6h1.3c0-0.1-0.1-0.3-0.2-0.5h-1.1v-0.6h0.8c-0.1-0.2-0.3-0.4-0.4-0.5h-0.4
			v-0.4c-0.3-0.3-0.8-0.5-1.2-0.7c-0.5-0.2-1-0.2-1.4-0.2c-0.4,0-0.8,0.1-1.2,0.2v13.6C-440.8,162.2-441.7,161.5-442.6,160.5
			L-442.6,160.5z M-436.4,161.6h2.7c-0.4,0.5-0.9,1-1.4,1.3c-0.5,0.4-1,0.6-1.6,0.8c-0.6,0.2-1.2,0.3-1.8,0.3
			c-0.9,0-1.7-0.2-2.5-0.6c-0.8-0.4-1.5-0.9-2.1-1.6c-0.7-0.8-1.2-1.7-1.5-2.8c-0.4-1.1-0.6-2.1-0.6-3.2c0-1,0.1-1.9,0.4-2.8
			c0.3-0.9,0.7-1.7,1.2-2.5h1.2c-0.6,0.7-1.1,1.5-1.4,2.4c-0.3,0.9-0.5,1.9-0.5,2.9c0,0.6,0.1,1.3,0.2,1.9c0.2,0.6,0.4,1.2,0.6,1.8
			c0.3,0.6,0.6,1.1,1,1.6c1.1,1.2,2.4,1.8,3.9,1.8c0.5,0,1-0.1,1.5-0.2v-13.4c0.3,0.1,0.5,0.2,0.7,0.4V161.6L-436.4,161.6z"/>
		<path class="st2" d="M-427.7,160.5h0.6V160h-0.9l0-0.1c-0.1-0.2-0.2-0.4-0.3-0.5l0-0.1h1.3v-0.5h-1.5c-0.1-0.2-0.2-0.4-0.2-0.6
			h1.7v-0.5h-1.8c0-0.2-0.1-0.3-0.1-0.6l0-0.1h2v-0.5h-2c0-0.2,0-0.4,0-0.6h2.1v-0.5h-2.1c0-0.2,0-0.4,0-0.6l0-0.1h2v-0.5h-2
			c0-0.2,0.1-0.4,0.1-0.6l0-0.1h1.8v-0.5h-1.7c0-0.1,0.1-0.3,0.2-0.6l0-0.1h1.5v-0.5h-1.3c0.1-0.2,0.2-0.4,0.3-0.6h0.9v-0.5h-0.6
			c0.1-0.2,0.3-0.4,0.6-0.7V150h-1.4c1.4-1.6,3-2.4,4.8-2.4c1,0,1.8,0.2,2.7,0.6c0.8,0.4,1.6,1,2.2,1.7c0.6,0.8,1.1,1.6,1.5,2.6
			c0.3,1,0.5,2.1,0.5,3.2c0,2-0.5,3.7-1.6,5.3h-2.7v-0.6h1.1c0-0.1,0.1-0.3,0.2-0.5h-1.3v-0.6h1.5c0-0.1,0-0.2,0.1-0.2
			c0-0.1,0-0.1,0-0.2l0-0.1h-1.6v-0.6h1.7c0-0.1,0-0.1,0-0.2c0-0.1,0-0.1,0-0.2l0-0.1h-1.8v-0.6h1.9v-0.1c0-0.2,0-0.3,0-0.4h-1.9
			V156h1.9v-0.3v-0.1h-1.9v-0.6h1.9c0-0.1,0-0.1,0-0.1c0,0,0-0.1,0-0.2l0-0.1h-1.9v-0.6h1.8l0-0.1c0,0,0-0.1,0-0.3l0-0.1h-1.8v-0.6
			h1.6c0-0.1,0-0.1,0-0.1l-0.1-0.3c0,0,0,0,0-0.1h-1.5v-0.6h1.3c0-0.1-0.1-0.3-0.2-0.5h-1.1v-0.6h0.8c-0.1-0.2-0.2-0.4-0.4-0.5h-0.4
			v-0.4c-0.3-0.3-0.8-0.5-1.2-0.7c-0.5-0.2-1-0.2-1.4-0.2c-0.4,0-0.8,0.1-1.2,0.2v13.6C-426,162.2-426.9,161.5-427.7,160.5
			L-427.7,160.5z M-421.5,161.6h2.7c-0.4,0.5-0.9,1-1.4,1.3c-0.5,0.4-1,0.6-1.6,0.8c-0.6,0.2-1.2,0.3-1.8,0.3
			c-0.9,0-1.7-0.2-2.5-0.6c-0.8-0.4-1.5-0.9-2.1-1.6c-0.7-0.8-1.2-1.7-1.5-2.8c-0.4-1.1-0.6-2.1-0.6-3.2c0-1,0.1-1.9,0.4-2.8
			c0.3-0.9,0.6-1.7,1.2-2.5h1.2c-0.6,0.7-1.1,1.5-1.4,2.4c-0.3,0.9-0.5,1.9-0.5,2.9c0,0.6,0.1,1.3,0.2,1.9c0.2,0.6,0.4,1.2,0.6,1.8
			c0.3,0.6,0.6,1.1,1,1.6c1.1,1.2,2.4,1.8,3.9,1.8c0.5,0,1-0.1,1.5-0.2v-13.4c0.3,0.1,0.5,0.2,0.7,0.4V161.6L-421.5,161.6z"/>
		<path class="st2" d="M-415.3,163.7l0-0.3c0.1-0.9,0.1-2.1,0.2-3.4c0-1.4,0.1-2.8,0.1-4.4c0-1.9-0.1-3.8-0.2-5.9l0-0.3h0.8v13.3
			h5.4c0.4,0,0.7,0,0.9-0.1v-13.1c0.3,0,0.5,0.1,0.7,0.3v11.8h2.9c-0.5,0.6-0.9,1-1.3,1.3c-0.4,0.3-0.8,0.5-1.3,0.6
			c-0.5,0.1-1.1,0.2-1.8,0.2H-415.3L-415.3,163.7z M-415.3,147.9h6.1c1,0,1.8,0.1,2.3,0.2c0.6,0.2,1.2,0.5,1.7,1
			c0.5,0.5,1,1,1.4,1.7c0.4,0.7,0.7,1.4,0.9,2.3c0.2,0.8,0.3,1.7,0.3,2.6c0,1-0.1,2-0.3,2.8c-0.2,0.8-0.6,1.7-1.1,2.5h-2.9v-0.6h1.3
			c0-0.1,0-0.1,0.1-0.2c0-0.1,0-0.1,0.1-0.1l0-0.1c0,0,0,0,0-0.1h-1.5v-0.6h1.6c0-0.2,0.1-0.4,0.1-0.5h-1.8v-0.6h1.9
			c0,0,0-0.1,0-0.2c0-0.1,0-0.1,0-0.2l0-0.1h-1.9v-0.6h2l0-0.1c0-0.1,0-0.2,0-0.2c0-0.1,0-0.1,0-0.2h-2V156h2v-0.1v-0.3h-2v-0.6h2
			l0-0.1c0-0.2,0-0.3,0-0.4h-2v-0.6h1.9l0-0.1c0-0.2,0-0.3,0-0.4h-1.9v-0.6h1.8c0-0.1,0-0.2-0.1-0.4c0,0,0,0,0-0.1h-1.7v-0.6h1.5
			c-0.1-0.2-0.1-0.3-0.2-0.5h-1.3v-0.6h1c-0.2-0.2-0.3-0.4-0.4-0.5h-0.6v-0.5c-0.3-0.2-0.7-0.4-1-0.5c-0.3-0.1-0.9-0.1-1.7-0.1h-0.6
			v13.3h-3.7v-0.6h1.6v-0.5h-1.6v-0.6h1.6V160h-1.6v-0.6h1.6v-0.5h-1.6v-0.6h1.6v-0.5h-1.6v-0.6h1.6v-0.5h-1.6V156h1.6v-0.5h-1.6
			v-0.6h1.6v-0.5h-1.6v-0.6h1.6v-0.5h-1.6v-0.6h1.6v-0.5h-1.6v-0.6h1.6v-0.5h-1.6v-0.6h1.6V150h-1.6v-0.6h1.6v-0.5h-2.8
			c0-0.1,0-0.3,0-0.7C-415.3,148.2-415.3,148.1-415.3,147.9L-415.3,147.9z"/>
		<path class="st2" d="M-392.1,146.4c0.3,0,0.6-0.1,1-0.1v16.2h5.1c0,0.2,0,0.6,0.1,1.2h-6.2l0-0.3c0.1-1,0.1-2.5,0.2-4.3
			c0-0.4,0-0.9,0-1.3c0-0.4,0-0.9,0-1.3c0-0.6,0-1.2,0-1.7l-0.1-4.5C-391.9,148.4-392,147.1-392.1,146.4L-392.1,146.4z
			 M-386.1,145.9L-386.1,145.9c-0.1,2.9-0.2,5.6-0.2,8.3c0,2.7,0.1,5.1,0.2,7.2l0,0.5h-4.6v-0.8h1.9v-0.6h-1.9v-0.8h1.9v-0.6h-1.9
			v-0.8h1.9v-0.6h-1.9v-0.8h1.9v-0.6h-1.9v-0.8h1.9v-0.6h-1.9v-0.8h1.9v-0.6h-1.9V153h1.9v-0.6h-1.9v-0.8h1.9v-0.6h-1.9v-0.8h1.9
			v-0.6h-1.9v-0.8h1.9v-0.6h-1.9v-0.8h1.9V147h-1.9v-0.7l0.2,0c0.7-0.1,1.2-0.1,1.5-0.1h0.2v-0.6c-1.2,0-2.5,0.1-3.8,0.3
			c-1.3,0.2-2.5,0.5-3.8,0.9l-0.3,0.1l0.4-2.4h14.1l0.4,2.4c-1.2-0.4-2.6-0.7-4.3-1L-386.1,145.9L-386.1,145.9z"/>
		<path class="st2" d="M-380.7,163.7l0-0.3c0.1-0.9,0.1-2.1,0.2-3.4c0-1.4,0.1-2.8,0.1-4.4c0-1.9-0.1-3.8-0.2-5.9l0-0.3h0.8v13.3
			h4.1c0,0.3,0,0.6,0,1H-380.7L-380.7,163.7z M-377.8,149.4v-0.5h-2.8c0-0.1,0-0.3,0-0.7c0-0.1,0-0.2,0-0.3h5.1l0,0.3
			c-0.1,2.1-0.2,4.7-0.2,7.7c0,2,0,3.9,0.1,5.9l0,0.4h-3.7v-0.6h1.6v-0.5h-1.6v-0.6h1.6V160h-1.6v-0.6h1.6v-0.5h-1.6v-0.6h1.6v-0.5
			h-1.6v-0.6h1.6v-0.5h-1.6V156h1.6v-0.5h-1.6v-0.6h1.6v-0.5h-1.6v-0.6h1.6v-0.5h-1.6v-0.6h1.6v-0.5h-1.6v-0.6h1.6v-0.5h-1.6v-0.6
			h1.6V150h-1.6v-0.6H-377.8L-377.8,149.4z"/>
		<path class="st2" d="M-362,161.1h-1.6l-0.1-0.6h1.6l-0.1-0.5h-1.6l-0.1-0.6h1.6l-0.1-0.5h-1.6l-0.1-0.6h1.6l-0.1-0.5h-1.6
			l-0.1-0.6h1.6l-0.1-0.5h-1.6l-0.1-0.6h1.6l-0.1-0.5h-1.6l-0.1-0.6h1.6l-0.1-0.5h-1.6l-0.1-0.6h1.6l-0.7-4.4l0.1-0.3
			c0.2-0.5,0.4-0.9,0.4-1.1h1.4l0.1,0.4c0.3,2,0.5,3.6,0.7,4.8c0.5,2.9,1,5.8,1.6,8.7l0.1,0.4h-3.9l-0.1-0.6h1.6L-362,161.1
			L-362,161.1z M-368.4,156.2l-0.2-0.4l-0.9,1.9l-0.3-0.6l0.9-1.9l-0.2-0.4l-0.9,1.9l-0.3-0.6l0.9-1.9l-0.2-0.4l-0.9,1.9l-0.3-0.6
			l1-1.9l-0.2-0.4l-0.9,1.9l-0.3-0.6l1-1.9l-1.6-3l0-0.3l0.1-0.7l0-0.3h1.5l0.1,0.3c0.5,1,1,2,1.7,3.3l0.8,1.4
			c0.4,0.8,0.8,1.4,1.1,1.9c0,0,0.1,0.1,0.2,0.2c0.2-0.4,0.4-0.8,0.6-1.3c0.1-0.3,0.3-0.7,0.6-1.2c0.1-0.1,0.1-0.3,0.2-0.5
			c0.1-0.2,0.2-0.3,0.2-0.4l0.6-1.4c0,0,0.1-0.1,0.1-0.3l0.5,3.4h-1.5l1.5,9.4h4.3l0.1,0.2c0.1,0.3,0.1,0.5,0.1,0.6l0,0.2h-5.3
			c0-0.3-0.1-0.8-0.1-1.4c0-0.2,0-0.4-0.1-0.6c0-0.2-0.1-0.5-0.1-0.8c-0.2-1.4-0.3-2.5-0.4-3.1c-0.1-0.8-0.2-1.5-0.3-2.1
			c-0.2,0.3-0.5,1-0.9,1.9l-0.7,1.6l-0.6,1.4l-0.1,0.3l-0.4-0.8l0.9-1.9l-0.2-0.4l-0.9,1.9l-0.3-0.6l0.9-1.9l-0.2-0.4l-0.9,1.9
			l-0.3-0.6L-368.4,156.2L-368.4,156.2z M-372.9,163.7h-1.7l0.1-0.3c0.5-2.2,0.9-4.4,1.3-6.5c0.2-1,0.3-1.7,0.4-2.3
			c0.1-0.6,0.2-1.3,0.3-2c0.1-0.8,0.2-1.5,0.3-2.2l0.1-0.4l1.3,2.3l-0.9,1.9l3.8,7.2c-0.1,0.1-0.1,0.2-0.1,0.3
			c-0.1,0.2-0.2,0.5-0.3,0.8c-0.3-0.7-0.7-1.5-1.1-2.4l-1.2-2.4c-0.5-1-0.8-1.6-1-2l-0.1,0.4c-0.2,1.4-0.5,3.1-0.7,4.9
			C-372.8,161.9-372.9,162.8-372.9,163.7L-372.9,163.7z"/>
		<path class="st2" d="M-358.3,163.7l0-0.3c0.1-0.9,0.1-2.1,0.2-3.4c0-1.4,0.1-2.8,0.1-4.4c0-1.9-0.1-3.8-0.2-5.9l0-0.3h0.8v13.3
			h1.9c1,0,1.9,0,2.6-0.1c0.8-0.1,1.5-0.2,2.2-0.3c0.7-0.1,1.4-0.4,2-0.6l-0.4,2H-358.3L-358.3,163.7z M-353.3,149.1L-353.3,149.1
			c-0.1,2.3-0.2,4-0.2,5v0.1h4v1.3h-4v0.2c0,0.3,0,0.5,0,0.8c0,0.3,0,0.6,0,1.1c0,1.2,0.1,2.6,0.1,4.2l0,0.4h-3.7v-0.6h1.6v-0.5
			h-1.6v-0.6h1.6V160h-1.6v-0.6h1.6v-0.5h-1.6v-0.6h1.6v-0.5h-1.6v-0.6h1.6v-0.5h-1.6V156h1.6v-0.5h-1.6v-0.6h1.6v-0.5h-1.6v-0.6
			h1.6v-0.5h-1.6v-0.6h1.6v-0.5h-1.6v-0.6h1.6v-0.5h-1.6v-0.6h1.6V150h-1.6v-0.6h1.6v-0.5h-2.8c0-0.1,0-0.3,0-0.7c0-0.1,0-0.2,0-0.3
			h9l0.4,2c-0.6-0.2-1.3-0.4-2.2-0.5C-352,149.2-352.7,149.1-353.3,149.1L-353.3,149.1L-353.3,149.1z"/>
		<path class="st2" d="M-337.9,149.3l-0.6,1.8c-1.2-1.6-2.6-2.3-4.2-2.3c-0.8,0-1.5,0.2-2.1,0.6c-0.6,0.4-1.1,0.9-1.5,1.6
			c-0.4,0.7-0.5,1.5-0.5,2.3c0,0.9,0.2,1.6,0.5,2.1c0.4,0.6,1,1.1,1.8,1.5l5.6,3c-0.1,0.3-0.3,0.6-0.4,0.8l-5.1-2.7
			c-0.6-0.3-1.1-0.6-1.4-0.9c-0.3-0.2-0.6-0.5-0.8-0.8c-0.2-0.3-0.4-0.6-0.5-0.9c-0.1-0.3-0.2-0.7-0.3-1c-0.1-0.4-0.1-0.8-0.1-1.2
			c0-1.1,0.2-2.1,0.7-2.9c0.5-0.9,1.1-1.6,1.9-2c0.8-0.5,1.7-0.7,2.7-0.7c0.4,0,0.8,0,1.2,0.1c0.4,0.1,0.8,0.2,1.1,0.3
			c0.4,0.1,0.8,0.3,1.2,0.6C-338.5,148.8-338.2,149.1-337.9,149.3L-337.9,149.3z M-340.7,158.5l0.9-1.7l-0.4-0.2l-0.9,1.7l-0.5-0.3
			l0.9-1.7l-0.4-0.2l-0.9,1.6l-0.5-0.2l0.9-1.6l-0.4-0.2l-0.9,1.6l-0.5-0.2l0.9-1.6l-0.3-0.2l-0.9,1.6l-0.5-0.3l0.9-1.6l-0.4-0.2
			l-0.9,1.6c-0.1,0-0.1-0.1-0.1-0.1c0,0-0.1,0-0.1-0.1c-0.1,0-0.1-0.1-0.2-0.1c0,0-0.1,0-0.1,0l0.9-1.6l-0.4-0.2l-0.8,1.6
			c-0.1-0.1-0.2-0.2-0.4-0.3l-0.1,0l0.8-1.5l-0.4-0.2l-0.7,1.4c-0.1-0.2-0.2-0.3-0.3-0.5l0.6-1.2l-0.4-0.2l-0.5,0.9
			c-0.1-0.4-0.2-0.8-0.2-1.3c0-0.5,0.1-0.9,0.2-1.3c0.1-0.4,0.3-0.8,0.5-1.2l5.2,2.8l0.8,0.4c0.6,0.3,1,0.7,1.4,1
			c0.3,0.4,0.6,0.8,0.8,1.3c0.2,0.5,0.2,1.1,0.2,1.8c0,1.6-0.5,3-1.5,4.1c-1,1.2-2.3,1.7-3.9,1.7c-0.9,0-1.8-0.2-2.7-0.6
			c-0.9-0.4-1.7-0.9-2.4-1.6l0.7-1.9c0.4,0.6,0.8,1.1,1.4,1.5c0.6,0.4,1.1,0.8,1.7,1c0.6,0.2,1.2,0.4,1.8,0.4c1.4,0,2.5-0.7,3.4-2
			c0.5-0.8,0.8-1.8,0.8-2.8c0,0,0-0.2,0-0.4l-0.4-0.2c0,0.2,0,0.3,0,0.5c0,0.5-0.1,1-0.2,1.5l-1.1-0.6l0.9-1.7l-0.4-0.2l-0.9,1.7
			L-340.7,158.5L-340.7,158.5z"/>
		<path class="st2" d="M-335.9,162.7h0.2c0.2,0,0.3-0.1,0.3-0.2c0-0.1-0.1-0.2-0.3-0.2c-0.1,0-0.1,0-0.2,0V162.7L-335.9,162.7z
			 M-335.9,163.5h-0.3v-1.4c0.1,0,0.3-0.1,0.6-0.1c0.3,0,0.4,0,0.5,0.1c0.1,0.1,0.1,0.2,0.1,0.3c0,0.2-0.1,0.3-0.3,0.3v0
			c0.1,0,0.2,0.2,0.3,0.4c0,0.2,0.1,0.3,0.1,0.4h-0.4c0-0.1-0.1-0.2-0.1-0.3c0-0.2-0.1-0.2-0.3-0.2h-0.2V163.5L-335.9,163.5z
			 M-335.7,161.6c-0.6,0-1.1,0.5-1.1,1.1c0,0.6,0.5,1.1,1.1,1.1c0.6,0,1.1-0.5,1.1-1.1C-334.6,162.1-335.1,161.6-335.7,161.6
			L-335.7,161.6L-335.7,161.6z M-335.7,161.3c0.8,0,1.5,0.6,1.5,1.4c0,0.8-0.6,1.4-1.5,1.4c-0.8,0-1.5-0.6-1.5-1.4
			C-337.2,162-336.5,161.3-335.7,161.3L-335.7,161.3L-335.7,161.3z"/>
	</g>
	<g>
		<path class="st4" d="M-457.8,26.6c3.2-0.2,12.1-0.8,11.7,3c-0.2,1.5-2.6,1.8-3.1,2.7c-1.2,2.2-0.4,11.4-0.4,15.3
			c0,1.4-0.1,3.5,0.6,4.6c1.8,3,7.4,0.7,8.6-1c0.7-1.1,0.7-3.7,2.1-4c1.9-0.4,3,1.5,3.1,3c0.4,3.1-1.8,8.1-3.9,8.7
			c-1.4,0.4-3.9-0.3-5.6-0.4c-3.1-0.2-6.9,0-10.7,0c-3.3,0-8.8,0.8-8.7-2c0.1-1.4,2.7-1.9,3.3-3c1.1-2.1,0.5-7.4,0.4-10.4
			c0-1.6-0.1-3.3-0.1-5.3c0-1.6,0.1-4.1-0.4-5c-0.6-1-3.7-1.2-3.9-2.7C-465.1,27.1-459.9,26.8-457.8,26.6z"/>
		<path class="st4" d="M-427.8,27.2c2.4-0.3,5.1-0.2,5.6,1.9c1,3.9-5.6,5.8-9.6,5.1c-1.5-0.2-3-1.4-3-3c0-1.7,2-2.6,2.7-2.9
			C-430.6,27.7-429.7,27.4-427.8,27.2z"/>
		<path class="st4" d="M-360.9,27.5c0.8,3.8-0.1,7.9-0.1,12.4c0,1.9,0,4.4,0,6.9c0,2.2-0.5,4.9,0.1,6.7c0.4,1.1,2.4,1.3,2.6,2.6
			c0.5,3.1-4.8,3-7.9,3c-3.2,0-8.1-0.3-7.9-3c0.1-1.2,2-1.5,2.4-2.3c0.9-1.8,0.6-6.4,0.6-8.9c0-3.2,0.4-7.1-0.6-9.1
			c-0.6-1.2-2.9-2.3-3-3.6c-0.3-3.7,7.9-4.7,11-5C-362.9,27.1-361.6,26.9-360.9,27.5z"/>
		<path class="st4" d="M-404.5,30.2c0.7,1.2,0,3.7,0.4,5.1c1.5,0.7,4.5,0,6.3,0.4c0.5,1.1,0.4,3.5,0,4.6c-1.5,0.7-4.4,0-6.1,0.4
			c0,3.2-1.7,10.9,1.6,11.6c1.7,0.3,2.2-0.9,3.9-1c4,3.9-3.7,8.2-9.1,7.7c-2.7-0.2-5.2-1.6-6.3-3.4c-2.5-4.2-0.2-9.3-1-15.3
			c-1-0.4-3,0.1-4-0.3c-0.3-0.6-0.1-1.7-0.1-2.6c3.3-2.2,7.3-5.4,11.1-7.3C-407.2,29.9-405.5,30.1-404.5,30.2z"/>
		<path class="st4" d="M-382.6,30.2c0.7,1.2,0,3.7,0.4,5.1c1.5,0.7,4.5,0,6.3,0.4c0.5,1.1,0.4,3.5,0,4.6c-1.5,0.7-4.4,0-6.1,0.4
			c0,3.2-1.7,10.9,1.6,11.6c1.7,0.3,2.2-0.9,3.9-1c4,3.9-3.7,8.2-9.1,7.7c-2.7-0.2-5.2-1.6-6.3-3.4c-2.5-4.2-0.2-9.3-1-15.3
			c-1-0.4-3,0.1-4-0.3c-0.3-0.6-0.1-1.7-0.1-2.6c3.3-2.2,7.3-5.4,11.1-7.3C-385.4,29.9-383.7,30.1-382.6,30.2z"/>
		<path class="st4" d="M-422.3,35.9c0.7,2.3,0.4,5.3,0.4,8.3c0,2.9-0.6,6.4,0.1,8.6c0.5,1.5,2.3,1.6,2.4,3.1
			c0.2,2.8-4.7,3.1-7.7,3.1c-2.7,0-8,0.1-8-2.7c0-1.4,1.9-2.1,2.4-3.3c0.6-1.4,0.5-3.2,0.4-4.9c0-1.5,0.1-4-0.3-5
			c-0.4-1.2-2.6-1.7-2.7-2.9c-0.2-2.7,7.9-4.6,11-4.7C-423.5,35.6-422.9,35.6-422.3,35.9z"/>
		<path class="st4" d="M-347.2,48.3c-0.3,3.5,3.9,5.4,7.6,4.1c1-0.3,2.5-1.6,3.4-1.6c1.1,0.1,1.7,1.4,1.7,2.1
			c0.1,2.1-2.3,3.6-3.6,4.3c-8.6,4.7-19.1-0.5-19.1-9.9c0-6.2,5.1-11.3,11.4-11.9c5.9-0.5,11.1,2.9,12.1,7.9
			c0.3,1.4,0.2,3.7-1.1,4.4C-337.5,49.5-343.8,47.2-347.2,48.3z M-347.4,43.5c0.9,0.7,3.7,0.5,4.9,0.1
			C-340.4,38.9-348.9,38.6-347.4,43.5z"/>
		<path class="st4" d="M-395.9,73.1c0.8-1.2,0.5-2,0.3-2.6c-0.2-0.4-1.3-1.1-1.3-1.7c0.1-1.8,5.2-1.5,5.4-0.1
			c0.2,1.1-0.8,0.9-1.3,1.6c-0.9,3.9,0.7,8.2-1,10.9c-3.4-1.3-4.9-4.6-8-6.3c-1,1.1-1,2.1-0.6,3.3c0.1,0.4,1.3,1.2,1.3,1.7
			c0,1.9-5.3,1.7-5.4,0.1c-0.1-1.1,0.7-0.8,1.1-1.6c-0.1-2.5,0.7-6.2-0.1-7.9c-0.4-0.9-1.4-0.8-1.4-1.6c-0.1-1.3,3-1.6,4.3-1.3
			C-400.4,68.2-398.4,72.4-395.9,73.1z"/>
		<path class="st4" d="M-414.1,74.1c0.3,0.5,0.4,1.2,0.7,1.7c-1.4,4.3-6.6-1.8-8.3,1.7c-0.1-0.7-0.5-1.1-0.6-1.9
			C-420.5,71.7-415.4,77.7-414.1,74.1z"/>
		<path class="st4" d="M-376.9,74.1c0.3,0.5,0.4,1.2,0.7,1.7c-1.4,4.3-6.6-1.8-8.3,1.7c-0.1-0.7-0.5-1.1-0.6-1.9
			C-383.3,71.7-378.3,77.7-376.9,74.1z"/>
		<path class="st4" d="M-437.5,104c1.9-1,2-3.8,3-5.7c-0.6-1.3-0.7-2.1-1.4-3.1c-0.9-1.1-2.6-1.4-2.6-3c0-2.9,5.4-3,8.4-3
			c2.7,0,8.7-0.1,8.9,2.6c0.1,1.7-1.8,1.9-2,3.1c-0.3,1.6,1.2,3.6,1.7,4.7c0.6,1.2,1.4,3.9,2.6,3.9c1,0,1.9-2.7,2.3-3.9
			c0.4-1.2,1.5-3.5,1.1-4.9c-0.5-1.6-3.1-0.7-2.9-3.3c0.3-3.2,11.8-3.5,11.6,0.6c-0.1,1.5-1.8,2.1-2.6,3.4c-1,1.7-1.7,4.4-2.6,6.7
			c-1.7,4.7-3.1,8.5-5.1,13.4c-0.7,1.7-2,5.2-3.3,5.9c-4.7,2.3-6.2-4.5-7.4-7.4c-1.2-2.8-2-5.4-3.4-7.1c-2.2,1.7-2.6,4.6-3.7,7.4
			c-0.9,2.1-2,6.3-3.9,7.1c-4.6,2.1-6-3.4-7.1-6.4c-1.7-4.4-3.3-8.8-5-13.1c-0.9-2.2-1.6-5-2.6-6.4c-0.7-1-2.4-1.4-2.6-2.6
			c-0.4-2.7,3-3.5,6-3.7c3.4-0.2,9.2-0.1,9.7,2c0.4,1.5-0.9,2.3-1,3.4c-0.2,1.7,1,3.7,1.6,5.1C-439.2,101.2-438.9,102.9-437.5,104z"
			/>
		<path class="st4" d="M-398.8,89.9c2.4-0.3,5.1-0.2,5.6,1.9c1,3.9-5.6,5.8-9.6,5.1c-1.5-0.2-3-1.4-3-2.9c0-1.7,1.9-2.7,2.6-3
			C-401.7,90.4-400.7,90.1-398.8,89.9z"/>
		<path class="st4" d="M-375.6,90.2c0.8,3.8-0.1,8-0.1,12.6c0,2,0,4.5,0,6.9c0,2.2-0.5,4.7,0.1,6.6c0.4,1.1,2.4,1.3,2.6,2.6
			c0.5,3.1-4.8,3-7.9,3c-3.2,0-8.1-0.3-7.9-3c0.1-1.2,2-1.5,2.4-2.3c0.9-1.8,0.6-6.4,0.6-8.9c0-3.2,0.4-7.1-0.6-9.1
			c-0.6-1.2-2.9-2.3-3-3.6c-0.3-3.7,7.9-4.7,11-5C-377.6,89.8-376.3,89.6-375.6,90.2z"/>
		<path class="st4" d="M-345.1,90.5c0.3,5.4,0.1,12.3,0.1,18.3c0,2.2-0.3,4.6,0.1,6c0.4,1.3,2.2,1.7,2.3,3c0.1,2.2-2.8,2.8-4.4,3.1
			c-2.1,0.5-4.4,0.9-6.6,0.6c-0.9-0.2-0.3-2-1.1-2.3c-2.5,0.9-3.3,2.4-6,2.6c-6.5,0.5-11.2-5.6-11.3-11.7c-0.1-8,8.8-14.7,16.4-10.3
			c1-0.7,0.9-2.1,0.6-2.9c-0.6-1.4-3-1.3-3.1-2.7c-0.3-2.6,7.6-4.3,10.4-4.4C-346.4,89.7-345.6,89.9-345.1,90.5z M-357.1,116.3
			c3-0.6,3.9-14.2-1-12.9C-361.7,104.5-362.4,117.3-357.1,116.3z"/>
		<path class="st4" d="M-393.2,98.8c0.5,2.4,0.3,5.3,0.3,8.3c0,2.8-0.6,6.2,0.1,8.4c0.5,1.5,2.3,1.6,2.4,3.1
			c0.2,2.8-4.7,3.1-7.7,3.1c-2.7,0-8,0.1-8-2.7c0-1.4,1.9-2.1,2.4-3.3c0.6-1.4,0.5-3.2,0.4-4.9c0-1.5,0.1-4-0.3-5
			c-0.4-1.2-2.6-1.7-2.7-2.9c-0.2-2.7,7.9-4.6,11-4.7C-394.4,98.3-393.7,98.3-393.2,98.8z"/>
		<g>
			<path class="st2" d="M-336,115.9c-1.7,0-3,1.4-3,3s1.4,3,3,3c1.7,0,3-1.4,3-3S-334.4,115.9-336,115.9z M-336,121.3
				c-1.3,0-2.4-1.1-2.4-2.4c0-1.3,1.1-2.4,2.4-2.4c1.3,0,2.4,1.1,2.4,2.4C-333.6,120.2-334.7,121.3-336,121.3z"/>
			<path class="st2" d="M-335.5,118.9L-335.5,118.9c0.4-0.1,0.8-0.5,0.8-1c0-0.3-0.1-0.5-0.3-0.7c-0.3-0.2-0.6-0.3-1.2-0.3
				c-0.4,0-0.8,0-1,0.1v3.7h0.5V119h0.5c0.5,0,0.7,0.2,0.8,0.7c0.1,0.5,0.2,0.8,0.3,0.9h0.6c-0.1-0.1-0.2-0.5-0.3-1
				C-335,119.2-335.1,119-335.5,118.9z M-336.2,118.7h-0.5v-1.4c0.1,0,0.3,0,0.5,0c0.6,0,0.9,0.2,0.9,0.7
				C-335.2,118.4-335.6,118.7-336.2,118.7z"/>
		</g>
	</g>
</g>
</svg>
