<?xml version="1.0" encoding="utf-8"?>
<!-- Generator: Adobe Illustrator 19.1.1, SVG Export Plug-In . SVG Version: 6.00 Build 0)  -->
<svg version="1.1" id="Layer_1" xmlns="http://www.w3.org/2000/svg" xmlns:xlink="http://www.w3.org/1999/xlink" x="0px" y="0px"
	 viewBox="0 0 200 200" style="enable-background:new 0 0 200 200;" xml:space="preserve">
<style type="text/css">
	.st0{fill:#FCC328;}
	.st1{clip-path:url(#SVGID_2_);}
	.st2{fill:#232021;}
	.st3{clip-path:url(#SVGID_4_);}
	.st4{fill-rule:evenodd;clip-rule:evenodd;fill:#232021;}
	.st5{fill:#1D1D1B;}
</style>
<g>
	<path class="st0" d="M486.9,120.3c31.5,0,61.6,1.3,89.3,3.6V75.8c-28.3,2.4-59.1,3.7-91.3,3.7c-33.3,0-65.1-1.4-94.2-4v48.9
		C420.3,121.8,452.8,120.3,486.9,120.3L486.9,120.3z"/>
	<g>
		<defs>
			<rect id="SVGID_1_" x="389.7" y="74.4" width="187.5" height="51.2"/>
		</defs>
		<clipPath id="SVGID_2_">
			<use xlink:href="#SVGID_1_"  style="overflow:visible;"/>
		</clipPath>
		<g class="st1">
			<path class="st2" d="M389.7,125.6V74.4l1.1,0.1c29.9,2.6,61.6,4,94.1,4c31.5,0,62.2-1.3,91.2-3.7l1.1-0.1V125l-1.1-0.1
				c-28.5-2.4-58.5-3.6-89.2-3.6c-33.3,0-65.6,1.4-96.1,4.2L389.7,125.6z M391.7,76.6v46.7c30.2-2.7,62.2-4.1,95.1-4.1
				c30.4,0,60.1,1.2,88.3,3.5V76.9c-28.8,2.4-59.2,3.6-90.3,3.6C452.7,80.5,421.4,79.2,391.7,76.6z"/>
		</g>
	</g>
	<path class="st2" d="M414.4,103.1v-1h2.5v-0.8h-4.2l0-0.4c0-0.6-0.1-1-0.1-1.4h7.2c0,0.3,0,0.5,0,0.5l-0.1,2.5c0,0.6,0,1.2,0,1.9
		c0,1.5,0,2.9,0.1,4.1h-5.4v-1h2.5v-0.8h-2.5v-1h2.5v-0.8h-2.5v-1h2.5v-0.8H414.4L414.4,103.1z M408.9,88.8v21.7
		c-1.6-0.3-3.1-1.4-4.4-3.1h1v-0.8h-1.5l-0.1-0.1c-0.2-0.3-0.3-0.6-0.4-0.8l-0.1-0.1h2.1v-0.8H403c-0.1-0.3-0.3-0.7-0.3-1h2.8v-0.8
		h-3c-0.1-0.3-0.1-0.6-0.2-0.9l0-0.1h3.2v-0.8h-3.3c0-0.3-0.1-0.6-0.1-1h3.4v-0.8h-3.4c0-0.3,0-0.7,0.1-0.9l0-0.1h3.3v-0.8h-3.2
		c0.1-0.4,0.1-0.7,0.2-0.9l0-0.1h3v-0.8h-2.7c0-0.2,0.2-0.5,0.3-0.9l0-0.1h2.4v-0.8h-2c0.2-0.3,0.3-0.7,0.6-1h1.5v-0.8h-1
		c0.2-0.3,0.6-0.7,1-1.1v-0.7h-2.2c2.2-2.6,4.9-3.9,8.1-3.9c0.9,0,1.9,0.1,2.8,0.4c0.9,0.2,1.8,0.6,2.7,1.1c0.9,0.5,1.7,1.1,2.4,1.7
		l-1,2.8c-1-1.3-2-2.4-3.3-3.1c-1.3-0.7-2.6-1-4.1-1C410.3,88.5,409.6,88.6,408.9,88.8L408.9,88.8z M413.8,109.2h6
		c0,0.5,0.1,1.1,0.1,1.8c-0.1,0-0.2,0-0.3,0c-0.6,0-1.4,0.2-2.5,0.6l-1.4,0.6c-1.6,0.6-3.2,0.9-4.7,0.9c-1.1,0-2.1-0.1-3-0.4
		c-0.9-0.3-1.7-0.7-2.6-1.3c-0.8-0.6-1.5-1.3-2.2-2.2c-0.6-0.8-1.2-1.7-1.7-2.7c-0.5-1-0.8-2.1-1.1-3.2c-0.2-1.1-0.4-2.2-0.4-3.4
		c0-1.5,0.2-3,0.6-4.5c0.4-1.4,1-2.8,1.9-4.1h1.9c-1,1.1-1.7,2.4-2.3,3.9c-0.5,1.5-0.8,3.1-0.8,4.7c0,2,0.4,3.9,1.3,5.7
		c0.9,1.8,2,3.3,3.4,4.3c1.2,0.9,2.8,1.4,4.5,1.4c0.6,0,1.2-0.1,1.9-0.3c0.1-1.9,0.2-4,0.2-6.2c0-0.9,0-1.9-0.1-3h1.1V109.2
		L413.8,109.2z"/>
	<path class="st2" d="M425.8,108.4h0.8v-0.6h-1.2l-0.1-0.1c-0.2-0.3-0.3-0.5-0.4-0.7l0-0.1h1.7v-0.6h-2c-0.1-0.3-0.2-0.6-0.3-0.8
		h2.3v-0.6h-2.4c-0.1-0.2-0.1-0.5-0.2-0.7l0-0.1h2.6v-0.6h-2.7c0-0.2-0.1-0.5-0.1-0.8h2.8v-0.6h-2.8c0-0.3,0-0.5,0-0.8l0-0.1h2.7
		v-0.6H424c0-0.3,0.1-0.5,0.2-0.7l0-0.1h2.4v-0.6h-2.2c0-0.1,0.1-0.4,0.3-0.7l0-0.1h1.9v-0.6h-1.7c0.1-0.3,0.3-0.6,0.5-0.8h1.2V96
		h-0.8c0.2-0.3,0.5-0.5,0.8-0.9v-0.6h-1.8c1.8-2.1,3.9-3.1,6.3-3.1c1.3,0,2.4,0.3,3.5,0.8c1.1,0.5,2.1,1.3,2.9,2.3
		c0.8,1,1.5,2.1,1.9,3.5c0.4,1.3,0.7,2.7,0.7,4.2c0,2.6-0.7,5-2.1,7h-3.6v-0.8h1.5c0.1-0.2,0.1-0.4,0.3-0.6h-1.7v-0.8h2
		c0-0.1,0.1-0.2,0.1-0.3c0-0.1,0-0.2,0.1-0.2l0-0.1h-2.1v-0.8h2.3c0-0.1,0-0.1,0-0.2c0-0.1,0-0.2,0-0.3l0-0.1h-2.4V104h2.5v-0.1
		c0-0.2,0-0.4,0-0.5h-2.5v-0.8h2.6V102v-0.2h-2.6V101h2.5c0-0.1,0-0.1,0-0.2c0-0.1,0-0.2,0-0.3l0-0.2h-2.5v-0.8h2.4l0-0.1
		c0,0,0-0.2,0-0.4l0-0.1h-2.3v-0.8h2.2c0-0.1,0-0.1,0-0.1l-0.1-0.4c0,0,0,0,0-0.1h-2v-0.8h1.8c-0.1-0.2-0.1-0.4-0.3-0.6h-1.5v-0.8h1
		c-0.2-0.3-0.3-0.5-0.5-0.6h-0.6V94c-0.5-0.4-1-0.7-1.6-0.9c-0.6-0.2-1.3-0.3-1.9-0.3c-0.5,0-1,0.1-1.5,0.2v18
		C428.1,110.6,426.9,109.8,425.8,108.4L425.8,108.4z M434,109.8h3.6c-0.6,0.7-1.2,1.3-1.8,1.8c-0.7,0.5-1.4,0.8-2.1,1.1
		c-0.8,0.2-1.6,0.4-2.4,0.4c-1.2,0-2.3-0.2-3.3-0.7c-1-0.5-2-1.2-2.8-2.2c-0.9-1-1.6-2.2-2-3.6c-0.5-1.4-0.7-2.8-0.7-4.3
		c0-1.3,0.2-2.5,0.5-3.7c0.3-1.2,0.9-2.3,1.5-3.4h1.5c-0.8,0.9-1.4,2-1.9,3.2c-0.4,1.2-0.6,2.5-0.6,3.9c0,0.8,0.1,1.7,0.3,2.5
		c0.2,0.9,0.5,1.6,0.9,2.4c0.4,0.7,0.8,1.4,1.3,2.1c1.4,1.6,3.1,2.4,5.2,2.4c0.6,0,1.3-0.1,1.9-0.2V93.7c0.3,0.1,0.7,0.3,1,0.6
		V109.8L434,109.8z"/>
	<path class="st2" d="M445.3,108.4h0.8v-0.6h-1.2l-0.1-0.1c-0.1-0.3-0.3-0.5-0.4-0.7l0-0.1h1.7v-0.6h-2c-0.1-0.3-0.2-0.6-0.3-0.8
		h2.3v-0.6h-2.4c-0.1-0.2-0.1-0.5-0.2-0.7l0-0.1h2.6v-0.6h-2.7c0-0.2-0.1-0.5-0.1-0.8h2.8v-0.6h-2.8c0-0.3,0-0.5,0-0.8l0-0.1h2.7
		v-0.6h-2.6c0-0.3,0.1-0.5,0.2-0.7l0-0.1h2.4v-0.6h-2.2c0-0.1,0.1-0.4,0.3-0.7l0-0.1h2v-0.6h-1.7c0.1-0.3,0.3-0.6,0.5-0.8h1.2V96
		h-0.8c0.2-0.3,0.5-0.5,0.8-0.9v-0.6h-1.8c1.8-2.1,3.9-3.1,6.3-3.1c1.3,0,2.4,0.3,3.5,0.8c1.1,0.5,2.1,1.3,2.9,2.3
		c0.8,1,1.5,2.1,1.9,3.5c0.4,1.3,0.7,2.7,0.7,4.2c0,2.6-0.7,5-2.1,7H454v-0.8h1.5c0.1-0.2,0.1-0.4,0.2-0.6H454v-0.8h2
		c0-0.1,0.1-0.2,0.1-0.3c0-0.1,0-0.2,0.1-0.2l0-0.1H454v-0.8h2.3c0-0.1,0-0.1,0-0.2c0-0.1,0-0.2,0-0.3l0-0.1H454V104h2.5v-0.1
		c0-0.2,0-0.4,0-0.5H454v-0.8h2.6V102v-0.2H454V101h2.5c0-0.1,0-0.1,0-0.2c0-0.1,0-0.2,0-0.3l0-0.2H454v-0.8h2.4l0-0.1
		c0,0,0-0.2,0-0.4l0-0.1H454v-0.8h2.2c0-0.1,0-0.1,0-0.1l-0.1-0.4c0,0,0,0,0-0.1h-2v-0.8h1.8c-0.1-0.2-0.2-0.4-0.3-0.6H454v-0.8h1
		c-0.2-0.3-0.3-0.5-0.5-0.6H454V94c-0.5-0.4-1-0.7-1.6-0.9c-0.6-0.2-1.3-0.3-1.9-0.3c-0.5,0-1,0.1-1.5,0.2v18
		C447.7,110.6,446.5,109.8,445.3,108.4L445.3,108.4z M453.5,109.8h3.6c-0.6,0.7-1.2,1.3-1.8,1.8c-0.7,0.5-1.4,0.8-2.1,1.1
		c-0.8,0.2-1.6,0.4-2.4,0.4c-1.2,0-2.3-0.2-3.3-0.7c-1-0.5-2-1.2-2.8-2.2c-0.9-1-1.6-2.2-2-3.6c-0.5-1.4-0.7-2.8-0.7-4.3
		c0-1.3,0.2-2.5,0.5-3.7c0.3-1.2,0.9-2.3,1.5-3.4h1.5c-0.8,0.9-1.4,2-1.9,3.2c-0.4,1.2-0.6,2.5-0.6,3.9c0,0.8,0.1,1.7,0.3,2.5
		c0.2,0.9,0.5,1.6,0.9,2.4c0.4,0.7,0.8,1.4,1.3,2.1c1.4,1.6,3.1,2.4,5.2,2.4c0.6,0,1.3-0.1,1.9-0.2V93.7c0.3,0.1,0.7,0.3,1,0.6
		V109.8L453.5,109.8z"/>
	<path class="st2" d="M461.8,112.6l0-0.3c0.1-1.2,0.2-2.7,0.2-4.5c0.1-1.8,0.1-3.7,0.1-5.8c0-2.5-0.1-5.1-0.2-7.8l0-0.5h1.1v17.6
		h7.1c0.6,0,1,0,1.2-0.1V93.8c0.3,0.1,0.7,0.2,1,0.4v15.6h3.8c-0.6,0.7-1.2,1.3-1.7,1.7c-0.5,0.4-1.1,0.7-1.7,0.8
		c-0.6,0.1-1.4,0.2-2.4,0.2H461.8L461.8,112.6z M461.8,91.8h8c1.3,0,2.3,0.1,3,0.3c0.8,0.2,1.6,0.7,2.3,1.3c0.7,0.6,1.3,1.4,1.8,2.3
		c0.5,0.9,0.9,1.9,1.2,3c0.3,1.1,0.4,2.2,0.4,3.5c0,1.3-0.2,2.6-0.5,3.7c-0.3,1.1-0.8,2.2-1.5,3.4h-3.8v-0.8h1.7
		c0-0.1,0.1-0.2,0.1-0.2c0-0.1,0-0.1,0.1-0.2l0-0.1c0,0,0-0.1,0-0.1h-1.9v-0.8h2.2c0.1-0.3,0.1-0.5,0.1-0.6h-2.3v-0.8h2.5
		c0-0.1,0-0.1,0-0.2c0-0.1,0-0.2,0-0.3l0-0.1h-2.5V104h2.6l0-0.1c0-0.1,0-0.2,0-0.3c0-0.1,0-0.2,0-0.2h-2.7v-0.8h2.7v-0.2v-0.5h-2.7
		V101h2.7l0-0.1c0-0.3,0-0.5,0-0.5h-2.6v-0.8h2.5l0-0.1c0-0.3-0.1-0.5-0.1-0.5h-2.5v-0.8h2.3c0-0.1-0.1-0.3-0.1-0.5c0,0,0,0,0-0.1
		h-2.2v-0.8h2c-0.1-0.2-0.2-0.5-0.2-0.6h-1.7v-0.8h1.3c-0.2-0.3-0.4-0.5-0.5-0.6h-0.8v-0.7c-0.5-0.3-0.9-0.5-1.4-0.6
		c-0.5-0.1-1.2-0.2-2.2-0.2h-0.8v17.6h-4.9v-0.8h2.1v-0.6h-2.1v-0.8h2.1v-0.6h-2.1v-0.8h2.1v-0.6h-2.1v-0.8h2.1v-0.6h-2.1V104h2.1
		v-0.6h-2.1v-0.8h2.1v-0.6h-2.1V101h2.1v-0.6h-2.1v-0.8h2.1v-0.6h-2.1v-0.8h2.1v-0.6h-2.1v-0.8h2.1V96h-2.1v-0.8h2.1v-0.6h-2.1v-0.8
		h2.1v-0.6h-3.7c0-0.2,0-0.5,0-0.9C461.8,92.1,461.8,91.9,461.8,91.8L461.8,91.8z"/>
	<path class="st2" d="M492.4,89.8c0.4-0.1,0.8-0.1,1.3-0.1V111h6.7c0,0.3,0,0.8,0.1,1.5h-8.2l0-0.4c0.1-1.4,0.2-3.2,0.3-5.6
		c0-0.6,0-1.1,0.1-1.7c0-0.6,0-1.1,0-1.7c0-0.8,0-1.6,0-2.3l-0.1-5.9C492.6,92.4,492.6,90.7,492.4,89.8L492.4,89.8z M500.4,89.1v0.1
		c-0.2,3.7-0.3,7.3-0.3,10.8c0,3.5,0.1,6.7,0.2,9.5l0,0.7h-6v-1h2.6v-0.8h-2.6v-1h2.6v-0.8h-2.6v-1h2.6v-0.8h-2.6v-1h2.6v-0.8h-2.6
		v-1h2.6v-0.8h-2.6v-1h2.6v-0.8h-2.6v-1h2.6v-0.8h-2.6v-1h2.6v-0.8h-2.6v-1h2.6v-0.8h-2.6v-1h2.6v-0.8h-2.6v-1h2.6v-0.8h-2.6v-0.9
		l0.3,0c0.9-0.1,1.5-0.1,2-0.1h0.3v-0.8c-1.6,0-3.3,0.2-5,0.4c-1.7,0.3-3.3,0.6-5,1.1l-0.4,0.1l0.5-3.2h18.6l0.5,3.2
		c-1.6-0.5-3.5-1-5.7-1.3L500.4,89.1L500.4,89.1z"/>
	<path class="st2" d="M507.5,112.6l0-0.3c0.1-1.2,0.2-2.7,0.2-4.5c0.1-1.8,0.1-3.7,0.1-5.8c0-2.5-0.1-5.1-0.2-7.8l0-0.5h1.1v17.6
		h5.5c0,0.4,0,0.8,0.1,1.3H507.5L507.5,112.6z M511.3,93.7v-0.6h-3.7c0-0.2,0-0.5,0-0.9c0-0.1,0-0.3,0-0.4h6.7l0,0.4
		c-0.2,2.8-0.3,6.2-0.3,10.2c0,2.6,0.1,5.2,0.2,7.7l0,0.5h-4.9v-0.8h2.1v-0.6h-2.1v-0.8h2.1v-0.6h-2.1v-0.8h2.1v-0.6h-2.1v-0.8h2.1
		v-0.6h-2.1V104h2.1v-0.6h-2.1v-0.8h2.1v-0.6h-2.1V101h2.1v-0.6h-2.1v-0.8h2.1v-0.6h-2.1v-0.8h2.1v-0.6h-2.1v-0.8h2.1V96h-2.1v-0.8
		h2.1v-0.6h-2.1v-0.8H511.3L511.3,93.7z"/>
	<path class="st2" d="M532.2,109.2H530l-0.1-0.8h2.1l-0.1-0.6h-2.1l-0.1-0.8h2.1l-0.1-0.6h-2.1l-0.1-0.8h2.1l-0.1-0.6h-2.1l-0.1-0.8
		h2.1l-0.1-0.6h-2.1l-0.1-0.8h2.1l-0.1-0.6h-2.1l-0.1-0.8h2.1l-0.1-0.6h-2.1l-0.1-0.8h2.1l-1-5.9l0.2-0.4c0.3-0.7,0.5-1.2,0.6-1.5
		h1.9l0.1,0.5c0.3,2.6,0.6,4.7,0.9,6.3c0.6,3.9,1.3,7.7,2.1,11.4l0.1,0.6h-5.1l-0.1-0.8h2.1L532.2,109.2L532.2,109.2z M523.8,102.7
		l-0.3-0.6l-1.2,2.5l-0.4-0.7l1.2-2.5l-0.3-0.6l-1.2,2.5l-0.4-0.8l1.2-2.5l-0.3-0.6l-1.2,2.5l-0.4-0.7l1.3-2.5l-0.3-0.6l-1.2,2.5
		l-0.4-0.7l1.3-2.5l-2.1-4l0-0.3l0.1-0.9l0-0.4h2l0.2,0.4c0.6,1.3,1.4,2.7,2.3,4.3l1,1.9c0.6,1,1,1.9,1.5,2.5c0,0.1,0.1,0.2,0.2,0.3
		c0.3-0.5,0.6-1,0.8-1.7c0.2-0.3,0.4-0.9,0.8-1.6c0.1-0.2,0.2-0.4,0.3-0.6c0.1-0.3,0.2-0.4,0.2-0.5l0.8-1.9c0,0,0.1-0.2,0.2-0.4
		l0.7,4.4h-2l2,12.4h5.6l0.1,0.3c0.1,0.4,0.1,0.7,0.2,0.8l0.1,0.2h-6.9c0-0.5-0.1-1.1-0.2-1.8c0-0.2-0.1-0.5-0.1-0.8
		c0-0.3-0.1-0.6-0.1-1.1c-0.2-1.9-0.4-3.3-0.5-4.1c-0.1-1.1-0.3-2-0.4-2.8c-0.2,0.5-0.6,1.3-1.2,2.5l-1,2.1l-0.8,1.8l-0.2,0.4
		l-0.5-1l1.2-2.4l-0.3-0.6l-1.2,2.5l-0.4-0.8l1.2-2.4l-0.3-0.6l-1.2,2.4l-0.4-0.7L523.8,102.7L523.8,102.7z M517.7,112.6h-2.2
		l0.1-0.4c0.7-2.9,1.2-5.8,1.7-8.6c0.2-1.3,0.4-2.3,0.5-3c0.1-0.8,0.3-1.7,0.4-2.7c0.1-1,0.3-2,0.4-2.8l0.1-0.6l1.7,3.1l-1.2,2.5
		l5.1,9.5c-0.1,0.2-0.1,0.3-0.2,0.4c-0.1,0.3-0.3,0.7-0.5,1.1c-0.4-0.9-0.9-2-1.5-3.1l-1.6-3.2c-0.7-1.3-1.1-2.1-1.4-2.6l-0.1,0.5
		c-0.3,1.9-0.6,4-0.9,6.5C517.9,110.3,517.8,111.4,517.7,112.6L517.7,112.6z"/>
	<path class="st2" d="M537.1,112.6l0-0.3c0.1-1.2,0.2-2.7,0.2-4.5c0.1-1.8,0.1-3.7,0.1-5.8c0-2.5-0.1-5.1-0.2-7.8l0-0.5h1.1v17.6
		h2.5c1.3,0,2.4,0,3.5-0.1c1-0.1,2-0.2,2.9-0.4c0.9-0.2,1.8-0.5,2.7-0.8l-0.5,2.6H537.1L537.1,112.6z M543.7,93.3v0.1
		c-0.1,3-0.2,5.1-0.2,6.5v0.1h5.3v1.8h-5.3v0.2c0,0.4,0,0.7,0,1.1c0,0.3,0,0.8,0,1.5c0,1.6,0.1,3.5,0.2,5.5l0,0.5h-4.9v-0.8h2.1
		v-0.6h-2.1v-0.8h2.1v-0.6h-2.1v-0.8h2.1v-0.6h-2.1v-0.8h2.1v-0.6h-2.1V104h2.1v-0.6h-2.1v-0.8h2.1v-0.6h-2.1V101h2.1v-0.6h-2.1
		v-0.8h2.1v-0.6h-2.1v-0.8h2.1v-0.6h-2.1v-0.8h2.1V96h-2.1v-0.8h2.1v-0.6h-2.1v-0.8h2.1v-0.6h-3.7c0-0.2,0-0.5,0-0.9
		c0-0.1,0-0.3,0-0.4H549l0.5,2.6c-0.8-0.2-1.7-0.5-2.9-0.7C545.3,93.5,544.4,93.3,543.7,93.3L543.7,93.3L543.7,93.3z"/>
	<path class="st2" d="M564,93.6l-0.9,2.3c-1.6-2.1-3.5-3.1-5.6-3.1c-1,0-2,0.3-2.8,0.8c-0.8,0.5-1.5,1.2-2,2.1
		c-0.5,0.9-0.7,1.9-0.7,3.1c0,1.1,0.2,2.1,0.7,2.8c0.5,0.7,1.3,1.4,2.4,2l7.4,3.9c-0.2,0.4-0.4,0.8-0.6,1.1l-6.7-3.5
		c-0.8-0.4-1.5-0.8-1.9-1.1c-0.4-0.3-0.8-0.7-1.1-1c-0.3-0.4-0.5-0.8-0.7-1.2c-0.2-0.4-0.3-0.9-0.4-1.3c-0.1-0.5-0.1-1-0.1-1.6
		c0-1.4,0.3-2.7,0.9-3.9c0.6-1.2,1.4-2.1,2.5-2.7c1.1-0.6,2.3-1,3.6-1c0.5,0,1,0.1,1.5,0.2c0.5,0.1,1,0.2,1.5,0.4
		c0.5,0.2,1,0.4,1.5,0.8C563.2,93,563.6,93.3,564,93.6L564,93.6z M560.3,105.7l1.1-2.2l-0.5-0.2l-1.1,2.2l-0.6-0.3l1.1-2.2l-0.5-0.2
		l-1.1,2.2l-0.6-0.3l1.1-2.2l-0.5-0.2l-1.1,2.2l-0.6-0.3l1.1-2.2l-0.5-0.2l-1.1,2.2l-0.6-0.3l1.1-2.2l-0.5-0.2l-1.1,2.2
		c-0.1,0-0.1-0.1-0.2-0.1c0,0-0.1,0-0.1-0.1c-0.1-0.1-0.2-0.1-0.2-0.1c0,0-0.1,0-0.1,0l1.1-2.2l-0.5-0.2l-1.1,2.1
		c-0.1-0.1-0.3-0.2-0.5-0.4l-0.1-0.1l1.1-2l-0.5-0.2l-1,1.9c-0.2-0.2-0.3-0.4-0.4-0.7l0.8-1.5l-0.5-0.2l-0.6,1.2
		c-0.2-0.5-0.2-1.1-0.2-1.7c0-0.6,0.1-1.2,0.2-1.7c0.1-0.5,0.4-1,0.7-1.6l6.8,3.6l1,0.5c0.8,0.4,1.4,0.9,1.8,1.4
		c0.5,0.5,0.8,1.1,1,1.8c0.2,0.7,0.3,1.5,0.3,2.4c0,2.1-0.7,3.9-2,5.5c-1.3,1.5-3,2.3-5.1,2.3c-1.2,0-2.4-0.2-3.6-0.7
		c-1.2-0.5-2.3-1.2-3.2-2.1l0.9-2.5c0.5,0.7,1.1,1.4,1.8,2c0.7,0.6,1.5,1,2.3,1.4c0.8,0.3,1.6,0.5,2.3,0.5c1.8,0,3.3-0.9,4.4-2.7
		c0.7-1.1,1-2.3,1-3.8c0-0.1,0-0.2,0-0.5l-0.5-0.2c0,0.2,0,0.4,0,0.7c0,0.6-0.1,1.3-0.3,2l-1.4-0.7l1.2-2.2l-0.5-0.2l-1.1,2.2
		L560.3,105.7L560.3,105.7z"/>
	<path class="st2" d="M566.6,111.3h0.2c0.2,0,0.4-0.1,0.4-0.3c0-0.2-0.1-0.3-0.4-0.3c-0.1,0-0.2,0-0.2,0V111.3L566.6,111.3z
		 M566.6,112.4h-0.4v-1.9c0.2,0,0.4-0.1,0.7-0.1c0.4,0,0.5,0.1,0.7,0.2c0.1,0.1,0.2,0.2,0.2,0.4c0,0.2-0.2,0.4-0.4,0.5v0
		c0.2,0.1,0.3,0.2,0.3,0.5c0.1,0.3,0.1,0.4,0.1,0.5h-0.5c-0.1-0.1-0.1-0.2-0.1-0.5c0-0.2-0.2-0.3-0.4-0.3h-0.2V112.4L566.6,112.4z
		 M566.9,109.9c-0.8,0-1.5,0.7-1.5,1.5c0,0.8,0.6,1.5,1.5,1.5c0.8,0,1.4-0.7,1.4-1.5C568.4,110.6,567.8,109.9,566.9,109.9
		L566.9,109.9L566.9,109.9z M566.9,109.5c1.1,0,1.9,0.8,1.9,1.9c0,1.1-0.8,1.9-1.9,1.9c-1.1,0-2-0.8-2-1.9
		C565,110.3,565.8,109.5,566.9,109.5L566.9,109.5L566.9,109.5z"/>
</g>
<g>
	<path class="st0" d="M102.6,169.5c23.8,0,46.6,1,67.6,2.7v-36.4c-21.4,1.8-44.7,2.8-69.1,2.8c-25.2,0-49.3-1.1-71.3-3v37.1
		C52.2,170.7,76.8,169.5,102.6,169.5L102.6,169.5z"/>
	<g>
		<defs>
			<rect id="SVGID_3_" x="29" y="134.8" width="142" height="38.8"/>
		</defs>
		<clipPath id="SVGID_4_">
			<use xlink:href="#SVGID_3_"  style="overflow:visible;"/>
		</clipPath>
		<g class="st3">
			<path class="st2" d="M29,173.5v-38.8l0.8,0.1c22.7,2,46.6,3,71.2,3c23.8,0,47.1-1,69.1-2.8l0.8-0.1v38.1l-0.8-0.1
				c-21.6-1.8-44.3-2.7-67.6-2.7c-25.2,0-49.7,1.1-72.7,3.1L29,173.5z M30.5,136.5v35.4c22.9-2,47.1-3.1,72-3.1
				c23,0,45.5,0.9,66.9,2.6v-34.7c-21.8,1.8-44.8,2.8-68.4,2.8C76.7,139.4,53,138.4,30.5,136.5z"/>
		</g>
	</g>
	<path class="st2" d="M47.7,156.5v-0.8h1.9v-0.6h-3.2l0-0.3c0-0.4,0-0.8-0.1-1h5.5c0,0.2,0,0.4,0,0.4l-0.1,1.9c0,0.5,0,0.9,0,1.4
		c0,1.2,0,2.2,0.1,3.1h-4.1v-0.8h1.9v-0.6h-1.9v-0.8h1.9v-0.6h-1.9v-0.8h1.9v-0.6H47.7L47.7,156.5z M43.5,145.7v16.4
		c-1.2-0.3-2.3-1-3.3-2.3h0.8v-0.6h-1.2l-0.1-0.1c-0.1-0.2-0.2-0.4-0.3-0.6l0-0.1h1.6v-0.6h-1.8c-0.1-0.3-0.2-0.5-0.3-0.8h2.1v-0.6
		h-2.2c-0.1-0.2-0.1-0.4-0.2-0.7l0-0.1h2.4v-0.6h-2.5c0-0.2,0-0.5-0.1-0.8h2.6v-0.6h-2.6c0-0.3,0-0.5,0-0.7l0-0.1h2.5v-0.6h-2.4
		c0.1-0.3,0.1-0.5,0.1-0.7l0-0.1h2.2v-0.6h-2.1c0-0.1,0.1-0.4,0.2-0.7l0-0.1h1.8v-0.6h-1.6c0.1-0.3,0.3-0.5,0.4-0.8h1.1v-0.6h-0.7
		c0.2-0.2,0.4-0.5,0.7-0.8V147h-1.7c1.7-2,3.7-2.9,6.1-2.9c0.7,0,1.4,0.1,2.1,0.3c0.7,0.2,1.4,0.5,2.1,0.8c0.7,0.4,1.3,0.8,1.8,1.3
		l-0.7,2.1c-0.7-1-1.6-1.8-2.5-2.3c-0.9-0.5-2-0.8-3.1-0.8C44.6,145.5,44.1,145.5,43.5,145.7L43.5,145.7z M47.3,161.1h4.5
		c0,0.4,0,0.8,0.1,1.4c-0.1,0-0.2,0-0.3,0c-0.5,0-1.1,0.1-1.9,0.4l-1,0.4c-1.2,0.5-2.4,0.7-3.6,0.7c-0.9,0-1.6-0.1-2.3-0.3
		c-0.7-0.2-1.3-0.5-2-1c-0.6-0.5-1.1-1-1.6-1.6c-0.5-0.6-0.9-1.3-1.3-2.1c-0.4-0.8-0.6-1.6-0.8-2.4c-0.2-0.8-0.3-1.7-0.3-2.5
		c0-1.2,0.2-2.3,0.5-3.4c0.3-1.1,0.8-2.1,1.4-3.1h1.4c-0.7,0.8-1.3,1.8-1.7,3c-0.4,1.1-0.6,2.3-0.6,3.6c0,1.5,0.3,3,1,4.3
		c0.6,1.4,1.5,2.5,2.6,3.3c0.9,0.7,2.1,1.1,3.4,1.1c0.5,0,0.9-0.1,1.4-0.2c0.1-1.5,0.2-3,0.2-4.7c0-0.7,0-1.4,0-2.2h0.8V161.1
		L47.3,161.1z"/>
	<path class="st2" d="M56.3,160.5H57V160H56l0-0.1c-0.1-0.2-0.2-0.4-0.3-0.5l0-0.1H57v-0.5h-1.5c-0.1-0.2-0.2-0.4-0.2-0.6H57v-0.5
		h-1.8c0-0.2-0.1-0.3-0.1-0.6l0-0.1h2v-0.5h-2c0-0.2,0-0.4,0-0.6H57v-0.5h-2.1c0-0.2,0-0.4,0-0.6l0-0.1h2v-0.5h-2
		c0-0.2,0.1-0.4,0.1-0.6l0-0.1H57v-0.5h-1.7c0-0.1,0.1-0.3,0.2-0.6l0-0.1H57v-0.5h-1.3c0.1-0.2,0.2-0.4,0.3-0.6H57v-0.5h-0.6
		c0.1-0.2,0.3-0.4,0.6-0.7V150h-1.4c1.4-1.6,3-2.4,4.8-2.4c1,0,1.8,0.2,2.7,0.6c0.8,0.4,1.6,1,2.2,1.7c0.6,0.8,1.1,1.6,1.5,2.6
		c0.3,1,0.5,2.1,0.5,3.2c0,2-0.5,3.7-1.6,5.3h-2.7v-0.6H64c0-0.1,0.1-0.3,0.2-0.5h-1.3v-0.6h1.5c0-0.1,0-0.2,0.1-0.2
		c0-0.1,0-0.1,0-0.2l0-0.1h-1.6v-0.6h1.7c0-0.1,0-0.1,0-0.2c0-0.1,0-0.1,0-0.2l0-0.1h-1.8v-0.6h1.9v-0.1c0-0.2,0-0.3,0-0.4h-1.9V156
		h1.9v-0.3v-0.1h-1.9v-0.6h1.9c0-0.1,0-0.1,0-0.1c0,0,0-0.1,0-0.2l0-0.1h-1.9v-0.6h1.8l0-0.1c0,0,0-0.1,0-0.3l0-0.1h-1.8v-0.6h1.6
		c0-0.1,0-0.1,0-0.1l-0.1-0.3c0,0,0,0,0-0.1h-1.5v-0.6h1.3c0-0.1-0.1-0.3-0.2-0.5h-1.1v-0.6h0.8c-0.1-0.2-0.2-0.4-0.4-0.5h-0.4v-0.4
		c-0.3-0.3-0.8-0.5-1.2-0.7c-0.5-0.2-1-0.2-1.4-0.2c-0.4,0-0.8,0.1-1.2,0.2v13.6C58.1,162.2,57.2,161.5,56.3,160.5L56.3,160.5z
		 M62.5,161.6h2.7c-0.4,0.5-0.9,1-1.4,1.3c-0.5,0.4-1,0.6-1.6,0.8c-0.6,0.2-1.2,0.3-1.8,0.3c-0.9,0-1.7-0.2-2.5-0.6
		c-0.8-0.4-1.5-0.9-2.1-1.6c-0.7-0.8-1.2-1.7-1.5-2.8c-0.4-1.1-0.6-2.1-0.6-3.2c0-1,0.1-1.9,0.4-2.8c0.3-0.9,0.7-1.7,1.2-2.5h1.2
		c-0.6,0.7-1.1,1.5-1.4,2.4c-0.3,0.9-0.5,1.9-0.5,2.9c0,0.6,0.1,1.3,0.2,1.9c0.2,0.6,0.4,1.2,0.6,1.8c0.3,0.6,0.6,1.1,1,1.6
		c1.1,1.2,2.4,1.8,3.9,1.8c0.5,0,1-0.1,1.5-0.2v-13.4c0.3,0.1,0.5,0.2,0.7,0.4V161.6L62.5,161.6z"/>
	<path class="st2" d="M71.1,160.5h0.6V160h-0.9l0-0.1c-0.1-0.2-0.2-0.4-0.3-0.5l0-0.1h1.3v-0.5h-1.5c-0.1-0.2-0.2-0.4-0.2-0.6h1.7
		v-0.5h-1.8c0-0.2-0.1-0.3-0.1-0.6l0-0.1h2v-0.5h-2c0-0.2,0-0.4,0-0.6h2.1v-0.5h-2.1c0-0.2,0-0.4,0-0.6l0-0.1h2v-0.5h-2
		c0-0.2,0.1-0.4,0.1-0.6l0-0.1h1.8v-0.5h-1.7c0-0.1,0.1-0.3,0.2-0.6l0-0.1h1.5v-0.5h-1.3c0.1-0.2,0.2-0.4,0.3-0.6h0.9v-0.5h-0.6
		c0.1-0.2,0.3-0.4,0.6-0.7V150h-1.4c1.4-1.6,3-2.4,4.8-2.4c1,0,1.8,0.2,2.7,0.6c0.8,0.4,1.6,1,2.2,1.7c0.6,0.8,1.1,1.6,1.5,2.6
		c0.3,1,0.5,2.1,0.5,3.2c0,2-0.5,3.7-1.6,5.3h-2.7v-0.6h1.1c0-0.1,0.1-0.3,0.2-0.5h-1.3v-0.6h1.5c0-0.1,0-0.2,0.1-0.2
		c0-0.1,0-0.1,0-0.2l0-0.1h-1.6v-0.6h1.7c0-0.1,0-0.1,0-0.2c0-0.1,0-0.1,0-0.2l0-0.1h-1.8v-0.6h1.9v-0.1c0-0.2,0-0.3,0-0.4h-1.9V156
		h1.9v-0.3v-0.1h-1.9v-0.6h1.9c0-0.1,0-0.1,0-0.1c0,0,0-0.1,0-0.2l0-0.1h-1.9v-0.6h1.8l0-0.1c0,0,0-0.1,0-0.3l0-0.1h-1.8v-0.6h1.6
		c0-0.1,0-0.1,0-0.1l-0.1-0.3c0,0,0,0,0-0.1h-1.5v-0.6h1.3c0-0.1-0.1-0.3-0.2-0.5h-1.1v-0.6h0.8c-0.1-0.2-0.2-0.4-0.4-0.5h-0.4v-0.4
		c-0.3-0.3-0.8-0.5-1.2-0.7c-0.5-0.2-1-0.2-1.4-0.2c-0.4,0-0.8,0.1-1.2,0.2v13.6C72.9,162.2,72,161.5,71.1,160.5L71.1,160.5z
		 M77.3,161.6H80c-0.4,0.5-0.9,1-1.4,1.3c-0.5,0.4-1,0.6-1.6,0.8c-0.6,0.2-1.2,0.3-1.8,0.3c-0.9,0-1.7-0.2-2.5-0.6
		c-0.8-0.4-1.5-0.9-2.1-1.6c-0.7-0.8-1.2-1.7-1.5-2.8c-0.4-1.1-0.6-2.1-0.6-3.2c0-1,0.1-1.9,0.4-2.8c0.3-0.9,0.6-1.7,1.2-2.5h1.2
		c-0.6,0.7-1.1,1.5-1.4,2.4c-0.3,0.9-0.5,1.9-0.5,2.9c0,0.6,0.1,1.3,0.2,1.9c0.2,0.6,0.4,1.2,0.6,1.8c0.3,0.6,0.6,1.1,1,1.6
		c1.1,1.2,2.4,1.8,3.9,1.8c0.5,0,1-0.1,1.5-0.2v-13.4c0.3,0.1,0.5,0.2,0.7,0.4V161.6L77.3,161.6z"/>
	<path class="st2" d="M83.6,163.7l0-0.3c0.1-0.9,0.1-2.1,0.2-3.4c0-1.4,0.1-2.8,0.1-4.4c0-1.9-0.1-3.8-0.2-5.9l0-0.3h0.8v13.3h5.4
		c0.4,0,0.7,0,0.9-0.1v-13.1c0.3,0,0.5,0.1,0.7,0.3v11.8h2.9c-0.5,0.6-0.9,1-1.3,1.3c-0.4,0.3-0.8,0.5-1.3,0.6
		c-0.5,0.1-1.1,0.2-1.8,0.2H83.6L83.6,163.7z M83.6,147.9h6.1c1,0,1.8,0.1,2.3,0.2c0.6,0.2,1.2,0.5,1.7,1c0.5,0.5,1,1,1.4,1.7
		c0.4,0.7,0.7,1.4,0.9,2.3c0.2,0.8,0.3,1.7,0.3,2.6c0,1-0.1,2-0.3,2.8c-0.2,0.8-0.6,1.7-1.1,2.5h-2.9v-0.6h1.3c0-0.1,0-0.1,0.1-0.2
		c0-0.1,0-0.1,0.1-0.1l0-0.1c0,0,0,0,0-0.1h-1.5v-0.6h1.6c0-0.2,0.1-0.4,0.1-0.5h-1.8v-0.6h1.9c0,0,0-0.1,0-0.2c0-0.1,0-0.1,0-0.2
		l0-0.1h-1.9v-0.6h2l0-0.1c0-0.1,0-0.2,0-0.2c0-0.1,0-0.1,0-0.2h-2V156h2v-0.1v-0.3h-2v-0.6h2l0-0.1c0-0.2,0-0.3,0-0.4h-2v-0.6h1.9
		l0-0.1c0-0.2,0-0.3,0-0.4h-1.9v-0.6h1.8c0-0.1,0-0.2-0.1-0.4c0,0,0,0,0-0.1h-1.7v-0.6h1.5c-0.1-0.2-0.1-0.3-0.2-0.5h-1.3v-0.6h1
		c-0.2-0.2-0.3-0.4-0.4-0.5h-0.6v-0.5c-0.3-0.2-0.7-0.4-1-0.5c-0.3-0.1-0.9-0.1-1.7-0.1h-0.6v13.3h-3.7v-0.6h1.6v-0.5h-1.6v-0.6h1.6
		V160h-1.6v-0.6h1.6v-0.5h-1.6v-0.6h1.6v-0.5h-1.6v-0.6h1.6v-0.5h-1.6V156h1.6v-0.5h-1.6v-0.6h1.6v-0.5h-1.6v-0.6h1.6v-0.5h-1.6
		v-0.6h1.6v-0.5h-1.6v-0.6h1.6v-0.5h-1.6v-0.6h1.6V150h-1.6v-0.6h1.6v-0.5h-2.8c0-0.1,0-0.3,0-0.7C83.6,148.2,83.6,148.1,83.6,147.9
		L83.6,147.9z"/>
	<path class="st2" d="M106.8,146.4c0.3,0,0.6-0.1,1-0.1v16.2h5.1c0,0.2,0,0.6,0.1,1.2h-6.2l0-0.3c0.1-1,0.1-2.5,0.2-4.3
		c0-0.4,0-0.9,0-1.3c0-0.4,0-0.9,0-1.3c0-0.6,0-1.2,0-1.7l-0.1-4.5C106.9,148.4,106.9,147.1,106.8,146.4L106.8,146.4z M112.8,145.9
		L112.8,145.9c-0.1,2.9-0.2,5.6-0.2,8.3c0,2.7,0.1,5.1,0.2,7.2l0,0.5h-4.6v-0.8h1.9v-0.6h-1.9v-0.8h1.9v-0.6h-1.9v-0.8h1.9v-0.6
		h-1.9v-0.8h1.9v-0.6h-1.9v-0.8h1.9v-0.6h-1.9v-0.8h1.9v-0.6h-1.9V153h1.9v-0.6h-1.9v-0.8h1.9v-0.6h-1.9v-0.8h1.9v-0.6h-1.9v-0.8
		h1.9v-0.6h-1.9v-0.8h1.9V147h-1.9v-0.7l0.2,0c0.7-0.1,1.2-0.1,1.5-0.1h0.2v-0.6c-1.2,0-2.5,0.1-3.8,0.3c-1.3,0.2-2.5,0.5-3.8,0.9
		l-0.3,0.1l0.4-2.4h14.1l0.4,2.4c-1.2-0.4-2.6-0.7-4.3-1L112.8,145.9L112.8,145.9z"/>
	<path class="st2" d="M118.2,163.7l0-0.3c0.1-0.9,0.1-2.1,0.2-3.4c0-1.4,0.1-2.8,0.1-4.4c0-1.9-0.1-3.8-0.2-5.9l0-0.3h0.8v13.3h4.1
		c0,0.3,0,0.6,0,1H118.2L118.2,163.7z M121.1,149.4v-0.5h-2.8c0-0.1,0-0.3,0-0.7c0-0.1,0-0.2,0-0.3h5.1l0,0.3
		c-0.1,2.1-0.2,4.7-0.2,7.7c0,2,0,3.9,0.1,5.9l0,0.4h-3.7v-0.6h1.6v-0.5h-1.6v-0.6h1.6V160h-1.6v-0.6h1.6v-0.5h-1.6v-0.6h1.6v-0.5
		h-1.6v-0.6h1.6v-0.5h-1.6V156h1.6v-0.5h-1.6v-0.6h1.6v-0.5h-1.6v-0.6h1.6v-0.5h-1.6v-0.6h1.6v-0.5h-1.6v-0.6h1.6v-0.5h-1.6v-0.6
		h1.6V150h-1.6v-0.6H121.1L121.1,149.4z"/>
	<path class="st2" d="M136.9,161.1h-1.6l-0.1-0.6h1.6l-0.1-0.5h-1.6l-0.1-0.6h1.6l-0.1-0.5h-1.6l-0.1-0.6h1.6l-0.1-0.5h-1.6
		l-0.1-0.6h1.6l-0.1-0.5h-1.6l-0.1-0.6h1.6l-0.1-0.5h-1.6l-0.1-0.6h1.6l-0.1-0.5h-1.6l-0.1-0.6h1.6l-0.7-4.4l0.1-0.3
		c0.2-0.5,0.4-0.9,0.4-1.1h1.4l0.1,0.4c0.3,2,0.5,3.6,0.7,4.8c0.5,2.9,1,5.8,1.6,8.7l0.1,0.4h-3.9l-0.1-0.6h1.6L136.9,161.1
		L136.9,161.1z M130.5,156.2l-0.2-0.4l-0.9,1.9l-0.3-0.6l0.9-1.9l-0.2-0.4l-0.9,1.9l-0.3-0.6l0.9-1.9l-0.2-0.4l-0.9,1.9l-0.3-0.6
		l1-1.9l-0.2-0.4l-0.9,1.9l-0.3-0.6l1-1.9l-1.6-3l0-0.3l0.1-0.7l0-0.3h1.5l0.1,0.3c0.5,1,1,2,1.7,3.3l0.8,1.4
		c0.4,0.8,0.8,1.4,1.1,1.9c0,0,0.1,0.1,0.2,0.2c0.2-0.4,0.4-0.8,0.6-1.3c0.1-0.3,0.3-0.7,0.6-1.2c0.1-0.1,0.1-0.3,0.2-0.5
		c0.1-0.2,0.2-0.3,0.2-0.4l0.6-1.4c0,0,0.1-0.1,0.1-0.3l0.5,3.4h-1.5l1.5,9.4h4.3l0.1,0.2c0.1,0.3,0.1,0.5,0.1,0.6l0,0.2h-5.3
		c0-0.3-0.1-0.8-0.1-1.4c0-0.2,0-0.4-0.1-0.6c0-0.2-0.1-0.5-0.1-0.8c-0.2-1.4-0.3-2.5-0.4-3.1c-0.1-0.8-0.2-1.5-0.3-2.1
		c-0.2,0.3-0.5,1-0.9,1.9l-0.7,1.6l-0.6,1.4l-0.1,0.3l-0.4-0.8l0.9-1.9l-0.2-0.4l-0.9,1.9l-0.3-0.6l0.9-1.9l-0.2-0.4l-0.9,1.9
		l-0.3-0.6L130.5,156.2L130.5,156.2z M126,163.7h-1.7l0.1-0.3c0.5-2.2,0.9-4.4,1.3-6.5c0.2-1,0.3-1.7,0.4-2.3c0.1-0.6,0.2-1.3,0.3-2
		c0.1-0.8,0.2-1.5,0.3-2.2l0.1-0.4l1.3,2.3l-0.9,1.9l3.8,7.2c-0.1,0.1-0.1,0.2-0.1,0.3c-0.1,0.2-0.2,0.5-0.3,0.8
		c-0.3-0.7-0.7-1.5-1.1-2.4l-1.2-2.4c-0.5-1-0.8-1.6-1-2l-0.1,0.4c-0.2,1.4-0.5,3.1-0.7,4.9C126.1,161.9,126,162.8,126,163.7
		L126,163.7z"/>
	<path class="st2" d="M140.6,163.7l0-0.3c0.1-0.9,0.1-2.1,0.2-3.4c0-1.4,0.1-2.8,0.1-4.4c0-1.9-0.1-3.8-0.2-5.9l0-0.3h0.8v13.3h1.9
		c1,0,1.9,0,2.6-0.1c0.8-0.1,1.5-0.2,2.2-0.3c0.7-0.1,1.4-0.4,2-0.6l-0.4,2H140.6L140.6,163.7z M145.6,149.1L145.6,149.1
		c-0.1,2.3-0.2,4-0.2,5v0.1h4v1.3h-4v0.2c0,0.3,0,0.5,0,0.8c0,0.3,0,0.6,0,1.1c0,1.2,0.1,2.6,0.1,4.2l0,0.4h-3.7v-0.6h1.6v-0.5h-1.6
		v-0.6h1.6V160h-1.6v-0.6h1.6v-0.5h-1.6v-0.6h1.6v-0.5h-1.6v-0.6h1.6v-0.5h-1.6V156h1.6v-0.5h-1.6v-0.6h1.6v-0.5h-1.6v-0.6h1.6v-0.5
		h-1.6v-0.6h1.6v-0.5h-1.6v-0.6h1.6v-0.5h-1.6v-0.6h1.6V150h-1.6v-0.6h1.6v-0.5h-2.8c0-0.1,0-0.3,0-0.7c0-0.1,0-0.2,0-0.3h9l0.4,2
		c-0.6-0.2-1.3-0.4-2.2-0.5C146.8,149.2,146.2,149.1,145.6,149.1L145.6,149.1L145.6,149.1z"/>
	<path class="st2" d="M161,149.3l-0.6,1.8c-1.2-1.6-2.6-2.3-4.2-2.3c-0.8,0-1.5,0.2-2.1,0.6c-0.6,0.4-1.1,0.9-1.5,1.6
		c-0.4,0.7-0.5,1.5-0.5,2.3c0,0.9,0.2,1.6,0.5,2.1c0.4,0.6,1,1.1,1.8,1.5l5.6,3c-0.1,0.3-0.3,0.6-0.4,0.8l-5.1-2.7
		c-0.6-0.3-1.1-0.6-1.4-0.9c-0.3-0.2-0.6-0.5-0.8-0.8c-0.2-0.3-0.4-0.6-0.5-0.9c-0.1-0.3-0.2-0.7-0.3-1c-0.1-0.4-0.1-0.8-0.1-1.2
		c0-1.1,0.2-2.1,0.7-2.9c0.5-0.9,1.1-1.6,1.9-2c0.8-0.5,1.7-0.7,2.7-0.7c0.4,0,0.8,0,1.2,0.1c0.4,0.1,0.8,0.2,1.1,0.3
		c0.4,0.1,0.8,0.3,1.2,0.6C160.4,148.8,160.7,149.1,161,149.3L161,149.3z M158.2,158.5l0.9-1.7l-0.4-0.2l-0.9,1.7l-0.5-0.3l0.9-1.7
		l-0.4-0.2l-0.9,1.6l-0.5-0.2l0.9-1.6l-0.4-0.2l-0.9,1.6l-0.5-0.2l0.9-1.6l-0.3-0.2l-0.9,1.6l-0.5-0.3l0.9-1.6l-0.4-0.2l-0.9,1.6
		c-0.1,0-0.1-0.1-0.1-0.1c0,0-0.1,0-0.1-0.1c-0.1,0-0.1-0.1-0.2-0.1c0,0-0.1,0-0.1,0l0.9-1.6l-0.4-0.2l-0.8,1.6
		c-0.1-0.1-0.2-0.2-0.4-0.3l-0.1,0l0.8-1.5l-0.4-0.2l-0.7,1.4c-0.1-0.2-0.2-0.3-0.3-0.5l0.6-1.2l-0.4-0.2l-0.5,0.9
		c-0.1-0.4-0.2-0.8-0.2-1.3c0-0.5,0.1-0.9,0.2-1.3c0.1-0.4,0.3-0.8,0.5-1.2l5.2,2.8l0.8,0.4c0.6,0.3,1,0.7,1.4,1
		c0.3,0.4,0.6,0.8,0.8,1.3c0.2,0.5,0.2,1.1,0.2,1.8c0,1.6-0.5,3-1.5,4.1c-1,1.2-2.3,1.7-3.9,1.7c-0.9,0-1.8-0.2-2.7-0.6
		c-0.9-0.4-1.7-0.9-2.4-1.6l0.7-1.9c0.4,0.6,0.8,1.1,1.4,1.5c0.6,0.4,1.1,0.8,1.7,1c0.6,0.2,1.2,0.4,1.8,0.4c1.4,0,2.5-0.7,3.4-2
		c0.5-0.8,0.8-1.8,0.8-2.8c0,0,0-0.2,0-0.4l-0.4-0.2c0,0.2,0,0.3,0,0.5c0,0.5-0.1,1-0.2,1.5l-1.1-0.6l0.9-1.7l-0.4-0.2l-0.9,1.7
		L158.2,158.5L158.2,158.5z"/>
	<path class="st2" d="M163,162.7h0.2c0.2,0,0.3-0.1,0.3-0.2c0-0.1-0.1-0.2-0.3-0.2c-0.1,0-0.1,0-0.2,0V162.7L163,162.7z M163,163.5
		h-0.3v-1.4c0.1,0,0.3-0.1,0.6-0.1c0.3,0,0.4,0,0.5,0.1c0.1,0.1,0.1,0.2,0.1,0.3c0,0.2-0.1,0.3-0.3,0.3v0c0.1,0,0.2,0.2,0.3,0.4
		c0,0.2,0.1,0.3,0.1,0.4h-0.4c0-0.1-0.1-0.2-0.1-0.3c0-0.2-0.1-0.2-0.3-0.2H163V163.5L163,163.5z M163.2,161.6
		c-0.6,0-1.1,0.5-1.1,1.1c0,0.6,0.5,1.1,1.1,1.1c0.6,0,1.1-0.5,1.1-1.1C164.3,162.1,163.8,161.6,163.2,161.6L163.2,161.6
		L163.2,161.6z M163.2,161.3c0.8,0,1.5,0.6,1.5,1.4c0,0.8-0.6,1.4-1.5,1.4c-0.8,0-1.5-0.6-1.5-1.4
		C161.7,162,162.4,161.3,163.2,161.3L163.2,161.3L163.2,161.3z"/>
</g>
<g>
	<path class="st4" d="M41.1-322.8c3.2-0.2,12.1-0.8,11.7,3c-0.2,1.5-2.6,1.8-3.1,2.7c-1.2,2.2-0.4,11.4-0.4,15.3
		c0,1.4-0.1,3.5,0.6,4.6c1.8,3,7.4,0.7,8.6-1c0.7-1.1,0.7-3.7,2.1-4c1.9-0.4,3,1.5,3.1,3c0.4,3.1-1.8,8.1-3.9,8.7
		c-1.4,0.4-3.9-0.3-5.6-0.4c-3.1-0.2-6.9,0-10.7,0c-3.3,0-8.8,0.8-8.7-2c0.1-1.4,2.7-1.9,3.3-3c1.1-2.1,0.5-7.4,0.4-10.4
		c0-1.6-0.1-3.3-0.1-5.3c0-1.6,0.1-4.1-0.4-5c-0.6-1-3.7-1.2-3.9-2.7C33.8-322.4,39-322.7,41.1-322.8z"/>
	<path class="st4" d="M71.1-322.3c2.4-0.3,5.1-0.2,5.6,1.9c1,3.9-5.6,5.8-9.6,5.1c-1.5-0.2-3-1.4-3-3c0-1.7,2-2.6,2.7-2.9
		C68.3-321.8,69.2-322,71.1-322.3z"/>
	<path class="st4" d="M138-322c0.8,3.8-0.1,7.9-0.1,12.4c0,1.9,0,4.4,0,6.9c0,2.2-0.5,4.9,0.1,6.7c0.4,1.1,2.4,1.3,2.6,2.6
		c0.5,3.1-4.8,3-7.9,3c-3.2,0-8.1-0.3-7.9-3c0.1-1.2,2-1.5,2.4-2.3c0.9-1.8,0.6-6.4,0.6-8.9c0-3.2,0.4-7.1-0.6-9.1
		c-0.6-1.2-2.9-2.3-3-3.6c-0.3-3.7,7.9-4.7,11-5C136-322.3,137.3-322.6,138-322z"/>
	<path class="st4" d="M94.4-319.3c0.7,1.2,0,3.7,0.4,5.1c1.5,0.7,4.5,0,6.3,0.4c0.5,1.1,0.4,3.5,0,4.6c-1.5,0.7-4.4,0-6.1,0.4
		c0,3.2-1.7,10.9,1.6,11.6c1.7,0.3,2.2-0.9,3.9-1c4,3.9-3.7,8.2-9.1,7.7c-2.7-0.2-5.2-1.6-6.3-3.4c-2.5-4.2-0.2-9.3-1-15.3
		c-1-0.4-3,0.1-4-0.3c-0.3-0.6-0.1-1.7-0.1-2.6c3.3-2.2,7.3-5.4,11.1-7.3C91.7-319.6,93.4-319.4,94.4-319.3z"/>
	<path class="st4" d="M116.3-319.3c0.7,1.2,0,3.7,0.4,5.1c1.5,0.7,4.5,0,6.3,0.4c0.5,1.1,0.4,3.5,0,4.6c-1.5,0.7-4.4,0-6.1,0.4
		c0,3.2-1.7,10.9,1.6,11.6c1.7,0.3,2.2-0.9,3.9-1c4,3.9-3.7,8.2-9.1,7.7c-2.7-0.2-5.2-1.6-6.3-3.4c-2.5-4.2-0.2-9.3-1-15.3
		c-1-0.4-3,0.1-4-0.3c-0.3-0.6-0.1-1.7-0.1-2.6c3.3-2.2,7.3-5.4,11.1-7.3C113.5-319.6,115.2-319.4,116.3-319.3z"/>
	<path class="st4" d="M76.5-313.5c0.7,2.3,0.4,5.3,0.4,8.3c0,2.9-0.6,6.4,0.1,8.6c0.5,1.5,2.3,1.6,2.4,3.1c0.2,2.8-4.7,3.1-7.7,3.1
		c-2.7,0-8,0.1-8-2.7c0-1.4,1.9-2.1,2.4-3.3c0.6-1.4,0.5-3.2,0.4-4.9c0-1.5,0.1-4-0.3-5c-0.4-1.2-2.6-1.7-2.7-2.9
		c-0.2-2.7,7.9-4.6,11-4.7C75.4-313.9,76-313.9,76.5-313.5z"/>
	<path class="st4" d="M151.7-301.1c-0.3,3.5,3.9,5.4,7.6,4.1c1-0.3,2.5-1.6,3.4-1.6c1.1,0.1,1.7,1.4,1.7,2.1
		c0.1,2.1-2.3,3.6-3.6,4.3c-8.6,4.7-19.1-0.5-19.1-9.9c0-6.2,5.1-11.3,11.4-11.9c5.9-0.5,11.1,2.9,12.1,7.9c0.3,1.4,0.2,3.7-1.1,4.4
		C161.4-300,155.1-302.2,151.7-301.1z M151.5-306c0.9,0.7,3.7,0.5,4.9,0.1C158.5-310.6,150-310.8,151.5-306z"/>
	<path class="st4" d="M103-276.4c0.8-1.2,0.5-2,0.3-2.6c-0.2-0.4-1.3-1.1-1.3-1.7c0.1-1.8,5.2-1.5,5.4-0.1c0.2,1.1-0.8,0.9-1.3,1.6
		c-0.9,3.9,0.7,8.2-1,10.9c-3.4-1.3-4.9-4.6-8-6.3c-1,1.1-1,2.1-0.6,3.3c0.1,0.4,1.3,1.2,1.3,1.7c0,1.9-5.3,1.7-5.4,0.1
		c-0.1-1.1,0.7-0.8,1.1-1.6c-0.1-2.5,0.7-6.2-0.1-7.9c-0.4-0.9-1.4-0.8-1.4-1.6c-0.1-1.3,3-1.6,4.3-1.3
		C98.5-281.3,100.5-277.1,103-276.4z"/>
	<path class="st4" d="M84.8-275.4c0.3,0.5,0.4,1.2,0.7,1.7c-1.4,4.3-6.6-1.8-8.3,1.7c-0.1-0.7-0.5-1.1-0.6-1.9
		C78.4-277.7,83.5-271.8,84.8-275.4z"/>
	<path class="st4" d="M122-275.4c0.3,0.5,0.4,1.2,0.7,1.7c-1.4,4.3-6.6-1.8-8.3,1.7c-0.1-0.7-0.5-1.1-0.6-1.9
		C115.5-277.7,120.6-271.8,122-275.4z"/>
	<path class="st4" d="M61.4-245.4c1.9-1,2-3.8,3-5.7c-0.6-1.3-0.7-2.1-1.4-3.1c-0.9-1.1-2.6-1.4-2.6-3c0-2.9,5.4-3,8.4-3
		c2.7,0,8.7-0.1,8.9,2.6c0.1,1.7-1.8,1.9-2,3.1c-0.3,1.6,1.2,3.6,1.7,4.7c0.6,1.2,1.4,3.9,2.6,3.9c1,0,1.9-2.7,2.3-3.9
		c0.4-1.2,1.5-3.5,1.1-4.9c-0.5-1.6-3.1-0.7-2.9-3.3c0.3-3.2,11.8-3.5,11.6,0.6c-0.1,1.5-1.8,2.1-2.6,3.4c-1,1.7-1.7,4.4-2.6,6.7
		c-1.7,4.7-3.1,8.5-5.1,13.4c-0.7,1.7-2,5.2-3.3,5.9c-4.7,2.3-6.2-4.5-7.4-7.4c-1.2-2.8-2-5.4-3.4-7.1c-2.2,1.7-2.6,4.6-3.7,7.4
		c-0.9,2.1-2,6.3-3.9,7.1c-4.6,2.1-6-3.4-7.1-6.4c-1.7-4.4-3.3-8.8-5-13.1c-0.9-2.2-1.6-5-2.6-6.4c-0.7-1-2.4-1.4-2.6-2.6
		c-0.4-2.7,3-3.5,6-3.7c3.4-0.2,9.2-0.1,9.7,2c0.4,1.5-0.9,2.3-1,3.4c-0.2,1.7,1,3.7,1.6,5.1C59.7-248.3,60-246.6,61.4-245.4z"/>
	<path class="st4" d="M100.1-259.6c2.4-0.3,5.1-0.2,5.6,1.9c1,3.9-5.6,5.8-9.6,5.1c-1.5-0.2-3-1.4-3-2.9c0-1.7,1.9-2.7,2.6-3
		C97.1-259.1,98.2-259.3,100.1-259.6z"/>
	<path class="st4" d="M123.2-259.3c0.8,3.8-0.1,8-0.1,12.6c0,2,0,4.5,0,6.9c0,2.2-0.5,4.7,0.1,6.6c0.4,1.1,2.4,1.3,2.6,2.6
		c0.5,3.1-4.8,3-7.9,3c-3.2,0-8.1-0.3-7.9-3c0.1-1.2,2-1.5,2.4-2.3c0.9-1.8,0.6-6.4,0.6-8.9c0-3.2,0.4-7.1-0.6-9.1
		c-0.6-1.2-2.9-2.3-3-3.6c-0.3-3.7,7.9-4.7,11-5C121.3-259.6,122.6-259.9,123.2-259.3z"/>
	<path class="st4" d="M153.8-259c0.3,5.4,0.1,12.3,0.1,18.3c0,2.2-0.3,4.6,0.1,6c0.4,1.3,2.2,1.7,2.3,3c0.1,2.2-2.8,2.8-4.4,3.1
		c-2.1,0.5-4.4,0.9-6.6,0.6c-0.9-0.2-0.3-2-1.1-2.3c-2.5,0.9-3.3,2.4-6,2.6c-6.5,0.5-11.2-5.6-11.3-11.7c-0.1-8,8.8-14.7,16.4-10.3
		c1-0.7,0.9-2.1,0.6-2.9c-0.6-1.4-3-1.3-3.1-2.7c-0.3-2.6,7.6-4.3,10.4-4.4C152.4-259.8,153.3-259.6,153.8-259z M141.8-233.1
		c3-0.6,3.9-14.2-1-12.9C137.2-245,136.4-232.1,141.8-233.1z"/>
	<path class="st4" d="M105.7-250.7c0.5,2.4,0.3,5.3,0.3,8.3c0,2.8-0.6,6.2,0.1,8.4c0.5,1.5,2.3,1.6,2.4,3.1c0.2,2.8-4.7,3.1-7.7,3.1
		c-2.7,0-8,0.1-8-2.7c0-1.4,1.9-2.1,2.4-3.3c0.6-1.4,0.5-3.2,0.4-4.9c0-1.5,0.1-4-0.3-5c-0.4-1.2-2.6-1.7-2.7-2.9
		c-0.2-2.7,7.9-4.6,11-4.7C104.5-251.2,105.2-251.2,105.7-250.7z"/>
	<g>
		<path class="st2" d="M162.9-233.6c-1.7,0-3,1.4-3,3c0,1.7,1.4,3,3,3c1.7,0,3-1.4,3-3C165.9-232.2,164.5-233.6,162.9-233.6z
			 M162.9-228.1c-1.3,0-2.4-1.1-2.4-2.4c0-1.3,1.1-2.4,2.4-2.4c1.3,0,2.4,1.1,2.4,2.4C165.3-229.2,164.2-228.1,162.9-228.1z"/>
		<path class="st2" d="M163.4-230.6L163.4-230.6c0.4-0.1,0.8-0.5,0.8-1c0-0.3-0.1-0.5-0.3-0.7c-0.3-0.2-0.6-0.3-1.2-0.3
			c-0.4,0-0.8,0-1,0.1v3.7h0.5v-1.6h0.5c0.5,0,0.7,0.2,0.8,0.7c0.1,0.5,0.2,0.8,0.3,0.9h0.6c-0.1-0.1-0.2-0.5-0.3-1
			C163.9-230.2,163.7-230.5,163.4-230.6z M162.7-230.8h-0.5v-1.4c0.1,0,0.3,0,0.5,0c0.6,0,0.9,0.2,0.9,0.7
			C163.7-231.1,163.3-230.8,162.7-230.8z"/>
	</g>
</g>
<g>
	<g>
		<defs>
			<path id="SVGID_5_" d="M160.6,104.9h-29.4V91.7h6V58.3H131V45.4h30.4c10.1,0,17.6,2.5,22.6,7.5c5,5,7.5,12.4,7.5,22
				c0,4-0.7,7.8-2,11.3c-1.3,3.6-3.3,6.7-5.8,9.5c-2.5,2.8-5.8,5-9.7,6.6C170,104.1,165.6,104.9,160.6,104.9 M157.3,91.7L157.3,91.7
				h1.3c1.8,0,3.4-0.3,4.7-1c1.4-0.7,2.4-1.6,3.2-2.7c0.8-1.1,1.5-2.4,2-3.9c0.5-1.5,0.9-3,1-4.5c0.2-1.5,0.3-3,0.3-4.7l0,0l0,0l0,0
				l0,0c0-1.7-0.1-3.2-0.2-4.6c-0.1-1.4-0.4-2.9-0.9-4.4c-0.5-1.5-1.1-2.8-1.8-3.9c-0.8-1.1-1.8-1.9-3.2-2.6c-1.3-0.7-2.9-1-4.7-1
				h-1.7V91.7"/>
		</defs>
		<clipPath id="SVGID_6_">
			<use xlink:href="#SVGID_5_"  style="overflow:visible;"/>
		</clipPath>
		<g style="clip-path:url(#SVGID_6_);">
			
				<image style="overflow:visible;" width="523" height="514" xlink:href="158226AF.jpg"  transform="matrix(0.1163 0 0 0.1163 130.843 45.2559)">
			</image>
		</g>
	</g>
	<g>
		<defs>
			<polyline id="SVGID_7_" points="123.8,104.9 94.5,104.9 94.5,91.7 97.6,91.7 97.6,81.6 87.8,81.6 87.8,91.7 91.3,91.7 
				91.2,104.9 61.6,104.9 61.6,91.7 67,91.7 67,58.4 61.6,58.4 61.6,45.4 91.2,45.4 91.2,58.4 87.8,58.4 87.8,68.8 97.6,68.8 
				97.6,58.4 94.4,58.4 94.4,45.4 123.6,45.4 123.6,58.4 118.5,58.4 118.5,91.7 123.8,91.7 123.8,104.9 			"/>
		</defs>
		<clipPath id="SVGID_8_">
			<use xlink:href="#SVGID_7_"  style="overflow:visible;"/>
		</clipPath>
		<g style="clip-path:url(#SVGID_8_);">
			
				<image style="overflow:visible;" width="537" height="514" xlink:href="158226AD.jpg"  transform="matrix(0.1163 0 0 0.1163 61.4768 45.2559)">
			</image>
		</g>
	</g>
	<path class="st5" d="M16.1,60l-2.3,11h5l-2.9,13.3h-5.1l-2.3,11h5l-2.3,10.5h11.5L25,95.1h6l-2.3,10.5h11.5l2.4-10.5H48l2.3-11H45
		l3-13.3h5.3l2.3-11h-5.1l3.2-13.8H41.9L38.8,60H33l3.2-13.8H24.3L21.3,60H16.1L16.1,60z M30.5,70.9h5.8l-2.9,13.3h-5.9L30.5,70.9
		L30.5,70.9z"/>
</g>
</svg>
