<?xml version="1.0" encoding="utf-8"?>
<!-- Generator: Adobe Illustrator 19.1.1, SVG Export Plug-In . SVG Version: 6.00 Build 0)  -->
<svg version="1.1" id="Layer_1" xmlns="http://www.w3.org/2000/svg" xmlns:xlink="http://www.w3.org/1999/xlink" x="0px" y="0px"
	 viewBox="-229 31 500 500" style="enable-background:new -229 31 500 500;" xml:space="preserve">
<style type="text/css">
	.st0{fill:#FCC328;}
	.st1{fill:#FFFFFF;}
</style>
<g>
	<g>
		<path class="st0" d="M-201.6,356.3l3.6-0.4v-14.4h-3.6v-2.4l7.9-1.4V356l3.6,0.4v2.6h-11.5V356.3z"/>
		<path class="st0" d="M-183.2,358.8h-4.3V355h4.3V358.8z"/>
		<path class="st1" d="M-167.1,339.1v3.9h2.8v3h-2.8v8.1c0,0.6,0.1,1.1,0.4,1.3s0.6,0.4,1,0.4c0.3,0,0.5,0,0.8,0s0.5-0.1,0.7-0.1
			l0.4,3.1c-0.5,0.1-1,0.3-1.4,0.3s-1,0.1-1.5,0.1c-1.5,0-2.6-0.4-3.4-1.2c-0.8-0.8-1.2-2.1-1.2-3.9V346h-2.3v-3h2.3v-3.9H-167.1z"
			/>
		<path class="st1" d="M-162.5,356.3l2.1-0.4V339l-2.3-0.4V336h6.5v9c0.5-0.7,1.1-1.3,1.8-1.7c0.7-0.4,1.5-0.6,2.4-0.6
			c1.7,0,3,0.5,3.9,1.6c0.9,1.1,1.4,2.8,1.4,5.1v6.4l2.1,0.4v2.6h-8.2v-2.6l1.8-0.4v-6.4c0-1.2-0.2-2.1-0.7-2.6s-1.1-0.8-1.9-0.8
			c-0.6,0-1.1,0.1-1.6,0.3s-0.8,0.5-1.1,0.9v8.6l1.8,0.4v2.6h-8.2v-2.5H-162.5z"/>
		<path class="st1" d="M-135.7,359.1c-2.3,0-4.1-0.7-5.5-2.2s-2.1-3.3-2.1-5.6v-0.6c0-2.4,0.6-4.3,1.9-5.8s3-2.3,5.2-2.3
			c2.1,0,3.8,0.6,5,1.9s1.8,3,1.8,5.2v2.3h-9.5v0.1c0.1,1,0.4,1.9,1,2.6s1.5,1,2.5,1c0.9,0,1.7-0.1,2.4-0.3c0.7-0.2,1.3-0.5,2.1-0.9
			l1.2,2.6c-0.7,0.5-1.5,1-2.5,1.3S-134.4,359.1-135.7,359.1z M-136.1,346c-0.8,0-1.4,0.3-1.9,0.9s-0.7,1.4-0.8,2.4v0.1h5.2V349
			c0-0.9-0.2-1.6-0.6-2.2C-134.6,346.2-135.2,346-136.1,346z"/>
		<path class="st1" d="M-109.6,356.9c-0.5,0.7-1.1,1.3-1.8,1.7s-1.5,0.6-2.3,0.6c-2,0-3.5-0.7-4.5-2.1s-1.6-3.3-1.6-5.7V351
			c0-2.5,0.5-4.5,1.6-6s2.6-2.3,4.6-2.3c0.8,0,1.5,0.2,2.1,0.5s1.2,0.8,1.7,1.5V339l-2.3-0.4V336h2.3h4.3v19.8l2.1,0.4v2.6h-5.8
			L-109.6,356.9z M-115.6,351.3c0,1.4,0.2,2.5,0.7,3.3s1.2,1.2,2.3,1.2c0.6,0,1.2-0.1,1.6-0.4s0.8-0.6,1.1-1.1v-6.7
			c-0.3-0.5-0.7-0.9-1.1-1.2s-1-0.4-1.6-0.4c-1,0-1.8,0.5-2.3,1.4s-0.7,2.1-0.7,3.6V351.3z"/>
		<path class="st1" d="M-102.3,356.3l2.1-0.4V346l-2.3-0.4V343h6.6v12.8l2.1,0.4v2.6h-8.4v-2.5H-102.3z M-96,339.2h-4.3V336h4.3
			V339.2z"/>
		<path class="st1" d="M-79.6,348.4h-2.9l-0.5-2c-0.3-0.2-0.7-0.4-1.1-0.6s-0.9-0.2-1.5-0.2c-0.8,0-1.3,0.2-1.8,0.5
			s-0.7,0.8-0.7,1.3s0.2,0.9,0.6,1.2s1.3,0.6,2.5,0.8c2,0.4,3.4,1,4.4,1.7s1.4,1.8,1.4,3.1c0,1.4-0.6,2.6-1.8,3.5s-2.8,1.4-4.8,1.4
			c-1.2,0-2.3-0.2-3.4-0.5s-1.9-0.9-2.7-1.5v-3.6h3l0.6,2.1c0.3,0.2,0.6,0.4,1,0.5s0.9,0.2,1.4,0.2c0.9,0,1.5-0.2,2-0.5
			s0.7-0.7,0.7-1.3c0-0.5-0.2-0.9-0.7-1.2s-1.3-0.6-2.5-0.9c-1.9-0.4-3.3-0.9-4.2-1.7s-1.4-1.8-1.4-3.1c0-1.3,0.5-2.5,1.6-3.4
			s2.7-1.4,4.7-1.4c1.2,0,2.4,0.2,3.5,0.5s2,0.8,2.6,1.3L-79.6,348.4z"/>
		<path class="st1" d="M-70.8,339.1v3.9h2.8v3h-2.8v8.1c0,0.6,0.1,1.1,0.4,1.3s0.6,0.4,1,0.4c0.3,0,0.5,0,0.8,0s0.5-0.1,0.7-0.1
			l0.4,3.1c-0.5,0.1-1,0.3-1.4,0.3s-1,0.1-1.5,0.1c-1.5,0-2.6-0.4-3.4-1.2s-1.2-2.1-1.2-3.9V346h-2.3v-3h2.3v-3.9H-70.8z"/>
		<path class="st1" d="M-66,356.3l2.1-0.4V346l-2.3-0.4V343h6.6v12.8l2.1,0.4v2.6H-66V356.3z M-59.7,339.2H-64V336h4.3V339.2z"/>
		<path class="st1" d="M-56.5,356.3l2.1-0.4V346l-2.3-0.4V343h6.3l0.2,2.3c0.5-0.8,1.2-1.4,1.9-1.9s1.6-0.7,2.6-0.7
			c1.6,0,2.9,0.5,3.8,1.5s1.3,2.6,1.3,4.7v6.9l2.1,0.4v2.6h-8.2v-2.6l1.8-0.4v-6.9c0-1.1-0.2-1.8-0.6-2.3s-1.1-0.7-1.9-0.7
			c-0.6,0-1.1,0.1-1.5,0.3s-0.8,0.6-1.1,1v8.5l1.7,0.4v2.6h-8.1v-2.4H-56.5z"/>
		<path class="st1" d="M-29.9,355.8c0.8,0,1.4-0.2,1.8-0.7s0.7-1,0.7-1.8h3.9v0.1c0,1.6-0.6,2.9-1.8,4s-2.8,1.6-4.6,1.6
			c-2.4,0-4.2-0.7-5.5-2.2s-1.9-3.4-1.9-5.8v-0.4c0-2.3,0.7-4.3,2-5.8s3.2-2.3,5.6-2.3c1.3,0,2.4,0.2,3.4,0.6s1.9,0.9,2.5,1.6
			l0.1,4.2h-3.5l-0.7-2.5c-0.2-0.2-0.5-0.3-0.8-0.5s-0.7-0.2-1.1-0.2c-1.2,0-2.1,0.4-2.6,1.3s-0.7,2-0.7,3.4v0.4
			c0,1.4,0.2,2.6,0.7,3.4S-31.1,355.8-29.9,355.8z"/>
		<path class="st1" d="M-15.2,339.1v3.9h2.8v3h-2.8v8.1c0,0.6,0.1,1.1,0.4,1.3s0.6,0.4,1,0.4c0.3,0,0.5,0,0.8,0s0.5-0.1,0.7-0.1
			l0.4,3.1c-0.5,0.1-1,0.3-1.4,0.3s-1,0.1-1.5,0.1c-1.5,0-2.6-0.4-3.4-1.2s-1.2-2.1-1.2-3.9V346h-2.3v-3h2.3v-3.9H-15.2z"/>
		<path class="st1" d="M-10.5,356.3l2.1-0.4V346l-2.3-0.4V343h6.6v12.8l2.1,0.4v2.6h-8.4v-2.5H-10.5z M-4.1,339.2h-4.3V336h4.3
			V339.2z"/>
		<path class="st1" d="M6,345.6l-1.5,0.3l2.1,7.1l0.3,1.5H7l0.3-1.5l2.1-7.1l-1.5-0.3V343h7.2v2.6l-1.4,0.2L9,358.9H4.9l-4.7-13.1
			l-1.4-0.2V343H6L6,345.6L6,345.6z"/>
		<path class="st1" d="M23.8,359.1c-2.3,0-4.1-0.7-5.5-2.2s-2.1-3.3-2.1-5.6v-0.6c0-2.4,0.6-4.3,1.9-5.8s3-2.3,5.2-2.3
			c2.1,0,3.8,0.6,5,1.9s1.8,3,1.8,5.2v2.3h-9.5v0.1c0.1,1,0.4,1.9,1,2.6s1.5,1,2.5,1c0.9,0,1.7-0.1,2.4-0.3c0.7-0.2,1.3-0.5,2.1-0.9
			l1.2,2.6c-0.7,0.5-1.5,1-2.5,1.3S25.1,359.1,23.8,359.1z M23.4,346c-0.8,0-1.4,0.3-1.9,0.9s-0.7,1.4-0.8,2.4v0.1h5.2V349
			c0-0.9-0.2-1.6-0.6-2.2S24.3,346,23.4,346z"/>
		<path class="st1" d="M45.9,339.1v3.9h2.8v3h-2.8v8.1c0,0.6,0.1,1.1,0.4,1.3s0.6,0.4,1,0.4c0.3,0,0.5,0,0.8,0s0.5-0.1,0.7-0.1
			l0.4,3.1c-0.5,0.1-1,0.3-1.4,0.3s-1,0.1-1.5,0.1c-1.5,0-2.6-0.4-3.4-1.2s-1.2-2.1-1.2-3.9V346h-2.3v-3h2.3v-3.9H45.9z"/>
		<path class="st1" d="M60.8,358.8c-0.1-0.3-0.2-0.5-0.3-0.8s-0.2-0.6-0.2-0.8c-0.5,0.6-1.1,1.1-1.9,1.4s-1.6,0.5-2.5,0.5
			c-1.6,0-2.8-0.4-3.7-1.3s-1.4-2-1.4-3.5s0.6-2.6,1.8-3.4s2.9-1.2,5.2-1.2H60v-1.6c0-0.8-0.2-1.4-0.7-1.8s-1.1-0.6-1.9-0.6
			c-0.5,0-0.9,0.1-1.3,0.2s-0.7,0.2-0.9,0.4l-0.3,1.7h-3.2v-3.5c0.8-0.5,1.7-1,2.7-1.3s2.1-0.5,3.3-0.5c2,0,3.6,0.5,4.8,1.4
			s1.8,2.3,1.8,4.1v6.5c0,0.2,0,0.5,0,0.7s0,0.4,0.1,0.6l1.3,0.2v2.6L60.8,358.8L60.8,358.8z M57.1,356c0.6,0,1.2-0.1,1.8-0.4
			s0.9-0.6,1.2-1v-2.4h-2.2c-0.9,0-1.6,0.2-2.1,0.6s-0.7,0.9-0.7,1.5c0,0.5,0.2,1,0.5,1.3S56.5,356,57.1,356z"/>
		<path class="st1" d="M80.2,348.4h-2.9l-0.5-2c-0.3-0.2-0.7-0.4-1.1-0.6s-0.9-0.2-1.5-0.2c-0.8,0-1.3,0.2-1.8,0.5s-0.7,0.8-0.7,1.3
			s0.2,0.9,0.6,1.2s1.3,0.6,2.5,0.8c2,0.4,3.4,1,4.4,1.7s1.4,1.8,1.4,3.1c0,1.4-0.6,2.6-1.8,3.5s-2.8,1.4-4.8,1.4
			c-1.2,0-2.3-0.2-3.4-0.5s-1.9-0.9-2.7-1.5v-3.6h3l0.6,2.1c0.3,0.2,0.6,0.4,1,0.5s0.9,0.2,1.4,0.2c0.9,0,1.5-0.2,2-0.5
			s0.7-0.7,0.7-1.3c0-0.5-0.2-0.9-0.7-1.2s-1.3-0.6-2.5-0.9c-1.9-0.4-3.3-0.9-4.2-1.7s-1.4-1.8-1.4-3.1c0-1.3,0.5-2.5,1.6-3.4
			s2.7-1.4,4.7-1.4c1.2,0,2.4,0.2,3.5,0.5s2,0.8,2.6,1.3L80.2,348.4z"/>
		<path class="st1" d="M89,339.1v3.9h2.8v3H89v8.1c0,0.6,0.1,1.1,0.4,1.3s0.6,0.4,1,0.4c0.3,0,0.5,0,0.8,0s0.5-0.1,0.7-0.1l0.4,3.1
			c-0.5,0.1-1,0.3-1.4,0.3s-1,0.1-1.5,0.1c-1.5,0-2.6-0.4-3.4-1.2s-1.2-2.1-1.2-3.9V346h-2.3v-3h2.3v-3.9H89z"/>
		<path class="st1" d="M101.5,359.1c-2.3,0-4.1-0.7-5.5-2.2s-2.1-3.3-2.1-5.6v-0.6c0-2.4,0.6-4.3,1.9-5.8s3-2.3,5.2-2.3
			c2.1,0,3.8,0.6,5,1.9s1.8,3,1.8,5.2v2.3h-9.5v0.1c0.1,1,0.4,1.9,1,2.6s1.5,1,2.5,1c0.9,0,1.7-0.1,2.4-0.3s1.3-0.5,2.1-0.9l1.2,2.6
			c-0.7,0.5-1.5,1-2.5,1.3S102.7,359.1,101.5,359.1z M101.1,346c-0.8,0-1.4,0.3-1.9,0.9s-0.7,1.4-0.8,2.4v0.1h5.2V349
			c0-0.9-0.2-1.6-0.6-2.2S101.9,346,101.1,346z"/>
		<path class="st1" d="M117.2,350.8c0-2.4,0.7-4.3,2-5.8s3.2-2.3,5.5-2.3s4.2,0.8,5.5,2.3s2,3.4,2,5.8v0.3c0,2.4-0.7,4.3-2,5.8
			s-3.1,2.2-5.5,2.2s-4.2-0.7-5.5-2.2s-2-3.4-2-5.8V350.8z M121.5,351.1c0,1.4,0.3,2.6,0.8,3.5s1.3,1.3,2.5,1.3
			c1.1,0,1.9-0.4,2.4-1.3s0.8-2,0.8-3.5v-0.3c0-1.4-0.3-2.6-0.8-3.4s-1.3-1.3-2.4-1.3s-1.9,0.4-2.4,1.3s-0.8,2-0.8,3.4v0.3H121.5z"
			/>
		<path class="st1" d="M134.2,356.3l2.1-0.4V346H134v-3h2.4v-1.8c0-1.8,0.5-3.1,1.5-4.1s2.5-1.4,4.3-1.4c0.4,0,0.7,0,1.1,0.1
			s0.8,0.1,1.2,0.2l-0.4,3.2c-0.2,0-0.5-0.1-0.7-0.1s-0.5,0-0.8,0c-0.7,0-1.2,0.2-1.6,0.6s-0.5,0.9-0.5,1.6v1.8h3.1v3h-3.1v9.8
			l2.1,0.4v2.6h-8.4V356.3z"/>
		<path class="st1" d="M162.6,358.8c-0.1-0.3-0.2-0.5-0.3-0.8s-0.2-0.6-0.2-0.8c-0.5,0.6-1.1,1.1-1.9,1.4c-0.7,0.4-1.6,0.5-2.5,0.5
			c-1.6,0-2.8-0.4-3.7-1.3c-0.9-0.8-1.4-2-1.4-3.5s0.6-2.6,1.8-3.4s2.9-1.2,5.2-1.2h2.2v-1.6c0-0.8-0.2-1.4-0.7-1.8
			s-1.1-0.6-1.9-0.6c-0.5,0-0.9,0.1-1.3,0.2s-0.7,0.2-0.9,0.4l-0.3,1.7h-3.2v-3.5c0.8-0.5,1.7-1,2.7-1.3c1-0.4,2.1-0.5,3.3-0.5
			c2,0,3.6,0.5,4.8,1.4c1.2,1,1.8,2.3,1.8,4.1v6.5c0,0.2,0,0.5,0,0.7s0,0.4,0.1,0.6l1.3,0.2v2.6L162.6,358.8L162.6,358.8z
			 M158.9,356c0.6,0,1.2-0.1,1.8-0.4s0.9-0.6,1.2-1v-2.4h-2.2c-0.9,0-1.6,0.2-2.1,0.6s-0.7,0.9-0.7,1.5c0,0.5,0.2,1,0.5,1.3
			C157.8,355.8,158.3,356,158.9,356z"/>
		<path class="st1" d="M176.6,356.3l2.1-0.4V346h-2.4v-3h2.4v-1.8c0-1.8,0.5-3.1,1.5-4.1s2.5-1.4,4.3-1.4c0.4,0,0.7,0,1.1,0.1
			s0.8,0.1,1.2,0.2l-0.4,3.2c-0.2,0-0.5-0.1-0.7-0.1s-0.5,0-0.8,0c-0.7,0-1.2,0.2-1.6,0.6s-0.5,0.9-0.5,1.6v1.8h3.1v3h-3.1v9.8
			l2.1,0.4v2.6h-8.4L176.6,356.3L176.6,356.3z"/>
		<path class="st1" d="M187.5,350.8c0-2.4,0.7-4.3,2-5.8s3.2-2.3,5.5-2.3s4.2,0.8,5.5,2.3s2,3.4,2,5.8v0.3c0,2.4-0.7,4.3-2,5.8
			s-3.1,2.2-5.5,2.2s-4.2-0.7-5.5-2.2s-2-3.4-2-5.8V350.8z M191.8,351.1c0,1.4,0.3,2.6,0.8,3.5s1.3,1.3,2.5,1.3
			c1.1,0,1.9-0.4,2.4-1.3s0.8-2,0.8-3.5v-0.3c0-1.4-0.3-2.6-0.8-3.4s-1.3-1.3-2.4-1.3s-1.9,0.4-2.4,1.3s-0.8,2-0.8,3.4v0.3H191.8z"
			/>
		<path class="st1" d="M204.3,350.8c0-2.4,0.7-4.3,2-5.8s3.2-2.3,5.5-2.3s4.2,0.8,5.5,2.3s2,3.4,2,5.8v0.3c0,2.4-0.7,4.3-2,5.8
			s-3.1,2.2-5.5,2.2s-4.2-0.7-5.5-2.2s-2-3.4-2-5.8V350.8z M208.6,351.1c0,1.4,0.3,2.6,0.8,3.5s1.3,1.3,2.5,1.3
			c1.1,0,1.9-0.4,2.4-1.3s0.8-2,0.8-3.5v-0.3c0-1.4-0.3-2.6-0.8-3.4s-1.3-1.3-2.4-1.3s-1.9,0.4-2.4,1.3s-0.8,2-0.8,3.4v0.3H208.6z"
			/>
		<path class="st1" d="M231.5,356.9c-0.5,0.7-1.1,1.3-1.8,1.7c-0.7,0.4-1.5,0.6-2.3,0.6c-2,0-3.5-0.7-4.5-2.1s-1.6-3.3-1.6-5.7V351
			c0-2.5,0.5-4.5,1.6-6s2.6-2.3,4.6-2.3c0.8,0,1.5,0.2,2.1,0.5s1.2,0.8,1.7,1.5V339l-2.3-0.4V336h2.3h4.3v19.8l2.1,0.4v2.6h-5.8
			L231.5,356.9z M225.5,351.3c0,1.4,0.2,2.5,0.7,3.3s1.2,1.2,2.3,1.2c0.6,0,1.2-0.1,1.6-0.4s0.8-0.6,1.1-1.1v-6.7
			c-0.3-0.5-0.7-0.9-1.1-1.2c-0.5-0.3-1-0.4-1.6-0.4c-1,0-1.8,0.5-2.3,1.4s-0.7,2.1-0.7,3.6V351.3z"/>
		<path class="st1" d="M243.8,358.3c0,1-0.3,2.1-0.8,3.2c-0.6,1.1-1.2,2-2.1,2.7l-2.1-1.1c0.4-0.7,0.7-1.4,0.9-2.1s0.3-1.5,0.3-2.4
			v-3.2h3.8L243.8,358.3z"/>
		<path class="st1" d="M-157.4,388.9c-0.5,0.7-1.1,1.3-1.8,1.7c-0.7,0.4-1.5,0.6-2.3,0.6c-2,0-3.5-0.7-4.5-2.1s-1.6-3.3-1.6-5.7V383
			c0-2.5,0.5-4.5,1.6-6c1.1-1.5,2.6-2.3,4.6-2.3c0.8,0,1.5,0.2,2.1,0.5c0.6,0.3,1.2,0.8,1.7,1.5V371l-2.3-0.4V368h2.3h4.3v19.8
			l2.1,0.4v2.6h-5.8L-157.4,388.9z M-163.3,383.3c0,1.4,0.2,2.5,0.7,3.3s1.2,1.2,2.3,1.2c0.6,0,1.2-0.1,1.6-0.4
			c0.4-0.3,0.8-0.6,1.1-1.1v-6.7c-0.3-0.5-0.7-0.9-1.1-1.2c-0.4-0.3-1-0.4-1.6-0.4c-1,0-1.8,0.5-2.3,1.4s-0.7,2.1-0.7,3.6V383.3z"/>
		<path class="st1" d="M-149.6,388.3l2.1-0.4V378l-2.3-0.4V375h6.3l0.2,2.3c0.4-0.8,0.8-1.5,1.4-1.9c0.6-0.4,1.3-0.7,2-0.7
			c0.2,0,0.5,0,0.7,0.1c0.2,0.1,0.5,0.1,0.6,0.1l-0.5,3.9h-1.8c-0.6,0-1.1,0.1-1.6,0.4s-0.7,0.6-0.9,1v7.7l2.1,0.4v2.6h-8.4v-2.6
			H-149.6z"/>
		<path class="st1" d="M-137.4,388.3l2.1-0.4V378l-2.3-0.4V375h6.6v12.8l2.1,0.4v2.6h-8.4L-137.4,388.3L-137.4,388.3z M-131.1,371.2
			h-4.3V368h4.3V371.2z"/>
		<path class="st1" d="M-127.9,388.3l2.1-0.4V378l-2.3-0.4V375h6.3l0.2,2.3c0.5-0.8,1.2-1.4,1.9-1.9s1.6-0.7,2.6-0.7
			c1.6,0,2.9,0.5,3.8,1.5s1.3,2.6,1.3,4.7v6.9l2.1,0.4v2.6h-8.2v-2.6l1.8-0.4v-6.9c0-1.1-0.2-1.8-0.6-2.3s-1.1-0.7-1.9-0.7
			c-0.6,0-1.1,0.1-1.5,0.3s-0.8,0.6-1.1,1v8.5l1.7,0.4v2.6h-8.1v-2.4H-127.9z"/>
		<path class="st1" d="M-109,370.5V368h6.5v13.2h1l2.5-3.5l-1.4-0.2V375h7.8v2.6l-1.9,0.4l-2.9,3.9l4,6l1.6,0.3v2.6h-7.3v-2.6
			l0.9-0.1l-2.4-3.9h-1.8v3.6l1.8,0.4v2.6h-8.2v-2.6l2.1-0.4V371L-109,370.5z"/>
		<path class="st1" d="M-85.3,390.3c0,1-0.3,2.1-0.8,3.2s-1.2,2-2.1,2.7l-2.1-1.1c0.4-0.7,0.7-1.4,0.9-2.1s0.3-1.5,0.3-2.4v-3.2h3.8
			L-85.3,390.3z"/>
		<path class="st1" d="M-75.6,382.8c0-2.4,0.7-4.3,2-5.8s3.2-2.3,5.5-2.3s4.2,0.8,5.5,2.3s2,3.4,2,5.8v0.3c0,2.4-0.7,4.3-2,5.8
			s-3.1,2.2-5.5,2.2s-4.2-0.7-5.5-2.2s-2-3.4-2-5.8V382.8z M-71.3,383.1c0,1.4,0.3,2.6,0.8,3.5s1.3,1.3,2.5,1.3
			c1.1,0,1.9-0.4,2.4-1.3s0.8-2,0.8-3.5v-0.3c0-1.4-0.3-2.6-0.8-3.4s-1.3-1.3-2.4-1.3s-1.9,0.4-2.4,1.3s-0.8,2-0.8,3.4v0.3H-71.3z"
			/>
		<path class="st1" d="M-58.4,388.3l2.1-0.4V378l-2.3-0.4V375h6.3l0.2,2.3c0.4-0.8,0.8-1.5,1.4-1.9s1.3-0.7,2-0.7
			c0.2,0,0.5,0,0.7,0.1s0.5,0.1,0.6,0.1l-0.5,3.9h-1.8c-0.6,0-1.1,0.1-1.6,0.4s-0.7,0.6-0.9,1v7.7l2.1,0.4v2.6h-8.4L-58.4,388.3
			L-58.4,388.3z"/>
		<path class="st1" d="M-25.8,380.4h-2.9l-0.5-2c-0.3-0.2-0.7-0.4-1.1-0.6s-0.9-0.2-1.5-0.2c-0.8,0-1.3,0.2-1.8,0.5
			s-0.7,0.8-0.7,1.3s0.2,0.9,0.6,1.2s1.3,0.6,2.5,0.8c2,0.4,3.4,1,4.4,1.7s1.4,1.8,1.4,3.1c0,1.4-0.6,2.6-1.8,3.5s-2.8,1.4-4.8,1.4
			c-1.2,0-2.3-0.2-3.4-0.5s-1.9-0.9-2.7-1.5v-3.6h3l0.6,2.1c0.3,0.2,0.6,0.4,1,0.5s0.9,0.2,1.4,0.2c0.9,0,1.5-0.2,2-0.5
			s0.7-0.7,0.7-1.3c0-0.5-0.2-0.9-0.7-1.2s-1.3-0.6-2.5-0.9c-1.9-0.4-3.3-0.9-4.2-1.7s-1.4-1.8-1.4-3.1c0-1.3,0.5-2.5,1.6-3.4
			s2.7-1.4,4.7-1.4c1.2,0,2.4,0.2,3.5,0.5s2,0.8,2.6,1.3L-25.8,380.4z"/>
		<path class="st1" d="M-12.2,388.8c-0.5,0.7-1.1,1.3-1.9,1.7s-1.6,0.6-2.6,0.6c-1.7,0-3-0.5-3.9-1.6s-1.4-2.7-1.4-5V378l-1.7-0.4
			V375h1.7h4.3v9.6c0,1.2,0.2,2,0.6,2.5s1,0.8,1.7,0.8s1.3-0.1,1.8-0.3s0.9-0.5,1.2-0.9V378l-1.9-0.4V375h1.9h4.3v12.8l1.9,0.4v2.6
			H-12L-12.2,388.8z"/>
		<path class="st1" d="M10.7,383.3c0,2.4-0.5,4.3-1.6,5.7s-2.6,2.1-4.6,2.1c-0.9,0-1.7-0.2-2.4-0.6s-1.3-0.9-1.7-1.7l-0.3,1.9h-3.7
			V371l-2.3-0.4V368h6.5v8.7c0.5-0.6,1-1.1,1.6-1.5s1.4-0.5,2.2-0.5c2,0,3.5,0.8,4.6,2.3s1.6,3.5,1.6,6.1L10.7,383.3L10.7,383.3z
			 M6.5,383c0-1.5-0.2-2.8-0.7-3.7s-1.2-1.4-2.3-1.4c-0.7,0-1.2,0.1-1.7,0.4S1,379,0.7,379.5v6.7c0.3,0.5,0.6,0.9,1.1,1.1
			s1,0.4,1.7,0.4c1.1,0,1.9-0.4,2.3-1.2s0.7-1.9,0.7-3.3V383z"/>
		<path class="st1" d="M25.6,380.4h-2.9l-0.5-2c-0.3-0.2-0.7-0.4-1.1-0.6s-0.9-0.2-1.5-0.2c-0.8,0-1.3,0.2-1.8,0.5s-0.7,0.8-0.7,1.3
			s0.2,0.9,0.6,1.2s1.3,0.6,2.5,0.8c2,0.4,3.4,1,4.4,1.7s1.4,1.8,1.4,3.1c0,1.4-0.6,2.6-1.8,3.5s-2.8,1.4-4.8,1.4
			c-1.2,0-2.3-0.2-3.4-0.5s-1.9-0.9-2.7-1.5v-3.6h3l0.6,2.1c0.3,0.2,0.6,0.4,1,0.5s0.9,0.2,1.4,0.2c0.9,0,1.5-0.2,2-0.5
			s0.7-0.7,0.7-1.3c0-0.5-0.2-0.9-0.7-1.2s-1.3-0.6-2.5-0.9c-1.9-0.4-3.3-0.9-4.2-1.7s-1.4-1.8-1.4-3.1c0-1.3,0.5-2.5,1.6-3.4
			s2.7-1.4,4.7-1.4c1.2,0,2.4,0.2,3.5,0.5s2,0.8,2.6,1.3L25.6,380.4z"/>
		<path class="st1" d="M34.4,371.1v3.9h2.8v3h-2.8v8.1c0,0.6,0.1,1.1,0.4,1.3s0.6,0.4,1,0.4c0.3,0,0.5,0,0.8,0s0.5-0.1,0.7-0.1
			l0.4,3.1c-0.5,0.1-1,0.3-1.4,0.3s-1,0.1-1.5,0.1c-1.5,0-2.6-0.4-3.4-1.2s-1.2-2.1-1.2-3.9V378h-2.3v-3h2.3v-3.9H34.4z"/>
		<path class="st1" d="M49.4,390.8c-0.1-0.3-0.2-0.5-0.3-0.8s-0.2-0.6-0.2-0.8c-0.5,0.6-1.1,1.1-1.9,1.4s-1.6,0.5-2.5,0.5
			c-1.6,0-2.8-0.4-3.7-1.3s-1.4-2-1.4-3.5s0.6-2.6,1.8-3.4s2.9-1.2,5.2-1.2h2.2v-1.6c0-0.8-0.2-1.4-0.7-1.8s-1.1-0.6-1.9-0.6
			c-0.5,0-0.9,0.1-1.3,0.2s-0.7,0.2-0.9,0.4l-0.3,1.7h-3.2v-3.5c0.8-0.5,1.7-1,2.7-1.3s2.1-0.5,3.3-0.5c2,0,3.6,0.5,4.8,1.4
			s1.8,2.3,1.8,4.1v6.5c0,0.2,0,0.5,0,0.7s0,0.4,0.1,0.6l1.3,0.2v2.6L49.4,390.8L49.4,390.8z M45.7,388c0.6,0,1.2-0.1,1.8-0.4
			s0.9-0.6,1.2-1v-2.4h-2.2c-0.9,0-1.6,0.2-2.1,0.6s-0.7,0.9-0.7,1.5c0,0.5,0.2,1,0.5,1.3S45.1,388,45.7,388z"/>
		<path class="st1" d="M55.6,388.3l2.1-0.4V378l-2.3-0.4V375h6.3l0.2,2.3c0.5-0.8,1.2-1.4,1.9-1.9s1.6-0.7,2.6-0.7
			c1.6,0,2.9,0.5,3.8,1.5s1.3,2.6,1.3,4.7v6.9l2.1,0.4v2.6h-8.2v-2.6l1.8-0.4v-6.9c0-1.1-0.2-1.8-0.6-2.3s-1.1-0.7-1.9-0.7
			c-0.6,0-1.1,0.1-1.5,0.3s-0.8,0.6-1.1,1v8.5l1.7,0.4v2.6h-8.1L55.6,388.3L55.6,388.3z"/>
		<path class="st1" d="M82.1,387.8c0.8,0,1.4-0.2,1.8-0.7s0.7-1,0.7-1.8h3.9v0.1c0,1.6-0.6,2.9-1.8,4s-2.8,1.6-4.6,1.6
			c-2.4,0-4.2-0.7-5.5-2.2s-1.9-3.4-1.9-5.8v-0.4c0-2.3,0.7-4.3,2-5.8s3.2-2.3,5.6-2.3c1.3,0,2.4,0.2,3.4,0.6s1.9,0.9,2.5,1.6
			l0.1,4.2h-3.5l-0.7-2.5c-0.2-0.2-0.5-0.3-0.8-0.5s-0.7-0.2-1.1-0.2c-1.2,0-2.1,0.4-2.6,1.3s-0.7,2-0.7,3.4v0.4
			c0,1.4,0.2,2.6,0.7,3.4S81,387.8,82.1,387.8z"/>
		<path class="st1" d="M98.1,391.1c-2.3,0-4.1-0.7-5.5-2.2s-2.1-3.3-2.1-5.6v-0.6c0-2.4,0.6-4.3,1.9-5.8s3-2.3,5.2-2.3
			c2.1,0,3.8,0.6,5,1.9s1.8,3,1.8,5.2v2.3H95v0.1c0.1,1,0.4,1.9,1,2.6s1.5,1,2.5,1c0.9,0,1.7-0.1,2.4-0.3s1.3-0.5,2.1-0.9l1.2,2.6
			c-0.7,0.5-1.5,1-2.5,1.3S99.4,391.1,98.1,391.1z M97.7,378c-0.8,0-1.4,0.3-1.9,0.9s-0.7,1.4-0.8,2.4v0.1h5.2V381
			c0-0.9-0.2-1.6-0.6-2.2S98.6,378,97.7,378z"/>
		<path class="st0" d="M-201.5,438.8V436l6.9-7.4c1-1.1,1.7-2.1,2.1-2.9s0.6-1.5,0.6-2.2c0-0.9-0.2-1.6-0.7-2.2s-1.2-0.9-2.1-0.9
			c-1,0-1.7,0.3-2.2,1s-0.8,1.6-0.8,2.7h-4.2V424c0-1.9,0.6-3.6,1.9-4.9s3.1-2,5.3-2s3.9,0.6,5.2,1.7s1.9,2.7,1.9,4.6
			c0,1.3-0.4,2.5-1.1,3.6s-1.9,2.5-3.5,4.3l-3.8,4.1v0.1h5.5l0.2-2.1h3.3v5.4L-201.5,438.8L-201.5,438.8z"/>
		<path class="st0" d="M-179.9,438.8h-4.3V435h4.3V438.8z"/>
		<path class="st1" d="M-160,438.8c-0.1-0.3-0.2-0.5-0.3-0.8s-0.2-0.6-0.2-0.8c-0.5,0.6-1.1,1.1-1.9,1.4c-0.8,0.3-1.6,0.5-2.5,0.5
			c-1.6,0-2.8-0.4-3.7-1.3c-0.9-0.9-1.4-2-1.4-3.5s0.6-2.6,1.8-3.4c1.2-0.8,2.9-1.2,5.2-1.2h2.2v-1.6c0-0.8-0.2-1.4-0.7-1.8
			s-1.1-0.6-1.9-0.6c-0.5,0-0.9,0.1-1.3,0.2s-0.7,0.2-0.9,0.4l-0.3,1.7h-3.1v-3.5c0.8-0.5,1.7-1,2.7-1.3s2.1-0.5,3.3-0.5
			c2,0,3.6,0.5,4.8,1.4s1.8,2.3,1.8,4.1v6.5c0,0.2,0,0.5,0,0.7s0,0.4,0.1,0.6l1.3,0.2v2.6L-160,438.8L-160,438.8z M-163.7,436
			c0.6,0,1.2-0.1,1.8-0.4s0.9-0.6,1.2-1v-2.4h-2.2c-0.9,0-1.6,0.2-2.1,0.6s-0.7,0.9-0.7,1.5c0,0.5,0.2,1,0.5,1.3
			S-164.3,436-163.7,436z"/>
		<path class="st1" d="M-153.8,436.3l2.1-0.4V426l-2.3-0.4V423h6.3l0.2,2.3c0.5-0.8,1.2-1.4,1.9-1.9s1.6-0.7,2.6-0.7
			c1.6,0,2.9,0.5,3.8,1.5c0.9,1,1.3,2.6,1.3,4.7v6.9l2.1,0.4v2.6h-8.2v-2.6l1.8-0.4v-6.9c0-1.1-0.2-1.8-0.6-2.3
			c-0.4-0.5-1.2-0.6-2.1-0.6c-0.6,0-1.1,0.1-1.5,0.3c-0.4,0.2-0.8,0.6-1.1,1v8.5l1.7,0.4v2.6h-8.1L-153.8,436.3L-153.8,436.3z"/>
		<path class="st1" d="M-127.3,436.3l2.1-0.4V426l-2.3-0.4V423h6.6v12.8l2.1,0.4v2.6h-8.4L-127.3,436.3L-127.3,436.3z M-121,419.2
			h-4.3V416h4.3V419.2z"/>
		<path class="st1" d="M-117.8,436.3l2.1-0.4V426l-2.3-0.4V423h6.3l0.2,2.3c0.5-0.8,1.2-1.4,1.9-1.9s1.6-0.7,2.6-0.7
			c1.6,0,2.9,0.5,3.8,1.5s1.3,2.6,1.3,4.7v6.9l2.1,0.4v2.6h-8.2v-2.6l1.8-0.4v-6.9c0-1.1-0.2-1.8-0.6-2.3s-1.1-0.7-1.9-0.7
			c-0.6,0-1.1,0.1-1.5,0.3s-0.8,0.6-1.1,1v8.5l1.7,0.4v2.6h-8.1v-2.4H-117.8z"/>
		<path class="st1" d="M-88.3,436.9c-0.5,0.7-1.1,1.3-1.8,1.7s-1.5,0.6-2.3,0.6c-2,0-3.5-0.7-4.5-2.1s-1.6-3.3-1.6-5.7V431
			c0-2.5,0.5-4.5,1.6-6s2.6-2.3,4.6-2.3c0.8,0,1.5,0.2,2.1,0.5s1.2,0.8,1.7,1.5V419l-2.3-0.4V416h2.3h4.3v19.8l2.1,0.4v2.6H-88
			L-88.3,436.9z M-94.3,431.3c0,1.4,0.2,2.5,0.7,3.3s1.2,1.2,2.3,1.2c0.6,0,1.2-0.1,1.6-0.4s0.8-0.6,1.1-1.1v-6.7
			c-0.3-0.5-0.7-0.9-1.1-1.2s-1-0.4-1.6-0.4c-1,0-1.8,0.5-2.3,1.4s-0.7,2.1-0.7,3.6V431.3z"/>
		<path class="st1" d="M-81,436.3l2.1-0.4V426l-2.3-0.4V423h6.6v12.8l2.1,0.4v2.6H-81V436.3z M-74.7,419.2H-79V416h4.3V419.2z"/>
		<path class="st1" d="M-63.8,435.8c0.8,0,1.4-0.2,1.8-0.7s0.7-1,0.7-1.8h3.9v0.1c0,1.6-0.6,2.9-1.8,4s-2.8,1.6-4.6,1.6
			c-2.4,0-4.2-0.7-5.5-2.2s-1.9-3.4-1.9-5.8v-0.4c0-2.3,0.7-4.3,2-5.8s3.2-2.3,5.6-2.3c1.3,0,2.4,0.2,3.4,0.6s1.9,0.9,2.5,1.6
			l0.1,4.2H-61l-0.7-2.5c-0.2-0.2-0.5-0.3-0.8-0.5s-0.7-0.2-1.1-0.2c-1.2,0-2.1,0.4-2.6,1.3s-0.7,2-0.7,3.4v0.4
			c0,1.4,0.2,2.6,0.7,3.4S-64.9,435.8-63.8,435.8z"/>
		<path class="st1" d="M-45.3,438.8c-0.1-0.3-0.2-0.5-0.3-0.8s-0.2-0.6-0.2-0.8c-0.5,0.6-1.1,1.1-1.9,1.4s-1.6,0.5-2.5,0.5
			c-1.6,0-2.8-0.4-3.7-1.3s-1.4-2-1.4-3.5s0.6-2.6,1.8-3.4s2.9-1.2,5.2-1.2h2.2v-1.6c0-0.8-0.2-1.4-0.7-1.8s-1.1-0.6-1.9-0.6
			c-0.5,0-0.9,0.1-1.3,0.2s-0.7,0.2-0.9,0.4l-0.3,1.7h-3.2v-3.5c0.8-0.5,1.7-1,2.7-1.3s2.1-0.5,3.3-0.5c2,0,3.6,0.5,4.8,1.4
			s1.8,2.3,1.8,4.1v6.5c0,0.2,0,0.5,0,0.7s0,0.4,0.1,0.6l1.3,0.2v2.6L-45.3,438.8L-45.3,438.8z M-49,436c0.6,0,1.2-0.1,1.8-0.4
			s0.9-0.6,1.2-1v-2.4h-2.2c-0.9,0-1.6,0.2-2.1,0.6s-0.7,0.9-0.7,1.5c0,0.5,0.2,1,0.5,1.3S-49.6,436-49,436z"/>
		<path class="st1" d="M-33.8,419.1v3.9h2.8v3h-2.8v8.1c0,0.6,0.1,1.1,0.4,1.3s0.6,0.4,1,0.4c0.3,0,0.5,0,0.8,0s0.5-0.1,0.7-0.1
			l0.4,3.1c-0.5,0.1-1,0.3-1.4,0.3s-1,0.1-1.5,0.1c-1.5,0-2.6-0.4-3.4-1.2s-1.2-2.1-1.2-3.9V426h-2.3v-3h2.3v-3.9H-33.8z"/>
		<path class="st1" d="M-29.1,436.3l2.1-0.4V426l-2.3-0.4V423h6.6v12.8l2.1,0.4v2.6H-29v-2.5H-29.1z M-22.7,419.2H-27V416h4.3V419.2
			z"/>
		<path class="st1" d="M-19.3,430.8c0-2.4,0.7-4.3,2-5.8s3.2-2.3,5.5-2.3s4.2,0.8,5.5,2.3s2,3.4,2,5.8v0.3c0,2.4-0.7,4.3-2,5.8
			s-3.1,2.2-5.5,2.2s-4.2-0.7-5.5-2.2s-2-3.4-2-5.8V430.8z M-15,431.1c0,1.4,0.3,2.6,0.8,3.5s1.3,1.3,2.5,1.3c1.1,0,1.9-0.4,2.4-1.3
			s0.8-2,0.8-3.5v-0.3c0-1.4-0.3-2.6-0.8-3.4s-1.3-1.3-2.4-1.3s-1.9,0.4-2.4,1.3s-0.8,2-0.8,3.4v0.3H-15z"/>
		<path class="st1" d="M-2.7,436.3l2.1-0.4V426l-2.3-0.4V423h6.3l0.2,2.3c0.5-0.8,1.2-1.4,1.9-1.9s1.6-0.7,2.6-0.7
			c1.6,0,2.9,0.5,3.8,1.5s1.3,2.6,1.3,4.7v6.9l2.1,0.4v2.6H7.1v-2.6l1.8-0.4v-6.9c0-1.1-0.2-1.8-0.6-2.3s-1.1-0.7-1.9-0.7
			c-0.6,0-1.1,0.1-1.5,0.3s-0.8,0.6-1.1,1v8.5l1.7,0.4v2.6h-8.1v-2.4H-2.7z"/>
		<path class="st1" d="M24,430.8c0-2.4,0.7-4.3,2-5.8c1.3-1.5,3.2-2.3,5.5-2.3s4.2,0.8,5.5,2.3s2,3.4,2,5.8v0.3c0,2.4-0.7,4.3-2,5.8
			s-3.1,2.2-5.5,2.2s-4.2-0.7-5.5-2.2s-2-3.4-2-5.8V430.8z M28.2,431.1c0,1.4,0.3,2.6,0.8,3.5s1.3,1.3,2.5,1.3
			c1.1,0,1.9-0.4,2.4-1.3s0.8-2,0.8-3.5v-0.3c0-1.4-0.3-2.6-0.8-3.4s-1.3-1.3-2.4-1.3s-1.9,0.4-2.4,1.3s-0.8,2-0.8,3.4v0.3H28.2z"/>
		<path class="st1" d="M41,436.3l2.1-0.4V426h-2.4v-3h2.4v-1.8c0-1.8,0.5-3.1,1.5-4.1s2.5-1.4,4.3-1.4c0.4,0,0.7,0,1.1,0.1
			s0.8,0.1,1.2,0.2l-0.4,3.2c-0.2,0-0.5-0.1-0.7-0.1s-0.5,0-0.8,0c-0.7,0-1.2,0.2-1.6,0.6s-0.5,0.9-0.5,1.6v1.8h3.1v3h-3.1v9.8
			l2.1,0.4v2.6H41V436.3z"/>
		<path class="st1" d="M65.6,419.1v3.9h2.8v3h-2.8v8.1c0,0.6,0.1,1.1,0.4,1.3s0.6,0.4,1,0.4c0.3,0,0.5,0,0.8,0s0.5-0.1,0.7-0.1
			l0.4,3.1c-0.5,0.1-1,0.3-1.4,0.3s-1,0.1-1.5,0.1c-1.5,0-2.6-0.4-3.4-1.2s-1.2-2.1-1.2-3.9V426H59v-3h2.3v-3.9H65.6z"/>
		<path class="st1" d="M70.2,436.3l2.1-0.4V419l-2.3-0.4V416h6.5v9c0.5-0.7,1.1-1.3,1.8-1.7s1.5-0.6,2.4-0.6c1.7,0,3,0.5,3.9,1.6
			s1.4,2.8,1.4,5.1v6.4l2.1,0.4v2.6H80v-2.6l1.8-0.4v-6.4c0-1.2-0.2-2.1-0.7-2.6S80,426,79.2,426c-0.6,0-1.1,0.1-1.6,0.3
			s-0.8,0.5-1.1,0.9v8.6l1.8,0.4v2.6h-8.2v-2.5H70.2z"/>
		<path class="st1" d="M97,439.1c-2.3,0-4.1-0.7-5.5-2.2s-2.1-3.3-2.1-5.6v-0.6c0-2.4,0.6-4.3,1.9-5.8s3-2.3,5.2-2.3
			c2.1,0,3.8,0.6,5,1.9s1.8,3,1.8,5.2v2.3h-9.5v0.1c0.1,1,0.4,1.9,1,2.6s1.5,1,2.5,1c0.9,0,1.7-0.1,2.4-0.3s1.3-0.5,2.1-0.9l1.2,2.6
			c-0.7,0.5-1.5,1-2.5,1.3S98.3,439.1,97,439.1z M96.6,426c-0.8,0-1.4,0.3-1.9,0.9s-0.7,1.4-0.8,2.4v0.1h5.2V429
			c0-0.9-0.2-1.6-0.6-2.2S97.5,426,96.6,426z"/>
		<path class="st1" d="M120.3,439.1c-2.3,0-4.1-0.7-5.5-2.2s-2.1-3.3-2.1-5.6v-0.6c0-2.4,0.6-4.3,1.9-5.8s3-2.3,5.2-2.3
			c2.1,0,3.8,0.6,5,1.9s1.8,3,1.8,5.2v2.3h-9.5v0.1c0.1,1,0.4,1.9,1,2.6s1.5,1,2.5,1c0.9,0,1.7-0.1,2.4-0.3s1.3-0.5,2.1-0.9l1.2,2.6
			c-0.7,0.5-1.5,1-2.5,1.3S121.6,439.1,120.3,439.1z M120,426c-0.8,0-1.4,0.3-1.9,0.9s-0.7,1.4-0.8,2.4v0.1h5.2V429
			c0-0.9-0.2-1.6-0.6-2.2S120.8,426,120,426z"/>
		<path class="st1" d="M141.7,428.4h-2.9l-0.5-2c-0.3-0.2-0.7-0.4-1.1-0.6s-0.9-0.2-1.5-0.2c-0.8,0-1.3,0.2-1.8,0.5
			s-0.7,0.8-0.7,1.3s0.2,0.9,0.6,1.2s1.3,0.6,2.5,0.8c2,0.4,3.4,1,4.4,1.7s1.4,1.8,1.4,3.1c0,1.4-0.6,2.6-1.8,3.5s-2.8,1.4-4.8,1.4
			c-1.2,0-2.3-0.2-3.4-0.5s-1.9-0.9-2.7-1.5v-3.6h3l0.6,2.1c0.3,0.2,0.6,0.4,1,0.5s0.9,0.2,1.4,0.2c0.9,0,1.5-0.2,2-0.5
			s0.7-0.7,0.7-1.3c0-0.5-0.2-0.9-0.7-1.2s-1.3-0.6-2.5-0.9c-1.9-0.4-3.3-0.9-4.2-1.7s-1.4-1.8-1.4-3.1c0-1.3,0.5-2.5,1.6-3.4
			s2.7-1.4,4.7-1.4c1.2,0,2.4,0.2,3.5,0.5s2,0.8,2.6,1.3L141.7,428.4z"/>
		<path class="st1" d="M157.1,428.4h-2.9l-0.5-2c-0.3-0.2-0.7-0.4-1.1-0.6s-0.9-0.2-1.5-0.2c-0.8,0-1.3,0.2-1.8,0.5
			s-0.7,0.8-0.7,1.3s0.2,0.9,0.6,1.2s1.3,0.6,2.5,0.8c2,0.4,3.4,1,4.4,1.7s1.4,1.8,1.4,3.1c0,1.4-0.6,2.6-1.8,3.5
			c-1.2,0.9-2.8,1.4-4.8,1.4c-1.2,0-2.3-0.2-3.4-0.5s-1.9-0.9-2.7-1.5v-3.6h3l0.6,2.1c0.3,0.2,0.6,0.4,1,0.5s0.9,0.2,1.4,0.2
			c0.9,0,1.5-0.2,2-0.5s0.7-0.7,0.7-1.3c0-0.5-0.2-0.9-0.7-1.2s-1.3-0.6-2.5-0.9c-1.9-0.4-3.3-0.9-4.2-1.7s-1.4-1.8-1.4-3.1
			c0-1.3,0.5-2.5,1.6-3.4s2.7-1.4,4.7-1.4c1.2,0,2.4,0.2,3.5,0.5s2,0.8,2.6,1.3L157.1,428.4z"/>
		<path class="st1" d="M167.2,439.1c-2.3,0-4.1-0.7-5.5-2.2s-2.1-3.3-2.1-5.6v-0.6c0-2.4,0.6-4.3,1.9-5.8s3-2.3,5.2-2.3
			c2.1,0,3.8,0.6,5,1.9s1.8,3,1.8,5.2v2.3H164v0.1c0.1,1,0.4,1.9,1,2.6s1.5,1,2.5,1c0.9,0,1.7-0.1,2.4-0.3s1.3-0.5,2.1-0.9l1.2,2.6
			c-0.7,0.5-1.5,1-2.5,1.3C169.6,439,168.5,439.1,167.2,439.1z M166.8,426c-0.8,0-1.4,0.3-1.9,0.9s-0.7,1.4-0.8,2.4v0.1h5.2V429
			c0-0.9-0.2-1.6-0.6-2.2C168.3,426.2,167.7,426,166.8,426z"/>
		<path class="st1" d="M175.4,436.3l2.1-0.4V426l-2.3-0.4V423h6.3l0.2,2.3c0.5-0.8,1.2-1.4,1.9-1.9s1.6-0.7,2.6-0.7
			c1.6,0,2.9,0.5,3.8,1.5s1.3,2.6,1.3,4.7v6.9l2.1,0.4v2.6h-8.2v-2.6l1.8-0.4v-6.9c0-1.1-0.2-1.8-0.6-2.3s-1.1-0.7-1.9-0.7
			c-0.6,0-1.1,0.1-1.5,0.3s-0.8,0.6-1.1,1v8.5l1.7,0.4v2.6h-8.1L175.4,436.3L175.4,436.3z"/>
		<path class="st1" d="M200.9,419.1v3.9h2.8v3h-2.8v8.1c0,0.6,0.1,1.1,0.4,1.3s0.6,0.4,1,0.4c0.3,0,0.5,0,0.8,0
			c0.2,0,0.5-0.1,0.7-0.1l0.4,3.1c-0.5,0.1-1,0.3-1.4,0.3s-1,0.1-1.5,0.1c-1.5,0-2.6-0.4-3.4-1.2c-0.8-0.8-1.2-2.1-1.2-3.9V426h-2.3
			v-3h2.3v-3.9H200.9z"/>
		<path class="st1" d="M205.7,436.3l2.1-0.4V426l-2.3-0.4V423h6.6v12.8l2.1,0.4v2.6h-8.4v-2.5H205.7z M212,419.2h-4.3V416h4.3V419.2
			z"/>
		<path class="st1" d="M225.6,438.8c-0.1-0.3-0.2-0.5-0.3-0.8s-0.2-0.6-0.2-0.8c-0.5,0.6-1.1,1.1-1.9,1.4c-0.7,0.4-1.6,0.5-2.5,0.5
			c-1.6,0-2.8-0.4-3.7-1.3s-1.4-2-1.4-3.5s0.6-2.6,1.8-3.4s2.9-1.2,5.2-1.2h2.2v-1.6c0-0.8-0.2-1.4-0.7-1.8s-1.1-0.6-1.9-0.6
			c-0.5,0-0.9,0.1-1.3,0.2s-0.7,0.2-0.9,0.4l-0.3,1.7h-3.2v-3.5c0.8-0.5,1.7-1,2.7-1.3c1-0.4,2.1-0.5,3.3-0.5c2,0,3.6,0.5,4.8,1.4
			c1.2,1,1.8,2.3,1.8,4.1v6.5c0,0.2,0,0.5,0,0.7s0,0.4,0.1,0.6l1.3,0.2v2.6L225.6,438.8L225.6,438.8z M221.9,436
			c0.6,0,1.2-0.1,1.8-0.4s0.9-0.6,1.2-1v-2.4h-2.2c-0.9,0-1.6,0.2-2.1,0.6s-0.7,0.9-0.7,1.5c0,0.5,0.2,1,0.5,1.3
			C220.8,435.8,221.3,436,221.9,436z"/>
		<path class="st1" d="M231.5,418.5V416h6.6v19.8l2.1,0.4v2.6h-8.4v-2.6l2.1-0.4V419L231.5,418.5z"/>
		<path class="st1" d="M-160.2,467.8c0.8,0,1.4-0.2,1.8-0.7s0.7-1,0.7-1.8h3.9v0.1c0,1.6-0.6,2.9-1.8,4c-1.2,1.1-2.8,1.6-4.6,1.6
			c-2.4,0-4.2-0.7-5.5-2.2s-1.9-3.4-1.9-5.8v-0.4c0-2.3,0.7-4.3,2-5.8c1.3-1.5,3.2-2.3,5.6-2.3c1.3,0,2.4,0.2,3.4,0.6
			s1.9,0.9,2.5,1.6l0.1,4.2h-3.5l-0.7-2.5c-0.2-0.2-0.5-0.3-0.8-0.5s-0.6,0.1-1,0.1c-1.2,0-2.1,0.4-2.6,1.3s-0.7,2-0.7,3.4v0.4
			c0,1.4,0.2,2.6,0.7,3.4S-161.4,467.8-160.2,467.8z"/>
		<path class="st1" d="M-152.1,468.3l2.1-0.4V451l-2.3-0.4V448h6.5v9c0.5-0.7,1.1-1.3,1.8-1.7s1.5-0.6,2.4-0.6c1.7,0,3,0.5,3.9,1.6
			s1.4,2.8,1.4,5.1v6.4l2.1,0.4v2.6h-8.2v-2.6l1.8-0.4v-6.4c0-1.2-0.2-2.1-0.7-2.6s-1.1-0.8-1.9-0.8c-0.6,0-1.1,0.1-1.6,0.3
			s-0.8,0.5-1.1,0.9v8.6l1.8,0.4v2.6h-8.2v-2.5H-152.1z"/>
		<path class="st1" d="M-122.7,470.8c-0.1-0.3-0.2-0.5-0.3-0.8s-0.2-0.6-0.2-0.8c-0.5,0.6-1.1,1.1-1.9,1.4s-1.6,0.5-2.5,0.5
			c-1.6,0-2.8-0.4-3.7-1.3s-1.4-2-1.4-3.5s0.6-2.6,1.8-3.4s2.9-1.2,5.2-1.2h2.2v-1.6c0-0.8-0.2-1.4-0.7-1.8s-1.1-0.6-1.9-0.6
			c-0.5,0-0.9,0.1-1.3,0.2s-0.7,0.2-0.9,0.4l-0.3,1.7h-3.2v-3.5c0.8-0.5,1.7-1,2.7-1.3s2.1-0.5,3.3-0.5c2,0,3.6,0.5,4.8,1.4
			s1.8,2.3,1.8,4.1v6.5c0,0.2,0,0.5,0,0.7s0,0.4,0.1,0.6l1.3,0.2v2.6L-122.7,470.8L-122.7,470.8z M-126.4,468c0.6,0,1.2-0.1,1.8-0.4
			s0.9-0.6,1.2-1v-2.4h-2.2c-0.9,0-1.6,0.2-2.1,0.6s-0.7,0.9-0.7,1.5c0,0.5,0.2,1,0.5,1.3S-127,468-126.4,468z"/>
		<path class="st1" d="M-116,468.3l2.1-0.4V458l-2.3-0.4V455h6.3l0.2,2.3c0.4-0.8,0.8-1.5,1.4-1.9s1.3-0.7,2-0.7
			c0.2,0,0.5,0,0.7,0.1s0.5,0.1,0.6,0.1l-0.5,3.9h-1.8c-0.6,0-1.1,0.1-1.6,0.4s-0.7,0.6-0.9,1v7.7l2.1,0.4v2.6h-8.3V468.3z"/>
		<path class="st1" d="M-93.9,470.8c-0.1-0.3-0.2-0.5-0.3-0.8s-0.2-0.6-0.2-0.8c-0.5,0.6-1.1,1.1-1.9,1.4s-1.6,0.5-2.5,0.5
			c-1.6,0-2.8-0.4-3.7-1.3s-1.4-2-1.4-3.5s0.6-2.6,1.8-3.4s2.9-1.2,5.2-1.2h2.2v-1.6c0-0.8-0.2-1.4-0.7-1.8s-1.1-0.6-1.9-0.6
			c-0.5,0-0.9,0.1-1.3,0.2s-0.7,0.2-0.9,0.4l-0.3,1.7h-3.2v-3.5c0.8-0.5,1.7-1,2.7-1.3s2.1-0.5,3.3-0.5c2,0,3.6,0.5,4.8,1.4
			s1.8,2.3,1.8,4.1v6.5c0,0.2,0,0.5,0,0.7s0,0.4,0.1,0.6l1.3,0.2v2.6L-93.9,470.8L-93.9,470.8z M-97.6,468c0.6,0,1.2-0.1,1.8-0.4
			s0.9-0.6,1.2-1v-2.4h-2.2c-0.9,0-1.6,0.2-2.1,0.6s-0.7,0.9-0.7,1.5c0,0.5,0.2,1,0.5,1.3S-98.2,468-97.6,468z"/>
		<path class="st1" d="M-80.1,467.8c0.8,0,1.4-0.2,1.8-0.7s0.7-1,0.7-1.8h3.9v0.1c0,1.6-0.6,2.9-1.8,4s-2.8,1.6-4.6,1.6
			c-2.4,0-4.2-0.7-5.5-2.2s-1.9-3.4-1.9-5.8v-0.4c0-2.3,0.7-4.3,2-5.8s3.2-2.3,5.6-2.3c1.3,0,2.4,0.2,3.4,0.6s1.9,0.9,2.5,1.6
			l0.1,4.2h-3.5l-0.7-2.5c-0.2-0.2-0.5-0.3-0.8-0.5s-0.7-0.2-1.1-0.2c-1.2,0-2.1,0.4-2.6,1.3s-0.7,2-0.7,3.4v0.4
			c0,1.4,0.2,2.6,0.7,3.4S-81.2,467.8-80.1,467.8z"/>
		<path class="st1" d="M-65.4,451.1v3.9h2.8v3h-2.8v8.1c0,0.6,0.1,1.1,0.4,1.3s0.6,0.4,1,0.4c0.3,0,0.5,0,0.8,0s0.5-0.1,0.7-0.1
			l0.4,3.1c-0.5,0.1-1,0.3-1.4,0.3s-1,0.1-1.5,0.1c-1.5,0-2.6-0.4-3.4-1.2s-1.2-2.1-1.2-3.9V458H-72v-3h2.3v-3.9H-65.4z"/>
		<path class="st1" d="M-52.9,471.1c-2.3,0-4.1-0.7-5.5-2.2s-2.1-3.3-2.1-5.6v-0.6c0-2.4,0.6-4.3,1.9-5.8s3-2.3,5.2-2.3
			c2.1,0,3.8,0.6,5,1.9s1.8,3,1.8,5.2v2.3H-56v0.1c0.1,1,0.4,1.9,1,2.6s1.5,1,2.5,1c0.9,0,1.7-0.1,2.4-0.3s1.3-0.5,2.1-0.9l1.2,2.6
			c-0.7,0.5-1.5,1-2.5,1.3S-51.6,471.1-52.9,471.1z M-53.3,458c-0.8,0-1.4,0.3-1.9,0.9s-0.7,1.4-0.8,2.4v0.1h5.2V461
			c0-0.9-0.2-1.6-0.6-2.2S-52.4,458-53.3,458z"/>
		<path class="st1" d="M-44.2,468.3l2.1-0.4V458l-2.3-0.4V455h6.3l0.2,2.3c0.4-0.8,0.8-1.5,1.4-1.9s1.3-0.7,2-0.7
			c0.2,0,0.5,0,0.7,0.1s0.5,0.1,0.6,0.1l-0.5,3.9h-1.8c-0.6,0-1.1,0.1-1.6,0.4s-0.7,0.6-0.9,1v7.7l2.1,0.4v2.6h-8.4L-44.2,468.3
			L-44.2,468.3z"/>
		<path class="st1" d="M-24.5,462.8c0-2.4,0.7-4.3,2-5.8s3.2-2.3,5.5-2.3s4.2,0.8,5.5,2.3s2,3.4,2,5.8v0.3c0,2.4-0.7,4.3-2,5.8
			s-3.1,2.2-5.5,2.2s-4.2-0.7-5.5-2.2s-2-3.4-2-5.8V462.8z M-20.3,463.1c0,1.4,0.3,2.6,0.8,3.5s1.3,1.3,2.5,1.3
			c1.1,0,1.9-0.4,2.4-1.3s0.8-2,0.8-3.5v-0.3c0-1.4-0.3-2.6-0.8-3.4s-1.3-1.3-2.4-1.3s-1.9,0.4-2.4,1.3s-0.8,2-0.8,3.4v0.3H-20.3z"
			/>
		<path class="st1" d="M-7.5,468.3l2.1-0.4V458h-2.4v-3h2.4v-1.8c0-1.8,0.5-3.1,1.5-4.1s2.5-1.4,4.3-1.4c0.4,0,0.7,0,1.1,0.1
			s0.8,0.1,1.2,0.2l-0.4,3.2c-0.2,0-0.5-0.1-0.7-0.1s-0.5,0-0.8,0c-0.7,0-1.2,0.2-1.6,0.6s-0.5,0.9-0.5,1.6v1.8h3.1v3h-3.1v9.8
			l2.1,0.4v2.6h-8.4L-7.5,468.3L-7.5,468.3z"/>
		<path class="st1" d="M23.7,460.4h-2.9l-0.5-2c-0.3-0.2-0.7-0.4-1.1-0.6s-0.9-0.2-1.5-0.2c-0.8,0-1.3,0.2-1.8,0.5s-0.7,0.8-0.7,1.3
			s0.2,0.9,0.6,1.2s1.3,0.6,2.5,0.8c2,0.4,3.4,1,4.4,1.7s1.4,1.8,1.4,3.1c0,1.4-0.6,2.6-1.8,3.5s-2.8,1.4-4.8,1.4
			c-1.2,0-2.3-0.2-3.4-0.5s-1.9-0.9-2.7-1.5v-3.6h3l0.6,2.1c0.3,0.2,0.6,0.4,1,0.5s0.9,0.2,1.4,0.2c0.9,0,1.5-0.2,2-0.5
			s0.7-0.7,0.7-1.3c0-0.5-0.2-0.9-0.7-1.2s-1.3-0.6-2.5-0.9c-1.9-0.4-3.3-0.9-4.2-1.7s-1.4-1.8-1.4-3.1c0-1.3,0.5-2.5,1.6-3.4
			s2.7-1.4,4.7-1.4c1.2,0,2.4,0.2,3.5,0.5s2,0.8,2.6,1.3L23.7,460.4z"/>
		<path class="st1" d="M26.2,462.8c0-2.4,0.7-4.3,2-5.8s3.2-2.3,5.5-2.3s4.2,0.8,5.5,2.3s2,3.4,2,5.8v0.3c0,2.4-0.7,4.3-2,5.8
			s-3.1,2.2-5.5,2.2s-4.2-0.7-5.5-2.2s-2-3.4-2-5.8L26.2,462.8L26.2,462.8z M30.5,463.1c0,1.4,0.3,2.6,0.8,3.5s1.3,1.3,2.5,1.3
			c1.1,0,1.9-0.4,2.4-1.3s0.8-2,0.8-3.5v-0.3c0-1.4-0.3-2.6-0.8-3.4s-1.3-1.3-2.4-1.3s-1.9,0.4-2.4,1.3s-0.8,2-0.8,3.4v0.3H30.5z"/>
		<path class="st1" d="M42.6,457.6V455h6.3l0.2,2.1c0.5-0.8,1.1-1.3,1.9-1.8s1.7-0.6,2.7-0.6s1.9,0.2,2.6,0.7s1.3,1.1,1.6,2
			c0.5-0.8,1.1-1.5,1.9-2s1.7-0.7,2.8-0.7c1.6,0,2.8,0.5,3.7,1.6s1.4,2.7,1.4,4.9v6.6l2.1,0.4v2.6h-8.2v-2.6l1.8-0.4v-6.6
			c0-1.2-0.2-2-0.6-2.5s-1-0.7-1.7-0.7c-0.6,0-1.1,0.1-1.6,0.4s-0.8,0.6-1.1,1.1c0,0.2,0,0.3,0,0.5s0,0.3,0,0.4v7.4l1.7,0.4v2.6
			h-7.7v-2.6l1.7-0.4v-6.6c0-1.2-0.2-2-0.6-2.5s-1-0.7-1.8-0.7c-0.6,0-1.1,0.1-1.5,0.3s-0.8,0.5-1.1,0.9v8.6l1.8,0.4v2.6h-8.2v-2.6
			l2.1-0.4V458L42.6,457.6z"/>
		<path class="st1" d="M78.4,471.1c-2.3,0-4.1-0.7-5.5-2.2s-2.1-3.3-2.1-5.6v-0.6c0-2.4,0.6-4.3,1.9-5.8s3-2.3,5.2-2.3
			c2.1,0,3.8,0.6,5,1.9s1.8,3,1.8,5.2v2.3h-9.5v0.1c0.1,1,0.4,1.9,1,2.6s1.5,1,2.5,1c0.9,0,1.7-0.1,2.4-0.3s1.3-0.5,2.1-0.9l1.2,2.6
			c-0.7,0.5-1.5,1-2.5,1.3S79.7,471.1,78.4,471.1z M78,458c-0.8,0-1.4,0.3-1.9,0.9s-0.7,1.4-0.8,2.4v0.1h5.2V461
			c0-0.9-0.2-1.6-0.6-2.2S78.9,458,78,458z"/>
		<path class="st1" d="M93.1,451.1v3.9h2.8v3h-2.8v8.1c0,0.6,0.1,1.1,0.4,1.3s0.6,0.4,1,0.4c0.3,0,0.5,0,0.8,0s0.5-0.1,0.7-0.1
			l0.4,3.1c-0.5,0.1-1,0.3-1.4,0.3s-1,0.1-1.5,0.1c-1.5,0-2.6-0.4-3.4-1.2s-1.2-2.1-1.2-3.9V458h-2.3v-3h2.3v-3.9H93.1z"/>
		<path class="st1" d="M97.7,468.3l2.1-0.4V451l-2.3-0.4V448h6.5v9c0.5-0.7,1.1-1.3,1.8-1.7s1.5-0.6,2.4-0.6c1.7,0,3,0.5,3.9,1.6
			s1.4,2.8,1.4,5.1v6.4l2.1,0.4v2.6h-8.2v-2.6l1.8-0.4v-6.4c0-1.2-0.2-2.1-0.7-2.6s-1.1-0.8-1.9-0.8c-0.6,0-1.1,0.1-1.6,0.3
			s-0.8,0.5-1.1,0.9v8.6l1.8,0.4v2.6h-8.2v-2.5H97.7z"/>
		<path class="st1" d="M116.9,468.3l2.1-0.4V458l-2.3-0.4V455h6.6v12.8l2.1,0.4v2.6H117v-2.5H116.9z M123.3,451.2H119V448h4.3V451.2
			z"/>
		<path class="st1" d="M126.5,468.3l2.1-0.4V458l-2.3-0.4V455h6.3l0.2,2.3c0.5-0.8,1.2-1.4,1.9-1.9s1.6-0.7,2.6-0.7
			c1.6,0,2.9,0.5,3.8,1.5s1.3,2.6,1.3,4.7v6.9l2.1,0.4v2.6h-8.2v-2.6l1.8-0.4v-6.9c0-1.1-0.2-1.8-0.6-2.3s-1.1-0.7-1.9-0.7
			c-0.6,0-1.1,0.1-1.5,0.3s-0.8,0.6-1.1,1v8.5l1.7,0.4v2.6h-8.1L126.5,468.3L126.5,468.3z"/>
		<path class="st1" d="M145.9,463c0-2.5,0.5-4.5,1.6-6s2.6-2.3,4.6-2.3c0.9,0,1.7,0.2,2.3,0.6s1.3,1,1.7,1.7l0.3-2h3.7v15.4
			c0,2.1-0.7,3.8-2,5s-3.1,1.9-5.4,1.9c-0.8,0-1.7-0.1-2.5-0.3s-1.7-0.5-2.5-0.9l0.8-3c0.7,0.3,1.4,0.5,2.1,0.7s1.4,0.3,2.2,0.3
			c1,0,1.8-0.3,2.3-1s0.8-1.5,0.8-2.7v-1c-0.5,0.6-1,1-1.7,1.4s-1.4,0.5-2.2,0.5c-1.9,0-3.5-0.7-4.5-2.1s-1.6-3.3-1.6-5.6L145.9,463
			L145.9,463z M150.2,463.3c0,1.4,0.2,2.5,0.7,3.3s1.2,1.2,2.3,1.2c0.7,0,1.2-0.1,1.7-0.4c0.5-0.2,0.8-0.6,1.1-1v-6.9
			c-0.3-0.5-0.6-0.8-1.1-1.1c-0.5-0.3-1-0.4-1.6-0.4c-1,0-1.8,0.5-2.3,1.4s-0.7,2.1-0.7,3.6v0.3H150.2z"/>
	</g>
</g>
<g>
	<g>
		<path class="st1" d="M-38.9,295.4l3.6-30.4h2.7c1.2,0,1.8,0.6,1.8,1.8l-0.5,5.9c1.6-2.7,3.4-4.7,5.5-6.1c2-1.4,4.1-2,6.3-2
			c2.3,0,4,0.8,5.3,2.3c1.2,1.5,1.9,3.7,1.9,6.7c0,0.4,0,0.8,0,1.2s-0.1,0.9-0.1,1.3l-2.3,19.3H-20l2.3-19.3c0-0.4,0.1-0.8,0.1-1.2
			s0-0.7,0-1.1c0-1.6-0.3-2.9-0.9-3.6c-0.6-0.8-1.6-1.2-2.9-1.2c-1,0-1.9,0.3-2.9,0.8s-1.9,1.3-2.9,2.2c-0.9,1-1.8,2.1-2.6,3.5
			c-0.8,1.3-1.5,2.9-2,4.5l-1.7,15.5h-5.4V295.4z"/>
		<path class="st1" d="M3.5,295.8c-1.7,0-3.2-0.3-4.6-0.9c-1.4-0.6-2.6-1.4-3.6-2.5s-1.8-2.4-2.3-4c-0.6-1.6-0.8-3.3-0.8-5.3
			c0-2.6,0.4-5,1.2-7.2c0.8-2.3,1.9-4.2,3.3-5.9s3-3,4.9-4s3.9-1.5,6.1-1.5c1.7,0,3.2,0.3,4.6,0.9c1.4,0.6,2.6,1.4,3.6,2.5
			s1.8,2.4,2.3,4c0.6,1.6,0.8,3.3,0.8,5.3c0,2.5-0.4,4.9-1.2,7.2s-1.9,4.2-3.3,5.9c-1.4,1.7-3,3-4.9,4
			C7.7,295.3,5.7,295.8,3.5,295.8z M4,291.6c1.5,0,2.8-0.4,4-1.2c1.2-0.8,2.2-1.9,3.1-3.2c0.8-1.3,1.5-2.9,1.9-4.6
			c0.5-1.7,0.7-3.6,0.7-5.5c0-2.8-0.6-4.9-1.6-6.3c-1.1-1.4-2.7-2.1-4.8-2.1c-1.5,0-2.8,0.4-4,1.2s-2.2,1.9-3,3.2
			c-0.8,1.3-1.5,2.9-2,4.6s-0.7,3.6-0.7,5.5c0,2.8,0.5,4.9,1.6,6.3C0.3,290.9,1.9,291.6,4,291.6z"/>
		<path class="st1" d="M31.3,265L29,284.3c0,0.4-0.1,0.8-0.1,1.1c0,0.4,0,0.7,0,1c0,1.6,0.3,2.9,0.9,3.7s1.6,1.2,2.9,1.2
			c0.9,0,1.9-0.3,2.8-0.8c1-0.5,1.9-1.2,2.8-2.1s1.8-2,2.5-3.3c0.8-1.3,1.5-2.7,2-4.3l1.9-15.8H50l-3.7,30.4h-2.6
			c-0.6,0-1.1-0.1-1.4-0.4s-0.5-0.7-0.5-1.3c0,0,0-0.2,0-0.5s0-0.7,0.1-1.1c0-0.4,0.1-0.8,0.1-1.1s0-0.5,0-0.5l0.2-2.4
			c-1.6,2.6-3.4,4.5-5.4,5.9c-2,1.3-4.1,2-6.2,2c-2.3,0-4-0.8-5.3-2.3s-1.9-3.8-1.9-6.6c0-0.4,0-0.8,0-1.2c0-0.4,0.1-0.9,0.1-1.3
			L26,265H31.3z"/>
		<path class="st1" d="M54.3,295.4l3.6-30.4h2.7c1.2,0,1.8,0.6,1.8,1.8l-0.5,5.9c1.6-2.7,3.4-4.7,5.5-6.1c2-1.4,4.1-2,6.3-2
			c2.3,0,4,0.8,5.3,2.3c1.2,1.5,1.9,3.7,1.9,6.7c0,0.4,0,0.8,0,1.2s-0.1,0.9-0.1,1.3l-2.3,19.3h-5.3l2.3-19.3c0-0.4,0.1-0.8,0.1-1.2
			s0-0.7,0-1.1c0-1.6-0.3-2.9-0.9-3.6c-0.6-0.8-1.6-1.2-2.9-1.2c-1,0-1.9,0.3-2.9,0.8S67,271.1,66,272c-0.9,1-1.8,2.1-2.6,3.5
			c-0.8,1.3-1.5,2.9-2,4.5l-1.7,15.5h-5.4V295.4z"/>
	</g>
</g>
<g>
	<g>
		<path class="st1" d="M-100.3,97.6c-1.8-0.2-3.8-0.4-6-0.4c-3.8,0-6.7,1-8.7,2.9c-1.9,1.9-2.9,4.7-2.9,8.4v2.4h12.2v10.4h-12.2
			v34.2l7.2,1.5v8.9h-30V157l7.9-1.5v-34.1h-6.9v-10.5h6.9v-2.4c0-7.4,2.2-13,6.7-17c4.4-4,10.7-6,18.8-6c2.9,0,5.8,0.3,8.7,0.8
			s6.2,1.3,9.9,2.3h8.8v67l7.2,1.5v8.9h-29.2v-8.9l7.2-1.5v-57C-96.6,98.2-98.5,97.9-100.3,97.6z"/>
		<path class="st1" d="M-32,166c-0.4-0.9-0.8-1.9-1.1-2.8c-0.3-1-0.5-1.9-0.7-2.9c-1.8,2-3.9,3.7-6.4,4.9c-2.5,1.3-5.4,1.9-8.7,1.9
			c-5.4,0-9.7-1.5-12.9-4.4s-4.8-6.9-4.8-12c0-5.2,2.1-9.1,6.2-12c4.1-2.8,10.2-4.2,18.2-4.2h7.6v-5.4c0-2.6-0.8-4.7-2.3-6.2
			s-3.8-2.2-6.8-2.2c-1.7,0-3.2,0.2-4.5,0.6s-2.4,0.9-3.2,1.4l-1,5.9h-11.2l0.1-12.2c2.7-1.8,5.8-3.4,9.3-4.6
			c3.5-1.3,7.3-1.9,11.5-1.9c6.8,0,12.4,1.7,16.6,5c4.3,3.3,6.4,8.1,6.4,14.3V152c0,0.8,0,1.6,0,2.4c0,0.7,0.1,1.5,0.2,2.1l4.5,0.6
			v8.9H-32z M-44.8,156.1c2.2,0,4.3-0.5,6.1-1.5s3.3-2.2,4.3-3.6v-8.4H-42c-3.2,0-5.5,0.7-7.2,2.2s-2.4,3.3-2.4,5.3
			c0,1.9,0.6,3.3,1.8,4.4C-48.6,155.6-47,156.1-44.8,156.1z"/>
		<path class="st0" d="M-6.9,125c0-3.4,1.1-6.2,3.3-8.4c2.2-2.2,5.1-3.3,8.8-3.3s6.7,1.1,8.9,3.2c2.2,2.2,3.3,4.9,3.3,8.4v4.6
			c0,3.4-1.1,6.2-3.3,8.3S9,141,5.3,141s-6.6-1.1-8.8-3.2c-2.2-2.1-3.3-4.9-3.3-8.3L-6.9,125L-6.9,125z"/>
		<path class="st1" d="M49.4,119.9l-5.2,1l7.3,24.6l1,5.2h0.3l1.1-5.2l7.2-24.6l-5.3-1v-9h25v9l-4.8,0.8L59.7,166H45.5l-16.3-45.4
			l-4.8-0.8v-9h25L49.4,119.9L49.4,119.9z"/>
		<path class="st1" d="M84.7,138c0-8.2,2.3-14.9,6.9-20.2c4.6-5.2,11-7.9,19.1-7.9s14.5,2.6,19.1,7.8c4.6,5.2,6.9,12,6.9,20.2v1.1
			c0,8.3-2.3,15-6.9,20.2s-10.9,7.8-19,7.8c-8.2,0-14.6-2.6-19.2-7.8s-6.9-12-6.9-20.2V138z M99.6,139c0,5,0.9,9.1,2.6,12.1
			c1.8,3,4.6,4.6,8.6,4.6c3.8,0,6.6-1.5,8.4-4.6c1.8-3.1,2.7-7.1,2.7-12.1v-1c0-4.9-0.9-8.9-2.7-12c-1.8-3.1-4.6-4.6-8.5-4.6
			s-6.7,1.5-8.5,4.6c-1.8,3.1-2.6,7.1-2.6,12V139z"/>
		<path class="st1" d="M144.3,157.1l7.1-1.5v-34.2l-7.9-1.5v-9h21.7l0.7,8c1.3-2.9,3-5.1,5-6.7s4.4-2.4,7.1-2.4
			c0.8,0,1.6,0.1,2.5,0.2s1.6,0.3,2.2,0.4l-1.7,13.7l-6.1-0.2c-2.2,0-4,0.4-5.4,1.3c-1.4,0.8-2.5,2.1-3.3,3.6v26.8l7.1,1.5v8.9
			h-29.1L144.3,157.1L144.3,157.1z"/>
	</g>
</g>
<g>
	<g>
		<path class="st0" d="M-89.4,235.9l16.7-43.5h4.1l-16.8,43.5H-89.4z"/>
		<path class="st1" d="M-57.7,192.4c-1.4,5-4,11.5-5.6,14.2l-3.4,0.4c1.3-3.5,2.9-9.8,3.5-14.1L-57.7,192.4z"/>
		<path class="st1" d="M-32,194.1c-1.1-0.1-2.2-0.2-3.4-0.2c-2.2,0-3.9,0.5-5,1.6s-1.7,2.7-1.7,4.8v1.4h7v6h-7v19.7l4.1,0.9v5.1
			h-17.3v-5.1l4.6-0.9v-19.7h-4v-6h4v-1.4c0-4.2,1.3-7.5,3.8-9.8c2.6-2.3,6.2-3.4,10.8-3.4c1.7,0,3.3,0.2,5,0.5s3.5,0.7,5.7,1.3h5
			v38.6l4.1,0.9v5.1h-16.8v-5.1l4.1-0.9v-32.8C-29.8,194.4-30.9,194.3-32,194.1z"/>
		<path class="st1" d="M14.6,228c-0.1-0.4-0.1-0.8-0.1-1.2s0-0.9,0-1.4v-13.1c0-3.6-1.2-6.3-3.7-8.2s-5.6-2.9-9.6-2.9
			c-2.4,0-4.6,0.4-6.6,1.1c-2,0.7-3.8,1.6-5.4,2.7v7h6.4l0.6-3.4c0.5-0.3,1.1-0.6,1.8-0.8c0.8-0.2,1.6-0.3,2.6-0.3
			c1.7,0,3,0.4,3.9,1.3c0.9,0.8,1.3,2,1.3,3.5v3.1H1.4c-4.6,0-8.1,0.8-10.5,2.4c-2.4,1.6-3.6,3.9-3.6,6.9c0,2.9,0.9,5.2,2.7,6.9
			s4.3,2.5,7.4,2.5c1.9,0,3.5-0.4,5-1.1c1.5-0.7,2.7-1.7,3.7-2.8c0.1,0.6,0.2,1.1,0.4,1.7c0.2,0.6,0.4,1.1,0.6,1.6H17v-5.1L14.6,228
			z M5.9,224.8c-0.6,0.8-1.4,1.5-2.5,2.1s-2.2,0.8-3.5,0.8c-1.2,0-2.2-0.3-2.9-0.9c-0.7-0.6-1-1.4-1-2.5c0-1.2,0.5-2.2,1.4-3.1
			c0.9-0.8,2.3-1.3,4.1-1.3h4.4V224.8z"/>
		<rect x="-8.9" y="190.8" class="st0" width="21.4" height="4.8"/>
		<path class="st1" d="M33.1,206.9l-3,0.6l4.2,14.2l0.6,3h0.2l0.6-3l4.1-14.2l-3-0.6v-5.2h14.4v5.2l-2.8,0.4l-9.3,26.1h-8.2
			l-9.4-26.1l-2.8-0.4v-5.2h14.4L33.1,206.9L33.1,206.9z"/>
		<path class="st1" d="M67.5,201.1c4.6,0,8.2,1.5,11,4.4c2.7,2.9,4.1,6.7,4.1,11.2v1.2c0,4.7-1.3,8.6-3.9,11.6s-6,4.5-10.4,4.5
			c-4.3,0-7.7-1.3-10-3.9c-2.4-2.6-3.5-6-3.5-10.4V215h18.9l0.1-0.2c-0.2-2.1-0.9-3.8-2.1-5.1c-1.2-1.4-2.9-2-5.1-2
			c-1.9,0-3.5,0.2-4.7,0.6c-1.3,0.4-2.6,1-4,1.8l-2.3-5.3c1.3-1,3-1.9,5.1-2.6C62.6,201.5,64.9,201.1,67.5,201.1z M68.3,227.5
			c1.6,0,2.8-0.6,3.7-1.8s1.5-2.8,1.7-4.8l-0.1-0.1H63.1v0.8c0,1.8,0.4,3.3,1.3,4.4C65.2,226.9,66.5,227.5,68.3,227.5z"/>
		<path class="st1" d="M87.3,228.3l4.1-0.9v-19.7l-4.5-0.9v-5.2h12.5l0.4,4.6c0.7-1.6,1.7-2.9,2.9-3.8s2.5-1.4,4.1-1.4
			c0.4,0,0.9,0,1.4,0.1s0.9,0.2,1.2,0.2l-0.9,7.8L105,209c-1.3,0-2.3,0.2-3.1,0.7s-1.4,1.2-1.9,2.1v15.4l4.1,0.9v5.1H87.3
			L87.3,228.3L87.3,228.3z"/>
		<path class="st0" d="M115.7,237.1h-6.3l15.6-46.3h6.3L115.7,237.1z"/>
	</g>
</g>
</svg>
