<?xml version="1.0" encoding="utf-8"?>
<!-- Generator: Adobe Illustrator 19.1.1, SVG Export Plug-In . SVG Version: 6.00 Build 0)  -->
<svg version="1.1" id="Layer_1" xmlns="http://www.w3.org/2000/svg" xmlns:xlink="http://www.w3.org/1999/xlink" x="0px" y="0px"
	 viewBox="-229 31 500 500" style="enable-background:new -229 31 500 500;" xml:space="preserve">
<style type="text/css">
	.st0{fill:#FCC328;}
	.st1{fill:#FFFFFF;}
	.st2{fill:none;stroke:#FFFFFF;stroke-width:8;stroke-miterlimit:10;}
</style>
<g>
	<g>
		
			<image style="overflow:visible;opacity:0.75;enable-background:new    ;" width="452" height="149" xlink:href="DC43F8DC.png"  transform="matrix(1 0 0 1 -1051.97 335)">
		</image>
		<g>
			<g>
				<path class="st0" d="M-1051.6,356.3l3.6-0.4v-14.4h-3.6v-2.4l7.9-1.4V356l3.6,0.4v2.6h-11.5V356.3z"/>
				<path class="st0" d="M-1033.2,358.8h-4.3V355h4.3V358.8z"/>
				<path class="st1" d="M-1017.1,339.1v3.9h2.8v3h-2.8v8.1c0,0.6,0.1,1.1,0.4,1.3s0.6,0.4,1,0.4c0.3,0,0.5,0,0.8,0
					c0.3,0,0.5-0.1,0.7-0.1l0.4,3.1c-0.5,0.1-1,0.3-1.4,0.3s-1,0.1-1.5,0.1c-1.5,0-2.6-0.4-3.4-1.2c-0.8-0.8-1.2-2.1-1.2-3.9V346
					h-2.3v-3h2.3v-3.9H-1017.1z"/>
				<path class="st1" d="M-1012.5,356.3l2.1-0.4V339l-2.3-0.4V336h6.5v9c0.5-0.7,1.1-1.3,1.8-1.7s1.5-0.6,2.4-0.6
					c1.7,0,3,0.5,3.9,1.6c0.9,1.1,1.4,2.8,1.4,5.1v6.4l2.1,0.4v2.6h-8.2v-2.6l1.8-0.4v-6.4c0-1.2-0.2-2.1-0.7-2.6s-1.1-0.8-1.9-0.8
					c-0.6,0-1.1,0.1-1.6,0.3s-0.8,0.5-1.1,0.9v8.6l1.8,0.4v2.6h-8.2v-2.5H-1012.5z"/>
				<path class="st1" d="M-985.7,359.1c-2.3,0-4.1-0.7-5.5-2.2s-2.1-3.3-2.1-5.6v-0.6c0-2.4,0.6-4.3,1.9-5.8c1.3-1.5,3-2.3,5.2-2.3
					c2.1,0,3.8,0.6,5,1.9s1.8,3,1.8,5.2v2.3h-9.5v0.1c0.1,1,0.4,1.9,1,2.6c0.6,0.7,1.5,1,2.5,1c0.9,0,1.7-0.1,2.4-0.3
					s1.3-0.5,2.1-0.9l1.2,2.6c-0.7,0.5-1.5,1-2.5,1.3S-984.4,359.1-985.7,359.1z M-986.1,346c-0.8,0-1.4,0.3-1.9,0.9
					s-0.7,1.4-0.8,2.4v0.1h5.2V349c0-0.9-0.2-1.6-0.6-2.2S-985.2,346-986.1,346z"/>
				<path class="st1" d="M-959.6,356.9c-0.5,0.7-1.1,1.3-1.8,1.7s-1.5,0.6-2.3,0.6c-2,0-3.5-0.7-4.5-2.1s-1.6-3.3-1.6-5.7V351
					c0-2.5,0.5-4.5,1.6-6s2.6-2.3,4.6-2.3c0.8,0,1.5,0.2,2.1,0.5c0.6,0.3,1.2,0.8,1.7,1.5V339l-2.3-0.4V336h2.3h4.3v19.8l2.1,0.4
					v2.6h-5.8L-959.6,356.9z M-965.6,351.3c0,1.4,0.2,2.5,0.7,3.3s1.2,1.2,2.3,1.2c0.6,0,1.2-0.1,1.6-0.4c0.4-0.3,0.8-0.6,1.1-1.1
					v-6.7c-0.3-0.5-0.7-0.9-1.1-1.2c-0.4-0.3-1-0.4-1.6-0.4c-1,0-1.8,0.5-2.3,1.4s-0.7,2.1-0.7,3.6V351.3z"/>
				<path class="st1" d="M-952.3,356.3l2.1-0.4V346l-2.3-0.4V343h6.6v12.8l2.1,0.4v2.6h-8.4L-952.3,356.3L-952.3,356.3z M-946,339.2
					h-4.3V336h4.3V339.2z"/>
				<path class="st1" d="M-929.6,348.4h-2.9l-0.5-2c-0.3-0.2-0.7-0.4-1.1-0.6c-0.4-0.2-0.9-0.2-1.5-0.2c-0.8,0-1.3,0.2-1.8,0.5
					s-0.7,0.8-0.7,1.3s0.2,0.9,0.6,1.2s1.3,0.6,2.5,0.8c2,0.4,3.4,1,4.4,1.7s1.4,1.8,1.4,3.1c0,1.4-0.6,2.6-1.8,3.5
					c-1.2,0.9-2.8,1.4-4.8,1.4c-1.2,0-2.3-0.2-3.4-0.5s-1.9-0.9-2.7-1.5v-3.6h3l0.6,2.1c0.3,0.2,0.6,0.4,1,0.5
					c0.4,0.1,0.9,0.2,1.4,0.2c0.9,0,1.5-0.2,2-0.5s0.7-0.7,0.7-1.3c0-0.5-0.2-0.9-0.7-1.2s-1.3-0.6-2.5-0.9
					c-1.9-0.4-3.3-0.9-4.2-1.7c-0.9-0.8-1.4-1.8-1.4-3.1c0-1.3,0.5-2.5,1.6-3.4c1.1-0.9,2.7-1.4,4.7-1.4c1.2,0,2.4,0.2,3.5,0.5
					c1.1,0.3,2,0.8,2.6,1.3L-929.6,348.4z"/>
				<path class="st1" d="M-920.8,339.1v3.9h2.8v3h-2.8v8.1c0,0.6,0.1,1.1,0.4,1.3s0.6,0.4,1,0.4c0.3,0,0.5,0,0.8,0
					c0.3,0,0.5-0.1,0.7-0.1l0.4,3.1c-0.5,0.1-1,0.3-1.4,0.3c-0.4,0-1,0.1-1.5,0.1c-1.5,0-2.6-0.4-3.4-1.2s-1.2-2.1-1.2-3.9V346h-2.3
					v-3h2.3v-3.9H-920.8z"/>
				<path class="st1" d="M-916,356.3l2.1-0.4V346l-2.3-0.4V343h6.6v12.8l2.1,0.4v2.6h-8.5V356.3z M-909.7,339.2h-4.3V336h4.3V339.2z
					"/>
				<path class="st1" d="M-906.5,356.3l2.1-0.4V346l-2.3-0.4V343h6.3l0.2,2.3c0.5-0.8,1.2-1.4,1.9-1.9c0.7-0.5,1.6-0.7,2.6-0.7
					c1.6,0,2.9,0.5,3.8,1.5c0.9,1,1.3,2.6,1.3,4.7v6.9l2.1,0.4v2.6h-8.2v-2.6l1.8-0.4v-6.9c0-1.1-0.2-1.8-0.6-2.3s-1.1-0.7-1.9-0.7
					c-0.6,0-1.1,0.1-1.5,0.3c-0.4,0.2-0.8,0.6-1.1,1v8.5l1.7,0.4v2.6h-8.1L-906.5,356.3L-906.5,356.3z"/>
				<path class="st1" d="M-879.9,355.8c0.8,0,1.4-0.2,1.8-0.7c0.4-0.5,0.7-1,0.7-1.8h3.9v0.1c0,1.6-0.6,2.9-1.8,4
					c-1.2,1.1-2.8,1.6-4.6,1.6c-2.4,0-4.2-0.7-5.5-2.2s-1.9-3.4-1.9-5.8v-0.4c0-2.3,0.7-4.3,2-5.8c1.3-1.5,3.2-2.3,5.6-2.3
					c1.3,0,2.4,0.2,3.4,0.6s1.9,0.9,2.5,1.6l0.1,4.2h-3.5l-0.7-2.5c-0.2-0.2-0.5-0.3-0.8-0.5s-0.7-0.2-1.1-0.2
					c-1.2,0-2.1,0.4-2.6,1.3s-0.7,2-0.7,3.4v0.4c0,1.4,0.2,2.6,0.7,3.4S-881.1,355.8-879.9,355.8z"/>
				<path class="st1" d="M-865.2,339.1v3.9h2.8v3h-2.8v8.1c0,0.6,0.1,1.1,0.4,1.3s0.6,0.4,1,0.4c0.3,0,0.5,0,0.8,0s0.5-0.1,0.7-0.1
					l0.4,3.1c-0.5,0.1-1,0.3-1.4,0.3c-0.4,0-1,0.1-1.5,0.1c-1.5,0-2.6-0.4-3.4-1.2s-1.2-2.1-1.2-3.9V346h-2.3v-3h2.3v-3.9H-865.2z"
					/>
				<path class="st1" d="M-860.5,356.3l2.1-0.4V346l-2.3-0.4V343h6.6v12.8l2.1,0.4v2.6h-8.4v-2.5H-860.5z M-854.1,339.2h-4.3V336
					h4.3V339.2z"/>
				<path class="st1" d="M-844,345.6l-1.5,0.3l2.1,7.1l0.3,1.5h0.1l0.3-1.5l2.1-7.1l-1.5-0.3V343h7.2v2.6l-1.4,0.2l-4.7,13.1h-4.1
					l-4.7-13.1l-1.4-0.2V343h7.2V345.6L-844,345.6z"/>
				<path class="st1" d="M-826.2,359.1c-2.3,0-4.1-0.7-5.5-2.2c-1.4-1.5-2.1-3.3-2.1-5.6v-0.6c0-2.4,0.6-4.3,1.9-5.8s3-2.3,5.2-2.3
					c2.1,0,3.8,0.6,5,1.9s1.8,3,1.8,5.2v2.3h-9.5v0.1c0.1,1,0.4,1.9,1,2.6c0.6,0.7,1.5,1,2.5,1c0.9,0,1.7-0.1,2.4-0.3
					c0.7-0.2,1.3-0.5,2.1-0.9l1.2,2.6c-0.7,0.5-1.5,1-2.5,1.3S-824.9,359.1-826.2,359.1z M-826.6,346c-0.8,0-1.4,0.3-1.9,0.9
					s-0.7,1.4-0.8,2.4v0.1h5.2V349c0-0.9-0.2-1.6-0.6-2.2S-825.7,346-826.6,346z"/>
				<path class="st1" d="M-804.1,339.1v3.9h2.8v3h-2.8v8.1c0,0.6,0.1,1.1,0.4,1.3s0.6,0.4,1,0.4c0.3,0,0.5,0,0.8,0s0.5-0.1,0.7-0.1
					l0.4,3.1c-0.5,0.1-1,0.3-1.4,0.3c-0.4,0-1,0.1-1.5,0.1c-1.5,0-2.6-0.4-3.4-1.2s-1.2-2.1-1.2-3.9V346h-2.3v-3h2.3v-3.9H-804.1z"
					/>
				<path class="st1" d="M-789.2,358.8c-0.1-0.3-0.2-0.5-0.3-0.8s-0.2-0.6-0.2-0.8c-0.5,0.6-1.1,1.1-1.9,1.4s-1.6,0.5-2.5,0.5
					c-1.6,0-2.8-0.4-3.7-1.3s-1.4-2-1.4-3.5s0.6-2.6,1.8-3.4c1.2-0.8,2.9-1.2,5.2-1.2h2.2v-1.6c0-0.8-0.2-1.4-0.7-1.8
					s-1.1-0.6-1.9-0.6c-0.5,0-0.9,0.1-1.3,0.2c-0.4,0.1-0.7,0.2-0.9,0.4l-0.3,1.7h-3.2v-3.5c0.8-0.5,1.7-1,2.7-1.3s2.1-0.5,3.3-0.5
					c2,0,3.6,0.5,4.8,1.4c1.2,0.9,1.8,2.3,1.8,4.1v6.5c0,0.2,0,0.5,0,0.7s0,0.4,0.1,0.6l1.3,0.2v2.6L-789.2,358.8L-789.2,358.8z
					 M-792.9,356c0.6,0,1.2-0.1,1.8-0.4s0.9-0.6,1.2-1v-2.4h-2.2c-0.9,0-1.6,0.2-2.1,0.6s-0.7,0.9-0.7,1.5c0,0.5,0.2,1,0.5,1.3
					S-793.5,356-792.9,356z"/>
				<path class="st1" d="M-769.8,348.4h-2.9l-0.5-2c-0.3-0.2-0.7-0.4-1.1-0.6c-0.4-0.2-0.9-0.2-1.5-0.2c-0.8,0-1.3,0.2-1.8,0.5
					s-0.7,0.8-0.7,1.3s0.2,0.9,0.6,1.2c0.4,0.3,1.3,0.6,2.5,0.8c2,0.4,3.4,1,4.4,1.7s1.4,1.8,1.4,3.1c0,1.4-0.6,2.6-1.8,3.5
					c-1.2,0.9-2.8,1.4-4.8,1.4c-1.2,0-2.3-0.2-3.4-0.5c-1.1-0.3-1.9-0.9-2.7-1.5v-3.6h3l0.6,2.1c0.3,0.2,0.6,0.4,1,0.5
					c0.4,0.1,0.9,0.2,1.4,0.2c0.9,0,1.5-0.2,2-0.5s0.7-0.7,0.7-1.3c0-0.5-0.2-0.9-0.7-1.2s-1.3-0.6-2.5-0.9
					c-1.9-0.4-3.3-0.9-4.2-1.7s-1.4-1.8-1.4-3.1c0-1.3,0.5-2.5,1.6-3.4c1.1-0.9,2.7-1.4,4.7-1.4c1.2,0,2.4,0.2,3.5,0.5
					c1.1,0.3,2,0.8,2.6,1.3V348.4z"/>
				<path class="st1" d="M-761,339.1v3.9h2.8v3h-2.8v8.1c0,0.6,0.1,1.1,0.4,1.3s0.6,0.4,1,0.4c0.3,0,0.5,0,0.8,0s0.5-0.1,0.7-0.1
					l0.4,3.1c-0.5,0.1-1,0.3-1.4,0.3c-0.4,0-1,0.1-1.5,0.1c-1.5,0-2.6-0.4-3.4-1.2s-1.2-2.1-1.2-3.9V346h-2.3v-3h2.3v-3.9H-761z"/>
				<path class="st1" d="M-748.5,359.1c-2.3,0-4.1-0.7-5.5-2.2c-1.4-1.5-2.1-3.3-2.1-5.6v-0.6c0-2.4,0.6-4.3,1.9-5.8s3-2.3,5.2-2.3
					c2.1,0,3.8,0.6,5,1.9s1.8,3,1.8,5.2v2.3h-9.5v0.1c0.1,1,0.4,1.9,1,2.6c0.6,0.7,1.5,1,2.5,1c0.9,0,1.7-0.1,2.4-0.3
					c0.7-0.2,1.3-0.5,2.1-0.9l1.2,2.6c-0.7,0.5-1.5,1-2.5,1.3S-747.3,359.1-748.5,359.1z M-748.9,346c-0.8,0-1.4,0.3-1.9,0.9
					s-0.7,1.4-0.8,2.4v0.1h5.2V349c0-0.9-0.2-1.6-0.6-2.2C-747.4,346.2-748.1,346-748.9,346z"/>
				<path class="st1" d="M-732.8,350.8c0-2.4,0.7-4.3,2-5.8s3.2-2.3,5.5-2.3s4.2,0.8,5.5,2.3s2,3.4,2,5.8v0.3c0,2.4-0.7,4.3-2,5.8
					s-3.1,2.2-5.5,2.2c-2.4,0-4.2-0.7-5.5-2.2s-2-3.4-2-5.8V350.8z M-728.5,351.1c0,1.4,0.3,2.6,0.8,3.5s1.3,1.3,2.5,1.3
					c1.1,0,1.9-0.4,2.4-1.3s0.8-2,0.8-3.5v-0.3c0-1.4-0.3-2.6-0.8-3.4s-1.3-1.3-2.4-1.3c-1.1,0-1.9,0.4-2.4,1.3s-0.8,2-0.8,3.4
					L-728.5,351.1L-728.5,351.1z"/>
				<path class="st1" d="M-715.8,356.3l2.1-0.4V346h-2.3v-3h2.4v-1.8c0-1.8,0.5-3.1,1.5-4.1s2.5-1.4,4.3-1.4c0.4,0,0.7,0,1.1,0.1
					c0.4,0.1,0.8,0.1,1.2,0.2l-0.4,3.2c-0.2,0-0.5-0.1-0.7-0.1s-0.5,0-0.8,0c-0.7,0-1.2,0.2-1.6,0.6c-0.4,0.4-0.5,0.9-0.5,1.6v1.8
					h3.1v3h-3.1v9.8l2.1,0.4v2.6h-8.4V356.3z"/>
				<path class="st1" d="M-687.4,358.8c-0.1-0.3-0.2-0.5-0.3-0.8s-0.2-0.6-0.2-0.8c-0.5,0.6-1.1,1.1-1.9,1.4
					c-0.7,0.4-1.6,0.5-2.5,0.5c-1.6,0-2.8-0.4-3.7-1.3c-0.9-0.8-1.4-2-1.4-3.5s0.6-2.6,1.8-3.4c1.2-0.8,2.9-1.2,5.2-1.2h2.2v-1.6
					c0-0.8-0.2-1.4-0.7-1.8s-1.1-0.6-1.9-0.6c-0.5,0-0.9,0.1-1.3,0.2c-0.4,0.1-0.7,0.2-0.9,0.4l-0.3,1.7h-3.2v-3.5
					c0.8-0.5,1.7-1,2.7-1.3c1-0.4,2.1-0.5,3.3-0.5c2,0,3.6,0.5,4.8,1.4c1.2,1,1.8,2.3,1.8,4.1v6.5c0,0.2,0,0.5,0,0.7s0,0.4,0.1,0.6
					l1.3,0.2v2.6L-687.4,358.8L-687.4,358.8z M-691.1,356c0.6,0,1.2-0.1,1.8-0.4s0.9-0.6,1.2-1v-2.4h-2.2c-0.9,0-1.6,0.2-2.1,0.6
					s-0.7,0.9-0.7,1.5c0,0.5,0.2,1,0.5,1.3C-692.2,355.8-691.7,356-691.1,356z"/>
				<path class="st1" d="M-673.4,356.3l2.1-0.4V346h-2.4v-3h2.4v-1.8c0-1.8,0.5-3.1,1.5-4.1s2.5-1.4,4.3-1.4c0.4,0,0.7,0,1.1,0.1
					c0.4,0.1,0.8,0.1,1.2,0.2l-0.4,3.2c-0.2,0-0.5-0.1-0.7-0.1s-0.5,0-0.8,0c-0.7,0-1.2,0.2-1.6,0.6c-0.4,0.4-0.5,0.9-0.5,1.6v1.8
					h3.1v3h-3.1v9.8l2.1,0.4v2.6h-8.4L-673.4,356.3L-673.4,356.3z"/>
				<path class="st1" d="M-662.5,350.8c0-2.4,0.7-4.3,2-5.8s3.2-2.3,5.5-2.3s4.2,0.8,5.5,2.3s2,3.4,2,5.8v0.3c0,2.4-0.7,4.3-2,5.8
					s-3.1,2.2-5.5,2.2c-2.4,0-4.2-0.7-5.5-2.2s-2-3.4-2-5.8V350.8z M-658.2,351.1c0,1.4,0.3,2.6,0.8,3.5s1.3,1.3,2.5,1.3
					c1.1,0,1.9-0.4,2.4-1.3s0.8-2,0.8-3.5v-0.3c0-1.4-0.3-2.6-0.8-3.4s-1.3-1.3-2.4-1.3c-1.1,0-1.9,0.4-2.4,1.3s-0.8,2-0.8,3.4
					L-658.2,351.1L-658.2,351.1z"/>
				<path class="st1" d="M-645.7,350.8c0-2.4,0.7-4.3,2-5.8s3.2-2.3,5.5-2.3s4.2,0.8,5.5,2.3s2,3.4,2,5.8v0.3c0,2.4-0.7,4.3-2,5.8
					s-3.1,2.2-5.5,2.2c-2.4,0-4.2-0.7-5.5-2.2s-2-3.4-2-5.8V350.8z M-641.4,351.1c0,1.4,0.3,2.6,0.8,3.5s1.3,1.3,2.5,1.3
					c1.1,0,1.9-0.4,2.4-1.3s0.8-2,0.8-3.5v-0.3c0-1.4-0.3-2.6-0.8-3.4s-1.3-1.3-2.4-1.3c-1.1,0-1.9,0.4-2.4,1.3s-0.8,2-0.8,3.4v0.3
					H-641.4z"/>
				<path class="st1" d="M-618.5,356.9c-0.5,0.7-1.1,1.3-1.8,1.7c-0.7,0.4-1.5,0.6-2.3,0.6c-2,0-3.5-0.7-4.5-2.1s-1.6-3.3-1.6-5.7
					V351c0-2.5,0.5-4.5,1.6-6c1.1-1.5,2.6-2.3,4.6-2.3c0.8,0,1.5,0.2,2.1,0.5c0.6,0.3,1.2,0.8,1.7,1.5V339l-2.3-0.4V336h2.3h4.3
					v19.8l2.1,0.4v2.6h-5.8L-618.5,356.9z M-624.5,351.3c0,1.4,0.2,2.5,0.7,3.3s1.2,1.2,2.3,1.2c0.6,0,1.2-0.1,1.6-0.4
					c0.4-0.3,0.8-0.6,1.1-1.1v-6.7c-0.3-0.5-0.7-0.9-1.1-1.2c-0.5-0.3-1-0.4-1.6-0.4c-1,0-1.8,0.5-2.3,1.4s-0.7,2.1-0.7,3.6V351.3z"
					/>
				<path class="st1" d="M-606.2,358.3c0,1-0.3,2.1-0.8,3.2c-0.6,1.1-1.2,2-2.1,2.7l-2.1-1.1c0.4-0.7,0.7-1.4,0.9-2.1
					c0.2-0.7,0.3-1.5,0.3-2.4v-3.2h3.8L-606.2,358.3z"/>
				<path class="st1" d="M-1007.4,388.9c-0.5,0.7-1.1,1.3-1.8,1.7s-1.5,0.6-2.3,0.6c-2,0-3.5-0.7-4.5-2.1s-1.6-3.3-1.6-5.7V383
					c0-2.5,0.5-4.5,1.6-6c1.1-1.5,2.6-2.3,4.6-2.3c0.8,0,1.5,0.2,2.1,0.5c0.6,0.3,1.2,0.8,1.7,1.5V371l-2.3-0.4V368h2.3h4.3v19.8
					l2.1,0.4v2.6h-5.8L-1007.4,388.9z M-1013.3,383.3c0,1.4,0.2,2.5,0.7,3.3s1.2,1.2,2.3,1.2c0.6,0,1.2-0.1,1.6-0.4s0.8-0.6,1.1-1.1
					v-6.7c-0.3-0.5-0.7-0.9-1.1-1.2s-1-0.4-1.6-0.4c-1,0-1.8,0.5-2.3,1.4s-0.7,2.1-0.7,3.6V383.3z"/>
				<path class="st1" d="M-999.6,388.3l2.1-0.4V378l-2.3-0.4V375h6.3l0.2,2.3c0.4-0.8,0.8-1.5,1.4-1.9c0.6-0.4,1.3-0.7,2-0.7
					c0.2,0,0.5,0,0.7,0.1s0.5,0.1,0.6,0.1l-0.5,3.9h-1.8c-0.6,0-1.1,0.1-1.6,0.4s-0.7,0.6-0.9,1v7.7l2.1,0.4v2.6h-8.4L-999.6,388.3
					L-999.6,388.3z"/>
				<path class="st1" d="M-987.4,388.3l2.1-0.4V378l-2.3-0.4V375h6.6v12.8l2.1,0.4v2.6h-8.4L-987.4,388.3L-987.4,388.3z
					 M-981.1,371.2h-4.3V368h4.3V371.2z"/>
				<path class="st1" d="M-977.9,388.3l2.1-0.4V378l-2.3-0.4V375h6.3l0.2,2.3c0.5-0.8,1.2-1.4,1.9-1.9s1.6-0.7,2.6-0.7
					c1.6,0,2.9,0.5,3.8,1.5c0.9,1,1.3,2.6,1.3,4.7v6.9l2.1,0.4v2.6h-8.2v-2.6l1.8-0.4v-6.9c0-1.1-0.2-1.8-0.6-2.3
					c-0.4-0.5-1.1-0.7-1.9-0.7c-0.6,0-1.1,0.1-1.5,0.3c-0.4,0.2-0.8,0.6-1.1,1v8.5l1.7,0.4v2.6h-8.1v-2.4H-977.9z"/>
				<path class="st1" d="M-959,370.5V368h6.5v13.2h1l2.5-3.5l-1.4-0.2V375h7.8v2.6l-1.9,0.4l-2.9,3.9l4,6l1.6,0.3v2.6h-7.3v-2.6
					l0.9-0.1l-2.4-3.9h-1.8v3.6l1.8,0.4v2.6h-8.2v-2.6l2.1-0.4V371L-959,370.5z"/>
				<path class="st1" d="M-935.3,390.3c0,1-0.3,2.1-0.8,3.2s-1.2,2-2.1,2.7l-2.1-1.1c0.4-0.7,0.7-1.4,0.9-2.1s0.3-1.5,0.3-2.4v-3.2
					h3.8L-935.3,390.3z"/>
				<path class="st1" d="M-925.6,382.8c0-2.4,0.7-4.3,2-5.8c1.3-1.5,3.2-2.3,5.5-2.3c2.3,0,4.2,0.8,5.5,2.3c1.3,1.5,2,3.4,2,5.8v0.3
					c0,2.4-0.7,4.3-2,5.8c-1.3,1.5-3.1,2.2-5.5,2.2c-2.4,0-4.2-0.7-5.5-2.2c-1.3-1.5-2-3.4-2-5.8V382.8z M-921.3,383.1
					c0,1.4,0.3,2.6,0.8,3.5s1.3,1.3,2.5,1.3c1.1,0,1.9-0.4,2.4-1.3s0.8-2,0.8-3.5v-0.3c0-1.4-0.3-2.6-0.8-3.4s-1.3-1.3-2.4-1.3
					s-1.9,0.4-2.4,1.3s-0.8,2-0.8,3.4L-921.3,383.1L-921.3,383.1z"/>
				<path class="st1" d="M-908.4,388.3l2.1-0.4V378l-2.3-0.4V375h6.3l0.2,2.3c0.4-0.8,0.8-1.5,1.4-1.9s1.3-0.7,2-0.7
					c0.2,0,0.5,0,0.7,0.1s0.5,0.1,0.6,0.1l-0.5,3.9h-1.8c-0.6,0-1.1,0.1-1.6,0.4s-0.7,0.6-0.9,1v7.7l2.1,0.4v2.6h-8.4L-908.4,388.3
					L-908.4,388.3z"/>
				<path class="st1" d="M-875.8,380.4h-2.9l-0.5-2c-0.3-0.2-0.7-0.4-1.1-0.6c-0.4-0.2-0.9-0.2-1.5-0.2c-0.8,0-1.3,0.2-1.8,0.5
					s-0.7,0.8-0.7,1.3s0.2,0.9,0.6,1.2s1.3,0.6,2.5,0.8c2,0.4,3.4,1,4.4,1.7s1.4,1.8,1.4,3.1c0,1.4-0.6,2.6-1.8,3.5
					s-2.8,1.4-4.8,1.4c-1.2,0-2.3-0.2-3.4-0.5s-1.9-0.9-2.7-1.5v-3.6h3l0.6,2.1c0.3,0.2,0.6,0.4,1,0.5c0.4,0.1,0.9,0.2,1.4,0.2
					c0.9,0,1.5-0.2,2-0.5s0.7-0.7,0.7-1.3c0-0.5-0.2-0.9-0.7-1.2s-1.3-0.6-2.5-0.9c-1.9-0.4-3.3-0.9-4.2-1.7
					c-0.9-0.8-1.4-1.8-1.4-3.1c0-1.3,0.5-2.5,1.6-3.4c1.1-0.9,2.7-1.4,4.7-1.4c1.2,0,2.4,0.2,3.5,0.5c1.1,0.3,2,0.8,2.6,1.3V380.4z"
					/>
				<path class="st1" d="M-862.2,388.8c-0.5,0.7-1.1,1.3-1.9,1.7s-1.6,0.6-2.6,0.6c-1.7,0-3-0.5-3.9-1.6c-0.9-1.1-1.4-2.7-1.4-5V378
					l-1.7-0.4V375h1.7h4.3v9.6c0,1.2,0.2,2,0.6,2.5s1,0.8,1.7,0.8c0.7,0,1.3-0.1,1.8-0.3s0.9-0.5,1.2-0.9V378l-1.9-0.4V375h1.9h4.3
					v12.8l1.9,0.4v2.6h-5.8L-862.2,388.8z"/>
				<path class="st1" d="M-839.3,383.3c0,2.4-0.5,4.3-1.6,5.7c-1.1,1.4-2.6,2.1-4.6,2.1c-0.9,0-1.7-0.2-2.4-0.6s-1.3-0.9-1.7-1.7
					l-0.3,1.9h-3.7V371l-2.3-0.4V368h6.5v8.7c0.5-0.6,1-1.1,1.6-1.5c0.6-0.4,1.4-0.5,2.2-0.5c2,0,3.5,0.8,4.6,2.3
					c1.1,1.5,1.6,3.5,1.6,6.1v0.2H-839.3z M-843.5,383c0-1.5-0.2-2.8-0.7-3.7s-1.2-1.4-2.3-1.4c-0.7,0-1.2,0.1-1.7,0.4
					s-0.8,0.7-1.1,1.2v6.7c0.3,0.5,0.6,0.9,1.1,1.1s1,0.4,1.7,0.4c1.1,0,1.9-0.4,2.3-1.2s0.7-1.9,0.7-3.3V383z"/>
				<path class="st1" d="M-824.4,380.4h-2.9l-0.5-2c-0.3-0.2-0.7-0.4-1.1-0.6c-0.4-0.2-0.9-0.2-1.5-0.2c-0.8,0-1.3,0.2-1.8,0.5
					s-0.7,0.8-0.7,1.3s0.2,0.9,0.6,1.2s1.3,0.6,2.5,0.8c2,0.4,3.4,1,4.4,1.7s1.4,1.8,1.4,3.1c0,1.4-0.6,2.6-1.8,3.5
					c-1.2,0.9-2.8,1.4-4.8,1.4c-1.2,0-2.3-0.2-3.4-0.5s-1.9-0.9-2.7-1.5v-3.6h3l0.6,2.1c0.3,0.2,0.6,0.4,1,0.5
					c0.4,0.1,0.9,0.2,1.4,0.2c0.9,0,1.5-0.2,2-0.5s0.7-0.7,0.7-1.3c0-0.5-0.2-0.9-0.7-1.2s-1.3-0.6-2.5-0.9
					c-1.9-0.4-3.3-0.9-4.2-1.7c-0.9-0.8-1.4-1.8-1.4-3.1c0-1.3,0.5-2.5,1.6-3.4c1.1-0.9,2.7-1.4,4.7-1.4c1.2,0,2.4,0.2,3.5,0.5
					c1.1,0.3,2,0.8,2.6,1.3L-824.4,380.4z"/>
				<path class="st1" d="M-815.6,371.1v3.9h2.8v3h-2.8v8.1c0,0.6,0.1,1.1,0.4,1.3s0.6,0.4,1,0.4c0.3,0,0.5,0,0.8,0s0.5-0.1,0.7-0.1
					l0.4,3.1c-0.5,0.1-1,0.3-1.4,0.3c-0.4,0-1,0.1-1.5,0.1c-1.5,0-2.6-0.4-3.4-1.2s-1.2-2.1-1.2-3.9V378h-2.3v-3h2.3v-3.9H-815.6z"
					/>
				<path class="st1" d="M-800.6,390.8c-0.1-0.3-0.2-0.5-0.3-0.8s-0.2-0.6-0.2-0.8c-0.5,0.6-1.1,1.1-1.9,1.4s-1.6,0.5-2.5,0.5
					c-1.6,0-2.8-0.4-3.7-1.3s-1.4-2-1.4-3.5s0.6-2.6,1.8-3.4c1.2-0.8,2.9-1.2,5.2-1.2h2.2v-1.6c0-0.8-0.2-1.4-0.7-1.8
					s-1.1-0.6-1.9-0.6c-0.5,0-0.9,0.1-1.3,0.2c-0.4,0.1-0.7,0.2-0.9,0.4l-0.3,1.7h-3.2v-3.5c0.8-0.5,1.7-1,2.7-1.3s2.1-0.5,3.3-0.5
					c2,0,3.6,0.5,4.8,1.4c1.2,0.9,1.8,2.3,1.8,4.1v6.5c0,0.2,0,0.5,0,0.7s0,0.4,0.1,0.6l1.3,0.2v2.6L-800.6,390.8L-800.6,390.8z
					 M-804.3,388c0.6,0,1.2-0.1,1.8-0.4s0.9-0.6,1.2-1v-2.4h-2.2c-0.9,0-1.6,0.2-2.1,0.6s-0.7,0.9-0.7,1.5c0,0.5,0.2,1,0.5,1.3
					S-804.9,388-804.3,388z"/>
				<path class="st1" d="M-794.4,388.3l2.1-0.4V378l-2.3-0.4V375h6.3l0.2,2.3c0.5-0.8,1.2-1.4,1.9-1.9c0.7-0.5,1.6-0.7,2.6-0.7
					c1.6,0,2.9,0.5,3.8,1.5c0.9,1,1.3,2.6,1.3,4.7v6.9l2.1,0.4v2.6h-8.2v-2.6l1.8-0.4v-6.9c0-1.1-0.2-1.8-0.6-2.3
					c-0.4-0.5-1.1-0.7-1.9-0.7c-0.6,0-1.1,0.1-1.5,0.3c-0.4,0.2-0.8,0.6-1.1,1v8.5l1.7,0.4v2.6h-8.1L-794.4,388.3L-794.4,388.3z"/>
				<path class="st1" d="M-767.9,387.8c0.8,0,1.4-0.2,1.8-0.7c0.4-0.5,0.7-1,0.7-1.8h3.9v0.1c0,1.6-0.6,2.9-1.8,4
					c-1.2,1.1-2.8,1.6-4.6,1.6c-2.4,0-4.2-0.7-5.5-2.2s-1.9-3.4-1.9-5.8v-0.4c0-2.3,0.7-4.3,2-5.8s3.2-2.3,5.6-2.3
					c1.3,0,2.4,0.2,3.4,0.6s1.9,0.9,2.5,1.6l0.1,4.2h-3.5l-0.7-2.5c-0.2-0.2-0.5-0.3-0.8-0.5s-0.7-0.2-1.1-0.2
					c-1.2,0-2.1,0.4-2.6,1.3s-0.7,2-0.7,3.4v0.4c0,1.4,0.2,2.6,0.7,3.4S-769,387.8-767.9,387.8z"/>
				<path class="st1" d="M-751.9,391.1c-2.3,0-4.1-0.7-5.5-2.2c-1.4-1.5-2.1-3.3-2.1-5.6v-0.6c0-2.4,0.6-4.3,1.9-5.8s3-2.3,5.2-2.3
					c2.1,0,3.8,0.6,5,1.9s1.8,3,1.8,5.2v2.3h-9.4v0.1c0.1,1,0.4,1.9,1,2.6c0.6,0.7,1.5,1,2.5,1c0.9,0,1.7-0.1,2.4-0.3
					c0.7-0.2,1.3-0.5,2.1-0.9l1.2,2.6c-0.7,0.5-1.5,1-2.5,1.3S-750.6,391.1-751.9,391.1z M-752.3,378c-0.8,0-1.4,0.3-1.9,0.9
					s-0.7,1.4-0.8,2.4v0.1h5.2V381c0-0.9-0.2-1.6-0.6-2.2C-750.8,378.2-751.4,378-752.3,378z"/>
				<path class="st0" d="M-1051.5,438.8V436l6.9-7.4c1-1.1,1.7-2.1,2.1-2.9c0.4-0.8,0.6-1.5,0.6-2.2c0-0.9-0.2-1.6-0.7-2.2
					s-1.2-0.9-2.1-0.9c-1,0-1.7,0.3-2.2,1s-0.8,1.6-0.8,2.7h-4.2V424c0-1.9,0.6-3.6,1.9-4.9c1.3-1.3,3.1-2,5.3-2s3.9,0.6,5.2,1.7
					c1.3,1.1,1.9,2.7,1.9,4.6c0,1.3-0.4,2.5-1.1,3.6s-1.9,2.5-3.5,4.3l-3.8,4.1v0.1h5.5l0.2-2.1h3.3v5.4L-1051.5,438.8
					L-1051.5,438.8z"/>
				<path class="st0" d="M-1029.9,438.8h-4.3V435h4.3V438.8z"/>
				<path class="st1" d="M-1010,438.8c-0.1-0.3-0.2-0.5-0.3-0.8c-0.1-0.3-0.2-0.6-0.2-0.8c-0.5,0.6-1.1,1.1-1.9,1.4
					s-1.6,0.5-2.5,0.5c-1.6,0-2.8-0.4-3.7-1.3c-0.9-0.9-1.4-2-1.4-3.5s0.6-2.6,1.8-3.4s2.9-1.2,5.2-1.2h2.2v-1.6
					c0-0.8-0.2-1.4-0.7-1.8s-1.1-0.6-1.9-0.6c-0.5,0-0.9,0.1-1.3,0.2c-0.4,0.1-0.7,0.2-0.9,0.4l-0.3,1.7h-3.1v-3.5
					c0.8-0.5,1.7-1,2.7-1.3s2.1-0.5,3.3-0.5c2,0,3.6,0.5,4.8,1.4s1.8,2.3,1.8,4.1v6.5c0,0.2,0,0.5,0,0.7s0,0.4,0.1,0.6l1.3,0.2v2.6
					L-1010,438.8L-1010,438.8z M-1013.7,436c0.6,0,1.2-0.1,1.8-0.4c0.6-0.3,0.9-0.6,1.2-1v-2.4h-2.2c-0.9,0-1.6,0.2-2.1,0.6
					s-0.7,0.9-0.7,1.5c0,0.5,0.2,1,0.5,1.3S-1014.3,436-1013.7,436z"/>
				<path class="st1" d="M-1003.8,436.3l2.1-0.4V426l-2.3-0.4V423h6.3l0.2,2.3c0.5-0.8,1.2-1.4,1.9-1.9s1.6-0.7,2.6-0.7
					c1.6,0,2.9,0.5,3.8,1.5s1.3,2.6,1.3,4.7v6.9l2.1,0.4v2.6h-8.2v-2.6l1.8-0.4v-6.9c0-1.1-0.2-1.8-0.6-2.3
					c-0.4-0.5-1.2-0.6-2.1-0.6c-0.6,0-1.1,0.1-1.5,0.3c-0.4,0.2-0.8,0.6-1.1,1v8.5l1.7,0.4v2.6h-8.1v-2.5H-1003.8z"/>
				<path class="st1" d="M-977.3,436.3l2.1-0.4V426l-2.3-0.4V423h6.6v12.8l2.1,0.4v2.6h-8.4L-977.3,436.3L-977.3,436.3z M-971,419.2
					h-4.3V416h4.3V419.2z"/>
				<path class="st1" d="M-967.8,436.3l2.1-0.4V426l-2.3-0.4V423h6.3l0.2,2.3c0.5-0.8,1.2-1.4,1.9-1.9s1.6-0.7,2.6-0.7
					c1.6,0,2.9,0.5,3.8,1.5s1.3,2.6,1.3,4.7v6.9l2.1,0.4v2.6h-8.2v-2.6l1.8-0.4v-6.9c0-1.1-0.2-1.8-0.6-2.3
					c-0.4-0.5-1.1-0.7-1.9-0.7c-0.6,0-1.1,0.1-1.5,0.3s-0.8,0.6-1.1,1v8.5l1.7,0.4v2.6h-8.1L-967.8,436.3L-967.8,436.3z"/>
				<path class="st1" d="M-938.3,436.9c-0.5,0.7-1.1,1.3-1.8,1.7c-0.7,0.4-1.5,0.6-2.3,0.6c-2,0-3.5-0.7-4.5-2.1s-1.6-3.3-1.6-5.7
					V431c0-2.5,0.5-4.5,1.6-6c1.1-1.5,2.6-2.3,4.6-2.3c0.8,0,1.5,0.2,2.1,0.5c0.6,0.3,1.2,0.8,1.7,1.5V419l-2.3-0.4V416h2.3h4.3
					v19.8l2.1,0.4v2.6h-5.9L-938.3,436.9z M-944.3,431.3c0,1.4,0.2,2.5,0.7,3.3s1.2,1.2,2.3,1.2c0.6,0,1.2-0.1,1.6-0.4
					s0.8-0.6,1.1-1.1v-6.7c-0.3-0.5-0.7-0.9-1.1-1.2s-1-0.4-1.6-0.4c-1,0-1.8,0.5-2.3,1.4s-0.7,2.1-0.7,3.6V431.3z"/>
				<path class="st1" d="M-931,436.3l2.1-0.4V426l-2.3-0.4V423h6.6v12.8l2.1,0.4v2.6h-8.5V436.3z M-924.7,419.2h-4.3V416h4.3V419.2z
					"/>
				<path class="st1" d="M-913.8,435.8c0.8,0,1.4-0.2,1.8-0.7s0.7-1,0.7-1.8h3.9v0.1c0,1.6-0.6,2.9-1.8,4s-2.8,1.6-4.6,1.6
					c-2.4,0-4.2-0.7-5.5-2.2c-1.3-1.5-1.9-3.4-1.9-5.8v-0.4c0-2.3,0.7-4.3,2-5.8s3.2-2.3,5.6-2.3c1.3,0,2.4,0.2,3.4,0.6
					s1.9,0.9,2.5,1.6l0.1,4.2h-3.4l-0.7-2.5c-0.2-0.2-0.5-0.3-0.8-0.5s-0.7-0.2-1.1-0.2c-1.2,0-2.1,0.4-2.6,1.3s-0.7,2-0.7,3.4v0.4
					c0,1.4,0.2,2.6,0.7,3.4S-914.9,435.8-913.8,435.8z"/>
				<path class="st1" d="M-895.3,438.8c-0.1-0.3-0.2-0.5-0.3-0.8c-0.1-0.3-0.2-0.6-0.2-0.8c-0.5,0.6-1.1,1.1-1.9,1.4
					s-1.6,0.5-2.5,0.5c-1.6,0-2.8-0.4-3.7-1.3c-0.9-0.9-1.4-2-1.4-3.5s0.6-2.6,1.8-3.4s2.9-1.2,5.2-1.2h2.2v-1.6
					c0-0.8-0.2-1.4-0.7-1.8s-1.1-0.6-1.9-0.6c-0.5,0-0.9,0.1-1.3,0.2s-0.7,0.2-0.9,0.4l-0.3,1.7h-3.2v-3.5c0.8-0.5,1.7-1,2.7-1.3
					s2.1-0.5,3.3-0.5c2,0,3.6,0.5,4.8,1.4s1.8,2.3,1.8,4.1v6.5c0,0.2,0,0.5,0,0.7s0,0.4,0.1,0.6l1.3,0.2v2.6L-895.3,438.8
					L-895.3,438.8z M-899,436c0.6,0,1.2-0.1,1.8-0.4c0.6-0.3,0.9-0.6,1.2-1v-2.4h-2.2c-0.9,0-1.6,0.2-2.1,0.6s-0.7,0.9-0.7,1.5
					c0,0.5,0.2,1,0.5,1.3S-899.6,436-899,436z"/>
				<path class="st1" d="M-883.8,419.1v3.9h2.8v3h-2.8v8.1c0,0.6,0.1,1.1,0.4,1.3s0.6,0.4,1,0.4c0.3,0,0.5,0,0.8,0
					c0.3,0,0.5-0.1,0.7-0.1l0.4,3.1c-0.5,0.1-1,0.3-1.4,0.3c-0.4,0-1,0.1-1.5,0.1c-1.5,0-2.6-0.4-3.4-1.2s-1.2-2.1-1.2-3.9V426h-2.3
					v-3h2.3v-3.9H-883.8z"/>
				<path class="st1" d="M-879.1,436.3l2.1-0.4V426l-2.3-0.4V423h6.6v12.8l2.1,0.4v2.6h-8.4v-2.5H-879.1z M-872.7,419.2h-4.3V416
					h4.3V419.2z"/>
				<path class="st1" d="M-869.3,430.8c0-2.4,0.7-4.3,2-5.8c1.3-1.5,3.2-2.3,5.5-2.3c2.3,0,4.2,0.8,5.5,2.3c1.3,1.5,2,3.4,2,5.8v0.3
					c0,2.4-0.7,4.3-2,5.8c-1.3,1.5-3.1,2.2-5.5,2.2c-2.4,0-4.2-0.7-5.5-2.2c-1.3-1.5-2-3.4-2-5.8V430.8z M-865,431.1
					c0,1.4,0.3,2.6,0.8,3.5s1.3,1.3,2.5,1.3c1.1,0,1.9-0.4,2.4-1.3s0.8-2,0.8-3.5v-0.3c0-1.4-0.3-2.6-0.8-3.4s-1.3-1.3-2.4-1.3
					s-1.9,0.4-2.4,1.3s-0.8,2-0.8,3.4L-865,431.1L-865,431.1z"/>
				<path class="st1" d="M-852.7,436.3l2.1-0.4V426l-2.3-0.4V423h6.3l0.2,2.3c0.5-0.8,1.2-1.4,1.9-1.9s1.6-0.7,2.6-0.7
					c1.6,0,2.9,0.5,3.8,1.5c0.9,1,1.3,2.6,1.3,4.7v6.9l2.1,0.4v2.6h-8.2v-2.6l1.8-0.4v-6.9c0-1.1-0.2-1.8-0.6-2.3
					c-0.4-0.5-1.1-0.7-1.9-0.7c-0.6,0-1.1,0.1-1.5,0.3c-0.4,0.2-0.8,0.6-1.1,1v8.5l1.7,0.4v2.6h-8.1v-2.4H-852.7z"/>
				<path class="st1" d="M-826,430.8c0-2.4,0.7-4.3,2-5.8s3.2-2.3,5.5-2.3s4.2,0.8,5.5,2.3s2,3.4,2,5.8v0.3c0,2.4-0.7,4.3-2,5.8
					s-3.1,2.2-5.5,2.2c-2.4,0-4.2-0.7-5.5-2.2s-2-3.4-2-5.8V430.8z M-821.8,431.1c0,1.4,0.3,2.6,0.8,3.5s1.3,1.3,2.5,1.3
					c1.1,0,1.9-0.4,2.4-1.3s0.8-2,0.8-3.5v-0.3c0-1.4-0.3-2.6-0.8-3.4s-1.3-1.3-2.4-1.3c-1.1,0-1.9,0.4-2.4,1.3s-0.8,2-0.8,3.4
					L-821.8,431.1L-821.8,431.1z"/>
				<path class="st1" d="M-809,436.3l2.1-0.4V426h-2.4v-3h2.4v-1.8c0-1.8,0.5-3.1,1.5-4.1s2.5-1.4,4.3-1.4c0.4,0,0.7,0,1.1,0.1
					c0.4,0.1,0.8,0.1,1.2,0.2l-0.4,3.2c-0.2,0-0.5-0.1-0.7-0.1s-0.5,0-0.8,0c-0.7,0-1.2,0.2-1.6,0.6c-0.4,0.4-0.5,0.9-0.5,1.6v1.8
					h3.1v3h-3.1v9.8l2.1,0.4v2.6h-8.3V436.3z"/>
				<path class="st1" d="M-784.4,419.1v3.9h2.8v3h-2.8v8.1c0,0.6,0.1,1.1,0.4,1.3s0.6,0.4,1,0.4c0.3,0,0.5,0,0.8,0s0.5-0.1,0.7-0.1
					l0.4,3.1c-0.5,0.1-1,0.3-1.4,0.3c-0.4,0-1,0.1-1.5,0.1c-1.5,0-2.6-0.4-3.4-1.2s-1.2-2.1-1.2-3.9V426h-2.4v-3h2.3v-3.9H-784.4z"
					/>
				<path class="st1" d="M-779.8,436.3l2.1-0.4V419l-2.3-0.4V416h6.5v9c0.5-0.7,1.1-1.3,1.8-1.7c0.7-0.4,1.5-0.6,2.4-0.6
					c1.7,0,3,0.5,3.9,1.6c0.9,1.1,1.4,2.8,1.4,5.1v6.4l2.1,0.4v2.6h-8.1v-2.6l1.8-0.4v-6.4c0-1.2-0.2-2.1-0.7-2.6s-1.1-0.8-1.9-0.8
					c-0.6,0-1.1,0.1-1.6,0.3s-0.8,0.5-1.1,0.9v8.6l1.8,0.4v2.6h-8.2v-2.5H-779.8z"/>
				<path class="st1" d="M-753,439.1c-2.3,0-4.1-0.7-5.5-2.2c-1.4-1.5-2.1-3.3-2.1-5.6v-0.6c0-2.4,0.6-4.3,1.9-5.8s3-2.3,5.2-2.3
					c2.1,0,3.8,0.6,5,1.9s1.8,3,1.8,5.2v2.3h-9.5v0.1c0.1,1,0.4,1.9,1,2.6c0.6,0.7,1.5,1,2.5,1c0.9,0,1.7-0.1,2.4-0.3
					c0.7-0.2,1.3-0.5,2.1-0.9l1.2,2.6c-0.7,0.5-1.5,1-2.5,1.3S-751.7,439.1-753,439.1z M-753.4,426c-0.8,0-1.4,0.3-1.9,0.9
					s-0.7,1.4-0.8,2.4v0.1h5.2V429c0-0.9-0.2-1.6-0.6-2.2C-751.9,426.2-752.5,426-753.4,426z"/>
				<path class="st1" d="M-729.7,439.1c-2.3,0-4.1-0.7-5.5-2.2c-1.4-1.5-2.1-3.3-2.1-5.6v-0.6c0-2.4,0.6-4.3,1.9-5.8s3-2.3,5.2-2.3
					c2.1,0,3.8,0.6,5,1.9s1.8,3,1.8,5.2v2.3h-9.5v0.1c0.1,1,0.4,1.9,1,2.6c0.6,0.7,1.5,1,2.5,1c0.9,0,1.7-0.1,2.4-0.3
					c0.7-0.2,1.3-0.5,2.1-0.9l1.2,2.6c-0.7,0.5-1.5,1-2.5,1.3S-728.4,439.1-729.7,439.1z M-730,426c-0.8,0-1.4,0.3-1.9,0.9
					s-0.7,1.4-0.8,2.4v0.1h5.2V429c0-0.9-0.2-1.6-0.6-2.2C-728.5,426.2-729.2,426-730,426z"/>
				<path class="st1" d="M-708.3,428.4h-2.9l-0.5-2c-0.3-0.2-0.7-0.4-1.1-0.6c-0.4-0.2-0.9-0.2-1.5-0.2c-0.8,0-1.3,0.2-1.8,0.5
					s-0.7,0.8-0.7,1.3s0.2,0.9,0.6,1.2c0.4,0.3,1.3,0.6,2.5,0.8c2,0.4,3.4,1,4.4,1.7s1.4,1.8,1.4,3.1c0,1.4-0.6,2.6-1.8,3.5
					c-1.2,0.9-2.8,1.4-4.8,1.4c-1.2,0-2.3-0.2-3.4-0.5c-1.1-0.3-1.9-0.9-2.7-1.5v-3.6h3l0.6,2.1c0.3,0.2,0.6,0.4,1,0.5
					c0.4,0.1,0.9,0.2,1.4,0.2c0.9,0,1.5-0.2,2-0.5s0.7-0.7,0.7-1.3c0-0.5-0.2-0.9-0.7-1.2s-1.3-0.6-2.5-0.9
					c-1.9-0.4-3.3-0.9-4.2-1.7s-1.4-1.8-1.4-3.1c0-1.3,0.5-2.5,1.6-3.4c1.1-0.9,2.7-1.4,4.7-1.4c1.2,0,2.4,0.2,3.5,0.5
					c1.1,0.3,2,0.8,2.6,1.3V428.4z"/>
				<path class="st1" d="M-692.9,428.4h-2.9l-0.5-2c-0.3-0.2-0.7-0.4-1.1-0.6c-0.4-0.2-0.9-0.2-1.5-0.2c-0.8,0-1.3,0.2-1.8,0.5
					s-0.7,0.8-0.7,1.3s0.2,0.9,0.6,1.2c0.4,0.3,1.3,0.6,2.5,0.8c2,0.4,3.4,1,4.4,1.7s1.4,1.8,1.4,3.1c0,1.4-0.6,2.6-1.8,3.5
					c-1.2,0.9-2.8,1.4-4.8,1.4c-1.2,0-2.3-0.2-3.4-0.5c-1.1-0.3-1.9-0.9-2.7-1.5v-3.6h3l0.6,2.1c0.3,0.2,0.6,0.4,1,0.5
					c0.4,0.1,0.9,0.2,1.4,0.2c0.9,0,1.5-0.2,2-0.5s0.7-0.7,0.7-1.3c0-0.5-0.2-0.9-0.7-1.2s-1.3-0.6-2.5-0.9
					c-1.9-0.4-3.3-0.9-4.2-1.7s-1.4-1.8-1.4-3.1c0-1.3,0.5-2.5,1.6-3.4c1.1-0.9,2.7-1.4,4.7-1.4c1.2,0,2.4,0.2,3.5,0.5
					c1.1,0.3,2,0.8,2.6,1.3L-692.9,428.4z"/>
				<path class="st1" d="M-682.8,439.1c-2.3,0-4.1-0.7-5.5-2.2c-1.4-1.5-2.1-3.3-2.1-5.6v-0.6c0-2.4,0.6-4.3,1.9-5.8s3-2.3,5.2-2.3
					c2.1,0,3.8,0.6,5,1.9s1.8,3,1.8,5.2v2.3h-9.5v0.1c0.1,1,0.4,1.9,1,2.6c0.6,0.7,1.5,1,2.5,1c0.9,0,1.7-0.1,2.4-0.3
					c0.7-0.2,1.3-0.5,2.1-0.9l1.2,2.6c-0.7,0.5-1.5,1-2.5,1.3C-680.4,439-681.5,439.1-682.8,439.1z M-683.2,426
					c-0.8,0-1.4,0.3-1.9,0.9s-0.7,1.4-0.8,2.4v0.1h5.2V429c0-0.9-0.2-1.6-0.6-2.2C-681.7,426.2-682.3,426-683.2,426z"/>
				<path class="st1" d="M-674.6,436.3l2.1-0.4V426l-2.3-0.4V423h6.3l0.2,2.3c0.5-0.8,1.2-1.4,1.9-1.9c0.7-0.5,1.6-0.7,2.6-0.7
					c1.6,0,2.9,0.5,3.8,1.5c0.9,1,1.3,2.6,1.3,4.7v6.9l2.1,0.4v2.6h-8.2v-2.6l1.8-0.4v-6.9c0-1.1-0.2-1.8-0.6-2.3
					c-0.4-0.5-1.1-0.7-1.9-0.7c-0.6,0-1.1,0.1-1.5,0.3c-0.4,0.2-0.8,0.6-1.1,1v8.5l1.7,0.4v2.6h-8.1L-674.6,436.3L-674.6,436.3z"/>
				<path class="st1" d="M-649.1,419.1v3.9h2.8v3h-2.8v8.1c0,0.6,0.1,1.1,0.4,1.3s0.6,0.4,1,0.4c0.3,0,0.5,0,0.8,0
					c0.2,0,0.5-0.1,0.7-0.1l0.4,3.1c-0.5,0.1-1,0.3-1.4,0.3c-0.4,0-1,0.1-1.5,0.1c-1.5,0-2.6-0.4-3.4-1.2c-0.8-0.8-1.2-2.1-1.2-3.9
					V426h-2.3v-3h2.3v-3.9H-649.1z"/>
				<path class="st1" d="M-644.3,436.3l2.1-0.4V426l-2.3-0.4V423h6.6v12.8l2.1,0.4v2.6h-8.4v-2.5H-644.3z M-638,419.2h-4.3V416h4.3
					V419.2z"/>
				<path class="st1" d="M-624.4,438.8c-0.1-0.3-0.2-0.5-0.3-0.8s-0.2-0.6-0.2-0.8c-0.5,0.6-1.1,1.1-1.9,1.4
					c-0.7,0.4-1.6,0.5-2.5,0.5c-1.6,0-2.8-0.4-3.7-1.3s-1.4-2-1.4-3.5s0.6-2.6,1.8-3.4c1.2-0.8,2.9-1.2,5.2-1.2h2.2v-1.6
					c0-0.8-0.2-1.4-0.7-1.8s-1.1-0.6-1.9-0.6c-0.5,0-0.9,0.1-1.3,0.2c-0.4,0.1-0.7,0.2-0.9,0.4l-0.3,1.7h-3.2v-3.5
					c0.8-0.5,1.7-1,2.7-1.3c1-0.4,2.1-0.5,3.3-0.5c2,0,3.6,0.5,4.8,1.4c1.2,1,1.8,2.3,1.8,4.1v6.5c0,0.2,0,0.5,0,0.7s0,0.4,0.1,0.6
					l1.3,0.2v2.6L-624.4,438.8L-624.4,438.8z M-628.1,436c0.6,0,1.2-0.1,1.8-0.4s0.9-0.6,1.2-1v-2.4h-2.2c-0.9,0-1.6,0.2-2.1,0.6
					s-0.7,0.9-0.7,1.5c0,0.5,0.2,1,0.5,1.3C-629.2,435.8-628.7,436-628.1,436z"/>
				<path class="st1" d="M-618.5,418.5V416h6.6v19.8l2.1,0.4v2.6h-8.4v-2.6l2.1-0.4V419L-618.5,418.5z"/>
				<path class="st1" d="M-1010.2,467.8c0.8,0,1.4-0.2,1.8-0.7c0.4-0.5,0.7-1,0.7-1.8h3.9v0.1c0,1.6-0.6,2.9-1.8,4
					c-1.2,1.1-2.8,1.6-4.6,1.6c-2.4,0-4.2-0.7-5.5-2.2s-1.9-3.4-1.9-5.8v-0.4c0-2.3,0.7-4.3,2-5.8c1.3-1.5,3.2-2.3,5.6-2.3
					c1.3,0,2.4,0.2,3.4,0.6s1.9,0.9,2.5,1.6l0.1,4.2h-3.5l-0.7-2.5c-0.2-0.2-0.5-0.3-0.8-0.5s-0.6,0.1-1,0.1c-1.2,0-2.1,0.4-2.6,1.3
					s-0.7,2-0.7,3.4v0.4c0,1.4,0.2,2.6,0.7,3.4S-1011.4,467.8-1010.2,467.8z"/>
				<path class="st1" d="M-1002.1,468.3l2.1-0.4V451l-2.3-0.4V448h6.5v9c0.5-0.7,1.1-1.3,1.8-1.7s1.5-0.6,2.4-0.6
					c1.7,0,3,0.5,3.9,1.6s1.4,2.8,1.4,5.1v6.4l2.1,0.4v2.6h-8.2v-2.6l1.8-0.4v-6.4c0-1.2-0.2-2.1-0.7-2.6s-1.1-0.8-1.9-0.8
					c-0.6,0-1.1,0.1-1.6,0.3s-0.8,0.5-1.1,0.9v8.6l1.8,0.4v2.6h-8.2v-2.5H-1002.1z"/>
				<path class="st1" d="M-972.7,470.8c-0.1-0.3-0.2-0.5-0.3-0.8c-0.1-0.3-0.2-0.6-0.2-0.8c-0.5,0.6-1.1,1.1-1.9,1.4
					c-0.8,0.3-1.6,0.5-2.5,0.5c-1.6,0-2.8-0.4-3.7-1.3c-0.9-0.9-1.4-2-1.4-3.5s0.6-2.6,1.8-3.4s2.9-1.2,5.2-1.2h2.2v-1.6
					c0-0.8-0.2-1.4-0.7-1.8s-1.1-0.6-1.9-0.6c-0.5,0-0.9,0.1-1.3,0.2c-0.4,0.1-0.7,0.2-0.9,0.4l-0.3,1.7h-3.2v-3.5
					c0.8-0.5,1.7-1,2.7-1.3s2.1-0.5,3.3-0.5c2,0,3.6,0.5,4.8,1.4s1.8,2.3,1.8,4.1v6.5c0,0.2,0,0.5,0,0.7s0,0.4,0.1,0.6l1.3,0.2v2.6
					L-972.7,470.8L-972.7,470.8z M-976.4,468c0.6,0,1.2-0.1,1.8-0.4c0.6-0.3,0.9-0.6,1.2-1v-2.4h-2.2c-0.9,0-1.6,0.2-2.1,0.6
					s-0.7,0.9-0.7,1.5c0,0.5,0.2,1,0.5,1.3C-977.6,467.9-977,468-976.4,468z"/>
				<path class="st1" d="M-966,468.3l2.1-0.4V458l-2.3-0.4V455h6.3l0.2,2.3c0.4-0.8,0.8-1.5,1.4-1.9c0.6-0.4,1.3-0.7,2-0.7
					c0.2,0,0.5,0,0.7,0.1c0.2,0.1,0.5,0.1,0.6,0.1l-0.5,3.9h-1.8c-0.6,0-1.1,0.1-1.6,0.4s-0.7,0.6-0.9,1v7.7l2.1,0.4v2.6h-8.3V468.3
					z"/>
				<path class="st1" d="M-943.9,470.8c-0.1-0.3-0.2-0.5-0.3-0.8c-0.1-0.3-0.2-0.6-0.2-0.8c-0.5,0.6-1.1,1.1-1.9,1.4
					s-1.6,0.5-2.5,0.5c-1.6,0-2.8-0.4-3.7-1.3c-0.9-0.9-1.4-2-1.4-3.5s0.6-2.6,1.8-3.4s2.9-1.2,5.2-1.2h2.2v-1.6
					c0-0.8-0.2-1.4-0.7-1.8s-1.1-0.6-1.9-0.6c-0.5,0-0.9,0.1-1.3,0.2s-0.7,0.2-0.9,0.4l-0.3,1.7h-3.2v-3.5c0.8-0.5,1.7-1,2.7-1.3
					s2.1-0.5,3.3-0.5c2,0,3.6,0.5,4.8,1.4c1.2,0.9,1.8,2.3,1.8,4.1v6.5c0,0.2,0,0.5,0,0.7s0,0.4,0.1,0.6l1.3,0.2v2.6L-943.9,470.8
					L-943.9,470.8z M-947.6,468c0.6,0,1.2-0.1,1.8-0.4c0.6-0.3,0.9-0.6,1.2-1v-2.4h-2.2c-0.9,0-1.6,0.2-2.1,0.6s-0.7,0.9-0.7,1.5
					c0,0.5,0.2,1,0.5,1.3C-948.8,467.9-948.2,468-947.6,468z"/>
				<path class="st1" d="M-930.1,467.8c0.8,0,1.4-0.2,1.8-0.7c0.4-0.5,0.7-1,0.7-1.8h3.9v0.1c0,1.6-0.6,2.9-1.8,4
					c-1.2,1.1-2.8,1.6-4.6,1.6c-2.4,0-4.2-0.7-5.5-2.2s-1.9-3.4-1.9-5.8v-0.4c0-2.3,0.7-4.3,2-5.8c1.3-1.5,3.2-2.3,5.6-2.3
					c1.3,0,2.4,0.2,3.4,0.6s1.9,0.9,2.5,1.6l0.1,4.2h-3.5l-0.7-2.5c-0.2-0.2-0.5-0.3-0.8-0.5s-0.7-0.2-1.1-0.2
					c-1.2,0-2.1,0.4-2.6,1.3s-0.7,2-0.7,3.4v0.4c0,1.4,0.2,2.6,0.7,3.4S-931.2,467.8-930.1,467.8z"/>
				<path class="st1" d="M-915.4,451.1v3.9h2.8v3h-2.8v8.1c0,0.6,0.1,1.1,0.4,1.3s0.6,0.4,1,0.4c0.3,0,0.5,0,0.8,0s0.5-0.1,0.7-0.1
					l0.4,3.1c-0.5,0.1-1,0.3-1.4,0.3c-0.4,0-1,0.1-1.5,0.1c-1.5,0-2.6-0.4-3.4-1.2s-1.2-2.1-1.2-3.9V458h-2.4v-3h2.3v-3.9H-915.4z"
					/>
				<path class="st1" d="M-902.9,471.1c-2.3,0-4.1-0.7-5.5-2.2c-1.4-1.5-2.1-3.3-2.1-5.6v-0.6c0-2.4,0.6-4.3,1.9-5.8s3-2.3,5.2-2.3
					c2.1,0,3.8,0.6,5,1.9s1.8,3,1.8,5.2v2.3h-9.4v0.1c0.1,1,0.4,1.9,1,2.6c0.6,0.7,1.5,1,2.5,1c0.9,0,1.7-0.1,2.4-0.3
					c0.7-0.2,1.3-0.5,2.1-0.9l1.2,2.6c-0.7,0.5-1.5,1-2.5,1.3S-901.6,471.1-902.9,471.1z M-903.3,458c-0.8,0-1.4,0.3-1.9,0.9
					s-0.7,1.4-0.8,2.4v0.1h5.2V461c0-0.9-0.2-1.6-0.6-2.2S-902.4,458-903.3,458z"/>
				<path class="st1" d="M-894.2,468.3l2.1-0.4V458l-2.3-0.4V455h6.3l0.2,2.3c0.4-0.8,0.8-1.5,1.4-1.9s1.3-0.7,2-0.7
					c0.2,0,0.5,0,0.7,0.1c0.2,0.1,0.5,0.1,0.6,0.1l-0.5,3.9h-1.8c-0.6,0-1.1,0.1-1.6,0.4s-0.7,0.6-0.9,1v7.7l2.1,0.4v2.6h-8.4
					L-894.2,468.3L-894.2,468.3z"/>
				<path class="st1" d="M-874.5,462.8c0-2.4,0.7-4.3,2-5.8s3.2-2.3,5.5-2.3s4.2,0.8,5.5,2.3s2,3.4,2,5.8v0.3c0,2.4-0.7,4.3-2,5.8
					s-3.1,2.2-5.5,2.2c-2.4,0-4.2-0.7-5.5-2.2s-2-3.4-2-5.8V462.8z M-870.3,463.1c0,1.4,0.3,2.6,0.8,3.5s1.3,1.3,2.5,1.3
					c1.1,0,1.9-0.4,2.4-1.3s0.8-2,0.8-3.5v-0.3c0-1.4-0.3-2.6-0.8-3.4s-1.3-1.3-2.4-1.3s-1.9,0.4-2.4,1.3s-0.8,2-0.8,3.4
					L-870.3,463.1L-870.3,463.1z"/>
				<path class="st1" d="M-857.5,468.3l2.1-0.4V458h-2.4v-3h2.4v-1.8c0-1.8,0.5-3.1,1.5-4.1s2.5-1.4,4.3-1.4c0.4,0,0.7,0,1.1,0.1
					s0.8,0.1,1.2,0.2l-0.4,3.2c-0.2,0-0.5-0.1-0.7-0.1c-0.2,0-0.5,0-0.8,0c-0.7,0-1.2,0.2-1.6,0.6s-0.5,0.9-0.5,1.6v1.8h3.1v3h-3.1
					v9.8l2.1,0.4v2.6h-8.4L-857.5,468.3L-857.5,468.3z"/>
				<path class="st1" d="M-826.3,460.4h-2.9l-0.5-2c-0.3-0.2-0.7-0.4-1.1-0.6c-0.4-0.2-0.9-0.2-1.5-0.2c-0.8,0-1.3,0.2-1.8,0.5
					s-0.7,0.8-0.7,1.3s0.2,0.9,0.6,1.2s1.3,0.6,2.5,0.8c2,0.4,3.4,1,4.4,1.7s1.4,1.8,1.4,3.1c0,1.4-0.6,2.6-1.8,3.5
					s-2.8,1.4-4.8,1.4c-1.2,0-2.3-0.2-3.4-0.5s-1.9-0.9-2.7-1.5v-3.6h3l0.6,2.1c0.3,0.2,0.6,0.4,1,0.5c0.4,0.1,0.9,0.2,1.4,0.2
					c0.9,0,1.5-0.2,2-0.5s0.7-0.7,0.7-1.3c0-0.5-0.2-0.9-0.7-1.2s-1.3-0.6-2.5-0.9c-1.9-0.4-3.3-0.9-4.2-1.7
					c-0.9-0.8-1.4-1.8-1.4-3.1c0-1.3,0.5-2.5,1.6-3.4c1.1-0.9,2.7-1.4,4.7-1.4c1.2,0,2.4,0.2,3.5,0.5c1.1,0.3,2,0.8,2.6,1.3V460.4z"
					/>
				<path class="st1" d="M-823.8,462.8c0-2.4,0.7-4.3,2-5.8c1.3-1.5,3.2-2.3,5.5-2.3s4.2,0.8,5.5,2.3s2,3.4,2,5.8v0.3
					c0,2.4-0.7,4.3-2,5.8s-3.1,2.2-5.5,2.2c-2.4,0-4.2-0.7-5.5-2.2s-2-3.4-2-5.8V462.8L-823.8,462.8z M-819.5,463.1
					c0,1.4,0.3,2.6,0.8,3.5s1.3,1.3,2.5,1.3c1.1,0,1.9-0.4,2.4-1.3s0.8-2,0.8-3.5v-0.3c0-1.4-0.3-2.6-0.8-3.4s-1.3-1.3-2.4-1.3
					c-1.1,0-1.9,0.4-2.4,1.3s-0.8,2-0.8,3.4L-819.5,463.1L-819.5,463.1z"/>
				<path class="st1" d="M-807.4,457.6V455h6.3l0.2,2.1c0.5-0.8,1.1-1.3,1.9-1.8s1.7-0.6,2.7-0.6s1.9,0.2,2.6,0.7s1.3,1.1,1.6,2
					c0.5-0.8,1.1-1.5,1.9-2s1.7-0.7,2.8-0.7c1.6,0,2.8,0.5,3.7,1.6s1.4,2.7,1.4,4.9v6.6l2.1,0.4v2.6h-8.2v-2.6l1.8-0.4v-6.6
					c0-1.2-0.2-2-0.6-2.5c-0.4-0.5-1-0.7-1.7-0.7c-0.6,0-1.1,0.1-1.6,0.4s-0.8,0.6-1.1,1.1c0,0.2,0,0.3,0,0.5s0,0.3,0,0.4v7.4
					l1.7,0.4v2.6h-7.7v-2.6l1.7-0.4v-6.6c0-1.2-0.2-2-0.6-2.5c-0.4-0.5-1-0.7-1.8-0.7c-0.6,0-1.1,0.1-1.5,0.3
					c-0.4,0.2-0.8,0.5-1.1,0.9v8.6l1.8,0.4v2.6h-8.2v-2.6l2.1-0.4V458L-807.4,457.6z"/>
				<path class="st1" d="M-771.6,471.1c-2.3,0-4.1-0.7-5.5-2.2c-1.4-1.5-2.1-3.3-2.1-5.6v-0.6c0-2.4,0.6-4.3,1.9-5.8s3-2.3,5.2-2.3
					c2.1,0,3.8,0.6,5,1.9s1.8,3,1.8,5.2v2.3h-9.5v0.1c0.1,1,0.4,1.9,1,2.6c0.6,0.7,1.5,1,2.5,1c0.9,0,1.7-0.1,2.4-0.3
					c0.7-0.2,1.3-0.5,2.1-0.9l1.2,2.6c-0.7,0.5-1.5,1-2.5,1.3S-770.3,471.1-771.6,471.1z M-772,458c-0.8,0-1.4,0.3-1.9,0.9
					s-0.7,1.4-0.8,2.4v0.1h5.2V461c0-0.9-0.2-1.6-0.6-2.2C-770.5,458.2-771.1,458-772,458z"/>
				<path class="st1" d="M-756.9,451.1v3.9h2.8v3h-2.8v8.1c0,0.6,0.1,1.1,0.4,1.3s0.6,0.4,1,0.4c0.3,0,0.5,0,0.8,0s0.5-0.1,0.7-0.1
					l0.4,3.1c-0.5,0.1-1,0.3-1.4,0.3c-0.4,0-1,0.1-1.5,0.1c-1.5,0-2.6-0.4-3.4-1.2s-1.2-2.1-1.2-3.9V458h-2.3v-3h2.3v-3.9H-756.9z"
					/>
				<path class="st1" d="M-752.3,468.3l2.1-0.4V451l-2.3-0.4V448h6.5v9c0.5-0.7,1.1-1.3,1.8-1.7c0.7-0.4,1.5-0.6,2.4-0.6
					c1.7,0,3,0.5,3.9,1.6c0.9,1.1,1.4,2.8,1.4,5.1v6.4l2.1,0.4v2.6h-8.2v-2.6l1.8-0.4v-6.4c0-1.2-0.2-2.1-0.7-2.6s-1.1-0.8-1.9-0.8
					c-0.6,0-1.1,0.1-1.6,0.3s-0.8,0.5-1.1,0.9v8.6l1.8,0.4v2.6h-8.2v-2.5H-752.3z"/>
				<path class="st1" d="M-733.1,468.3l2.1-0.4V458l-2.3-0.4V455h6.6v12.8l2.1,0.4v2.6h-8.4v-2.5H-733.1z M-726.7,451.2h-4.3V448
					h4.3V451.2z"/>
				<path class="st1" d="M-723.5,468.3l2.1-0.4V458l-2.3-0.4V455h6.3l0.2,2.3c0.5-0.8,1.2-1.4,1.9-1.9c0.7-0.5,1.6-0.7,2.6-0.7
					c1.6,0,2.9,0.5,3.8,1.5c0.9,1,1.3,2.6,1.3,4.7v6.9l2.1,0.4v2.6h-8.2v-2.6l1.8-0.4v-6.9c0-1.1-0.2-1.8-0.6-2.3
					c-0.4-0.5-1.1-0.7-1.9-0.7c-0.6,0-1.1,0.1-1.5,0.3c-0.4,0.2-0.8,0.6-1.1,1v8.5l1.7,0.4v2.6h-8.1L-723.5,468.3L-723.5,468.3z"/>
				<path class="st1" d="M-704.1,463c0-2.5,0.5-4.5,1.6-6c1.1-1.5,2.6-2.3,4.6-2.3c0.9,0,1.7,0.2,2.3,0.6s1.3,1,1.7,1.7l0.3-2h3.7
					v15.4c0,2.1-0.7,3.8-2,5s-3.1,1.9-5.4,1.9c-0.8,0-1.7-0.1-2.5-0.3s-1.7-0.5-2.5-0.9l0.8-3c0.7,0.3,1.4,0.5,2.1,0.7
					s1.4,0.3,2.2,0.3c1,0,1.8-0.3,2.3-1s0.8-1.5,0.8-2.7v-1c-0.5,0.6-1,1-1.7,1.4s-1.4,0.5-2.2,0.5c-1.9,0-3.5-0.7-4.5-2.1
					s-1.6-3.3-1.6-5.6V463L-704.1,463z M-699.8,463.3c0,1.4,0.2,2.5,0.7,3.3s1.2,1.2,2.3,1.2c0.7,0,1.2-0.1,1.7-0.4
					c0.5-0.2,0.8-0.6,1.1-1v-6.9c-0.3-0.5-0.6-0.8-1.1-1.1c-0.5-0.3-1-0.4-1.6-0.4c-1,0-1.8,0.5-2.3,1.4s-0.7,2.1-0.7,3.6
					L-699.8,463.3L-699.8,463.3z"/>
			</g>
		</g>
	</g>
	<g>
		
			<image style="overflow:visible;opacity:0.75;enable-background:new    ;" width="126" height="38" xlink:href="DC43F8DD.png"  transform="matrix(1 0 0 1 -888.97 264)">
		</image>
		<g>
			<g>
				<path class="st1" d="M-888.9,295.4l3.6-30.4h2.7c1.2,0,1.8,0.6,1.8,1.8l-0.5,5.9c1.6-2.7,3.4-4.7,5.5-6.1c2-1.4,4.1-2,6.3-2
					c2.3,0,4,0.8,5.3,2.3c1.2,1.5,1.9,3.7,1.9,6.7c0,0.4,0,0.8,0,1.2s-0.1,0.9-0.1,1.3l-2.3,19.3h-5.3l2.3-19.3
					c0-0.4,0.1-0.8,0.1-1.2s0-0.7,0-1.1c0-1.6-0.3-2.9-0.9-3.6c-0.6-0.8-1.6-1.2-2.9-1.2c-1,0-1.9,0.3-2.9,0.8s-1.9,1.3-2.9,2.2
					c-0.9,1-1.8,2.1-2.6,3.5c-0.8,1.3-1.5,2.9-2,4.5l-1.7,15.5h-5.4V295.4z"/>
				<path class="st1" d="M-846.5,295.8c-1.7,0-3.2-0.3-4.6-0.9c-1.4-0.6-2.6-1.4-3.6-2.5s-1.8-2.4-2.3-4c-0.6-1.6-0.8-3.3-0.8-5.3
					c0-2.6,0.4-5,1.2-7.2c0.8-2.3,1.9-4.2,3.3-5.9c1.4-1.7,3-3,4.9-4c1.9-1,3.9-1.5,6.1-1.5c1.7,0,3.2,0.3,4.6,0.9
					c1.4,0.6,2.6,1.4,3.6,2.5s1.8,2.4,2.3,4c0.6,1.6,0.8,3.3,0.8,5.3c0,2.5-0.4,4.9-1.2,7.2c-0.8,2.3-1.9,4.2-3.3,5.9
					c-1.4,1.7-3,3-4.9,4C-842.3,295.3-844.3,295.8-846.5,295.8z M-846,291.6c1.5,0,2.8-0.4,4-1.2c1.2-0.8,2.2-1.9,3.1-3.2
					c0.8-1.3,1.5-2.9,1.9-4.6c0.5-1.7,0.7-3.6,0.7-5.5c0-2.8-0.6-4.9-1.6-6.3c-1.1-1.4-2.7-2.1-4.8-2.1c-1.5,0-2.8,0.4-4,1.2
					c-1.2,0.8-2.2,1.9-3,3.2c-0.8,1.3-1.5,2.9-2,4.6c-0.5,1.7-0.7,3.6-0.7,5.5c0,2.8,0.5,4.9,1.6,6.3
					C-849.7,290.9-848.1,291.6-846,291.6z"/>
				<path class="st1" d="M-818.7,265l-2.3,19.3c0,0.4-0.1,0.8-0.1,1.1c0,0.4,0,0.7,0,1c0,1.6,0.3,2.9,0.9,3.7
					c0.6,0.8,1.6,1.2,2.9,1.2c0.9,0,1.9-0.3,2.8-0.8c1-0.5,1.9-1.2,2.8-2.1c0.9-0.9,1.8-2,2.5-3.3c0.8-1.3,1.5-2.7,2-4.3l1.9-15.8
					h5.3l-3.7,30.4h-2.6c-0.6,0-1.1-0.1-1.4-0.4s-0.5-0.7-0.5-1.3c0,0,0-0.2,0-0.5s0-0.7,0.1-1.1c0-0.4,0.1-0.8,0.1-1.1s0-0.5,0-0.5
					l0.2-2.4c-1.6,2.6-3.4,4.5-5.4,5.9c-2,1.3-4.1,2-6.2,2c-2.3,0-4-0.8-5.3-2.3s-1.9-3.8-1.9-6.6c0-0.4,0-0.8,0-1.2
					s0.1-0.9,0.1-1.3l2.5-19.6H-818.7z"/>
				<path class="st1" d="M-795.7,295.4l3.6-30.4h2.7c1.2,0,1.8,0.6,1.8,1.8l-0.5,5.9c1.6-2.7,3.4-4.7,5.5-6.1c2-1.4,4.1-2,6.3-2
					c2.3,0,4,0.8,5.3,2.3c1.2,1.5,1.9,3.7,1.9,6.7c0,0.4,0,0.8,0,1.2s-0.1,0.9-0.1,1.3l-2.3,19.3h-5.3l2.3-19.3
					c0-0.4,0.1-0.8,0.1-1.2s0-0.7,0-1.1c0-1.6-0.3-2.9-0.9-3.6c-0.6-0.8-1.6-1.2-2.9-1.2c-1,0-1.9,0.3-2.9,0.8s-1.9,1.3-2.9,2.2
					c-0.9,1-1.8,2.1-2.6,3.5c-0.8,1.3-1.5,2.9-2,4.5l-1.7,15.5h-5.4V295.4z"/>
			</g>
		</g>
	</g>
	<g>
		
			<image style="overflow:visible;opacity:0.75;enable-background:new    ;" width="330" height="89" xlink:href="DC43F8D2.png"  transform="matrix(1 0 0 1 -990.97 85)">
		</image>
		<g>
			<g>
				<path class="st1" d="M-950.3,97.6c-1.8-0.2-3.8-0.4-6-0.4c-3.8,0-6.7,1-8.7,2.9c-1.9,1.9-2.9,4.7-2.9,8.4v2.4h12.2v10.4h-12.2
					v34.2l7.2,1.5v8.9h-30V157l7.9-1.5v-34.1h-6.9v-10.5h6.9v-2.4c0-7.4,2.2-13,6.7-17c4.4-4,10.7-6,18.8-6c2.9,0,5.8,0.3,8.7,0.8
					c2.9,0.5,6.2,1.3,9.9,2.3h8.8v67l7.2,1.5v8.9h-29.2v-8.9l7.2-1.5v-57C-946.6,98.2-948.5,97.9-950.3,97.6z"/>
				<path class="st1" d="M-882,166c-0.4-0.9-0.8-1.9-1.1-2.8c-0.3-1-0.5-1.9-0.7-2.9c-1.8,2-3.9,3.7-6.4,4.9
					c-2.5,1.3-5.4,1.9-8.7,1.9c-5.4,0-9.7-1.5-12.9-4.4s-4.8-6.9-4.8-12c0-5.2,2.1-9.1,6.2-12c4.1-2.8,10.2-4.2,18.2-4.2h7.6v-5.4
					c0-2.6-0.8-4.7-2.3-6.2s-3.8-2.2-6.8-2.2c-1.7,0-3.2,0.2-4.5,0.6s-2.4,0.9-3.2,1.4l-1,5.9h-11.2l0.1-12.2
					c2.7-1.8,5.8-3.4,9.3-4.6c3.5-1.3,7.3-1.9,11.5-1.9c6.8,0,12.4,1.7,16.6,5c4.3,3.3,6.4,8.1,6.4,14.3V152c0,0.8,0,1.6,0,2.4
					c0,0.7,0.1,1.5,0.2,2.1l4.5,0.6v8.9H-882z M-894.8,156.1c2.2,0,4.3-0.5,6.1-1.5s3.3-2.2,4.3-3.6v-8.4h-7.6
					c-3.2,0-5.5,0.7-7.2,2.2s-2.4,3.3-2.4,5.3c0,1.9,0.6,3.3,1.8,4.4C-898.6,155.6-897,156.1-894.8,156.1z"/>
				<path class="st0" d="M-856.9,125c0-3.4,1.1-6.2,3.3-8.4c2.2-2.2,5.1-3.3,8.8-3.3s6.7,1.1,8.9,3.2c2.2,2.2,3.3,4.9,3.3,8.4v4.6
					c0,3.4-1.1,6.2-3.3,8.3c-2.2,2.1-5.1,3.2-8.8,3.2s-6.6-1.1-8.8-3.2c-2.2-2.1-3.3-4.9-3.3-8.3V125H-856.9z"/>
				<path class="st1" d="M-800.6,119.9l-5.2,1l7.3,24.6l1,5.2h0.3l1.1-5.2l7.2-24.6l-5.3-1v-9h25v9l-4.8,0.8l-16.3,45.3h-14.2
					l-16.3-45.4l-4.8-0.8v-9h25L-800.6,119.9L-800.6,119.9z"/>
				<path class="st1" d="M-765.3,138c0-8.2,2.3-14.9,6.9-20.2c4.6-5.2,11-7.9,19.1-7.9c8.1,0,14.5,2.6,19.1,7.8
					c4.6,5.2,6.9,12,6.9,20.2v1.1c0,8.3-2.3,15-6.9,20.2c-4.6,5.2-10.9,7.8-19,7.8c-8.2,0-14.6-2.6-19.2-7.8
					c-4.6-5.2-6.9-12-6.9-20.2V138z M-750.4,139c0,5,0.9,9.1,2.6,12.1c1.8,3,4.6,4.6,8.6,4.6c3.8,0,6.6-1.5,8.4-4.6
					c1.8-3.1,2.7-7.1,2.7-12.1v-1c0-4.9-0.9-8.9-2.7-12c-1.8-3.1-4.6-4.6-8.5-4.6c-3.9,0-6.7,1.5-8.5,4.6c-1.8,3.1-2.6,7.1-2.6,12
					V139z"/>
				<path class="st1" d="M-705.7,157.1l7.1-1.5v-34.2l-7.9-1.5v-9h21.7l0.7,8c1.3-2.9,3-5.1,5-6.7s4.4-2.4,7.1-2.4
					c0.8,0,1.6,0.1,2.5,0.2c0.9,0.1,1.6,0.3,2.2,0.4l-1.7,13.7l-6.1-0.2c-2.2,0-4,0.4-5.4,1.3c-1.4,0.8-2.5,2.1-3.3,3.6v26.8
					l7.1,1.5v8.9h-29.1L-705.7,157.1L-705.7,157.1z"/>
			</g>
		</g>
	</g>
	<g>
		
			<image style="overflow:visible;opacity:0.75;enable-background:new    ;" width="228" height="57" xlink:href="DC43F8D3.png"  transform="matrix(1 0 0 1 -939.97 187)">
		</image>
		<g>
			<g>
				<path class="st0" d="M-939.4,235.9l16.7-43.5h4.1l-16.8,43.5H-939.4z"/>
				<path class="st1" d="M-907.7,192.4c-1.4,5-4,11.5-5.6,14.2l-3.4,0.4c1.3-3.5,2.9-9.8,3.5-14.1L-907.7,192.4z"/>
				<path class="st1" d="M-882,194.1c-1.1-0.1-2.2-0.2-3.4-0.2c-2.2,0-3.9,0.5-5,1.6c-1.1,1.1-1.7,2.7-1.7,4.8v1.4h7v6h-7v19.7
					l4.1,0.9v5.1h-17.3v-5.1l4.6-0.9v-19.7h-4v-6h4v-1.4c0-4.2,1.3-7.5,3.8-9.8c2.6-2.3,6.2-3.4,10.8-3.4c1.7,0,3.3,0.2,5,0.5
					s3.5,0.7,5.7,1.3h5v38.6l4.1,0.9v5.1h-16.8v-5.1l4.1-0.9v-32.8C-879.8,194.4-880.9,194.3-882,194.1z"/>
				<path class="st1" d="M-835.4,228c-0.1-0.4-0.1-0.8-0.1-1.2s0-0.9,0-1.4v-13.1c0-3.6-1.2-6.3-3.7-8.2s-5.6-2.9-9.6-2.9
					c-2.4,0-4.6,0.4-6.6,1.1c-2,0.7-3.8,1.6-5.4,2.7v7h6.4l0.6-3.4c0.5-0.3,1.1-0.6,1.8-0.8c0.8-0.2,1.6-0.3,2.6-0.3
					c1.7,0,3,0.4,3.9,1.3c0.9,0.8,1.3,2,1.3,3.5v3.1h-4.4c-4.6,0-8.1,0.8-10.5,2.4c-2.4,1.6-3.6,3.9-3.6,6.9c0,2.9,0.9,5.2,2.7,6.9
					s4.3,2.5,7.4,2.5c1.9,0,3.5-0.4,5-1.1c1.5-0.7,2.7-1.7,3.7-2.8c0.1,0.6,0.2,1.1,0.4,1.7c0.2,0.6,0.4,1.1,0.6,1.6h9.9v-5.1
					L-835.4,228z M-844.1,224.8c-0.6,0.8-1.4,1.5-2.5,2.1c-1.1,0.6-2.2,0.8-3.5,0.8c-1.2,0-2.2-0.3-2.9-0.9c-0.7-0.6-1-1.4-1-2.5
					c0-1.2,0.5-2.2,1.4-3.1c0.9-0.8,2.3-1.3,4.1-1.3h4.4V224.8z"/>
				<rect x="-858.9" y="190.8" class="st0" width="21.4" height="4.8"/>
				<path class="st1" d="M-816.9,206.9l-3,0.6l4.2,14.2l0.6,3h0.2l0.6-3l4.1-14.2l-3-0.6v-5.2h14.4v5.2l-2.8,0.4l-9.3,26.1h-8.2
					l-9.4-26.1l-2.8-0.4v-5.2h14.4L-816.9,206.9L-816.9,206.9z"/>
				<path class="st1" d="M-782.5,201.1c4.6,0,8.2,1.5,11,4.4c2.7,2.9,4.1,6.7,4.1,11.2v1.2c0,4.7-1.3,8.6-3.9,11.6
					c-2.6,3-6,4.5-10.4,4.5c-4.3,0-7.7-1.3-10-3.9c-2.4-2.6-3.5-6-3.5-10.4V215h18.9l0.1-0.2c-0.2-2.1-0.9-3.8-2.1-5.1
					c-1.2-1.4-2.9-2-5.1-2c-1.9,0-3.5,0.2-4.7,0.6c-1.3,0.4-2.6,1-4,1.8l-2.3-5.3c1.3-1,3-1.9,5.1-2.6
					C-787.4,201.5-785.1,201.1-782.5,201.1z M-781.7,227.5c1.6,0,2.8-0.6,3.7-1.8s1.5-2.8,1.7-4.8l-0.1-0.1h-10.5v0.8
					c0,1.8,0.4,3.3,1.3,4.4C-784.8,226.9-783.5,227.5-781.7,227.5z"/>
				<path class="st1" d="M-762.7,228.3l4.1-0.9v-19.7l-4.5-0.9v-5.2h12.5l0.4,4.6c0.7-1.6,1.7-2.9,2.9-3.8c1.2-0.9,2.5-1.4,4.1-1.4
					c0.4,0,0.9,0,1.4,0.1s0.9,0.2,1.2,0.2l-0.9,7.8l-3.5-0.1c-1.3,0-2.3,0.2-3.1,0.7c-0.8,0.5-1.4,1.2-1.9,2.1v15.4l4.1,0.9v5.1
					h-16.8V228.3L-762.7,228.3z"/>
				<path class="st0" d="M-734.3,237.1h-6.3l15.6-46.3h6.3L-734.3,237.1z"/>
			</g>
		</g>
	</g>
</g>
<text transform="matrix(1 0 0 1 -644.8763 -95.3908)" style="font-family:'MyriadPro-Regular'; font-size:80px;">Freshness</text>
<text transform="matrix(1 0 0 1 -245.8963 -95.3908)" style="font-family:'MyriadPro-Regular'; font-size:80px;">Quality</text>
<text transform="matrix(1 0 0 1 109.4002 -95.3908)" style="font-family:'MyriadPro-Regular'; font-size:80px;">Innovation</text>
<text transform="matrix(1 0 0 1 538.3788 -95.3908)" style="font-family:'MyriadPro-Regular'; font-size:80px;">Value</text>
<text transform="matrix(1 0 0 1 1455.6304 233.2)"><tspan x="0" y="0" class="st0" style="font-family:'RobotoSlab-Bold'; font-size:60px;">/</tspan><tspan x="21.9" y="0" class="st1" style="font-family:'RobotoSlab-Bold'; font-size:60px;">’kwälədē</tspan><tspan x="272.8" y="0" class="st0" style="font-family:'RobotoSlab-Bold'; font-size:60px;">/</tspan></text>
<text transform="matrix(1 0 0 1 1992.2695 233.2)"><tspan x="0" y="0" class="st0" style="font-family:'RobotoSlab-Bold'; font-size:60px;">/</tspan><tspan x="21.9" y="0" class="st1" style="font-family:'RobotoSlab-Bold'; font-size:60px;">,inə</tspan><tspan x="126.9" y="0" class="st1" style="font-family:'MyriadPro-Regular'; font-size:60px;">’</tspan><tspan x="139.3" y="0" class="st1" style="font-family:'RobotoSlab-Bold'; font-size:60px;">vāSH(ə)n</tspan><tspan x="401.5" y="0" class="st0" style="font-family:'RobotoSlab-Bold'; font-size:60px;">/</tspan></text>
<text transform="matrix(1 0 0 1 2898.4985 233.2)"><tspan x="0" y="0" class="st0" style="font-family:'RobotoSlab-Bold'; font-size:60px;">/</tspan><tspan x="21.9" y="0" class="st1" style="font-family:'RobotoSlab-Bold'; font-size:60px;">’valyoo</tspan><tspan x="224.8" y="0" class="st0" style="font-family:'RobotoSlab-Bold'; font-size:60px;">/</tspan></text>
<text transform="matrix(1 0 0 1 1539.5537 295.9998)" class="st1" style="font-family:'Lato-Italic'; font-size:60px;">noun</text>
<text transform="matrix(1 0 0 1 2141.0415 295.9998)" class="st1" style="font-family:'Lato-Italic'; font-size:60px;">noun</text>
<text transform="matrix(1 0 0 1 2958.6777 295.9998)" class="st1" style="font-family:'Lato-Italic'; font-size:60px;">noun</text>
<text transform="matrix(1 0 0 1 1900.8401 169.2412)"><tspan x="0" y="0" class="st1" style="font-family:'RobotoSlab-Bold'; font-size:98.4737px;">inn</tspan><tspan x="156.8" y="0" class="st0" style="font-family:'RobotoSlab-Bold'; font-size:98.4737px;">•</tspan><tspan x="190.6" y="0" class="st1" style="font-family:'RobotoSlab-Bold'; font-size:98.4737px;">o</tspan><tspan x="245.8" y="0" class="st0" style="font-family:'RobotoSlab-Bold'; font-size:98.4737px;">•</tspan><tspan x="279.6" y="0" class="st1" style="font-family:'RobotoSlab-Bold'; font-size:98.4737px;">vat</tspan><tspan x="426.5" y="0" class="st0" style="font-family:'RobotoSlab-Bold'; font-size:98.4737px;">•</tspan><tspan x="460.3" y="0" class="st1" style="font-family:'RobotoSlab-Bold'; font-size:98.4737px;">ion</tspan></text>
<text transform="matrix(1 0 0 1 2876.7659 169.2412)"><tspan x="0" y="0" class="st1" style="font-family:'RobotoSlab-Bold'; font-size:98.4737px;">val</tspan><tspan x="141.6" y="0" class="st0" style="font-family:'RobotoSlab-Bold'; font-size:98.4737px;">•</tspan><tspan x="175.4" y="0" class="st1" style="font-family:'RobotoSlab-Bold'; font-size:98.4737px;">ue</tspan></text>
<text transform="matrix(1 0 0 1 1403.5481 169.2412)"><tspan x="0" y="0" class="st1" style="font-family:'RobotoSlab-Bold'; font-size:98.4737px;">qual</tspan><tspan x="202.4" y="0" class="st0" style="font-family:'RobotoSlab-Bold'; font-size:98.4737px;">•</tspan><tspan x="236.2" y="0" class="st1" style="font-family:'RobotoSlab-Bold'; font-size:98.4737px;">i</tspan><tspan x="268" y="0" class="st0" style="font-family:'RobotoSlab-Bold'; font-size:98.4737px;">•</tspan><tspan x="301.8" y="0" class="st1" style="font-family:'RobotoSlab-Bold'; font-size:98.4737px;">ty</tspan></text>
<rect x="940.5" y="-329.4" class="st0" width="120" height="120"/>
<g>
	<g>
		
			<image style="overflow:visible;opacity:0.75;" width="452" height="77" xlink:href="DC43F8D4.png"  transform="matrix(1 0 0 1 -202 89)">
		</image>
		<g>
			<g>
				<path class="st1" d="M-200.6,150.8l6.2-1.3V120h-7.1v-9h7.1v-5.3c0-5.3,1.5-9.4,4.6-12.3c3.1-2.9,7.4-4.3,13-4.3
					c1.1,0,2.2,0.1,3.3,0.2c1.1,0.2,2.4,0.4,3.7,0.7l-1.1,9.5c-0.7-0.1-1.4-0.2-2-0.3c-0.7-0.1-1.4-0.1-2.3-0.1
					c-2.1,0-3.7,0.6-4.7,1.7s-1.6,2.8-1.6,4.9v5.3h9.4v9h-9.4v29.5l6.2,1.3v7.7h-25.2V150.8z"/>
				<path class="st1" d="M-166.9,150.8l6.2-1.3V120l-6.8-1.3v-7.7h18.8l0.6,6.9c1.1-2.5,2.5-4.4,4.3-5.8c1.8-1.4,3.8-2.1,6.1-2.1
					c0.7,0,1.4,0.1,2.1,0.2c0.7,0.1,1.4,0.2,1.9,0.4l-1.4,11.7l-5.3-0.1c-1.9,0-3.4,0.4-4.7,1.1c-1.2,0.7-2.2,1.8-2.8,3.1v23.1
					l6.2,1.3v7.7h-25.1V150.8z"/>
				<path class="st1" d="M-108,159.4c-6.9,0-12.3-2.2-16.4-6.6s-6.2-10-6.2-16.7v-1.8c0-7.1,1.9-12.9,5.8-17.4
					c3.9-4.6,9.1-6.8,15.6-6.8c6.4,0,11.4,1.9,14.9,5.8s5.3,9.1,5.3,15.7v7h-28.4l-0.1,0.3c0.2,3.1,1.3,5.7,3.1,7.7
					c1.9,2,4.4,3,7.6,3c2.8,0,5.2-0.3,7.1-0.9s3.9-1.5,6.2-2.7l3.5,7.9c-2,1.6-4.5,2.9-7.6,3.9C-100.7,158.9-104.2,159.4-108,159.4z
					 M-109.2,120c-2.4,0-4.2,0.9-5.6,2.7c-1.4,1.8-2.2,4.2-2.5,7.2l0.1,0.2h15.7v-1.1c0-2.7-0.6-4.9-1.9-6.5
					C-104.7,120.8-106.6,120-109.2,120z"/>
				<path class="st1" d="M-44,127.3h-8.6l-1.4-5.9c-0.9-0.7-2-1.3-3.3-1.8c-1.3-0.5-2.8-0.7-4.4-0.7c-2.3,0-4,0.5-5.4,1.5
					s-2,2.3-2,3.8c0,1.4,0.6,2.6,1.9,3.6c1.3,1,3.8,1.8,7.6,2.5c5.9,1.2,10.3,2.9,13.1,5.2c2.8,2.3,4.3,5.4,4.3,9.4
					c0,4.3-1.8,7.8-5.5,10.5c-3.7,2.7-8.5,4.1-14.5,4.1c-3.7,0-7-0.5-10.1-1.6s-5.8-2.6-8.2-4.6l-0.1-10.7h9l1.8,6.2
					c0.8,0.6,1.8,1.1,3.1,1.4s2.7,0.5,4.1,0.5c2.6,0,4.6-0.5,6-1.4c1.4-0.9,2-2.2,2-3.8c0-1.4-0.7-2.6-2.1-3.6
					c-1.4-1-3.9-1.9-7.6-2.7c-5.6-1.1-9.8-2.8-12.7-5.1c-2.9-2.2-4.3-5.3-4.3-9.2c0-4,1.6-7.4,4.9-10.3c3.3-2.9,8-4.3,14-4.3
					c3.7,0,7.2,0.5,10.5,1.5c3.3,1,5.9,2.3,7.8,3.8L-44,127.3z"/>
				<path class="st1" d="M-37.2,150.8l6.2-1.3V99l-6.9-1.3v-7.7h19.6V117c1.5-2.2,3.3-3.9,5.5-5.1c2.2-1.2,4.6-1.8,7.2-1.8
					c5,0,8.9,1.6,11.7,4.9s4.2,8.4,4.2,15.3v19.2l6.2,1.3v7.7H-8v-7.7l5.5-1.3v-19.3c0-3.7-0.7-6.3-2-7.8s-3.2-2.3-5.8-2.3
					c-1.8,0-3.3,0.3-4.7,1c-1.3,0.6-2.5,1.6-3.4,2.7v25.8l5.5,1.3v7.7h-24.5V150.8z"/>
				<path class="st0" d="M23.2,123.1c0-2.9,0.9-5.3,2.8-7.2c1.9-1.9,4.4-2.8,7.6-2.8c3.2,0,5.8,0.9,7.7,2.8c1.9,1.9,2.8,4.3,2.8,7.2
					v4c0,3-0.9,5.3-2.8,7.2c-1.9,1.8-4.4,2.7-7.6,2.7s-5.7-0.9-7.6-2.7c-1.9-1.8-2.8-4.2-2.8-7.2V123.1z"/>
				<path class="st1" d="M50.9,150.8l6.2-1.3V120l-6.8-1.3v-7.7H69l0.6,6.8c1.6-2.4,3.5-4.3,5.8-5.7c2.3-1.3,4.9-2,7.8-2
					c4.8,0,8.6,1.5,11.3,4.5c2.7,3,4,7.7,4,14.2v20.7l6.2,1.3v7.7H80.1v-7.7l5.5-1.3v-20.7c0-3.2-0.6-5.5-1.9-6.8
					c-1.3-1.3-3.2-2-5.8-2c-1.7,0-3.2,0.3-4.6,1c-1.3,0.7-2.5,1.7-3.4,2.9v25.5l5.2,1.3v7.7H50.9V150.8z"/>
				<path class="st1" d="M131,159.4c-6.9,0-12.3-2.2-16.4-6.6s-6.2-10-6.2-16.7v-1.8c0-7.1,1.9-12.9,5.8-17.4
					c3.9-4.6,9.1-6.8,15.6-6.8c6.4,0,11.4,1.9,14.9,5.8s5.3,9.1,5.3,15.7v7h-28.4l-0.1,0.3c0.2,3.1,1.3,5.7,3.1,7.7
					c1.9,2,4.4,3,7.6,3c2.8,0,5.2-0.3,7.1-0.9s3.9-1.5,6.2-2.7l3.5,7.9c-2,1.6-4.5,2.9-7.6,3.9C138.4,158.9,134.9,159.4,131,159.4z
					 M129.9,120c-2.4,0-4.2,0.9-5.6,2.7c-1.4,1.8-2.2,4.2-2.5,7.2l0.1,0.2h15.7v-1.1c0-2.7-0.6-4.9-1.9-6.5
					C134.4,120.8,132.5,120,129.9,120z"/>
				<path class="st1" d="M195,127.3h-8.6l-1.4-5.9c-0.9-0.7-2-1.3-3.3-1.8c-1.3-0.5-2.8-0.7-4.4-0.7c-2.3,0-4,0.5-5.4,1.5
					s-2,2.3-2,3.8c0,1.4,0.6,2.6,1.9,3.6c1.3,1,3.8,1.8,7.6,2.5c5.9,1.2,10.3,2.9,13.1,5.2c2.8,2.3,4.3,5.4,4.3,9.4
					c0,4.3-1.8,7.8-5.5,10.5c-3.7,2.7-8.5,4.1-14.5,4.1c-3.7,0-7-0.5-10.1-1.6s-5.8-2.6-8.2-4.6l-0.1-10.7h9l1.8,6.2
					c0.8,0.6,1.8,1.1,3.1,1.4s2.7,0.5,4.1,0.5c2.6,0,4.6-0.5,6-1.4c1.4-0.9,2-2.2,2-3.8c0-1.4-0.7-2.6-2.1-3.6
					c-1.4-1-3.9-1.9-7.6-2.7c-5.6-1.1-9.8-2.8-12.7-5.1c-2.9-2.2-4.3-5.3-4.3-9.2c0-4,1.6-7.4,4.9-10.3c3.3-2.9,8-4.3,14-4.3
					c3.7,0,7.2,0.5,10.5,1.5c3.3,1,5.9,2.3,7.8,3.8L195,127.3z"/>
				<path class="st1" d="M241.3,127.3h-8.6l-1.4-5.9c-0.9-0.7-2-1.3-3.3-1.8c-1.3-0.5-2.8-0.7-4.4-0.7c-2.3,0-4,0.5-5.4,1.5
					s-2,2.3-2,3.8c0,1.4,0.6,2.6,1.9,3.6c1.3,1,3.8,1.8,7.6,2.5c5.9,1.2,10.3,2.9,13.1,5.2c2.8,2.3,4.3,5.4,4.3,9.4
					c0,4.3-1.8,7.8-5.5,10.5c-3.7,2.7-8.5,4.1-14.5,4.1c-3.7,0-7-0.5-10.1-1.6s-5.8-2.6-8.2-4.6l-0.1-10.7h9l1.8,6.2
					c0.8,0.6,1.8,1.1,3.1,1.4s2.7,0.5,4.1,0.5c2.6,0,4.6-0.5,6-1.4c1.4-0.9,2-2.2,2-3.8c0-1.4-0.7-2.6-2.1-3.6
					c-1.4-1-3.9-1.9-7.6-2.7c-5.6-1.1-9.8-2.8-12.7-5.1c-2.9-2.2-4.3-5.3-4.3-9.2c0-4,1.6-7.4,4.9-10.3c3.3-2.9,8-4.3,14-4.3
					c3.7,0,7.2,0.5,10.5,1.5c3.3,1,5.9,2.3,7.8,3.8L241.3,127.3z"/>
			</g>
		</g>
	</g>
	<g>
		
			<image style="overflow:visible;opacity:0.75;" width="365" height="57" xlink:href="DC43F8D1.png"  transform="matrix(1 0 0 1 -159 183)">
		</image>
		<g>
			<g>
				<path class="st0" d="M-151.9,233.4h-6.3l15.6-46.3h6.3L-151.9,233.4z"/>
				<path class="st1" d="M-124.3,189.6c0,2-0.5,4-1.6,6.2c-1,2.2-2.3,3.9-3.8,5.3l-4.2-2.3c0.8-1.3,1.3-2.7,1.8-4.2
					c0.4-1.5,0.6-3.1,0.6-4.9V184h7.2V189.6z"/>
				<path class="st1" d="M-119.5,224.6l4.1-0.9V204h-4.7v-6h4.7v-3.5c0-3.6,1-6.3,3.1-8.2c2.1-1.9,4.9-2.9,8.6-2.9
					c0.7,0,1.5,0.1,2.2,0.2c0.8,0.1,1.6,0.3,2.5,0.5l-0.7,6.4c-0.5-0.1-0.9-0.1-1.4-0.2s-1-0.1-1.5-0.1c-1.4,0-2.4,0.4-3.1,1.1
					s-1.1,1.9-1.1,3.3v3.5h6.3v6h-6.3v19.7l4.1,0.9v5.1h-16.8V224.6z"/>
				<path class="st1" d="M-97,224.6l4.1-0.9V204l-4.5-0.9V198h12.5l0.4,4.6c0.7-1.6,1.7-2.9,2.9-3.8c1.2-0.9,2.5-1.4,4.1-1.4
					c0.4,0,0.9,0,1.4,0.1c0.5,0.1,0.9,0.2,1.2,0.2l-0.9,7.8l-3.5-0.1c-1.3,0-2.3,0.2-3.1,0.7c-0.8,0.5-1.4,1.2-1.9,2.1v15.4l4.1,0.9
					v5.1H-97V224.6z"/>
				<path class="st1" d="M-57.8,230.3c-4.6,0-8.2-1.5-11-4.4s-4.1-6.7-4.1-11.2v-1.2c0-4.7,1.3-8.6,3.9-11.6s6.1-4.6,10.4-4.5
					c4.3,0,7.6,1.3,10,3.9s3.5,6.1,3.5,10.5v4.7H-64l-0.1,0.2c0.2,2.1,0.9,3.8,2.1,5.2s2.9,2,5.1,2c1.9,0,3.5-0.2,4.7-0.6
					s2.6-1,4.1-1.8l2.3,5.3c-1.3,1-3,1.9-5.1,2.6S-55.2,230.3-57.8,230.3z M-58.5,204c-1.6,0-2.8,0.6-3.8,1.8
					c-0.9,1.2-1.5,2.8-1.7,4.8l0.1,0.1h10.5V210c0-1.8-0.4-3.3-1.3-4.4S-56.8,204-58.5,204z"/>
				<path class="st1" d="M-15.1,208.9h-5.7l-0.9-4c-0.6-0.5-1.3-0.9-2.2-1.2c-0.9-0.3-1.9-0.5-2.9-0.5c-1.5,0-2.7,0.3-3.6,1
					s-1.3,1.5-1.3,2.5c0,1,0.4,1.8,1.3,2.4c0.8,0.6,2.5,1.2,5,1.7c3.9,0.8,6.8,1.9,8.7,3.4c1.9,1.5,2.8,3.6,2.8,6.3
					c0,2.9-1.2,5.2-3.7,7c-2.5,1.8-5.7,2.7-9.7,2.7c-2.4,0-4.7-0.4-6.7-1.1s-3.9-1.7-5.4-3.1l-0.1-7.1h6l1.2,4.1
					c0.5,0.4,1.2,0.7,2.1,1s1.8,0.3,2.8,0.3c1.7,0,3.1-0.3,4-0.9c0.9-0.6,1.4-1.5,1.4-2.5c0-0.9-0.5-1.7-1.4-2.4
					c-0.9-0.7-2.6-1.3-5.1-1.8c-3.7-0.8-6.5-1.9-8.5-3.4s-2.9-3.5-2.9-6.1c0-2.7,1.1-4.9,3.3-6.9c2.2-1.9,5.3-2.9,9.3-2.9
					c2.5,0,4.8,0.3,7,1c2.2,0.7,3.9,1.5,5.2,2.5L-15.1,208.9z"/>
				<path class="st1" d="M-10.6,224.6l4.1-0.9V190l-4.6-0.9V184H2.1v18c1-1.5,2.2-2.6,3.7-3.4c1.4-0.8,3-1.2,4.8-1.2
					c3.3,0,5.9,1.1,7.8,3.3s2.8,5.6,2.8,10.2v12.8l4.1,0.9v5.1H8.9v-5.1l3.7-0.9v-12.9c0-2.5-0.4-4.2-1.3-5.2s-2.2-1.5-3.9-1.5
					c-1.2,0-2.2,0.2-3.1,0.6c-0.9,0.4-1.6,1-2.2,1.8v17.2l3.7,0.9v5.1h-16.3V224.6z"/>
				<path class="st0" d="M29.7,206.1c0-2,0.6-3.6,1.9-4.8c1.3-1.2,2.9-1.9,5.1-1.9c2.1,0,3.9,0.6,5.1,1.9c1.3,1.2,1.9,2.8,1.9,4.8
					v2.6c0,2-0.6,3.6-1.9,4.8c-1.3,1.2-3,1.8-5.1,1.8s-3.8-0.6-5.1-1.8c-1.3-1.2-1.9-2.8-1.9-4.8V206.1z"/>
				<path class="st1" d="M48.2,224.6l4.1-0.9V204l-4.5-0.9V198h12.5l0.4,4.5c1.1-1.6,2.4-2.9,3.9-3.8c1.5-0.9,3.3-1.3,5.2-1.3
					c3.2,0,5.7,1,7.5,3c1.8,2,2.7,5.2,2.7,9.5v13.8l4.1,0.9v5.1H67.6v-5.1l3.7-0.9v-13.8c0-2.1-0.4-3.6-1.3-4.5
					c-0.9-0.9-2.2-1.3-3.9-1.3c-1.1,0-2.1,0.2-3,0.7c-0.9,0.5-1.7,1.1-2.3,1.9v17l3.5,0.9v5.1H48.2V224.6z"/>
				<path class="st1" d="M101.6,230.3c-4.6,0-8.2-1.5-11-4.4s-4.1-6.7-4.1-11.2v-1.2c0-4.7,1.3-8.6,3.9-11.6s6.1-4.6,10.4-4.5
					c4.3,0,7.6,1.3,10,3.9s3.5,6.1,3.5,10.5v4.7H95.4l-0.1,0.2c0.2,2.1,0.9,3.8,2.1,5.2s2.9,2,5.1,2c1.9,0,3.5-0.2,4.7-0.6
					s2.6-1,4.1-1.8l2.3,5.3c-1.3,1-3,1.9-5.1,2.6S104.2,230.3,101.6,230.3z M100.8,204c-1.6,0-2.8,0.6-3.8,1.8
					c-0.9,1.2-1.5,2.8-1.7,4.8l0.1,0.1H106V210c0-1.8-0.4-3.3-1.3-4.4S102.6,204,100.8,204z"/>
				<path class="st1" d="M144.3,208.9h-5.7l-0.9-4c-0.6-0.5-1.3-0.9-2.2-1.2c-0.9-0.3-1.9-0.5-2.9-0.5c-1.5,0-2.7,0.3-3.6,1
					s-1.3,1.5-1.3,2.5c0,1,0.4,1.8,1.3,2.4c0.8,0.6,2.5,1.2,5,1.7c3.9,0.8,6.8,1.9,8.7,3.4c1.9,1.5,2.8,3.6,2.8,6.3
					c0,2.9-1.2,5.2-3.7,7c-2.5,1.8-5.7,2.7-9.7,2.7c-2.4,0-4.7-0.4-6.7-1.1s-3.9-1.7-5.4-3.1l-0.1-7.1h6l1.2,4.1
					c0.5,0.4,1.2,0.7,2.1,1s1.8,0.3,2.8,0.3c1.7,0,3.1-0.3,4-0.9c0.9-0.6,1.4-1.5,1.4-2.5c0-0.9-0.5-1.7-1.4-2.4
					c-0.9-0.7-2.6-1.3-5.1-1.8c-3.7-0.8-6.5-1.9-8.5-3.4s-2.9-3.5-2.9-6.1c0-2.7,1.1-4.9,3.3-6.9c2.2-1.9,5.3-2.9,9.3-2.9
					c2.5,0,4.8,0.3,7,1c2.2,0.7,3.9,1.5,5.2,2.5L144.3,208.9z"/>
				<path class="st1" d="M175.1,208.9h-5.7l-0.9-4c-0.6-0.5-1.3-0.9-2.2-1.2c-0.9-0.3-1.9-0.5-2.9-0.5c-1.5,0-2.7,0.3-3.6,1
					s-1.3,1.5-1.3,2.5c0,1,0.4,1.8,1.3,2.4c0.8,0.6,2.5,1.2,5,1.7c3.9,0.8,6.8,1.9,8.7,3.4c1.9,1.5,2.8,3.6,2.8,6.3
					c0,2.9-1.2,5.2-3.7,7c-2.5,1.8-5.7,2.7-9.7,2.7c-2.4,0-4.7-0.4-6.7-1.1s-3.9-1.7-5.4-3.1l-0.1-7.1h6l1.2,4.1
					c0.5,0.4,1.2,0.7,2.1,1s1.8,0.3,2.8,0.3c1.7,0,3.1-0.3,4-0.9c0.9-0.6,1.4-1.5,1.4-2.5c0-0.9-0.5-1.7-1.4-2.4
					c-0.9-0.7-2.6-1.3-5.1-1.8c-3.7-0.8-6.5-1.9-8.5-3.4s-2.9-3.5-2.9-6.1c0-2.7,1.1-4.9,3.3-6.9c2.2-1.9,5.3-2.9,9.3-2.9
					c2.5,0,4.8,0.3,7,1c2.2,0.7,3.9,1.5,5.2,2.5L175.1,208.9z"/>
				<path class="st0" d="M183.9,233.4h-6.3l15.6-46.3h6.3L183.9,233.4z"/>
			</g>
		</g>
	</g>
	<g>
		
			<image style="overflow:visible;opacity:0.75;" width="127" height="38" xlink:href="DC43F8D0.png"  transform="matrix(1 0 0 1 -40 261)">
		</image>
		<g>
			<g>
				<path class="st1" d="M-39.3,292.5l3.6-30.4h2.7c1.2,0,1.8,0.6,1.8,1.8l-0.5,5.9c1.6-2.7,3.4-4.7,5.5-6.1c2-1.4,4.1-2,6.3-2
					c2.3,0,4,0.8,5.3,2.3c1.3,1.5,1.9,3.7,1.9,6.7c0,0.4,0,0.8,0,1.2s-0.1,0.9-0.1,1.3l-2.3,19.4h-5.3l2.3-19.4
					c0-0.4,0.1-0.8,0.1-1.2s0-0.7,0-1.1c0-1.6-0.3-2.9-0.9-3.6c-0.6-0.8-1.6-1.2-2.9-1.2c-1,0-1.9,0.3-2.9,0.8
					c-1,0.5-1.9,1.3-2.9,2.2c-0.9,1-1.8,2.1-2.6,3.5c-0.8,1.3-1.5,2.9-2,4.5l-1.7,15.5H-39.3z"/>
				<path class="st1" d="M3.1,292.9c-1.7,0-3.2-0.3-4.6-0.9c-1.4-0.6-2.6-1.4-3.6-2.5s-1.8-2.4-2.3-4c-0.6-1.6-0.8-3.3-0.8-5.3
					c0-2.6,0.4-5,1.2-7.2c0.8-2.3,1.9-4.2,3.3-5.9c1.4-1.7,3-3,4.9-4c1.9-1,3.9-1.5,6.1-1.5c1.7,0,3.2,0.3,4.6,0.9
					c1.4,0.6,2.6,1.4,3.6,2.5c1,1.1,1.8,2.4,2.3,4c0.6,1.6,0.8,3.3,0.8,5.3c0,2.5-0.4,4.9-1.2,7.2s-1.9,4.2-3.3,5.9
					c-1.4,1.7-3,3-4.9,4C7.4,292.4,5.3,292.9,3.1,292.9z M3.6,288.8c1.5,0,2.8-0.4,4-1.2c1.2-0.8,2.2-1.9,3.1-3.2
					c0.8-1.3,1.5-2.9,2-4.6c0.5-1.7,0.7-3.6,0.7-5.5c0-2.8-0.5-4.9-1.6-6.3c-1.1-1.4-2.7-2.1-4.8-2.1c-1.5,0-2.8,0.4-4,1.2
					c-1.2,0.8-2.2,1.9-3,3.2c-0.8,1.3-1.5,2.9-2,4.6c-0.5,1.7-0.7,3.6-0.7,5.5c0,2.8,0.5,4.9,1.6,6.3C-0.1,288,1.5,288.8,3.6,288.8z
					"/>
				<path class="st1" d="M30.9,262.1l-2.3,19.3c0,0.4-0.1,0.8-0.1,1.1c0,0.4,0,0.7,0,1.1c0,1.6,0.3,2.9,0.9,3.7
					c0.6,0.8,1.6,1.2,2.9,1.2c0.9,0,1.9-0.3,2.8-0.8c1-0.5,1.9-1.2,2.8-2.1c0.9-0.9,1.8-2,2.5-3.3c0.8-1.3,1.5-2.7,2-4.3l1.9-15.8
					h5.3l-3.7,30.4h-2.6c-0.6,0-1.1-0.1-1.4-0.4c-0.3-0.3-0.5-0.7-0.5-1.3c0,0,0-0.2,0-0.5c0-0.3,0-0.7,0.1-1.1
					c0-0.4,0.1-0.8,0.1-1.1c0-0.3,0-0.5,0-0.5l0.2-2.4c-1.6,2.6-3.4,4.5-5.4,5.9c-2,1.3-4.1,2-6.2,2c-2.3,0-4-0.8-5.3-2.3
					c-1.3-1.5-1.9-3.8-1.9-6.6c0-0.4,0-0.8,0-1.2c0-0.4,0.1-0.9,0.1-1.3l2.3-19.3H30.9z"/>
				<path class="st1" d="M54,292.5l3.6-30.4h2.7c1.2,0,1.8,0.6,1.8,1.8l-0.5,5.9c1.6-2.7,3.4-4.7,5.5-6.1c2-1.4,4.1-2,6.3-2
					c2.3,0,4,0.8,5.3,2.3c1.3,1.5,1.9,3.7,1.9,6.7c0,0.4,0,0.8,0,1.2s-0.1,0.9-0.1,1.3l-2.3,19.4h-5.3l2.3-19.4
					c0-0.4,0.1-0.8,0.1-1.2s0-0.7,0-1.1c0-1.6-0.3-2.9-0.9-3.6c-0.6-0.8-1.6-1.2-2.9-1.2c-1,0-1.9,0.3-2.9,0.8
					c-1,0.5-1.9,1.3-2.9,2.2c-0.9,1-1.8,2.1-2.6,3.5c-0.8,1.3-1.5,2.9-2,4.5l-1.7,15.5H54z"/>
			</g>
		</g>
	</g>
	<g>
		
			<image style="overflow:visible;opacity:0.75;" width="457" height="144" xlink:href="DC43F8CF.png"  transform="matrix(1 0 0 1 -211 330)">
		</image>
		<g>
			<g>
				<path class="st0" d="M-210.7,348.1l3.1-0.4v-12.5h-3.2v-2.1l6.9-1.2v15.9l3.1,0.4v2.2h-9.9V348.1z"/>
				<path class="st0" d="M-194.7,350.3h-3.7v-3.3h3.7V350.3z"/>
				<path class="st1" d="M-180.8,333.2v3.4h2.4v2.6h-2.4v7c0,0.5,0.1,0.9,0.3,1.1s0.5,0.3,0.9,0.3c0.3,0,0.5,0,0.7,0
					c0.2,0,0.4-0.1,0.6-0.1l0.3,2.7c-0.4,0.1-0.8,0.2-1.2,0.3c-0.4,0.1-0.8,0.1-1.3,0.1c-1.3,0-2.3-0.4-3-1.1c-0.7-0.7-1-1.8-1-3.3
					v-7h-2v-2.6h2v-3.4H-180.8z"/>
				<path class="st1" d="M-176.8,348.1l1.8-0.4v-14.6l-2-0.4v-2.2h5.7v7.8c0.4-0.6,1-1.1,1.6-1.5c0.6-0.4,1.3-0.5,2.1-0.5
					c1.4,0,2.6,0.5,3.4,1.4c0.8,1,1.2,2.4,1.2,4.4v5.5l1.8,0.4v2.2h-7.1v-2.2l1.6-0.4v-5.6c0-1.1-0.2-1.8-0.6-2.3
					c-0.4-0.4-0.9-0.7-1.7-0.7c-0.5,0-1,0.1-1.4,0.3c-0.4,0.2-0.7,0.4-1,0.8v7.4l1.6,0.4v2.2h-7.1V348.1z"/>
				<path class="st1" d="M-153.6,350.6c-2,0-3.6-0.6-4.7-1.9s-1.8-2.9-1.8-4.8v-0.5c0-2,0.6-3.7,1.7-5c1.1-1.3,2.6-2,4.5-2
					c1.9,0,3.3,0.6,4.3,1.7s1.5,2.6,1.5,4.5v2h-8.2l0,0.1c0.1,0.9,0.4,1.7,0.9,2.2c0.5,0.6,1.3,0.9,2.2,0.9c0.8,0,1.5-0.1,2-0.2
					c0.5-0.2,1.1-0.4,1.8-0.8l1,2.3c-0.6,0.4-1.3,0.8-2.2,1.1C-151.5,350.4-152.5,350.6-153.6,350.6z M-153.9,339.2
					c-0.7,0-1.2,0.3-1.6,0.8s-0.6,1.2-0.7,2.1l0,0.1h4.5v-0.3c0-0.8-0.2-1.4-0.6-1.9C-152.6,339.4-153.2,339.2-153.9,339.2z"/>
				<path class="st1" d="M-139.9,343.6c0-2.2,0.5-3.9,1.4-5.2s2.3-2,4-2c0.7,0,1.4,0.2,2,0.5s1.1,0.8,1.5,1.4l0.3-1.7h3.2V353
					l1.8,0.4v2.2h-7.3v-2.2l1.8-0.4V349c-0.4,0.5-0.9,0.9-1.4,1.1c-0.5,0.3-1.2,0.4-1.9,0.4c-1.7,0-3-0.6-3.9-1.9
					c-0.9-1.2-1.4-2.9-1.4-4.9V343.6z M-136.2,343.8c0,1.2,0.2,2.2,0.6,2.9c0.4,0.7,1.1,1,2,1c0.5,0,1-0.1,1.4-0.3
					c0.4-0.2,0.7-0.5,1-0.9v-6.1c-0.2-0.4-0.6-0.7-0.9-0.9c-0.4-0.2-0.8-0.3-1.4-0.3c-0.9,0-1.6,0.4-2,1.2c-0.4,0.8-0.6,1.9-0.6,3.2
					V343.8z"/>
				<path class="st1" d="M-115.7,348.6c-0.4,0.6-1,1.1-1.6,1.5c-0.6,0.3-1.4,0.5-2.2,0.5c-1.4,0-2.6-0.5-3.4-1.4
					c-0.8-0.9-1.2-2.4-1.2-4.3v-5.7l-1.5-0.4v-2.2h1.5h3.7v8.3c0,1,0.2,1.7,0.5,2.2c0.3,0.4,0.8,0.7,1.5,0.7c0.6,0,1.1-0.1,1.5-0.3
					c0.4-0.2,0.8-0.5,1-0.8v-7.4l-1.6-0.4v-2.2h1.6h3.7v11.1l1.7,0.4v2.2h-4.9L-115.7,348.6z"/>
				<path class="st1" d="M-100.3,350.3c-0.1-0.2-0.2-0.5-0.3-0.7c-0.1-0.2-0.1-0.5-0.2-0.7c-0.4,0.5-1,0.9-1.6,1.2
					c-0.6,0.3-1.4,0.5-2.2,0.5c-1.3,0-2.4-0.4-3.2-1.1c-0.8-0.7-1.2-1.7-1.2-3c0-1.3,0.5-2.3,1.5-3s2.5-1.1,4.5-1.1h1.9v-1.3
					c0-0.7-0.2-1.2-0.6-1.5s-0.9-0.5-1.7-0.5c-0.4,0-0.8,0-1.1,0.1c-0.3,0.1-0.6,0.2-0.8,0.3l-0.2,1.5h-2.8l0-3
					c0.7-0.5,1.5-0.8,2.3-1.2c0.9-0.3,1.8-0.5,2.9-0.5c1.7,0,3.1,0.4,4.1,1.3c1.1,0.8,1.6,2,1.6,3.6v5.7c0,0.2,0,0.4,0,0.6
					c0,0.2,0,0.4,0,0.5l1.1,0.2v2.2H-100.3z M-103.5,347.8c0.6,0,1.1-0.1,1.5-0.4c0.5-0.2,0.8-0.5,1.1-0.9v-2.1h-1.9
					c-0.8,0-1.4,0.2-1.8,0.6c-0.4,0.4-0.6,0.8-0.6,1.3c0,0.5,0.2,0.8,0.5,1.1C-104.5,347.7-104,347.8-103.5,347.8z"/>
				<path class="st1" d="M-95.2,332.7v-2.2h5.7v17.2l1.8,0.4v2.2H-95v-2.2l1.8-0.4v-14.6L-95.2,332.7z"/>
				<path class="st1" d="M-86.6,348.1l1.8-0.4v-8.5l-2-0.4v-2.2h5.7v11.1l1.8,0.4v2.2h-7.3V348.1z M-81.1,333.3h-3.7v-2.8h3.7V333.3
					z"/>
				<path class="st1" d="M-72.6,333.2v3.4h2.4v2.6h-2.4v7c0,0.5,0.1,0.9,0.3,1.1s0.5,0.3,0.9,0.3c0.3,0,0.5,0,0.7,0
					c0.2,0,0.4-0.1,0.6-0.1l0.3,2.7c-0.4,0.1-0.8,0.2-1.2,0.3c-0.4,0.1-0.8,0.1-1.3,0.1c-1.3,0-2.3-0.4-3-1.1c-0.7-0.7-1-1.8-1-3.3
					v-7h-2v-2.6h2v-3.4H-72.6z"/>
				<path class="st1" d="M-54.2,338.8l-1.3,0.2l-5.1,13.4c-0.4,1-0.9,1.8-1.6,2.5c-0.7,0.7-1.7,1-3,1c-0.3,0-0.6,0-0.9-0.1
					c-0.3-0.1-0.6-0.1-1-0.2l0.4-2.7c0.1,0,0.2,0,0.4,0.1s0.2,0,0.3,0c0.6,0,1.1-0.2,1.4-0.5c0.3-0.3,0.6-0.7,0.8-1.1l0.4-1
					l-4.4-11.3l-1.3-0.2v-2.2h6.7v2.2l-1.5,0.3l1.9,5.5l0.2,1l0.1,0l2.2-6.5l-1.5-0.3v-2.2h6.7V338.8z"/>
				<path class="st1" d="M-46.6,343.3c0-2,0.6-3.7,1.7-5c1.1-1.3,2.7-2,4.8-2c2,0,3.6,0.7,4.8,2c1.1,1.3,1.7,3,1.7,5v0.3
					c0,2.1-0.6,3.7-1.7,5c-1.1,1.3-2.7,1.9-4.7,1.9c-2,0-3.6-0.6-4.8-1.9c-1.1-1.3-1.7-3-1.7-5V343.3z M-42.9,343.6
					c0,1.3,0.2,2.3,0.7,3c0.4,0.8,1.2,1.1,2.1,1.1c1,0,1.7-0.4,2.1-1.1c0.4-0.8,0.7-1.8,0.7-3v-0.3c0-1.2-0.2-2.2-0.7-3
					s-1.2-1.2-2.1-1.2s-1.7,0.4-2.1,1.2s-0.7,1.8-0.7,3V343.6z"/>
				<path class="st1" d="M-31.9,348.1l1.8-0.4v-8.5h-2v-2.6h2V335c0-1.5,0.4-2.7,1.3-3.6c0.9-0.8,2.1-1.3,3.7-1.3c0.3,0,0.6,0,1,0.1
					c0.3,0,0.7,0.1,1.1,0.2l-0.3,2.8c-0.2,0-0.4-0.1-0.6-0.1c-0.2,0-0.4,0-0.7,0c-0.6,0-1.1,0.2-1.4,0.5c-0.3,0.3-0.5,0.8-0.5,1.4
					v1.5h2.7v2.6h-2.7v8.5l1.8,0.4v2.2h-7.3V348.1z"/>
				<path class="st1" d="M-2.7,343.8c0,2-0.5,3.7-1.4,4.9s-2.2,1.8-4,1.8c-0.8,0-1.5-0.2-2.1-0.5c-0.6-0.3-1.1-0.8-1.5-1.5l-0.3,1.7
					h-3.2v-17.2l-2-0.4v-2.2h5.7v7.5c0.4-0.5,0.9-1,1.4-1.3c0.6-0.3,1.2-0.4,1.9-0.4c1.7,0,3.1,0.7,4,2c0.9,1.3,1.4,3.1,1.4,5.3
					V343.8z M-6.4,343.6c0-1.3-0.2-2.4-0.6-3.2c-0.4-0.8-1.1-1.2-2-1.2c-0.6,0-1.1,0.1-1.5,0.4c-0.4,0.2-0.7,0.6-0.9,1v5.8
					c0.2,0.4,0.5,0.7,0.9,1c0.4,0.2,0.9,0.3,1.5,0.3c1,0,1.6-0.3,2-1c0.4-0.7,0.6-1.6,0.6-2.9V343.6z"/>
				<path class="st1" d="M5.5,350.6c-2,0-3.6-0.6-4.7-1.9s-1.8-2.9-1.8-4.8v-0.5c0-2,0.6-3.7,1.7-5c1.1-1.3,2.6-2,4.5-2
					c1.9,0,3.3,0.6,4.3,1.7s1.5,2.6,1.5,4.5v2H2.9l0,0.1c0.1,0.9,0.4,1.7,0.9,2.2c0.5,0.6,1.3,0.9,2.2,0.9c0.8,0,1.5-0.1,2-0.2
					c0.5-0.2,1.1-0.4,1.8-0.8l1,2.3c-0.6,0.4-1.3,0.8-2.2,1.1C7.7,350.4,6.7,350.6,5.5,350.6z M5.2,339.2c-0.7,0-1.2,0.3-1.6,0.8
					S3,341.2,2.9,342l0,0.1h4.5v-0.3c0-0.8-0.2-1.4-0.6-1.9C6.5,339.4,6,339.2,5.2,339.2z"/>
				<path class="st1" d="M12.7,348.1l1.8-0.4v-8.5l-2-0.4v-2.2h5.7v11.1l1.8,0.4v2.2h-7.3V348.1z M18.2,333.3h-3.7v-2.8h3.7V333.3z"
					/>
				<path class="st1" d="M21,348.1l1.8-0.4v-8.5l-2-0.4v-2.2h5.4l0.2,2c0.5-0.7,1-1.2,1.7-1.6s1.4-0.6,2.2-0.6
					c1.4,0,2.5,0.4,3.3,1.3s1.2,2.2,1.2,4.1v6l1.8,0.4v2.2h-7.1v-2.2l1.6-0.4v-6c0-0.9-0.2-1.6-0.6-2c-0.4-0.4-0.9-0.6-1.7-0.6
					c-0.5,0-0.9,0.1-1.3,0.3c-0.4,0.2-0.7,0.5-1,0.8v7.4l1.5,0.4v2.2h-7V348.1z"/>
				<path class="st1" d="M37.8,343.6c0-2.2,0.5-3.9,1.4-5.2c0.9-1.3,2.3-2,4-2c0.8,0,1.4,0.2,2,0.5c0.6,0.3,1.1,0.8,1.5,1.5l0.3-1.7
					h3.2v13.3c0,1.8-0.6,3.3-1.7,4.3c-1.1,1.1-2.7,1.6-4.7,1.6c-0.7,0-1.4-0.1-2.2-0.3c-0.8-0.2-1.5-0.5-2.2-0.8l0.7-2.6
					c0.6,0.3,1.2,0.5,1.8,0.6c0.6,0.1,1.2,0.2,1.9,0.2c0.9,0,1.6-0.3,2-0.8s0.7-1.3,0.7-2.3V349c-0.4,0.5-0.9,0.9-1.4,1.2
					s-1.2,0.4-1.9,0.4c-1.7,0-3-0.6-3.9-1.9c-0.9-1.2-1.4-2.9-1.4-4.9V343.6z M41.5,343.8c0,1.2,0.2,2.1,0.6,2.8c0.4,0.7,1.1,1,2,1
					c0.6,0,1-0.1,1.4-0.3c0.4-0.2,0.7-0.5,0.9-0.9v-6c-0.2-0.4-0.6-0.7-0.9-1c-0.4-0.2-0.9-0.3-1.4-0.3c-0.9,0-1.6,0.4-2,1.2
					c-0.4,0.8-0.6,1.9-0.6,3.1V343.8z"/>
				<path class="st1" d="M59.1,348.1l1.8-0.4v-8.5l-2-0.4v-2.2h5.4l0.2,2c0.3-0.7,0.7-1.3,1.2-1.7s1.1-0.6,1.8-0.6
					c0.2,0,0.4,0,0.6,0c0.2,0,0.4,0.1,0.5,0.1l-0.4,3.4l-1.5,0c-0.5,0-1,0.1-1.3,0.3s-0.6,0.5-0.8,0.9v6.7l1.8,0.4v2.2h-7.3V348.1z"
					/>
				<path class="st1" d="M76.1,350.6c-2,0-3.6-0.6-4.7-1.9s-1.8-2.9-1.8-4.8v-0.5c0-2,0.6-3.7,1.7-5c1.1-1.3,2.6-2,4.5-2
					c1.9,0,3.3,0.6,4.3,1.7s1.5,2.6,1.5,4.5v2h-8.2l0,0.1c0.1,0.9,0.4,1.7,0.9,2.2c0.5,0.6,1.3,0.9,2.2,0.9c0.8,0,1.5-0.1,2-0.2
					c0.5-0.2,1.1-0.4,1.8-0.8l1,2.3c-0.6,0.4-1.3,0.8-2.2,1.1C78.2,350.4,77.2,350.6,76.1,350.6z M75.8,339.2
					c-0.7,0-1.2,0.3-1.6,0.8s-0.6,1.2-0.7,2.1l0,0.1H78v-0.3c0-0.8-0.2-1.4-0.6-1.9C77.1,339.4,76.5,339.2,75.8,339.2z"/>
				<path class="st1" d="M89.8,347.7c0.7,0,1.2-0.2,1.6-0.6c0.4-0.4,0.6-0.9,0.6-1.5h3.4l0,0.1c0,1.4-0.5,2.5-1.6,3.5
					c-1.1,0.9-2.4,1.4-4,1.4c-2,0-3.6-0.6-4.7-1.9s-1.7-3-1.7-5v-0.4c0-2,0.6-3.7,1.7-5c1.1-1.3,2.8-2,4.9-2c1.1,0,2.1,0.2,3,0.5
					s1.6,0.8,2.2,1.4l0.1,3.7h-3l-0.6-2.1c-0.2-0.2-0.4-0.3-0.7-0.4c-0.3-0.1-0.6-0.2-0.9-0.2c-1,0-1.8,0.4-2.2,1.1
					s-0.6,1.7-0.6,2.9v0.4c0,1.2,0.2,2.2,0.6,3C88.1,347.4,88.8,347.7,89.8,347.7z"/>
				<path class="st1" d="M103.6,350.6c-2,0-3.6-0.6-4.7-1.9s-1.8-2.9-1.8-4.8v-0.5c0-2,0.6-3.7,1.7-5c1.1-1.3,2.6-2,4.5-2
					c1.9,0,3.3,0.6,4.3,1.7s1.5,2.6,1.5,4.5v2H101l0,0.1c0.1,0.9,0.4,1.7,0.9,2.2c0.5,0.6,1.3,0.9,2.2,0.9c0.8,0,1.5-0.1,2-0.2
					c0.5-0.2,1.1-0.4,1.8-0.8l1,2.3c-0.6,0.4-1.3,0.8-2.2,1.1C105.7,350.4,104.7,350.6,103.6,350.6z M103.3,339.2
					c-0.7,0-1.2,0.3-1.6,0.8s-0.6,1.2-0.7,2.1l0,0.1h4.5v-0.3c0-0.8-0.2-1.4-0.6-1.9C104.6,339.4,104,339.2,103.3,339.2z"/>
				<path class="st1" d="M110.7,348.1l1.8-0.4v-8.5l-2-0.4v-2.2h5.4l0.2,2c0.5-0.7,1-1.2,1.7-1.6s1.4-0.6,2.2-0.6
					c1.4,0,2.5,0.4,3.3,1.3s1.2,2.2,1.2,4.1v6l1.8,0.4v2.2h-7.1v-2.2l1.6-0.4v-6c0-0.9-0.2-1.6-0.6-2c-0.4-0.4-0.9-0.6-1.7-0.6
					c-0.5,0-0.9,0.1-1.3,0.3c-0.4,0.2-0.7,0.5-1,0.8v7.4l1.5,0.4v2.2h-7V348.1z"/>
				<path class="st1" d="M132.9,333.2v3.4h2.4v2.6h-2.4v7c0,0.5,0.1,0.9,0.3,1.1s0.5,0.3,0.9,0.3c0.3,0,0.5,0,0.7,0
					c0.2,0,0.4-0.1,0.6-0.1l0.3,2.7c-0.4,0.1-0.8,0.2-1.2,0.3c-0.4,0.1-0.8,0.1-1.3,0.1c-1.3,0-2.3-0.4-3-1.1c-0.7-0.7-1-1.8-1-3.3
					v-7h-2v-2.6h2v-3.4H132.9z"/>
				<path class="st1" d="M136.7,332.7v-2.2h5.7v17.2l1.8,0.4v2.2h-7.3v-2.2l1.8-0.4v-14.6L136.7,332.7z"/>
				<path class="st1" d="M159.6,338.8l-1.3,0.2l-5.1,13.4c-0.4,1-0.9,1.8-1.6,2.5c-0.7,0.7-1.7,1-3,1c-0.3,0-0.6,0-0.9-0.1
					c-0.3-0.1-0.6-0.1-1-0.2l0.4-2.7c0.1,0,0.2,0,0.4,0.1s0.2,0,0.3,0c0.6,0,1.1-0.2,1.4-0.5c0.3-0.3,0.6-0.7,0.8-1.1l0.4-1
					l-4.4-11.3l-1.3-0.2v-2.2h6.7v2.2l-1.5,0.3l1.9,5.5l0.2,1l0.1,0l2.2-6.5l-1.5-0.3v-2.2h6.7V338.8z"/>
				<path class="st1" d="M166.7,338.8v-2.2h5.4l0.2,1.8c0.4-0.7,1-1.2,1.7-1.5c0.7-0.4,1.4-0.5,2.3-0.5c0.9,0,1.6,0.2,2.3,0.6
					s1.1,1,1.4,1.8c0.4-0.7,1-1.3,1.7-1.7s1.5-0.6,2.4-0.6c1.4,0,2.4,0.5,3.2,1.4c0.8,0.9,1.2,2.4,1.2,4.3v5.7l1.8,0.4v2.2h-7.1
					v-2.2l1.6-0.4V342c0-1-0.2-1.8-0.5-2.2s-0.8-0.6-1.5-0.6c-0.5,0-1,0.1-1.4,0.3c-0.4,0.2-0.7,0.6-0.9,1c0,0.2,0,0.3,0,0.4
					c0,0.1,0,0.2,0,0.3v6.4l1.5,0.4v2.2h-6.7v-2.2l1.5-0.4V342c0-1-0.2-1.7-0.5-2.2c-0.3-0.4-0.8-0.6-1.5-0.6
					c-0.5,0-0.9,0.1-1.3,0.3c-0.4,0.2-0.7,0.5-0.9,0.8v7.4l1.6,0.4v2.2h-7.1v-2.2l1.8-0.4v-8.5L166.7,338.8z"/>
				<path class="st1" d="M200.1,350.3c-0.1-0.2-0.2-0.5-0.3-0.7c-0.1-0.2-0.1-0.5-0.2-0.7c-0.4,0.5-1,0.9-1.6,1.2
					c-0.6,0.3-1.4,0.5-2.2,0.5c-1.3,0-2.4-0.4-3.2-1.1c-0.8-0.7-1.2-1.7-1.2-3c0-1.3,0.5-2.3,1.5-3s2.5-1.1,4.5-1.1h1.9v-1.3
					c0-0.7-0.2-1.2-0.6-1.5s-0.9-0.5-1.7-0.5c-0.4,0-0.8,0-1.1,0.1c-0.3,0.1-0.6,0.2-0.8,0.3L195,341h-2.8l0-3
					c0.7-0.5,1.5-0.8,2.3-1.2c0.9-0.3,1.8-0.5,2.9-0.5c1.7,0,3.1,0.4,4.1,1.3c1.1,0.8,1.6,2,1.6,3.6v5.7c0,0.2,0,0.4,0,0.6
					c0,0.2,0,0.4,0,0.5l1.1,0.2v2.2H200.1z M196.9,347.8c0.6,0,1.1-0.1,1.5-0.4c0.5-0.2,0.8-0.5,1.1-0.9v-2.1h-1.9
					c-0.8,0-1.4,0.2-1.8,0.6c-0.4,0.4-0.6,0.8-0.6,1.3c0,0.5,0.2,0.8,0.5,1.1C195.9,347.7,196.3,347.8,196.9,347.8z"/>
				<path class="st1" d="M214.6,348.6c-0.4,0.6-0.9,1.1-1.5,1.4c-0.6,0.3-1.3,0.5-2,0.5c-1.7,0-3-0.6-3.9-1.9
					c-0.9-1.2-1.4-2.9-1.4-4.9v-0.3c0-2.2,0.5-3.9,1.4-5.2s2.3-2,4-2c0.7,0,1.3,0.2,1.9,0.5c0.5,0.3,1,0.7,1.4,1.3v-4.9l-2-0.4v-2.2
					h2h3.7v17.2l1.8,0.4v2.2h-5L214.6,348.6z M209.4,343.8c0,1.2,0.2,2.1,0.6,2.8c0.4,0.7,1.1,1,2,1c0.5,0,1-0.1,1.4-0.3
					s0.7-0.5,1-1v-5.8c-0.3-0.4-0.6-0.8-1-1c-0.4-0.2-0.9-0.4-1.4-0.4c-0.9,0-1.6,0.4-2,1.2s-0.6,1.9-0.6,3.1V343.8z"/>
				<path class="st1" d="M227.6,350.6c-2,0-3.6-0.6-4.7-1.9s-1.8-2.9-1.8-4.8v-0.5c0-2,0.6-3.7,1.7-5c1.1-1.3,2.6-2,4.5-2
					c1.9,0,3.3,0.6,4.3,1.7s1.5,2.6,1.5,4.5v2h-8.2l0,0.1c0.1,0.9,0.4,1.7,0.9,2.2c0.5,0.6,1.3,0.9,2.2,0.9c0.8,0,1.5-0.1,2-0.2
					c0.5-0.2,1.1-0.4,1.8-0.8l1,2.3c-0.6,0.4-1.3,0.8-2.2,1.1C229.7,350.4,228.7,350.6,227.6,350.6z M227.3,339.2
					c-0.7,0-1.2,0.3-1.6,0.8s-0.6,1.2-0.7,2.1l0,0.1h4.5v-0.3c0-0.8-0.2-1.4-0.6-1.9C228.6,339.4,228,339.2,227.3,339.2z"/>
				<path class="st1" d="M239.1,349.8c0,0.9-0.2,1.8-0.7,2.7c-0.5,1-1.1,1.8-1.8,2.4l-1.8-1c0.3-0.6,0.6-1.2,0.8-1.8
					c0.2-0.6,0.3-1.3,0.3-2.1v-2.8h3.3L239.1,349.8z"/>
				<path class="st1" d="M-187,370v-2.2h5.4l0.2,1.6c0.4-0.6,0.9-1,1.5-1.4s1.2-0.5,2-0.5c1.7,0,3,0.7,4,2s1.4,3.1,1.4,5.2v0.3
					c0,2-0.5,3.7-1.4,4.9s-2.3,1.9-3.9,1.9c-0.7,0-1.4-0.1-1.9-0.4c-0.6-0.3-1-0.7-1.4-1.2v4l1.8,0.4v2.2h-7.3v-2.2l1.8-0.4v-13.8
					L-187,370z M-176.4,374.8c0-1.3-0.2-2.3-0.6-3.1s-1.1-1.2-2-1.2c-0.6,0-1,0.1-1.4,0.3c-0.4,0.2-0.7,0.6-0.9,1v6
					c0.2,0.4,0.5,0.7,0.9,0.9c0.4,0.2,0.9,0.3,1.5,0.3c0.9,0,1.6-0.4,2-1.1c0.4-0.7,0.6-1.7,0.6-2.9V374.8z"/>
				<path class="st1" d="M-170.7,379.3l1.8-0.4v-8.5l-2-0.4v-2.2h5.4l0.2,2c0.3-0.7,0.7-1.3,1.2-1.7s1.1-0.6,1.8-0.6
					c0.2,0,0.4,0,0.6,0c0.2,0,0.4,0.1,0.5,0.1l-0.4,3.4l-1.5,0c-0.5,0-1,0.1-1.3,0.3s-0.6,0.5-0.8,0.9v6.7l1.8,0.4v2.2h-7.3V379.3z"
					/>
				<path class="st1" d="M-160.3,374.5c0-2,0.6-3.7,1.7-5c1.1-1.3,2.7-2,4.8-2c2,0,3.6,0.7,4.8,2c1.1,1.3,1.7,3,1.7,5v0.3
					c0,2.1-0.6,3.7-1.7,5c-1.1,1.3-2.7,1.9-4.7,1.9c-2,0-3.6-0.6-4.8-1.9c-1.1-1.3-1.7-3-1.7-5V374.5z M-156.6,374.8
					c0,1.3,0.2,2.3,0.7,3c0.4,0.8,1.2,1.1,2.1,1.1c1,0,1.7-0.4,2.1-1.1c0.4-0.8,0.7-1.8,0.7-3v-0.3c0-1.2-0.2-2.2-0.7-3
					s-1.2-1.2-2.1-1.2s-1.7,0.4-2.1,1.2s-0.7,1.8-0.7,3V374.8z"/>
				<path class="st1" d="M-136.8,379.8c-0.4,0.6-0.9,1.1-1.5,1.4c-0.6,0.3-1.3,0.5-2,0.5c-1.7,0-3-0.6-3.9-1.9
					c-0.9-1.2-1.4-2.9-1.4-4.9v-0.3c0-2.2,0.5-3.9,1.4-5.2s2.3-2,4-2c0.7,0,1.3,0.2,1.9,0.5c0.5,0.3,1,0.7,1.4,1.3v-4.9l-2-0.4v-2.2
					h2h3.7v17.2l1.8,0.4v2.2h-5L-136.8,379.8z M-142,375c0,1.2,0.2,2.1,0.6,2.8c0.4,0.7,1.1,1,2,1c0.5,0,1-0.1,1.4-0.3s0.7-0.5,1-1
					v-5.8c-0.3-0.4-0.6-0.8-1-1c-0.4-0.2-0.9-0.4-1.4-0.4c-0.9,0-1.6,0.4-2,1.2s-0.6,1.9-0.6,3.1V375z"/>
				<path class="st1" d="M-120.7,379.8c-0.4,0.6-1,1.1-1.6,1.5c-0.6,0.3-1.4,0.5-2.2,0.5c-1.4,0-2.6-0.5-3.4-1.4
					c-0.8-0.9-1.2-2.4-1.2-4.3v-5.7l-1.5-0.4v-2.2h1.5h3.7v8.3c0,1,0.2,1.7,0.5,2.2c0.3,0.4,0.8,0.7,1.5,0.7c0.6,0,1.1-0.1,1.5-0.3
					c0.4-0.2,0.8-0.5,1-0.8v-7.4l-1.6-0.4v-2.2h1.6h3.7v11.1l1.7,0.4v2.2h-4.9L-120.7,379.8z"/>
				<path class="st1" d="M-107.7,378.9c0.7,0,1.2-0.2,1.6-0.6c0.4-0.4,0.6-0.9,0.6-1.5h3.4l0,0.1c0,1.4-0.5,2.5-1.6,3.5
					c-1.1,0.9-2.4,1.4-4,1.4c-2,0-3.6-0.6-4.7-1.9s-1.7-3-1.7-5v-0.4c0-2,0.6-3.7,1.7-5c1.1-1.3,2.8-2,4.9-2c1.1,0,2.1,0.2,3,0.5
					s1.6,0.8,2.2,1.4l0.1,3.7h-3l-0.6-2.1c-0.2-0.2-0.4-0.3-0.7-0.4c-0.3-0.1-0.6-0.2-0.9-0.2c-1,0-1.8,0.4-2.2,1.1
					s-0.6,1.7-0.6,2.9v0.4c0,1.2,0.2,2.2,0.6,3C-109.4,378.6-108.7,378.9-107.7,378.9z"/>
				<path class="st1" d="M-95,364.4v3.4h2.4v2.6H-95v7c0,0.5,0.1,0.9,0.3,1.1s0.5,0.3,0.9,0.3c0.3,0,0.5,0,0.7,0
					c0.2,0,0.4-0.1,0.6-0.1l0.3,2.7c-0.4,0.1-0.8,0.2-1.2,0.3c-0.4,0.1-0.8,0.1-1.3,0.1c-1.3,0-2.3-0.4-3-1.1c-0.7-0.7-1-1.8-1-3.3
					v-7h-2v-2.6h2v-3.4H-95z"/>
				<path class="st1" d="M-84.2,381.8c-2,0-3.6-0.6-4.7-1.9s-1.8-2.9-1.8-4.8v-0.5c0-2,0.6-3.7,1.7-5c1.1-1.3,2.6-2,4.5-2
					c1.9,0,3.3,0.6,4.3,1.7s1.5,2.6,1.5,4.5v2h-8.2l0,0.1c0.1,0.9,0.4,1.7,0.9,2.2c0.5,0.6,1.3,0.9,2.2,0.9c0.8,0,1.5-0.1,2-0.2
					c0.5-0.2,1.1-0.4,1.8-0.8l1,2.3c-0.6,0.4-1.3,0.8-2.2,1.1C-82,381.6-83,381.8-84.2,381.8z M-84.5,370.4c-0.7,0-1.2,0.3-1.6,0.8
					s-0.6,1.2-0.7,2.1l0,0.1h4.5V373c0-0.8-0.2-1.4-0.6-1.9C-83.2,370.6-83.7,370.4-84.5,370.4z"/>
				<path class="st1" d="M-67.9,379.8c-0.4,0.6-0.9,1.1-1.5,1.4c-0.6,0.3-1.3,0.5-2,0.5c-1.7,0-3-0.6-3.9-1.9
					c-0.9-1.2-1.4-2.9-1.4-4.9v-0.3c0-2.2,0.5-3.9,1.4-5.2s2.3-2,4-2c0.7,0,1.3,0.2,1.9,0.5c0.5,0.3,1,0.7,1.4,1.3v-4.9l-2-0.4v-2.2
					h2h3.7v17.2l1.8,0.4v2.2h-5L-67.9,379.8z M-73.1,375c0,1.2,0.2,2.1,0.6,2.8c0.4,0.7,1.1,1,2,1c0.5,0,1-0.1,1.4-0.3s0.7-0.5,1-1
					v-5.8c-0.3-0.4-0.6-0.8-1-1c-0.4-0.2-0.9-0.4-1.4-0.4c-0.9,0-1.6,0.4-2,1.2s-0.6,1.9-0.6,3.1V375z"/>
				<path class="st1" d="M-57.2,381c0,0.9-0.2,1.8-0.7,2.7c-0.5,1-1.1,1.8-1.8,2.4l-1.8-1c0.3-0.6,0.6-1.2,0.8-1.8
					c0.2-0.6,0.3-1.3,0.3-2.1v-2.8h3.3L-57.2,381z"/>
				<path class="st1" d="M-48.7,374.5c0-2,0.6-3.7,1.7-5c1.1-1.3,2.7-2,4.8-2c2,0,3.6,0.7,4.8,2c1.1,1.3,1.7,3,1.7,5v0.3
					c0,2.1-0.6,3.7-1.7,5c-1.1,1.3-2.7,1.9-4.7,1.9c-2,0-3.6-0.6-4.8-1.9c-1.1-1.3-1.7-3-1.7-5V374.5z M-45,374.8
					c0,1.3,0.2,2.3,0.7,3c0.4,0.8,1.2,1.1,2.1,1.1c1,0,1.7-0.4,2.1-1.1c0.4-0.8,0.7-1.8,0.7-3v-0.3c0-1.2-0.2-2.2-0.7-3
					s-1.2-1.2-2.1-1.2s-1.7,0.4-2.1,1.2s-0.7,1.8-0.7,3V374.8z"/>
				<path class="st1" d="M-33.9,379.3l1.8-0.4v-8.5l-2-0.4v-2.2h5.4l0.2,2c0.3-0.7,0.7-1.3,1.2-1.7s1.1-0.6,1.8-0.6
					c0.2,0,0.4,0,0.6,0c0.2,0,0.4,0.1,0.5,0.1l-0.4,3.4l-1.5,0c-0.5,0-1,0.1-1.3,0.3s-0.6,0.5-0.8,0.9v6.7l1.8,0.4v2.2h-7.3V379.3z"
					/>
				<path class="st1" d="M-17,379.3l1.8-0.4v-14.6l-2-0.4v-2.2h5.7v7.8c0.4-0.6,1-1.1,1.6-1.5c0.6-0.4,1.3-0.5,2.1-0.5
					c1.4,0,2.6,0.5,3.4,1.4c0.8,1,1.2,2.4,1.2,4.4v5.5l1.8,0.4v2.2h-7.1v-2.2l1.6-0.4v-5.6c0-1.1-0.2-1.8-0.6-2.3
					c-0.4-0.4-0.9-0.7-1.7-0.7c-0.5,0-1,0.1-1.4,0.3c-0.4,0.2-0.7,0.4-1,0.8v7.4l1.6,0.4v2.2H-17V379.3z"/>
				<path class="st1" d="M8.4,381.5c-0.1-0.2-0.2-0.5-0.3-0.7c-0.1-0.2-0.1-0.5-0.2-0.7c-0.4,0.5-1,0.9-1.6,1.2
					c-0.6,0.3-1.4,0.5-2.2,0.5c-1.3,0-2.4-0.4-3.2-1.1c-0.8-0.7-1.2-1.7-1.2-3c0-1.3,0.5-2.3,1.5-3s2.5-1.1,4.5-1.1h1.9v-1.3
					c0-0.7-0.2-1.2-0.6-1.5s-0.9-0.5-1.7-0.5c-0.4,0-0.8,0-1.1,0.1c-0.3,0.1-0.6,0.2-0.8,0.3l-0.2,1.5H0.6l0-3
					c0.7-0.5,1.5-0.8,2.3-1.2c0.9-0.3,1.8-0.5,2.9-0.5c1.7,0,3.1,0.4,4.1,1.3c1.1,0.8,1.6,2,1.6,3.6v5.7c0,0.2,0,0.4,0,0.6
					c0,0.2,0,0.4,0,0.5l1.1,0.2v2.2H8.4z M5.2,379c0.6,0,1.1-0.1,1.5-0.4c0.5-0.2,0.8-0.5,1.1-0.9v-2.1H5.9c-0.8,0-1.4,0.2-1.8,0.6
					c-0.4,0.4-0.6,0.8-0.6,1.3c0,0.5,0.2,0.8,0.5,1.1C4.3,378.9,4.7,379,5.2,379z"/>
				<path class="st1" d="M14.3,379.3l1.8-0.4v-8.5l-2-0.4v-2.2h5.4l0.2,2c0.3-0.7,0.7-1.3,1.2-1.7s1.1-0.6,1.8-0.6
					c0.2,0,0.4,0,0.6,0c0.2,0,0.4,0.1,0.5,0.1l-0.4,3.4l-1.5,0c-0.5,0-1,0.1-1.3,0.3s-0.6,0.5-0.8,0.9v6.7l1.8,0.4v2.2h-7.3V379.3z"
					/>
				<path class="st1" d="M31,370l-1.3,0.2l1.8,6.1l0.2,1.3h0.1l0.3-1.3l1.8-6.1l-1.3-0.3v-2.2h6.2v2.2l-1.2,0.2l-4,11.3H30
					l-4.1-11.3l-1.2-0.2v-2.2H31V370z"/>
				<path class="st1" d="M46.4,381.8c-2,0-3.6-0.6-4.7-1.9s-1.8-2.9-1.8-4.8v-0.5c0-2,0.6-3.7,1.7-5c1.1-1.3,2.6-2,4.5-2
					c1.9,0,3.3,0.6,4.3,1.7s1.5,2.6,1.5,4.5v2h-8.2l0,0.1c0.1,0.9,0.4,1.7,0.9,2.2c0.5,0.6,1.3,0.9,2.2,0.9c0.8,0,1.5-0.1,2-0.2
					c0.5-0.2,1.1-0.4,1.8-0.8l1,2.3c-0.6,0.4-1.3,0.8-2.2,1.1C48.5,381.6,47.5,381.8,46.4,381.8z M46,370.4c-0.7,0-1.2,0.3-1.6,0.8
					s-0.6,1.2-0.7,2.1l0,0.1h4.5V373c0-0.8-0.2-1.4-0.6-1.9C47.3,370.6,46.8,370.4,46,370.4z"/>
				<path class="st1" d="M64.9,372.5h-2.5l-0.4-1.7c-0.3-0.2-0.6-0.4-1-0.5c-0.4-0.1-0.8-0.2-1.3-0.2c-0.7,0-1.2,0.1-1.5,0.4
					c-0.4,0.3-0.6,0.7-0.6,1.1c0,0.4,0.2,0.8,0.5,1c0.4,0.3,1.1,0.5,2.2,0.7c1.7,0.3,3,0.8,3.8,1.5c0.8,0.7,1.2,1.6,1.2,2.7
					c0,1.2-0.5,2.2-1.6,3c-1.1,0.8-2.5,1.2-4.2,1.2c-1.1,0-2-0.2-2.9-0.5c-0.9-0.3-1.7-0.8-2.4-1.3l0-3.1h2.6l0.5,1.8
					c0.2,0.2,0.5,0.3,0.9,0.4c0.4,0.1,0.8,0.1,1.2,0.1c0.8,0,1.3-0.1,1.7-0.4c0.4-0.3,0.6-0.6,0.6-1.1c0-0.4-0.2-0.8-0.6-1.1
					s-1.1-0.6-2.2-0.8c-1.6-0.3-2.8-0.8-3.7-1.5c-0.8-0.6-1.2-1.5-1.2-2.6c0-1.2,0.5-2.1,1.4-3c0.9-0.8,2.3-1.3,4-1.3
					c1.1,0,2.1,0.1,3,0.4c1,0.3,1.7,0.7,2.2,1.1L64.9,372.5z"/>
				<path class="st1" d="M72.5,364.4v3.4h2.4v2.6h-2.4v7c0,0.5,0.1,0.9,0.3,1.1s0.5,0.3,0.9,0.3c0.3,0,0.5,0,0.7,0
					c0.2,0,0.4-0.1,0.6-0.1l0.3,2.7c-0.4,0.1-0.8,0.2-1.2,0.3c-0.4,0.1-0.8,0.1-1.3,0.1c-1.3,0-2.3-0.4-3-1.1c-0.7-0.7-1-1.8-1-3.3
					v-7h-2v-2.6h2v-3.4H72.5z"/>
				<path class="st1" d="M83.3,381.8c-2,0-3.6-0.6-4.7-1.9s-1.8-2.9-1.8-4.8v-0.5c0-2,0.6-3.7,1.7-5c1.1-1.3,2.6-2,4.5-2
					c1.9,0,3.3,0.6,4.3,1.7s1.5,2.6,1.5,4.5v2h-8.2l0,0.1c0.1,0.9,0.4,1.7,0.9,2.2c0.5,0.6,1.3,0.9,2.2,0.9c0.8,0,1.5-0.1,2-0.2
					c0.5-0.2,1.1-0.4,1.8-0.8l1,2.3c-0.6,0.4-1.3,0.8-2.2,1.1C85.4,381.6,84.4,381.8,83.3,381.8z M83,370.4c-0.7,0-1.2,0.3-1.6,0.8
					s-0.6,1.2-0.7,2.1l0,0.1h4.5V373c0-0.8-0.2-1.4-0.6-1.9C84.3,370.6,83.7,370.4,83,370.4z"/>
				<path class="st1" d="M99.5,379.8c-0.4,0.6-0.9,1.1-1.5,1.4c-0.6,0.3-1.3,0.5-2,0.5c-1.7,0-3-0.6-3.9-1.9
					c-0.9-1.2-1.4-2.9-1.4-4.9v-0.3c0-2.2,0.5-3.9,1.4-5.2s2.3-2,4-2c0.7,0,1.3,0.2,1.9,0.5c0.5,0.3,1,0.7,1.4,1.3v-4.9l-2-0.4v-2.2
					h2h3.7v17.2l1.8,0.4v2.2h-5L99.5,379.8z M94.3,375c0,1.2,0.2,2.1,0.6,2.8c0.4,0.7,1.1,1,2,1c0.5,0,1-0.1,1.4-0.3s0.7-0.5,1-1
					v-5.8c-0.3-0.4-0.6-0.8-1-1c-0.4-0.2-0.9-0.4-1.4-0.4c-0.9,0-1.6,0.4-2,1.2s-0.6,1.9-0.6,3.1V375z"/>
				<path class="st0" d="M-210.6,431.1v-2.4l6-6.4c0.9-1,1.5-1.8,1.8-2.5c0.4-0.7,0.5-1.3,0.5-1.9c0-0.8-0.2-1.4-0.6-1.9
					c-0.4-0.5-1-0.7-1.8-0.7c-0.9,0-1.5,0.3-1.9,0.9c-0.4,0.6-0.7,1.4-0.7,2.3h-3.6l0-0.1c0-1.7,0.5-3.1,1.6-4.2
					c1.1-1.2,2.7-1.7,4.6-1.7c1.9,0,3.4,0.5,4.5,1.5s1.6,2.3,1.6,4c0,1.1-0.3,2.1-0.9,3.1c-0.6,0.9-1.6,2.2-3.1,3.7l-3.3,3.6l0,0.1
					h4.8l0.2-1.8h2.8v4.7H-210.6z"/>
				<path class="st0" d="M-191.8,431.1h-3.7v-3.3h3.7V431.1z"/>
				<path class="st1" d="M-177.9,414v3.4h2.4v2.6h-2.4v7c0,0.5,0.1,0.9,0.3,1.1s0.5,0.3,0.9,0.3c0.3,0,0.5,0,0.7,0
					c0.2,0,0.4-0.1,0.6-0.1l0.3,2.7c-0.4,0.1-0.8,0.2-1.2,0.3c-0.4,0.1-0.8,0.1-1.3,0.1c-1.3,0-2.3-0.4-3-1.1c-0.7-0.7-1-1.8-1-3.3
					v-7h-2v-2.6h2V414H-177.9z"/>
				<path class="st1" d="M-173.9,428.9l1.8-0.4v-14.6l-2-0.4v-2.2h5.7v7.8c0.4-0.6,1-1.1,1.6-1.5c0.6-0.4,1.3-0.5,2.1-0.5
					c1.4,0,2.6,0.5,3.4,1.4c0.8,1,1.2,2.4,1.2,4.4v5.5l1.8,0.4v2.2h-7.1v-2.2l1.6-0.4v-5.6c0-1.1-0.2-1.8-0.6-2.3
					c-0.4-0.4-0.9-0.7-1.7-0.7c-0.5,0-1,0.1-1.4,0.3c-0.4,0.2-0.7,0.4-1,0.8v7.4l1.6,0.4v2.2h-7.1V428.9z"/>
				<path class="st1" d="M-150.7,431.4c-2,0-3.6-0.6-4.7-1.9s-1.8-2.9-1.8-4.8v-0.5c0-2,0.6-3.7,1.7-5c1.1-1.3,2.6-2,4.5-2
					c1.9,0,3.3,0.6,4.3,1.7s1.5,2.6,1.5,4.5v2h-8.2l0,0.1c0.1,0.9,0.4,1.7,0.9,2.2c0.5,0.6,1.3,0.9,2.2,0.9c0.8,0,1.5-0.1,2-0.2
					c0.5-0.2,1.1-0.4,1.8-0.8l1,2.3c-0.6,0.4-1.3,0.8-2.2,1.1C-148.6,431.2-149.6,431.4-150.7,431.4z M-151,420
					c-0.7,0-1.2,0.3-1.6,0.8s-0.6,1.2-0.7,2.1l0,0.1h4.5v-0.3c0-0.8-0.2-1.4-0.6-1.9C-149.7,420.2-150.3,420-151,420z"/>
				<path class="st1" d="M-137,424.4c0-2.2,0.5-3.9,1.4-5.2s2.3-2,4-2c0.7,0,1.4,0.2,2,0.5s1.1,0.8,1.5,1.4l0.3-1.7h3.2v16.4
					l1.8,0.4v2.2h-7.3v-2.2l1.8-0.4v-3.9c-0.4,0.5-0.9,0.9-1.4,1.1c-0.5,0.3-1.2,0.4-1.9,0.4c-1.7,0-3-0.6-3.9-1.9
					c-0.9-1.2-1.4-2.9-1.4-4.9V424.4z M-133.3,424.6c0,1.2,0.2,2.2,0.6,2.9c0.4,0.7,1.1,1,2,1c0.5,0,1-0.1,1.4-0.3
					c0.4-0.2,0.7-0.5,1-0.9v-6.1c-0.2-0.4-0.6-0.7-0.9-0.9c-0.4-0.2-0.8-0.3-1.4-0.3c-0.9,0-1.6,0.4-2,1.2c-0.4,0.8-0.6,1.9-0.6,3.2
					V424.6z"/>
				<path class="st1" d="M-112.8,429.4c-0.4,0.6-1,1.1-1.6,1.5c-0.6,0.3-1.4,0.5-2.2,0.5c-1.4,0-2.6-0.5-3.4-1.4
					c-0.8-0.9-1.2-2.4-1.2-4.3V420l-1.5-0.4v-2.2h1.5h3.7v8.3c0,1,0.2,1.7,0.5,2.2c0.3,0.4,0.8,0.7,1.5,0.7c0.6,0,1.1-0.1,1.5-0.3
					c0.4-0.2,0.8-0.5,1-0.8V420l-1.6-0.4v-2.2h1.6h3.7v11.1l1.7,0.4v2.2h-4.9L-112.8,429.4z"/>
				<path class="st1" d="M-97.4,431.1c-0.1-0.2-0.2-0.5-0.3-0.7c-0.1-0.2-0.1-0.5-0.2-0.7c-0.4,0.5-1,0.9-1.6,1.2
					c-0.6,0.3-1.4,0.5-2.2,0.5c-1.3,0-2.4-0.4-3.2-1.1c-0.8-0.7-1.2-1.7-1.2-3c0-1.3,0.5-2.3,1.5-3s2.5-1.1,4.5-1.1h1.9v-1.3
					c0-0.7-0.2-1.2-0.6-1.5s-0.9-0.5-1.7-0.5c-0.4,0-0.8,0-1.1,0.1c-0.3,0.1-0.6,0.2-0.8,0.3l-0.2,1.5h-2.8l0-3
					c0.7-0.5,1.5-0.8,2.3-1.2c0.9-0.3,1.8-0.5,2.9-0.5c1.7,0,3.1,0.4,4.1,1.3c1.1,0.8,1.6,2,1.6,3.6v5.7c0,0.2,0,0.4,0,0.6
					c0,0.2,0,0.4,0,0.5l1.1,0.2v2.2H-97.4z M-100.6,428.6c0.6,0,1.1-0.1,1.5-0.4c0.5-0.2,0.8-0.5,1.1-0.9v-2.1h-1.9
					c-0.8,0-1.4,0.2-1.8,0.6c-0.4,0.4-0.6,0.8-0.6,1.3c0,0.5,0.2,0.8,0.5,1.1C-101.6,428.5-101.2,428.6-100.6,428.6z"/>
				<path class="st1" d="M-92.3,413.5v-2.2h5.7v17.2l1.8,0.4v2.2h-7.3v-2.2l1.8-0.4v-14.6L-92.3,413.5z"/>
				<path class="st1" d="M-83.7,428.9l1.8-0.4V420l-2-0.4v-2.2h5.7v11.1l1.8,0.4v2.2h-7.3V428.9z M-78.2,414.1h-3.7v-2.8h3.7V414.1z
					"/>
				<path class="st1" d="M-69.7,414v3.4h2.4v2.6h-2.4v7c0,0.5,0.1,0.9,0.3,1.1s0.5,0.3,0.9,0.3c0.3,0,0.5,0,0.7,0
					c0.2,0,0.4-0.1,0.6-0.1l0.3,2.7c-0.4,0.1-0.8,0.2-1.2,0.3c-0.4,0.1-0.8,0.1-1.3,0.1c-1.3,0-2.3-0.4-3-1.1c-0.7-0.7-1-1.8-1-3.3
					v-7h-2v-2.6h2V414H-69.7z"/>
				<path class="st1" d="M-51.3,419.6l-1.3,0.2l-5.1,13.4c-0.4,1-0.9,1.8-1.6,2.5c-0.7,0.7-1.7,1-3,1c-0.3,0-0.6,0-0.9-0.1
					c-0.3-0.1-0.6-0.1-1-0.2l0.4-2.7c0.1,0,0.2,0,0.4,0.1s0.2,0,0.3,0c0.6,0,1.1-0.2,1.4-0.5c0.3-0.3,0.6-0.7,0.8-1.1l0.4-1
					l-4.4-11.3l-1.3-0.2v-2.2h6.7v2.2l-1.5,0.3l1.9,5.5l0.2,1l0.1,0l2.2-6.5l-1.5-0.3v-2.2h6.7V419.6z"/>
				<path class="st1" d="M-43.8,424.1c0-2,0.6-3.7,1.7-5c1.1-1.3,2.7-2,4.8-2c2,0,3.6,0.7,4.8,2c1.1,1.3,1.7,3,1.7,5v0.3
					c0,2.1-0.6,3.7-1.7,5c-1.1,1.3-2.7,1.9-4.7,1.9c-2,0-3.6-0.6-4.8-1.9c-1.1-1.3-1.7-3-1.7-5V424.1z M-40.1,424.4
					c0,1.3,0.2,2.3,0.7,3c0.4,0.8,1.2,1.1,2.1,1.1c1,0,1.7-0.4,2.1-1.1c0.4-0.8,0.7-1.8,0.7-3v-0.3c0-1.2-0.2-2.2-0.7-3
					s-1.2-1.2-2.1-1.2s-1.7,0.4-2.1,1.2s-0.7,1.8-0.7,3V424.4z"/>
				<path class="st1" d="M-29,428.9l1.8-0.4V420h-2v-2.6h2v-1.5c0-1.5,0.4-2.7,1.3-3.6c0.9-0.8,2.1-1.3,3.7-1.3c0.3,0,0.6,0,1,0.1
					c0.3,0,0.7,0.1,1.1,0.2l-0.3,2.8c-0.2,0-0.4-0.1-0.6-0.1c-0.2,0-0.4,0-0.7,0c-0.6,0-1.1,0.2-1.4,0.5c-0.3,0.3-0.5,0.8-0.5,1.4
					v1.5h2.7v2.6h-2.7v8.5l1.8,0.4v2.2H-29V428.9z"/>
				<path class="st1" d="M-13.3,428.9l1.8-0.4V420l-2-0.4v-2.2h5.4l0.2,2c0.5-0.7,1-1.2,1.7-1.6s1.4-0.6,2.2-0.6
					c1.4,0,2.5,0.4,3.3,1.3s1.2,2.2,1.2,4.1v6l1.8,0.4v2.2h-7.1v-2.2l1.6-0.4v-6c0-0.9-0.2-1.6-0.6-2c-0.4-0.4-0.9-0.6-1.7-0.6
					c-0.5,0-0.9,0.1-1.3,0.3c-0.4,0.2-0.7,0.5-1,0.8v7.4l1.5,0.4v2.2h-7V428.9z"/>
				<path class="st1" d="M3.2,424.1c0-2,0.6-3.7,1.7-5c1.1-1.3,2.7-2,4.8-2c2,0,3.6,0.7,4.8,2c1.1,1.3,1.7,3,1.7,5v0.3
					c0,2.1-0.6,3.7-1.7,5c-1.1,1.3-2.7,1.9-4.7,1.9c-2,0-3.6-0.6-4.8-1.9c-1.1-1.3-1.7-3-1.7-5V424.1z M6.9,424.4
					c0,1.3,0.2,2.3,0.7,3c0.4,0.8,1.2,1.1,2.1,1.1c1,0,1.7-0.4,2.1-1.1c0.4-0.8,0.7-1.8,0.7-3v-0.3c0-1.2-0.2-2.2-0.7-3
					s-1.2-1.2-2.1-1.2s-1.7,0.4-2.1,1.2s-0.7,1.8-0.7,3V424.4z"/>
				<path class="st1" d="M23.3,414v3.4h2.4v2.6h-2.4v7c0,0.5,0.1,0.9,0.3,1.1s0.5,0.3,0.9,0.3c0.3,0,0.5,0,0.7,0
					c0.2,0,0.4-0.1,0.6-0.1l0.3,2.7c-0.4,0.1-0.8,0.2-1.2,0.3c-0.4,0.1-0.8,0.1-1.3,0.1c-1.3,0-2.3-0.4-3-1.1c-0.7-0.7-1-1.8-1-3.3
					v-7h-2v-2.6h2V414H23.3z"/>
				<path class="st1" d="M47.2,424.6c0,2-0.5,3.7-1.4,4.9s-2.2,1.8-4,1.8c-0.8,0-1.5-0.2-2.1-0.5c-0.6-0.3-1.1-0.8-1.5-1.5l-0.3,1.7
					h-3.2v-17.2l-2-0.4v-2.2h5.7v7.5c0.4-0.5,0.9-1,1.4-1.3c0.6-0.3,1.2-0.4,1.9-0.4c1.7,0,3.1,0.7,4,2c0.9,1.3,1.4,3.1,1.4,5.3
					V424.6z M43.5,424.4c0-1.3-0.2-2.4-0.6-3.2c-0.4-0.8-1.1-1.2-2-1.2c-0.6,0-1.1,0.1-1.5,0.4c-0.4,0.2-0.7,0.6-0.9,1v5.8
					c0.2,0.4,0.5,0.7,0.9,1c0.4,0.2,0.9,0.3,1.5,0.3c1,0,1.6-0.3,2-1c0.4-0.7,0.6-1.6,0.6-2.9V424.4z"/>
				<path class="st1" d="M55.5,431.4c-2,0-3.6-0.6-4.7-1.9s-1.8-2.9-1.8-4.8v-0.5c0-2,0.6-3.7,1.7-5c1.1-1.3,2.6-2,4.5-2
					c1.9,0,3.3,0.6,4.3,1.7s1.5,2.6,1.5,4.5v2h-8.2l0,0.1c0.1,0.9,0.4,1.7,0.9,2.2c0.5,0.6,1.3,0.9,2.2,0.9c0.8,0,1.5-0.1,2-0.2
					c0.5-0.2,1.1-0.4,1.8-0.8l1,2.3c-0.6,0.4-1.3,0.8-2.2,1.1C57.6,431.2,56.6,431.4,55.5,431.4z M55.1,420c-0.7,0-1.2,0.3-1.6,0.8
					s-0.6,1.2-0.7,2.1l0,0.1h4.5v-0.3c0-0.8-0.2-1.4-0.6-1.9C56.4,420.2,55.9,420,55.1,420z"/>
				<path class="st1" d="M62.6,428.9l1.8-0.4V420l-2-0.4v-2.2h5.7v11.1l1.8,0.4v2.2h-7.3V428.9z M68.1,414.1h-3.7v-2.8h3.7V414.1z"
					/>
				<path class="st1" d="M70.9,428.9l1.8-0.4V420l-2-0.4v-2.2h5.4l0.2,2c0.5-0.7,1-1.2,1.7-1.6s1.4-0.6,2.2-0.6
					c1.4,0,2.5,0.4,3.3,1.3s1.2,2.2,1.2,4.1v6l1.8,0.4v2.2h-7.1v-2.2l1.6-0.4v-6c0-0.9-0.2-1.6-0.6-2c-0.4-0.4-0.9-0.6-1.7-0.6
					c-0.5,0-0.9,0.1-1.3,0.3c-0.4,0.2-0.7,0.5-1,0.8v7.4l1.5,0.4v2.2h-7V428.9z"/>
				<path class="st1" d="M87.7,424.4c0-2.2,0.5-3.9,1.4-5.2c0.9-1.3,2.3-2,4-2c0.8,0,1.4,0.2,2,0.5c0.6,0.3,1.1,0.8,1.5,1.5l0.3-1.7
					h3.2v13.3c0,1.8-0.6,3.3-1.7,4.3c-1.1,1.1-2.7,1.6-4.7,1.6c-0.7,0-1.4-0.1-2.2-0.3c-0.8-0.2-1.5-0.5-2.2-0.8L90,433
					c0.6,0.3,1.2,0.5,1.8,0.6c0.6,0.1,1.2,0.2,1.9,0.2c0.9,0,1.6-0.3,2-0.8s0.7-1.3,0.7-2.3v-0.9c-0.4,0.5-0.9,0.9-1.4,1.2
					s-1.2,0.4-1.9,0.4c-1.7,0-3-0.6-3.9-1.9c-0.9-1.2-1.4-2.9-1.4-4.9V424.4z M91.4,424.6c0,1.2,0.2,2.1,0.6,2.8c0.4,0.7,1.1,1,2,1
					c0.6,0,1-0.1,1.4-0.3c0.4-0.2,0.7-0.5,0.9-0.9v-6c-0.2-0.4-0.6-0.7-0.9-1c-0.4-0.2-0.9-0.3-1.4-0.3c-0.9,0-1.6,0.4-2,1.2
					c-0.4,0.8-0.6,1.9-0.6,3.1V424.6z"/>
				<path class="st1" d="M119.9,422.1h-2.5l-0.4-1.7c-0.3-0.2-0.6-0.4-1-0.5c-0.4-0.1-0.8-0.2-1.3-0.2c-0.7,0-1.2,0.1-1.5,0.4
					c-0.4,0.3-0.6,0.7-0.6,1.1c0,0.4,0.2,0.8,0.5,1c0.4,0.3,1.1,0.5,2.2,0.7c1.7,0.3,3,0.8,3.8,1.5c0.8,0.7,1.2,1.6,1.2,2.7
					c0,1.2-0.5,2.2-1.6,3c-1.1,0.8-2.5,1.2-4.2,1.2c-1.1,0-2-0.2-2.9-0.5c-0.9-0.3-1.7-0.8-2.4-1.3l0-3.1h2.6l0.5,1.8
					c0.2,0.2,0.5,0.3,0.9,0.4c0.4,0.1,0.8,0.1,1.2,0.1c0.8,0,1.3-0.1,1.7-0.4c0.4-0.3,0.6-0.6,0.6-1.1c0-0.4-0.2-0.8-0.6-1.1
					s-1.1-0.6-2.2-0.8c-1.6-0.3-2.8-0.8-3.7-1.5c-0.8-0.6-1.2-1.5-1.2-2.6c0-1.2,0.5-2.1,1.4-3c0.9-0.8,2.3-1.3,4-1.3
					c1.1,0,2.1,0.1,3,0.4c1,0.3,1.7,0.7,2.2,1.1L119.9,422.1z"/>
				<path class="st1" d="M127.6,414v3.4h2.4v2.6h-2.4v7c0,0.5,0.1,0.9,0.3,1.1s0.5,0.3,0.9,0.3c0.3,0,0.5,0,0.7,0
					c0.2,0,0.4-0.1,0.6-0.1l0.3,2.7c-0.4,0.1-0.8,0.2-1.2,0.3c-0.4,0.1-0.8,0.1-1.3,0.1c-1.3,0-2.3-0.4-3-1.1c-0.7-0.7-1-1.8-1-3.3
					v-7h-2v-2.6h2V414H127.6z"/>
				<path class="st1" d="M140.5,431.1c-0.1-0.2-0.2-0.5-0.3-0.7c-0.1-0.2-0.1-0.5-0.2-0.7c-0.4,0.5-1,0.9-1.6,1.2
					c-0.6,0.3-1.4,0.5-2.2,0.5c-1.3,0-2.4-0.4-3.2-1.1c-0.8-0.7-1.2-1.7-1.2-3c0-1.3,0.5-2.3,1.5-3s2.5-1.1,4.5-1.1h1.9v-1.3
					c0-0.7-0.2-1.2-0.6-1.5s-0.9-0.5-1.7-0.5c-0.4,0-0.8,0-1.1,0.1c-0.3,0.1-0.6,0.2-0.8,0.3l-0.2,1.5h-2.8l0-3
					c0.7-0.5,1.5-0.8,2.3-1.2c0.9-0.3,1.8-0.5,2.9-0.5c1.7,0,3.1,0.4,4.1,1.3c1.1,0.8,1.6,2,1.6,3.6v5.7c0,0.2,0,0.4,0,0.6
					c0,0.2,0,0.4,0,0.5l1.1,0.2v2.2H140.5z M137.3,428.6c0.6,0,1.1-0.1,1.5-0.4c0.5-0.2,0.8-0.5,1.1-0.9v-2.1H138
					c-0.8,0-1.4,0.2-1.8,0.6c-0.4,0.4-0.6,0.8-0.6,1.3c0,0.5,0.2,0.8,0.5,1.1C136.4,428.5,136.8,428.6,137.3,428.6z"/>
				<path class="st1" d="M145.7,413.5v-2.2h5.7v17.2l1.8,0.4v2.2h-7.3v-2.2l1.8-0.4v-14.6L145.7,413.5z"/>
				<path class="st1" d="M160.9,431.4c-2,0-3.6-0.6-4.7-1.9s-1.8-2.9-1.8-4.8v-0.5c0-2,0.6-3.7,1.7-5c1.1-1.3,2.6-2,4.5-2
					c1.9,0,3.3,0.6,4.3,1.7s1.5,2.6,1.5,4.5v2h-8.2l0,0.1c0.1,0.9,0.4,1.7,0.9,2.2c0.5,0.6,1.3,0.9,2.2,0.9c0.8,0,1.5-0.1,2-0.2
					c0.5-0.2,1.1-0.4,1.8-0.8l1,2.3c-0.6,0.4-1.3,0.8-2.2,1.1C163.1,431.2,162,431.4,160.9,431.4z M160.6,420
					c-0.7,0-1.2,0.3-1.6,0.8s-0.6,1.2-0.7,2.1l0,0.1h4.5v-0.3c0-0.8-0.2-1.4-0.6-1.9C161.9,420.2,161.4,420,160.6,420z"/>
				<path class="st1" d="M174.6,424.1c0-2,0.6-3.7,1.7-5c1.1-1.3,2.7-2,4.8-2c2,0,3.6,0.7,4.8,2c1.1,1.3,1.7,3,1.7,5v0.3
					c0,2.1-0.6,3.7-1.7,5c-1.1,1.3-2.7,1.9-4.7,1.9c-2,0-3.6-0.6-4.8-1.9c-1.1-1.3-1.7-3-1.7-5V424.1z M178.3,424.4
					c0,1.3,0.2,2.3,0.7,3c0.4,0.8,1.2,1.1,2.1,1.1c1,0,1.7-0.4,2.1-1.1c0.4-0.8,0.7-1.8,0.7-3v-0.3c0-1.2-0.2-2.2-0.7-3
					s-1.2-1.2-2.1-1.2s-1.7,0.4-2.1,1.2s-0.7,1.8-0.7,3V424.4z"/>
				<path class="st1" d="M189.4,428.9l1.8-0.4V420l-2-0.4v-2.2h5.4l0.2,2c0.3-0.7,0.7-1.3,1.2-1.7s1.1-0.6,1.8-0.6
					c0.2,0,0.4,0,0.6,0c0.2,0,0.4,0.1,0.5,0.1l-0.4,3.4l-1.5,0c-0.5,0-1,0.1-1.3,0.3s-0.6,0.5-0.8,0.9v6.7l1.8,0.4v2.2h-7.3V428.9z"
					/>
				<path class="st1" d="M-175.5,453.3h-2.5l-0.4-1.7c-0.3-0.2-0.6-0.4-1-0.5c-0.4-0.1-0.8-0.2-1.3-0.2c-0.7,0-1.2,0.1-1.5,0.4
					c-0.4,0.3-0.6,0.7-0.6,1.1c0,0.4,0.2,0.8,0.5,1c0.4,0.3,1.1,0.5,2.2,0.7c1.7,0.3,3,0.8,3.8,1.5c0.8,0.7,1.2,1.6,1.2,2.7
					c0,1.2-0.5,2.2-1.6,3c-1.1,0.8-2.5,1.2-4.2,1.2c-1.1,0-2-0.2-2.9-0.5c-0.9-0.3-1.7-0.8-2.4-1.3l0-3.1h2.6l0.5,1.8
					c0.2,0.2,0.5,0.3,0.9,0.4c0.4,0.1,0.8,0.1,1.2,0.1c0.8,0,1.3-0.1,1.7-0.4c0.4-0.3,0.6-0.6,0.6-1.1c0-0.4-0.2-0.8-0.6-1.1
					s-1.1-0.6-2.2-0.8c-1.6-0.3-2.8-0.8-3.7-1.5c-0.8-0.6-1.2-1.5-1.2-2.6c0-1.2,0.5-2.1,1.4-3c0.9-0.8,2.3-1.3,4-1.3
					c1.1,0,2.1,0.1,3,0.4c1,0.3,1.7,0.7,2.2,1.1L-175.5,453.3z"/>
				<path class="st1" d="M-173.6,450.8v-2.2h5.4l0.2,1.6c0.4-0.6,0.9-1,1.5-1.4s1.2-0.5,2-0.5c1.7,0,3,0.7,4,2s1.4,3.1,1.4,5.2v0.3
					c0,2-0.5,3.7-1.4,4.9s-2.3,1.9-3.9,1.9c-0.7,0-1.4-0.1-1.9-0.4c-0.6-0.3-1-0.7-1.4-1.2v4l1.8,0.4v2.2h-7.3v-2.2l1.8-0.4v-13.8
					L-173.6,450.8z M-163,455.6c0-1.3-0.2-2.3-0.6-3.1s-1.1-1.2-2-1.2c-0.6,0-1,0.1-1.4,0.3c-0.4,0.2-0.7,0.6-0.9,1v6
					c0.2,0.4,0.5,0.7,0.9,0.9c0.4,0.2,0.9,0.3,1.5,0.3c0.9,0,1.6-0.4,2-1.1c0.4-0.7,0.6-1.7,0.6-2.9V455.6z"/>
				<path class="st1" d="M-157.6,455.3c0-2,0.6-3.7,1.7-5c1.1-1.3,2.7-2,4.8-2c2,0,3.6,0.7,4.8,2c1.1,1.3,1.7,3,1.7,5v0.3
					c0,2.1-0.6,3.7-1.7,5c-1.1,1.3-2.7,1.9-4.7,1.9c-2,0-3.6-0.6-4.8-1.9c-1.1-1.3-1.7-3-1.7-5V455.3z M-153.9,455.6
					c0,1.3,0.2,2.3,0.7,3c0.4,0.8,1.2,1.1,2.1,1.1c1,0,1.7-0.4,2.1-1.1c0.4-0.8,0.7-1.8,0.7-3v-0.3c0-1.2-0.2-2.2-0.7-3
					s-1.2-1.2-2.1-1.2s-1.7,0.4-2.1,1.2s-0.7,1.8-0.7,3V455.6z"/>
				<path class="st1" d="M-143.2,460.1l1.8-0.4v-8.5l-2-0.4v-2.2h5.7v11.1l1.8,0.4v2.2h-7.3V460.1z M-137.7,445.3h-3.7v-2.8h3.7
					V445.3z"/>
				<path class="st1" d="M-135.1,444.7v-2.2h5.7v17.2l1.8,0.4v2.2h-7.3v-2.2l1.8-0.4v-14.6L-135.1,444.7z"/>
				<path class="st1" d="M-119.8,462.6c-2,0-3.6-0.6-4.7-1.9s-1.8-2.9-1.8-4.8v-0.5c0-2,0.6-3.7,1.7-5c1.1-1.3,2.6-2,4.5-2
					c1.9,0,3.3,0.6,4.3,1.7s1.5,2.6,1.5,4.5v2h-8.2l0,0.1c0.1,0.9,0.4,1.7,0.9,2.2c0.5,0.6,1.3,0.9,2.2,0.9c0.8,0,1.5-0.1,2-0.2
					c0.5-0.2,1.1-0.4,1.8-0.8l1,2.3c-0.6,0.4-1.3,0.8-2.2,1.1C-117.7,462.4-118.7,462.6-119.8,462.6z M-120.1,451.2
					c-0.7,0-1.2,0.3-1.6,0.8s-0.6,1.2-0.7,2.1l0,0.1h4.5v-0.3c0-0.8-0.2-1.4-0.6-1.9C-118.8,451.4-119.4,451.2-120.1,451.2z"/>
				<path class="st1" d="M-103.6,460.6c-0.4,0.6-0.9,1.1-1.5,1.4c-0.6,0.3-1.3,0.5-2,0.5c-1.7,0-3-0.6-3.9-1.9
					c-0.9-1.2-1.4-2.9-1.4-4.9v-0.3c0-2.2,0.5-3.9,1.4-5.2s2.3-2,4-2c0.7,0,1.3,0.2,1.9,0.5c0.5,0.3,1,0.7,1.4,1.3v-4.9l-2-0.4v-2.2
					h2h3.7v17.2l1.8,0.4v2.2h-5L-103.6,460.6z M-108.8,455.8c0,1.2,0.2,2.1,0.6,2.8c0.4,0.7,1.1,1,2,1c0.5,0,1-0.1,1.4-0.3
					s0.7-0.5,1-1v-5.8c-0.3-0.4-0.6-0.8-1-1c-0.4-0.2-0.9-0.4-1.4-0.4c-0.9,0-1.6,0.4-2,1.2s-0.6,1.9-0.6,3.1V455.8z"/>
			</g>
		</g>
	</g>
</g>
<rect x="1331.9" y="334" style="fill:none;" width="540" height="150"/>
<text transform="matrix(1 0 0 1 1331.9375 355.3281)"><tspan x="0" y="0" class="st0" style="font-family:'RobotoSlab-Bold'; font-size:28px;">1.</tspan><tspan x="19.5" y="0" class="st1" style="font-family:'RobotoSlab-Bold'; font-size:28px;"> the degree of excellence of something</tspan><tspan x="0" y="44" class="st0" style="font-family:'RobotoSlab-Bold'; font-size:28px;">2.</tspan><tspan x="22.6" y="44" class="st1" style="font-family:'RobotoSlab-Bold'; font-size:28px;"> a distinctive attribute or characteris</tspan><tspan x="508.6" y="44" class="st1" style="font-family:'RobotoSlab-Bold'; font-size:28px;">-</tspan><tspan x="24" y="77" class="st1" style="font-family:'RobotoSlab-Bold'; font-size:28px;">tic possessed by something</tspan></text>
<rect x="1933.4" y="334" style="fill:none;" width="540" height="100.1"/>
<text transform="matrix(1 0 0 1 1933.4253 355.3281)"><tspan x="0" y="0" class="st0" style="font-family:'RobotoSlab-Bold'; font-size:28px;">1.</tspan><tspan x="19.5" y="0" class="st1" style="font-family:'RobotoSlab-Bold'; font-size:28px;"> a new method, idea, product, etc.</tspan><tspan x="0" y="44" class="st0" style="font-family:'RobotoSlab-Bold'; font-size:28px;">2.</tspan><tspan x="22.6" y="44" class="st1" style="font-family:'RobotoSlab-Bold'; font-size:28px;"> introduction of new things or meth</tspan><tspan x="493.6" y="44" class="st1" style="font-family:'RobotoSlab-Bold'; font-size:28px;">-</tspan></text>
<rect x="2751.1" y="334" style="fill:none;" width="540" height="150"/>
<text transform="matrix(1 0 0 1 2751.062 355.3281)"><tspan x="0" y="0" class="st0" style="font-family:'RobotoSlab-Bold'; font-size:28px;">1.</tspan><tspan x="19.5" y="0" class="st1" style="font-family:'RobotoSlab-Bold'; font-size:28px;"> the importance, worth, or usefulness </tspan><tspan x="24" y="33.6" class="st1" style="font-family:'RobotoSlab-Bold'; font-size:28px;">of something</tspan><tspan x="0" y="77.6" class="st0" style="font-family:'RobotoSlab-Bold'; font-size:28px;">2.</tspan><tspan x="22.6" y="77.6" class="st1" style="font-family:'RobotoSlab-Bold'; font-size:28px;"> one’s judgement of what is important </tspan><tspan x="24" y="110.6" class="st1" style="font-family:'RobotoSlab-Bold'; font-size:28px;">in life</tspan></text>
<line class="st2" x1="3059" y1="190" x2="3119" y2="190"/>
</svg>
