<?xml version="1.0" encoding="utf-8"?>
<!-- Generator: Adobe Illustrator 19.1.1, SVG Export Plug-In . SVG Version: 6.00 Build 0)  -->
<svg version="1.1" id="Layer_1" xmlns="http://www.w3.org/2000/svg" xmlns:xlink="http://www.w3.org/1999/xlink" x="0px" y="0px"
	 viewBox="0 0 383.8 104.7" style="enable-background:new 0 0 383.8 104.7;" xml:space="preserve">
<style type="text/css">
	.st0{fill:#FBC329;}
	.st1{clip-path:url(#SVGID_2_);}
	.st2{fill:#232021;}
</style>
<g>
	<path class="st0" d="M198.9,93.9c64.4,0,126,2.6,182.8,7.3V2.8c-57.9,4.9-120.9,7.6-186.9,7.6c-68.2,0-133.3-2.9-192.8-8.2v100.2
		C62.7,97,129.2,93.9,198.9,93.9L198.9,93.9z"/>
	<g>
		<defs>
			<rect id="SVGID_1_" width="383.8" height="104.7"/>
		</defs>
		<clipPath id="SVGID_2_">
			<use xlink:href="#SVGID_1_"  style="overflow:visible;"/>
		</clipPath>
		<g class="st1">
			<path class="st2" d="M0,104.7V0l2.3,0.2c61.3,5.4,126,8.1,192.6,8.1c64.4,0,127.2-2.6,186.7-7.6l2.3-0.2v103l-2.3-0.2
				C323.3,98.5,261.8,96,198.9,96c-68.1,0-134.3,2.9-196.7,8.5L0,104.7z M4.2,4.6v95.6c61.8-5.5,127.4-8.3,194.8-8.3
				c62.2,0,123,2.4,180.7,7.1V5.1c-58.9,4.9-121.1,7.5-184.8,7.5C129,12.5,64.9,9.8,4.2,4.6z"/>
		</g>
	</g>
	<path class="st2" d="M50.6,58.7v-2.1h5V55h-8.6L47,54.1c0-1.1-0.1-2.1-0.2-2.8h14.8c0,0.6,0,1,0,1l-0.2,5.1c0,1.3-0.1,2.5-0.1,3.8
		c0,3.1,0.1,5.9,0.2,8.4h-11v-2.1h5V66h-5v-2.1h5v-1.6h-5v-2.1h5v-1.6H50.6L50.6,58.7z M39.3,29.5v44.4c-3.3-0.7-6.3-2.8-9-6.3h2.1
		V66h-3.1L29,65.8c-0.4-0.6-0.7-1.2-0.9-1.6L28,63.9h4.3v-1.6h-4.9c-0.3-0.7-0.5-1.4-0.7-2.1h5.7v-1.6h-6.1
		c-0.1-0.5-0.3-1.2-0.4-1.9l0-0.2h6.5V55h-6.8c-0.1-0.6-0.1-1.3-0.1-2.1h6.9v-1.6h-6.9c0-0.7,0.1-1.3,0.1-1.9l0-0.2h6.8v-1.6h-6.5
		c0.1-0.8,0.3-1.4,0.4-1.8l0.1-0.3h6.1V44h-5.6c0.1-0.3,0.3-1,0.7-1.9l0.1-0.2h4.9v-1.6h-4.2c0.3-0.7,0.7-1.4,1.1-2.1h3.1v-1.6h-2
		c0.5-0.6,1.1-1.4,2-2.2V33h-4.5c4.6-5.3,10.1-7.9,16.6-7.9c1.9,0,3.8,0.3,5.8,0.8c1.9,0.5,3.8,1.3,5.6,2.2c1.8,1,3.4,2.2,4.8,3.5
		l-2,5.7c-1.9-2.8-4.2-4.9-6.8-6.3c-2.6-1.4-5.3-2.1-8.3-2.1C42.1,28.9,40.7,29.1,39.3,29.5L39.3,29.5z M49.4,71.3h12.3
		c0,1,0.1,2.2,0.3,3.7c-0.2,0-0.5,0-0.7,0c-1.3,0-2.9,0.4-5,1.2l-2.8,1.1c-3.3,1.3-6.5,1.9-9.7,1.9c-2.3,0-4.4-0.3-6.1-0.8
		c-1.8-0.6-3.6-1.5-5.3-2.7c-1.6-1.2-3.1-2.7-4.4-4.4c-1.3-1.7-2.5-3.6-3.4-5.6c-1-2.1-1.7-4.2-2.2-6.5c-0.5-2.3-0.8-4.6-0.8-6.9
		c0-3.1,0.4-6.2,1.3-9.2c0.9-3,2.1-5.8,3.9-8.4h3.9c-2,2.3-3.6,5-4.7,8c-1.1,3.1-1.6,6.3-1.6,9.7c0,4.1,0.9,8,2.6,11.8
		c1.7,3.8,4.1,6.7,7,8.9c2.6,1.9,5.7,2.9,9.3,2.9c1.2,0,2.5-0.2,3.8-0.5c0.3-3.9,0.4-8.1,0.4-12.6c0-1.9,0-3.9-0.1-6h2.3V71.3
		L49.4,71.3z"/>
	<path class="st2" d="M73.9,69.5h1.7v-1.3H73L72.9,68c-0.3-0.5-0.6-1-0.7-1.3l-0.1-0.2h3.5v-1.3h-4c-0.2-0.6-0.4-1.2-0.6-1.7h4.6
		v-1.3h-5c-0.1-0.4-0.2-0.9-0.3-1.5l0-0.2h5.3v-1.3H70c-0.1-0.5-0.1-1.1-0.1-1.7h5.6v-1.3h-5.6c0-0.6,0.1-1.1,0.1-1.6l0-0.2h5.5
		v-1.3h-5.3c0.1-0.6,0.2-1.1,0.3-1.5l0-0.2h5v-1.3H71c0.1-0.3,0.3-0.8,0.5-1.5l0.1-0.2h4v-1.3h-3.4c0.3-0.6,0.6-1.1,0.9-1.7h2.5
		v-1.3H74c0.4-0.5,0.9-1.1,1.6-1.8v-1.2h-3.7c3.7-4.3,8-6.4,12.9-6.4c2.6,0,5,0.5,7.2,1.6c2.2,1.1,4.2,2.7,5.9,4.7
		c1.7,2,3,4.4,3.9,7.1c0.9,2.7,1.4,5.6,1.4,8.7c0,5.4-1.4,10.1-4.2,14.3h-7.4v-1.7h3c0.1-0.3,0.3-0.7,0.5-1.3h-3.5v-1.7h4.1
		c0.1-0.2,0.1-0.4,0.2-0.6c0-0.2,0.1-0.3,0.1-0.5l0.1-0.2h-4.4v-1.7h4.7c0-0.1,0-0.3,0.1-0.5c0-0.2,0.1-0.4,0.1-0.6l0-0.2h-4.9v-1.7
		h5.1v-0.2c0-0.5,0.1-0.9,0.1-1.1h-5.2v-1.7h5.2v-0.9v-0.3h-5.2v-1.7h5.2c0-0.1,0-0.3,0-0.4c0-0.1,0-0.3-0.1-0.6l0-0.3h-5.1v-1.7
		h4.9l0-0.2c0-0.1,0-0.4-0.1-0.8l0-0.3h-4.7v-1.7h4.5c0-0.2,0-0.2,0-0.2l-0.2-0.9c0,0,0-0.1,0-0.2h-4.1v-1.7h3.6
		c-0.1-0.4-0.3-0.8-0.5-1.3h-3.1v-1.7h2.1c-0.4-0.6-0.7-1-1-1.3h-1.2V40c-0.9-0.8-2.1-1.5-3.3-1.9c-1.3-0.4-2.6-0.7-3.9-0.7
		c-1,0-2,0.2-3.1,0.5v36.7C78.6,74.1,76.1,72.4,73.9,69.5L73.9,69.5z M90.6,72.5h7.3c-1.2,1.5-2.4,2.7-3.7,3.6
		c-1.3,1-2.8,1.7-4.4,2.2c-1.6,0.5-3.2,0.7-4.9,0.7c-2.4,0-4.7-0.5-6.8-1.5c-2.1-1-4-2.5-5.7-4.4c-1.8-2.1-3.2-4.6-4.2-7.5
		c-1-2.9-1.5-5.8-1.5-8.7c0-2.6,0.4-5.1,1.1-7.5c0.7-2.4,1.8-4.7,3.2-6.9H74c-1.7,1.9-2.9,4.1-3.8,6.6c-0.9,2.5-1.3,5.2-1.3,7.9
		c0,1.7,0.2,3.5,0.6,5.2c0.4,1.7,1,3.4,1.8,4.9c0.8,1.5,1.7,2.9,2.8,4.2c2.9,3.3,6.4,5,10.7,5c1.3,0,2.6-0.2,4-0.5V39.6
		c0.7,0.2,1.4,0.6,2,1.2V72.5L90.6,72.5z"/>
	<path class="st2" d="M113.9,69.5h1.7v-1.3h-2.6l-0.1-0.2c-0.3-0.5-0.6-1-0.7-1.3l-0.1-0.2h3.5v-1.3h-4c-0.2-0.6-0.4-1.2-0.6-1.7
		h4.6v-1.3h-5c-0.1-0.4-0.2-0.9-0.3-1.5l0-0.2h5.3v-1.3h-5.5c-0.1-0.5-0.1-1.1-0.1-1.7h5.6v-1.3H110c0-0.6,0.1-1.1,0.1-1.6l0-0.2
		h5.5v-1.3h-5.3c0.1-0.6,0.2-1.1,0.3-1.5l0-0.2h5v-1.3H111c0.1-0.3,0.3-0.8,0.5-1.5l0.1-0.2h4v-1.3h-3.4c0.3-0.6,0.6-1.1,0.9-1.7
		h2.5v-1.3H114c0.4-0.5,0.9-1.1,1.6-1.8v-1.2h-3.7c3.7-4.3,8-6.4,12.9-6.4c2.6,0,5,0.5,7.2,1.6c2.2,1.1,4.2,2.7,5.9,4.7
		c1.7,2,3,4.4,3.9,7.1c0.9,2.7,1.4,5.6,1.4,8.7c0,5.4-1.4,10.1-4.2,14.3h-7.4v-1.7h3c0.1-0.3,0.3-0.7,0.5-1.3h-3.5v-1.7h4.1
		c0.1-0.2,0.1-0.4,0.2-0.6c0-0.2,0.1-0.3,0.1-0.5l0-0.2h-4.4v-1.7h4.7c0-0.1,0-0.3,0.1-0.5c0-0.2,0.1-0.4,0.1-0.6l0-0.2h-4.9v-1.7
		h5.1v-0.2c0.1-0.5,0.1-0.9,0.1-1.1h-5.2v-1.7h5.2v-0.9v-0.3h-5.2v-1.7h5.2c0-0.1,0-0.3,0-0.4c0-0.1,0-0.3-0.1-0.6l0-0.3h-5.1v-1.7
		h4.9l0-0.2c0-0.1,0-0.4-0.1-0.8l0-0.3h-4.7v-1.7h4.5c0-0.2,0-0.2,0-0.2l-0.2-0.9c0,0,0-0.1,0-0.2h-4.1v-1.7h3.6
		c-0.1-0.4-0.3-0.8-0.5-1.3h-3.1v-1.7h2.1c-0.4-0.6-0.7-1-0.9-1.3h-1.2V40c-0.9-0.8-2.1-1.5-3.3-1.9c-1.3-0.4-2.6-0.7-3.9-0.7
		c-1,0-2,0.2-3.1,0.5v36.7C118.7,74.1,116.2,72.4,113.9,69.5L113.9,69.5z M130.7,72.5h7.3c-1.2,1.5-2.4,2.7-3.7,3.6
		c-1.3,1-2.8,1.7-4.4,2.2c-1.6,0.5-3.2,0.7-4.9,0.7c-2.4,0-4.7-0.5-6.8-1.5c-2.1-1-4-2.5-5.7-4.4c-1.8-2.1-3.2-4.6-4.2-7.5
		c-1-2.9-1.5-5.8-1.5-8.7c0-2.6,0.4-5.1,1.1-7.5c0.7-2.4,1.8-4.7,3.2-6.9h3.2c-1.7,1.9-2.9,4.1-3.8,6.6c-0.9,2.5-1.3,5.2-1.3,7.9
		c0,1.7,0.2,3.5,0.6,5.2c0.4,1.7,1,3.4,1.8,4.9c0.8,1.5,1.7,2.9,2.7,4.2c2.9,3.3,6.4,5,10.7,5c1.3,0,2.6-0.2,4-0.5V39.6
		c0.7,0.2,1.4,0.6,2,1.2V72.5L130.7,72.5z"/>
	<path class="st2" d="M147.6,78.1l0-0.7c0.2-2.4,0.3-5.5,0.5-9.3c0.1-3.7,0.2-7.7,0.2-11.8c0-5.1-0.1-10.4-0.4-15.9l-0.1-0.9h2.2v36
		h14.5c1.2,0,2-0.1,2.4-0.2V39.7c0.7,0.1,1.4,0.4,2,0.8v32h7.8c-1.2,1.5-2.4,2.7-3.5,3.5c-1.1,0.8-2.3,1.3-3.6,1.6
		c-1.3,0.3-3,0.5-5,0.5H147.6L147.6,78.1z M147.6,35.6H164c2.8,0,4.8,0.2,6.1,0.6c1.7,0.5,3.2,1.4,4.6,2.6c1.4,1.3,2.7,2.8,3.7,4.7
		c1,1.9,1.9,3.9,2.4,6.1c0.6,2.2,0.8,4.6,0.8,7.1c0,2.8-0.3,5.3-0.9,7.5c-0.6,2.3-1.6,4.6-3,6.9H170v-1.7h3.5
		c0.1-0.2,0.1-0.3,0.2-0.5c0-0.1,0.1-0.3,0.1-0.4l0.1-0.2c0,0,0-0.1,0.1-0.2h-4v-1.7h4.5c0.1-0.5,0.2-1,0.3-1.3H170v-1.7h5
		c0-0.1,0-0.3,0.1-0.4c0-0.2,0.1-0.4,0.1-0.6l0-0.2H170v-1.7h5.4l0-0.2c0-0.3,0-0.5,0-0.6c0-0.2,0-0.3,0-0.5H170v-1.7h5.5v-0.3v-0.9
		H170v-1.7h5.4l0-0.2c0-0.6-0.1-0.9-0.1-1.1H170v-1.7h5.2l0-0.2c-0.1-0.6-0.1-0.9-0.1-1.1h-5v-1.7h4.7c0-0.2-0.1-0.6-0.2-1.1
		c0,0,0-0.1,0-0.2H170v-1.7h4c-0.2-0.5-0.3-0.9-0.5-1.3H170v-1.7h2.6c-0.4-0.6-0.8-1-1-1.3H170v-1.4c-0.9-0.6-1.9-1.1-2.8-1.3
		c-0.9-0.2-2.4-0.3-4.5-0.3h-1.7v36H151v-1.7h4.3v-1.3H151v-1.7h4.3v-1.3H151v-1.7h4.3v-1.3H151v-1.7h4.3v-1.3H151v-1.7h4.3v-1.3
		H151v-1.7h4.3v-1.3H151v-1.7h4.3v-1.3H151v-1.7h4.3v-1.3H151v-1.7h4.3v-1.3H151v-1.7h4.3v-1.3H151v-1.7h4.3v-1.3H151v-1.7h4.3v-1.3
		h-7.6c0-0.4,0-0.9-0.1-1.8C147.6,36.2,147.6,35.9,147.6,35.6L147.6,35.6z"/>
	<path class="st2" d="M210.3,31.5c0.7-0.1,1.6-0.2,2.7-0.3v43.7h13.7c0,0.6,0.1,1.6,0.1,3.2h-16.8l0.1-0.8c0.2-2.8,0.4-6.6,0.5-11.6
		c0-1.2,0.1-2.3,0.1-3.5c0-1.2,0.1-2.3,0.1-3.5c0-1.7,0.1-3.2,0.1-4.7l-0.1-12.1C210.7,36.8,210.5,33.3,210.3,31.5L210.3,31.5z
		 M226.6,30v0.3c-0.4,7.5-0.5,14.9-0.5,22.1c0,7.2,0.2,13.8,0.5,19.5l0.1,1.4h-12.3v-2.1h5.3v-1.6h-5.3v-2.1h5.3V66h-5.3v-2.1h5.3
		v-1.6h-5.3v-2.1h5.3v-1.6h-5.3v-2.1h5.3V55h-5.3v-2.1h5.3v-1.6h-5.3v-2.1h5.3v-1.6h-5.3v-2.1h5.3V44h-5.3v-2.1h5.3v-1.6h-5.3v-2.1
		h5.3v-1.6h-5.3v-2.1h5.3V33h-5.2v-1.8l0.5,0c1.8-0.2,3.2-0.2,4.2-0.2h0.5v-1.6c-3.4,0.1-6.8,0.3-10.1,0.9
		c-3.4,0.5-6.8,1.3-10.3,2.3l-0.8,0.2l1.1-6.5h38l1.1,6.5c-3.2-1.1-7.1-2-11.7-2.6L226.6,30L226.6,30z"/>
	<path class="st2" d="M241.2,78.1l0-0.7c0.2-2.4,0.3-5.5,0.4-9.3c0.1-3.7,0.2-7.7,0.2-11.8c0-5.1-0.1-10.4-0.4-15.9l0-0.9h2.2v36
		h11.2c0,0.9,0.1,1.7,0.1,2.6H241.2L241.2,78.1z M248.9,39.5v-1.3h-7.6c0-0.4,0-0.9-0.1-1.8c0-0.2,0-0.5,0-0.8h13.8l-0.1,0.8
		c-0.4,5.7-0.6,12.7-0.6,20.8c0,5.4,0.1,10.7,0.4,15.8l0.1,1.1h-10.1v-1.7h4.3v-1.3h-4.3v-1.7h4.3v-1.3h-4.3v-1.7h4.3v-1.3h-4.3
		v-1.7h4.3v-1.3h-4.3v-1.7h4.3v-1.3h-4.3v-1.7h4.3v-1.3h-4.3v-1.7h4.3v-1.3h-4.3v-1.7h4.3v-1.3h-4.3v-1.7h4.3v-1.3h-4.3v-1.7h4.3
		v-1.3h-4.3v-1.7h4.3v-1.3h-4.3v-1.7H248.9L248.9,39.5z"/>
	<path class="st2" d="M291.6,71.2h-4.3l-0.3-1.7h4.3l-0.2-1.3h-4.3l-0.3-1.7h4.3l-0.2-1.3h-4.3l-0.3-1.7h4.3l-0.2-1.3h-4.3l-0.3-1.7
		h4.3l-0.2-1.3h-4.3l-0.3-1.7h4.3l-0.2-1.3h-4.3l-0.3-1.7h4.3l-0.2-1.3h-4.3l-0.3-1.7h4.3l-1.9-12l0.3-0.8c0.6-1.4,1-2.4,1.2-3h3.8
		l0.1,1.1c0.7,5.3,1.3,9.6,1.8,12.9c1.2,7.9,2.7,15.7,4.3,23.4l0.2,1.2h-10.5l-0.3-1.7h4.3L291.6,71.2L291.6,71.2z M274.4,58
		l-0.6-1.2l-2.5,5l-0.8-1.5l2.6-5.1l-0.6-1.2l-2.6,5.1l-0.8-1.6l2.6-5l-0.6-1.2l-2.6,5l-0.8-1.5l2.6-5.1l-0.6-1.2l-2.6,5.1l-0.8-1.5
		l2.6-5.1l-4.4-8.2l0.1-0.7l0.2-1.8l0.1-0.8h4l0.4,0.7c1.2,2.6,2.8,5.5,4.6,8.9l2.1,3.9c1.1,2.1,2.1,3.8,3,5.2
		c0.1,0.1,0.2,0.3,0.4,0.7c0.6-1,1.1-2.1,1.7-3.4c0.4-0.7,0.9-1.8,1.6-3.3c0.2-0.3,0.4-0.8,0.6-1.3c0.3-0.5,0.4-0.9,0.5-1.1l1.7-3.8
		c0,0,0.1-0.3,0.4-0.9l1.5,9.1H283l4,25.3h11.5l0.1,0.5c0.2,0.8,0.3,1.3,0.4,1.6l0.1,0.5H285c0-0.9-0.2-2.2-0.3-3.7
		c0-0.5-0.1-1-0.2-1.5c-0.1-0.6-0.2-1.3-0.3-2.2c-0.5-3.9-0.8-6.7-1-8.4c-0.3-2.2-0.6-4.1-0.9-5.7c-0.5,0.9-1.3,2.6-2.5,5.1l-2,4.4
		l-1.6,3.7l-0.4,0.8l-1.1-2.1l2.5-5l-0.6-1.2l-2.5,5l-0.8-1.6l2.5-5l-0.6-1.2l-2.5,5l-0.8-1.5L274.4,58L274.4,58z M262.1,78.1h-4.6
		l0.2-0.8c1.3-5.9,2.5-11.8,3.6-17.6c0.5-2.6,0.8-4.7,1.1-6.2c0.3-1.6,0.5-3.4,0.8-5.5c0.3-2.1,0.5-4.1,0.8-5.8l0.1-1.2l3.4,6.3
		l-2.5,5l10.4,19.4c-0.2,0.4-0.3,0.6-0.3,0.8c-0.3,0.6-0.6,1.4-0.9,2.3c-0.8-1.9-1.8-4.1-3-6.4l-3.3-6.5c-1.4-2.6-2.3-4.4-2.8-5.3
		l-0.2,1.1c-0.6,3.8-1.3,8.3-1.9,13.3C262.5,73.4,262.3,75.8,262.1,78.1L262.1,78.1z"/>
	<path class="st2" d="M301.7,78.1l0-0.7c0.2-2.4,0.3-5.5,0.5-9.3c0.1-3.7,0.2-7.7,0.2-11.8c0-5.1-0.1-10.4-0.4-15.9l0-0.9h2.2v36
		h5.2c2.6,0,5-0.1,7.1-0.3c2.1-0.2,4.1-0.5,5.9-0.9c1.9-0.4,3.7-0.9,5.5-1.6l-1.1,5.4H301.7L301.7,78.1z M315.3,38.6v0.2
		c-0.3,6.1-0.4,10.5-0.4,13.3v0.2h10.8V56h-10.8v0.5c0,0.7,0,1.5,0,2.2c0,0.7,0,1.7,0,3.1c0,3.3,0.2,7.1,0.4,11.4l0.1,1.1h-10.1
		v-1.7h4.3v-1.3h-4.3v-1.7h4.3v-1.3h-4.3v-1.7h4.3v-1.3h-4.3v-1.7h4.3v-1.3h-4.3v-1.7h4.3v-1.3h-4.3v-1.7h4.3v-1.3h-4.3v-1.7h4.3
		v-1.3h-4.3v-1.7h4.3v-1.3h-4.3v-1.7h4.3v-1.3h-4.3v-1.7h4.3v-1.3h-4.3v-1.7h4.3v-1.3h-4.3v-1.7h4.3v-1.3h-7.6c0-0.4,0-0.9-0.1-1.8
		c0-0.2,0-0.5,0-0.8H326l1,5.4c-1.6-0.5-3.6-1-6-1.5c-2.4-0.5-4.3-0.8-5.5-0.9L315.3,38.6L315.3,38.6z"/>
	<path class="st2" d="M356.8,39.3l-1.8,4.8c-3.3-4.2-7.1-6.3-11.4-6.3c-2.1,0-4,0.5-5.8,1.6c-1.7,1-3.1,2.5-4,4.3
		c-1,1.8-1.5,3.9-1.5,6.3c0,2.3,0.5,4.3,1.5,5.8c1,1.5,2.6,2.9,4.9,4.2l15,8c-0.3,0.8-0.7,1.6-1.2,2.2L339,62.9
		c-1.7-0.9-3-1.7-3.8-2.3c-0.9-0.6-1.6-1.4-2.2-2.1c-0.6-0.8-1.1-1.6-1.5-2.4c-0.4-0.9-0.7-1.8-0.9-2.8c-0.2-1-0.3-2-0.3-3.2
		c0-2.9,0.6-5.6,1.8-7.9c1.2-2.4,2.9-4.2,5.1-5.5c2.2-1.3,4.6-2,7.3-2c1.1,0,2.1,0.1,3.2,0.3c1,0.2,2.1,0.5,3.1,0.9
		c1,0.4,2.1,0.9,3.2,1.5C355.1,38,356,38.6,356.8,39.3L356.8,39.3z M349.2,64.1l2.3-4.5l-0.9-0.5l-2.3,4.5l-1.3-0.7l2.3-4.5
		l-0.9-0.5l-2.3,4.5l-1.2-0.7l2.3-4.4l-1-0.5l-2.3,4.4l-1.3-0.7l2.3-4.4l-0.9-0.5l-2.3,4.4l-1.2-0.7l2.3-4.4l-0.9-0.5l-2.3,4.4
		c-0.2-0.1-0.3-0.1-0.3-0.2c-0.1,0-0.1-0.1-0.3-0.1c-0.2-0.1-0.4-0.2-0.5-0.2c-0.1,0-0.2-0.1-0.2-0.1l2.3-4.4l-0.9-0.5l-2.3,4.4
		c-0.3-0.2-0.6-0.4-1-0.8l-0.1-0.1l2.2-4.1l-1-0.5l-2,3.8c-0.3-0.4-0.6-0.9-0.9-1.3l1.6-3.1l-0.9-0.5l-1.2,2.4
		c-0.3-1.1-0.5-2.2-0.5-3.4c0-1.2,0.1-2.4,0.4-3.4c0.3-1,0.8-2.1,1.5-3.2l14,7.5l2.1,1.1c1.6,0.9,2.8,1.8,3.8,2.8
		c0.9,1,1.6,2.2,2.1,3.6c0.4,1.4,0.7,3,0.7,4.9c0,4.3-1.3,8.1-4,11.2c-2.6,3.1-6.1,4.7-10.5,4.7c-2.5,0-4.9-0.5-7.4-1.5
		c-2.5-1-4.6-2.4-6.5-4.2l1.9-5c1,1.5,2.3,2.9,3.8,4.1c1.5,1.2,3.1,2.1,4.7,2.8c1.6,0.6,3.2,1,4.8,1c3.8,0,6.8-1.8,9.1-5.5
		c1.4-2.2,2.1-4.8,2.1-7.7c0-0.1,0-0.5,0-1.1l-1-0.5c0.1,0.4,0.1,0.9,0.1,1.4c0,1.3-0.2,2.7-0.6,4.1l-2.9-1.5l2.4-4.5l-1-0.5
		l-2.3,4.5L349.2,64.1L349.2,64.1z"/>
	<path class="st2" d="M362.2,75.5h0.4c0.5,0,0.9-0.2,0.9-0.6c0-0.4-0.3-0.6-0.8-0.6c-0.2,0-0.4,0-0.5,0V75.5L362.2,75.5z
		 M362.1,77.7h-0.9v-3.9c0.4-0.1,0.9-0.1,1.5-0.1c0.7,0,1.1,0.1,1.3,0.3c0.2,0.2,0.4,0.5,0.4,0.8c0,0.5-0.3,0.8-0.8,0.9v0
		c0.4,0.1,0.6,0.4,0.7,0.9c0.1,0.6,0.2,0.8,0.3,0.9h-1c-0.1-0.1-0.2-0.5-0.3-0.9c-0.1-0.4-0.3-0.6-0.8-0.6h-0.4V77.7L362.1,77.7z
		 M362.7,72.6c-1.7,0-3,1.4-3,3.1c0,1.7,1.3,3.1,3,3.1c1.7,0,3-1.4,3-3.1C365.7,74,364.5,72.6,362.7,72.6L362.7,72.6L362.7,72.6z
		 M362.8,71.8c2.2,0,4,1.7,4,3.9c0,2.2-1.7,3.9-4,3.9c-2.2,0-4-1.7-4-3.9C358.8,73.5,360.5,71.8,362.8,71.8L362.8,71.8L362.8,71.8z"
		/>
</g>
</svg>
